<svg width="468" height="374" viewBox="0 0 468 374" fill="none" xmlns="http://www.w3.org/2000/svg">
<path d="M186.942 68.9111V106.241H141.567V68.9111C141.567 67.1333 143.007 65.6932 144.785 65.6932H183.724C185.501 65.6932 186.942 67.1333 186.942 68.9111Z" fill="#DADBD8"/>
<path d="M184.812 85.9668L184.511 72.2623H144.806V80.0817" fill="#F3F2F1"/>
<path d="M181.927 68.557V72.2617H147.236V68.557H181.927Z" fill="#F3F2F1"/>
<path d="M181.927 68.5562C181.931 68.5519 181.876 68.5477 181.764 68.5434C181.631 68.5402 181.464 68.537 181.261 68.5317C180.784 68.5253 180.127 68.5157 179.294 68.5061C177.539 68.4923 175.047 68.4742 171.959 68.4507C165.681 68.4305 156.995 68.4028 147.236 68.3719L147.051 68.3708V68.5562C147.051 69.7364 147.051 70.9912 147.051 72.2587C147.421 72.6337 147.16 72.3631 147.246 72.4462H147.257H147.28H147.324H147.415H147.595H147.954H148.671C149.148 72.4462 149.622 72.4462 150.095 72.4462C151.039 72.4451 151.973 72.4451 152.897 72.4441C154.744 72.4419 156.549 72.4409 158.301 72.4387C161.802 72.4313 165.092 72.4238 168.092 72.4174C174.059 72.3834 178.869 72.3567 181.927 72.3397L182.007 72.3386L182.006 72.2609C181.985 71.0668 181.971 70.1401 181.961 69.4818C181.952 69.1921 181.947 68.961 181.942 68.782C181.936 68.6276 181.931 68.5519 181.927 68.5562C181.921 68.5615 181.917 68.6478 181.911 68.8097C181.906 68.994 181.9 69.2294 181.892 69.5276C181.882 70.1753 181.867 71.087 181.848 72.2609L181.927 72.182C178.869 72.165 174.059 72.1384 168.092 72.1054C165.092 72.0979 161.802 72.0904 158.301 72.083C156.549 72.0809 154.744 72.0787 152.897 72.0777C151.973 72.0766 151.039 72.0766 150.095 72.0755C149.622 72.0755 149.148 72.0755 148.671 72.0755H147.954H147.595H147.415H147.324H147.28H147.257H147.246C147.326 72.1565 147.051 71.8913 147.422 72.2587C147.421 70.9912 147.421 69.7364 147.421 68.5562L147.236 68.7415C156.943 68.7106 165.581 68.6819 171.825 68.6627C174.93 68.6393 177.439 68.6212 179.202 68.6073C180.054 68.5967 180.725 68.5881 181.211 68.5817C181.426 68.5764 181.599 68.5722 181.738 68.569C181.859 68.5647 181.922 68.5604 181.927 68.5562Z" fill="#DADBD8"/>
<path d="M143.2 115.582C143.2 115.684 151.871 115.768 162.563 115.768C173.259 115.768 181.927 115.684 181.927 115.582C181.927 115.479 173.259 115.397 162.563 115.397C151.871 115.397 143.2 115.479 143.2 115.582Z" fill="#DADBD8"/>
<path d="M190.432 79.2294L186.943 106.241H141.567V80.0816H162.174L166.173 76.5665H188.092C189.515 76.5665 190.614 77.817 190.432 79.2294Z" fill="#E7E8E5"/>
<path d="M154.055 90.6604C154.055 90.7626 159.024 90.8457 165.152 90.8457C171.283 90.8457 176.25 90.7626 176.25 90.6604C176.25 90.5581 171.283 90.475 165.152 90.475C159.024 90.475 154.055 90.5581 154.055 90.6604Z" fill="#DADBD8"/>
<path d="M154.055 93.3186C154.055 93.4208 159.024 93.5039 165.152 93.5039C171.283 93.5039 176.25 93.4208 176.25 93.3186C176.25 93.2152 171.283 93.1322 165.152 93.1322C159.024 93.1322 154.055 93.2152 154.055 93.3186Z" fill="#DADBD8"/>
<path d="M152.712 120.632C152.712 120.734 158.148 120.817 164.853 120.817C171.561 120.817 176.997 120.734 176.997 120.632C176.997 120.53 171.561 120.446 164.853 120.446C158.148 120.446 152.712 120.53 152.712 120.632Z" fill="#DADBD8"/>
<path d="M0 373.493C0 373.645 104.639 373.771 233.688 373.771C362.782 373.771 467.399 373.645 467.399 373.493C467.399 373.339 362.782 373.215 233.688 373.215C104.639 373.215 0 373.339 0 373.493Z" fill="#17282F"/>
<path d="M410.458 320.077C410.458 320.077 438.601 287.685 449.221 255.294C459.841 222.903 454.797 226.62 454.797 226.62C454.797 226.62 440.46 258.085 429.574 273.284C418.688 288.482 399.307 310.785 399.307 310.785L410.458 320.077Z" fill="#51916F"/>
<path d="M404.849 231.667C405.757 230.085 408.173 230.907 407.901 232.71C406.185 244.088 402.476 270.789 402.622 288.105C402.811 310.602 402.615 319.297 402.615 319.297H390.902C390.902 319.297 392.981 272.792 395.627 258.614C397.483 248.671 401.422 237.635 404.849 231.667Z" fill="#51906F"/>
<path d="M398.463 315.517C398.463 315.517 391.09 300.015 388.822 280.543C387.857 272.263 389.578 261.072 392.138 246.137C393.378 238.903 393.659 233.4 393.619 229.582C393.589 226.697 389.782 225.756 388.372 228.272C386.958 230.794 382.866 239.412 381.827 244.814C378.992 259.56 375.778 266.932 378.235 280.922C380.693 294.91 389.767 316.462 389.767 316.462L398.463 315.517Z" fill="#51906F"/>
<path d="M387.912 316.462C387.912 316.462 357.012 250.057 354.871 240.206C352.728 230.354 345.447 207.653 344.591 208.938C343.733 210.222 342.448 222.215 348.017 235.923C353.585 249.629 377.361 318.484 377.361 318.484H387.912V316.462Z" fill="#51906F"/>
<path d="M401.847 313.49C401.86 313.507 402.158 313.303 402.713 312.895C403.261 312.479 404.094 311.896 405.106 311.067C407.163 309.452 410.049 306.994 413.411 303.738C420.156 297.26 428.551 287.272 435.828 274.964C443.121 262.659 448.027 250.625 451.131 241.817C452.685 237.406 453.819 233.796 454.554 231.287C454.932 230.037 455.192 229.055 455.374 228.391C455.553 227.728 455.636 227.375 455.614 227.369C455.592 227.362 455.466 227.702 455.247 228.354C455.014 229.064 454.701 230.017 454.309 231.212C453.499 233.694 452.299 237.277 450.692 241.658C447.481 250.409 442.524 262.375 435.261 274.627C428.013 286.883 419.721 296.865 413.084 303.404C409.776 306.691 406.946 309.197 404.944 310.869C403.958 311.725 403.152 312.341 402.631 312.79C402.103 313.231 401.833 313.472 401.847 313.49Z" fill="#17282F"/>
<path d="M398.466 281.634C398.511 281.637 398.608 280.941 398.743 279.686C398.89 278.311 399.082 276.519 399.313 274.361C399.802 269.87 400.565 263.673 401.657 256.869C402.754 250.061 403.971 243.937 404.914 239.518C405.371 237.397 405.751 235.636 406.042 234.285C406.307 233.048 406.433 232.359 406.389 232.348C406.345 232.336 406.135 233.004 405.793 234.223C405.446 235.44 404.989 237.214 404.459 239.415C403.398 243.815 402.105 249.94 401.005 256.763C399.911 263.584 399.219 269.805 398.848 274.316C398.661 276.572 398.54 278.4 398.487 279.665C398.43 280.93 398.421 281.63 398.466 281.634Z" fill="#17282F"/>
<path d="M391.228 227.751C391.207 227.743 391.081 228.033 390.863 228.595C390.628 229.22 390.321 230.038 389.937 231.061C389.528 232.131 389.058 233.45 388.611 235.015C388.151 236.574 387.556 238.332 387.109 240.331C386.864 241.328 386.609 242.37 386.343 243.454C386.084 244.542 385.9 245.691 385.664 246.872C385.159 249.231 384.847 251.787 384.472 254.47C383.868 259.853 383.538 265.814 383.734 272.068C383.985 278.321 384.742 284.245 385.73 289.572C386.296 292.222 386.79 294.75 387.463 297.066C387.783 298.226 388.049 299.36 388.386 300.426C388.729 301.488 389.058 302.51 389.373 303.486C389.962 305.448 390.682 307.16 391.252 308.682C391.809 310.211 392.373 311.492 392.857 312.53C393.313 313.522 393.678 314.317 393.957 314.924C394.215 315.467 394.361 315.749 394.381 315.739C394.402 315.729 394.297 315.43 394.078 314.87C393.829 314.252 393.501 313.441 393.093 312.431C392.646 311.379 392.12 310.087 391.596 308.551C391.061 307.022 390.375 305.306 389.817 303.343C389.516 302.367 389.201 301.345 388.875 300.284C388.552 299.218 388.3 298.087 387.992 296.928C387.346 294.618 386.874 292.099 386.328 289.459C385.377 284.155 384.644 278.263 384.393 272.044C384.199 265.826 384.508 259.898 385.076 254.539C385.433 251.869 385.722 249.322 386.201 246.972C386.425 245.794 386.596 244.647 386.841 243.562C387.091 242.48 387.332 241.438 387.562 240.444C387.978 238.445 388.54 236.685 388.965 235.121C389.377 233.551 389.809 232.224 390.18 231.144C390.515 230.106 390.784 229.275 390.988 228.641C391.166 228.066 391.249 227.758 391.228 227.751Z" fill="#17282F"/>
<path d="M344.945 210.271C344.934 210.272 344.942 210.373 344.969 210.568C345.006 210.803 345.051 211.085 345.106 211.431C345.242 212.186 345.413 213.308 345.715 214.736C346.312 217.592 347.306 221.705 348.852 226.692C350.39 231.68 352.502 237.529 355.005 243.955C357.497 250.384 360.395 257.387 363.138 264.843C365.924 272.288 368.07 279.553 370.086 286.146C372.084 292.744 373.98 298.666 375.813 303.556C377.626 308.451 379.373 312.307 380.691 314.911C381.323 316.226 381.893 317.207 382.26 317.883C382.433 318.187 382.576 318.435 382.693 318.642C382.793 318.812 382.849 318.894 382.859 318.889C382.87 318.884 382.833 318.789 382.752 318.61C382.65 318.396 382.528 318.137 382.378 317.82C382.049 317.126 381.517 316.128 380.922 314.799C379.678 312.168 378.003 308.297 376.25 303.394C374.479 298.499 372.634 292.576 370.668 285.97C368.685 279.372 366.551 272.081 363.757 264.615C361.008 257.141 358.093 250.144 355.571 243.734C353.04 237.326 350.889 231.508 349.297 226.55C347.698 221.595 346.638 217.514 345.966 214.681C345.626 213.264 345.415 212.153 345.236 211.407C345.155 211.066 345.09 210.787 345.035 210.557C344.987 210.365 344.956 210.269 344.945 210.271Z" fill="#17282F"/>
<path d="M440.228 195.604C442.175 193.669 445.414 195.692 444.608 198.317C443.791 200.977 442.553 204.418 440.725 208.302C436.478 217.328 423.998 249.72 418.158 267.508C412.316 285.297 404.086 318.484 404.086 318.484L391.613 316.462C391.613 316.462 403.024 261.933 414.175 242.285C423.134 226.499 432.095 203.685 440.228 195.604Z" fill="#51906F"/>
<path d="M414.744 278.634C414.701 278.619 414.474 279.152 414.101 280.129C413.732 281.107 413.229 282.535 412.663 284.317C411.514 287.874 410.109 292.845 408.692 298.366C407.28 303.89 406.103 308.914 405.283 312.557C404.908 314.28 404.594 315.728 404.344 316.88C404.136 317.903 404.042 318.475 404.086 318.484C404.13 318.496 404.309 317.944 404.594 316.94C404.898 315.802 405.281 314.371 405.736 312.666C406.69 308.915 407.944 303.984 409.332 298.53C410.747 293.015 412.078 288.036 413.11 284.452C413.602 282.76 414.016 281.339 414.345 280.21C414.642 279.21 414.787 278.649 414.744 278.634Z" fill="#17282F"/>
<path d="M397.819 317.473C397.83 317.474 397.854 317.362 397.89 317.141C397.927 316.881 397.974 316.559 398.031 316.158C398.162 315.296 398.279 314.015 398.542 312.381C399 309.105 399.817 304.383 401.157 298.622C402.488 292.861 404.431 286.083 406.996 278.696C409.554 271.305 412.763 263.32 416.4 255.057C423.738 238.55 431.068 223.908 435.885 213.08C438.32 207.68 440.205 203.271 441.446 200.198C442.08 198.668 442.533 197.464 442.849 196.651C442.99 196.273 443.104 195.967 443.196 195.721C443.27 195.51 443.303 195.4 443.293 195.396C443.282 195.392 443.228 195.494 443.133 195.695C443.026 195.935 442.892 196.232 442.726 196.601C442.359 197.447 441.853 198.616 441.21 200.1C439.897 203.138 437.948 207.516 435.461 212.887C430.539 223.655 423.145 238.259 415.796 254.79C412.154 263.067 408.954 271.077 406.42 278.497C403.881 285.915 401.98 292.726 400.703 298.518C399.417 304.308 398.668 309.055 398.288 312.348C398.063 313.99 397.987 315.277 397.899 316.144C397.868 316.547 397.843 316.873 397.823 317.134C397.809 317.358 397.808 317.472 397.819 317.473Z" fill="#17282F"/>
<path d="M391.612 316.462C391.657 316.468 391.805 315.722 392.032 314.366C392.281 312.901 392.608 310.969 393.004 308.632C393.863 303.799 395.176 297.143 397.063 289.897C398.931 282.646 401.035 276.195 402.654 271.563C403.449 269.329 404.107 267.483 404.605 266.083C405.072 264.791 405.311 264.068 405.268 264.052C405.226 264.035 404.907 264.726 404.366 265.99C403.828 267.256 403.077 269.099 402.216 271.403C400.481 276.004 398.298 282.456 396.424 289.732C394.531 297.001 393.287 303.695 392.543 308.556C392.188 310.99 391.916 312.962 391.778 314.33C391.628 315.698 391.567 316.457 391.612 316.462Z" fill="#17282F"/>
<path d="M414.698 373.99H366.01V314.671H414.698V373.99Z" fill="#F2575D"/>
<path d="M366.01 373.99H414.698V314.671H366.01V373.265V373.723V373.99Z" fill="#1675BD"/>
<path d="M381.542 373.99H424.737V314.671H381.542V373.99Z" fill="#1886D9"/>
<path d="M81.4744 182.699L107.072 178.985L158.276 186.562L172.648 191.641L170.098 223.065L120.87 232.134L87.6493 222.29L75.0909 203.811L81.4744 182.699Z" fill="#FF8B7B"/>
<path d="M65.3422 185.703L86.765 180.656C86.765 180.656 101.909 227.476 139.287 225.46C169.751 223.818 170.098 189.814 170.098 189.814L192.055 196.846C192.055 196.846 200.453 253.16 191.158 293.054C188.986 302.377 186.077 314.943 186.077 314.943L189.045 373.235L26.6742 373.494L65.3422 185.703Z" fill="#385AA4"/>
<path d="M28.5911 364.18L29.3091 360.69L28.9139 360.637L28.3259 364.038C28.4143 364.086 28.5027 364.133 28.5911 364.18Z" fill="#A7A9A8"/>
<path d="M47.3766 368.434C50.4805 368.434 53.594 368.16 56.6404 367.679C63.6621 366.572 70.4878 364.432 77.503 363.276C83.484 362.291 89.5416 362.028 95.611 362.028C99.0398 362.028 102.474 362.112 105.898 362.196C106.925 362.221 107.943 362.232 108.952 362.232C111.824 362.232 114.636 362.145 117.446 362.058C120.257 361.97 123.067 361.883 125.939 361.883C126.947 361.883 127.965 361.893 128.991 361.919L69.5227 349.818C67.7726 355.633 64.8785 360.491 56.3039 362.461C54.2033 362.944 52.057 363.165 49.9075 363.165C48.4237 363.165 46.9378 363.06 45.4636 362.861L29.3091 360.692L28.5912 364.181C34.3346 367.22 40.8332 368.434 47.3766 368.434Z" fill="#385AA4"/>
<path d="M210.386 209.963C202.961 200.371 190.612 196.381 190.612 196.381L182.308 268.703L198.039 374L249.568 373.756C249.568 373.756 221.146 223.865 210.386 209.963Z" fill="#385AA4"/>
<path d="M67.8453 185.168C67.8453 185.168 33.1621 187.947 20.7187 244.769C15.0893 270.471 7.97711 300.593 5.92771 320.837C4.44073 335.519 12.4221 358.508 27.0597 360.388L45.4639 362.86C49.0737 363.345 52.7539 363.276 56.3042 362.46C67.9274 359.791 69.1108 351.815 71.1591 343.339L76.5318 326.381C79.4696 310.255 64.4453 307.247 56.1476 307.427L62.3341 233.818L67.8453 185.168Z" fill="#385AA4"/>
<path d="M194.906 236.59C194.925 236.588 194.98 236.859 195.065 237.384C195.153 237.96 195.268 238.721 195.414 239.673C195.487 240.176 195.566 240.729 195.652 241.33C195.715 241.942 195.782 242.604 195.854 243.311C195.998 244.733 196.172 246.353 196.246 248.151C196.509 251.743 196.504 256.036 196.331 260.792C196.131 265.549 195.591 270.761 194.797 276.192C194 281.628 192.997 286.764 191.98 291.409C190.982 296.06 189.959 300.217 189.095 303.706C188.212 307.191 187.48 310.005 186.949 311.945C186.692 312.871 186.486 313.613 186.329 314.174C186.182 314.683 186.096 314.948 186.077 314.942C186.059 314.938 186.109 314.663 186.222 314.146C186.353 313.58 186.524 312.83 186.741 311.892C187.22 309.878 187.891 307.065 188.714 303.613C189.527 300.114 190.51 295.951 191.48 291.303C192.468 286.659 193.453 281.53 194.247 276.111C195.039 270.695 195.593 265.504 195.821 260.767C196.02 256.032 196.066 251.755 195.854 248.173C195.805 246.378 195.659 244.761 195.545 243.34C195.49 242.633 195.438 241.971 195.39 241.359C195.321 240.758 195.257 240.203 195.2 239.698C195.098 238.743 195.016 237.977 194.954 237.398C194.904 236.871 194.887 236.593 194.906 236.59Z" fill="#17282F"/>
<path d="M28.9369 327.345C28.905 327.338 28.9806 326.824 29.2107 325.916C29.4386 325.006 29.8594 323.71 30.5507 322.177C31.9077 319.123 34.5877 315.127 38.7717 312.081C42.9578 309.034 47.586 307.713 50.9083 307.362C52.5795 307.174 53.9419 307.173 54.8771 307.236C55.8124 307.296 56.3247 307.382 56.3215 307.414C56.3205 307.452 56.0872 307.45 55.6526 307.448C54.7919 307.444 53.143 307.44 50.9583 307.75C47.6957 308.197 43.19 309.551 39.0987 312.529C35.0084 315.507 32.3338 319.378 30.9054 322.344C29.4514 325.328 29.0456 327.377 28.9369 327.345Z" fill="#17282F"/>
<path d="M36.954 299.038C36.954 298.999 37.2512 298.974 37.7923 298.959C38.3324 298.938 39.1153 298.968 40.0782 299.061C42.0019 299.241 44.6531 299.78 47.3959 300.902C50.1366 302.036 52.4001 303.518 53.8935 304.743C54.6423 305.355 55.2207 305.883 55.5903 306.278C55.9642 306.67 56.157 306.897 56.1304 306.925C56.0654 306.992 55.193 306.183 53.6549 305.054C52.12 303.923 49.8725 302.527 47.185 301.417C44.4955 300.315 41.9146 299.727 40.0292 299.449C38.1417 299.169 36.9519 299.131 36.954 299.038Z" fill="#17282F"/>
<path d="M72.8571 225.46C72.8198 225.458 72.7921 224.918 72.774 223.941C72.7665 222.965 72.7101 221.553 72.5908 219.816C72.3585 216.34 71.7131 211.551 70.2836 206.432C68.8403 201.312 66.8985 196.888 65.2879 193.8C64.4858 192.254 63.7988 191.018 63.296 190.181C62.805 189.339 62.5461 188.862 62.5781 188.84C62.6101 188.82 62.9296 189.257 63.4803 190.067C64.0395 190.873 64.7819 192.082 65.6341 193.614C67.3426 196.674 69.3612 201.118 70.8172 206.28C72.2606 211.447 72.8496 216.291 72.9827 219.793C73.053 221.545 73.0488 222.965 72.9891 223.943C72.9401 224.922 72.8954 225.461 72.8571 225.46Z" fill="#17282F"/>
<path d="M139.287 277.049C139.305 277.055 139.25 277.261 139.131 277.647C139 278.03 138.848 278.611 138.556 279.324C138.021 280.768 137.099 282.811 135.666 285.17C134.239 287.531 132.234 290.171 129.604 292.71C126.98 295.251 123.692 297.645 119.892 299.492C116.073 301.304 112.148 302.372 108.524 302.832C104.896 303.298 101.583 303.211 98.8483 302.848C96.1108 302.492 93.941 301.933 92.4796 301.448C91.7414 301.231 91.1929 300.987 90.8126 300.849C90.4356 300.701 90.2406 300.615 90.247 300.597C90.2641 300.55 91.0693 300.825 92.5414 301.241C94.0124 301.661 96.18 302.154 98.8941 302.459C104.28 303.099 112.102 302.612 119.652 298.993C127.194 295.365 132.465 289.565 135.333 284.962C136.793 282.654 137.763 280.654 138.355 279.243C138.952 277.833 139.24 277.033 139.287 277.049Z" fill="#17282F"/>
<path d="M66.1899 356.989C66.1345 356.94 65.5892 357.712 64.295 358.779C62.9944 359.828 60.8449 361.042 57.9465 361.809C55.0599 362.602 51.4607 362.93 47.5014 362.727C43.54 362.441 39.1707 361.977 34.6288 361.304C30.1007 360.6 25.7505 359.785 22.064 358.409C20.2532 357.656 18.7363 356.506 17.4475 355.325C16.1607 354.131 15.0956 352.873 14.2179 351.659C12.4593 349.228 11.3643 347.037 10.674 345.506C10.3438 344.734 10.085 344.133 9.93163 343.717C9.76759 343.304 9.67278 343.089 9.65467 343.096C9.63656 343.102 9.69516 343.328 9.82511 343.753C9.94654 344.182 10.1723 344.799 10.4759 345.592C11.1086 347.157 12.1578 349.396 13.8994 351.888C14.7675 353.133 15.8316 354.426 17.1333 355.662C18.4381 356.883 19.9836 358.081 21.8637 358.879C25.6536 360.322 29.9857 361.14 34.5457 361.851C39.1121 362.53 43.4772 362.979 47.4759 363.238C51.4841 363.415 55.1281 363.042 58.052 362.188C60.9855 361.359 63.1542 360.062 64.4324 358.947C65.0555 358.364 65.5253 357.902 65.7862 357.535C66.0674 357.187 66.2059 356.999 66.1899 356.989Z" fill="#17282F"/>
<path d="M71.9142 243.57C71.7662 243.534 68.1094 257.733 63.7475 275.28C59.3857 292.834 55.9707 307.089 56.1188 307.127C56.2679 307.163 59.9225 292.968 64.2865 275.415C68.6474 257.866 72.0634 243.607 71.9142 243.57Z" fill="#17282F"/>
<path d="M76.3314 323.7C76.3677 323.702 76.4348 323.288 76.5072 322.533C76.5711 321.778 76.6755 320.68 76.5817 319.308C76.5019 317.941 76.0364 316.284 75.0234 314.76C74.5196 314.003 73.9625 313.228 73.2424 312.524C72.5309 311.819 71.6851 311.217 70.7787 310.69C67.0846 308.68 63.364 307.841 60.6829 307.43C59.3366 307.24 58.2373 307.166 57.4789 307.147C56.7194 307.125 56.2997 307.156 56.2987 307.19C56.2934 307.282 57.9699 307.344 60.6201 307.819C63.2447 308.316 66.9238 309.221 70.5017 311.17C71.3762 311.68 72.1868 312.253 72.8654 312.914C73.5428 313.565 74.0988 314.319 74.5963 315.039C75.5901 316.491 76.062 318.022 76.1908 319.345C76.3314 320.671 76.291 321.768 76.292 322.522C76.2856 323.277 76.292 323.698 76.3314 323.7Z" fill="#17282F"/>
<path d="M193.491 283.989C202.16 269.046 202.293 249.735 194.627 234.245C194.745 235.092 194.856 235.939 194.96 236.787C194.986 236.92 195.021 237.12 195.064 237.383C195.153 237.96 195.268 238.721 195.414 239.673C195.486 240.176 195.565 240.729 195.651 241.33C195.714 241.942 195.781 242.604 195.854 243.311C195.998 244.733 196.171 246.353 196.246 248.151C196.509 251.743 196.504 256.036 196.331 260.792C196.131 265.549 195.591 270.761 194.796 276.192C194.403 278.871 193.96 281.477 193.491 283.989Z" fill="#385AA4"/>
<path d="M193.309 284.3C193.369 284.197 193.431 284.092 193.492 283.989C193.96 281.477 194.404 278.871 194.797 276.192C195.591 270.76 196.131 265.549 196.331 260.791C196.504 256.035 196.509 251.743 196.246 248.151C196.172 246.353 195.998 244.733 195.854 243.311C195.782 242.604 195.715 241.942 195.652 241.33C195.566 240.729 195.487 240.176 195.414 239.672C195.268 238.721 195.153 237.959 195.065 237.383C195.021 237.12 194.986 236.92 194.961 236.787C196.902 252.587 196.554 268.712 193.048 284.235L193.309 284.3Z" fill="#0F191D"/>
<path d="M146.473 321.71L146.409 321.74L146.473 321.71Z" fill="#F8A58D"/>
<path d="M146.093 321.892L145.951 321.958L146.093 321.892Z" fill="#F8A58D"/>
<path d="M146.409 321.74C146.286 321.799 146.177 321.85 146.093 321.892C146.201 321.839 146.314 321.785 146.409 321.74Z" fill="#F8A58D"/>
<path d="M146.612 321.643L146.471 321.711L146.612 321.643Z" fill="#F8A58D"/>
<path d="M179.19 351.57C176.407 346.304 154.646 332.414 154.646 332.414L160.537 331.054L167.039 333.804C167.039 333.804 167.447 336.485 169.838 339.896C172.231 343.307 176.29 339.78 176.29 339.78L173.541 326.607L160.673 318.862C160.673 318.862 148.568 320.712 146.612 321.643L141.451 326.368C139.187 328.143 132.648 335.143 130.858 335.355C129.07 335.566 72.9039 322.932 72.9039 322.932C65.2038 329.03 61.1455 341.146 59.9226 349.884C59.9226 349.884 58.5528 354.177 60.043 356.507L128.992 361.918L143.602 365.955C143.602 365.955 151.685 369.255 155.606 370.08C160.468 371.101 163.742 369.534 163.872 366.844C164.003 364.152 160.233 363.862 160.233 363.862C160.233 363.862 154.1 361.642 150.839 359.729C147.577 357.817 145.535 353.91 145.535 353.91L150.744 354.533C150.744 354.533 161.817 362.22 165.981 364.475C170.145 366.73 170.966 362.592 171.302 361.331C171.637 360.07 158.864 347.575 158.864 347.575C158.864 347.575 171.01 355.063 173.193 356.952C175.379 358.841 178.616 359.406 179.311 358.139C180.004 356.871 181.975 356.835 179.19 351.57Z" fill="#FF8B7B"/>
<path d="M145.952 321.957L145.829 322.017L145.952 321.957Z" fill="#F8A58D"/>
<path d="M145.83 322.015L145.762 322.048L145.83 322.015Z" fill="#F8A58D"/>
<path d="M119.269 352.787C119.234 352.788 119.212 352.487 119.205 351.934C119.187 351.656 119.216 351.32 119.271 350.931C119.308 350.539 119.377 350.095 119.511 349.619C119.945 347.68 121.191 345.185 123.039 342.816C124.888 340.441 126.876 338.579 128.353 337.294C129.835 336.015 130.817 335.304 130.858 335.355C130.908 335.414 130.008 336.221 128.595 337.562C127.188 338.907 125.259 340.792 123.444 343.128C121.626 345.46 120.371 347.852 119.86 349.712C119.319 351.565 119.375 352.79 119.269 352.787Z" fill="#F68260"/>
<path d="M154.143 332.004C154.165 332.13 152.428 332.35 150.43 331.669C148.424 331.005 147.174 329.784 147.267 329.695C147.36 329.572 148.69 330.559 150.593 331.186C152.486 331.834 154.143 331.849 154.143 332.004Z" fill="#F68260"/>
<path d="M157.759 346.425C157.706 346.555 155.225 345.658 152.22 344.422C149.214 343.186 146.822 342.078 146.874 341.947C146.928 341.817 149.408 342.713 152.415 343.951C155.42 345.186 157.813 346.295 157.759 346.425Z" fill="#F68260"/>
<path d="M146.091 353.792C146.023 353.92 144.787 353.386 143.25 352.787C141.714 352.184 140.445 351.74 140.481 351.599C140.514 351.466 141.868 351.696 143.437 352.312C145.006 352.922 146.157 353.671 146.091 353.792Z" fill="#F68260"/>
<path d="M155.967 347.386C156.023 347.526 154.761 347.994 153.82 349.261C152.849 350.508 152.734 351.849 152.584 351.833C152.521 351.831 152.456 351.487 152.542 350.935C152.625 350.386 152.894 349.636 153.413 348.953C153.935 348.269 154.585 347.811 155.091 347.584C155.602 347.355 155.95 347.325 155.967 347.386Z" fill="#F68260"/>
<path d="M161.078 339.337C161.145 339.47 160.193 339.986 159.565 341.09C158.911 342.178 158.932 343.262 158.782 343.268C158.653 343.316 158.382 342.087 159.124 340.832C159.852 339.57 161.056 339.201 161.078 339.337Z" fill="#F68260"/>
<path d="M159.345 324.959C159.289 324.987 159.089 324.746 158.938 324.274C158.785 323.804 158.718 323.097 158.895 322.355C159.076 321.613 159.46 321.014 159.81 320.668C160.161 320.317 160.449 320.194 160.486 320.244C160.583 320.356 159.696 321.135 159.392 322.475C159.051 323.806 159.482 324.904 159.345 324.959Z" fill="#F68260"/>
<path d="M59.4328 358.481C59.4711 358.481 59.502 357.916 59.5244 356.898C59.5308 356.388 59.5446 355.766 59.5968 355.045C59.6448 354.324 59.6618 353.501 59.7673 352.598C60.0815 348.983 60.8878 343.992 62.7774 338.781C63.7372 336.184 64.8726 333.801 66.0454 331.71C66.677 330.693 67.232 329.696 67.8679 328.839C68.1736 328.404 68.4687 327.982 68.7541 327.575C69.0598 327.19 69.3549 326.819 69.6393 326.462C71.9284 323.644 73.6838 322.204 73.6007 322.114C73.5762 322.084 73.1384 322.439 72.364 323.109C71.9688 323.437 71.5065 323.858 71.0091 324.39C70.5042 324.913 69.9067 325.492 69.3368 326.211C69.0407 326.564 68.7328 326.934 68.4133 327.315C68.1076 327.711 67.8104 328.14 67.4919 328.575C66.8326 329.431 66.2552 330.43 65.6033 331.454C64.3922 333.556 63.2259 335.964 62.2566 338.591C60.3435 343.863 59.5915 348.921 59.3763 352.568C59.2954 353.48 59.3039 354.309 59.2869 355.036C59.2634 355.761 59.2815 356.387 59.3082 356.899C59.3518 357.92 59.3934 358.483 59.4328 358.481Z" fill="#17282F"/>
<path d="M56.2061 307.354C56.1887 307.35 56.1703 307.347 56.153 307.343L56.1519 307.352C56.1703 307.352 56.1887 307.354 56.2061 307.354Z" fill="#CC4341"/>
<path d="M26.0066 327.883C27.2752 327.883 28.1679 326.43 28.6365 325.185C29.952 321.699 32.0185 318.549 34.6111 315.899C35.7839 314.558 37.1675 313.25 38.7717 312.082C42.9578 309.035 47.586 307.714 50.9083 307.362C51.9714 307.243 52.9098 307.199 53.6927 307.199C54.1401 307.199 54.5374 307.213 54.8772 307.237C55.3895 307.27 55.774 307.31 56.0169 307.345C56.0627 307.347 56.1074 307.351 56.1532 307.353L56.1543 307.344C53.8599 306.839 51.4739 306.59 49.0709 306.59C44.5258 306.59 39.9221 307.481 35.7743 309.214C29.4173 311.87 23.9604 317.832 23.9668 324.721C23.9679 326.04 24.4536 327.671 25.7563 327.865C25.8415 327.877 25.9246 327.883 26.0066 327.883Z" fill="#385AA4"/>
<path d="M34.6108 315.898C39.7865 310.607 47.0574 307.308 54.6244 307.308C55.0878 307.308 55.5522 307.319 56.0166 307.345C55.7737 307.31 55.3892 307.269 54.8769 307.236C54.5371 307.213 54.1398 307.199 53.6924 307.199C52.9095 307.199 51.9711 307.243 50.908 307.362C47.5857 307.714 42.9576 309.034 38.7714 312.082C37.1673 313.249 35.7836 314.557 34.6108 315.898Z" fill="#0F191D"/>
<path d="M195.321 231.717C195.336 231.753 195.663 231.641 196.243 231.408C196.823 231.179 197.645 230.806 198.645 230.31C200.643 229.319 203.324 227.77 206.069 225.746C208.811 223.716 211.08 221.607 212.612 219.988C213.382 219.179 213.978 218.501 214.368 218.013C214.761 217.529 214.963 217.249 214.935 217.224C214.869 217.167 213.93 218.173 212.334 219.711C210.741 221.249 208.455 223.289 205.739 225.299C203.021 227.305 200.4 228.891 198.462 229.964C196.523 231.037 195.285 231.638 195.321 231.717Z" fill="white"/>
<path d="M72.3572 235.731C72.353 235.74 72.4435 235.8 72.6267 235.914C72.8376 236.04 73.106 236.201 73.4437 236.403C74.1584 236.841 75.2417 237.433 76.6499 238.175C79.4694 239.643 83.6704 241.564 89.0624 243.396C94.4532 245.224 101.046 246.899 108.482 248.065C115.917 249.24 124.181 249.879 132.853 250.087C141.532 250.296 149.796 250.132 157.308 249.963C164.823 249.782 171.594 249.309 177.225 248.46C182.859 247.617 187.328 246.432 190.341 245.413C191.849 244.902 193.006 244.474 193.777 244.141C194.139 243.989 194.428 243.869 194.655 243.775C194.851 243.689 194.95 243.641 194.946 243.632C194.943 243.623 194.838 243.654 194.633 243.722C194.402 243.803 194.107 243.907 193.735 244.037C192.955 244.335 191.788 244.73 190.274 245.207C187.251 246.16 182.786 247.282 177.169 248.072C171.552 248.868 164.801 249.299 157.296 249.453C149.789 249.593 141.528 249.74 132.867 249.534C124.211 249.325 115.973 248.703 108.56 247.559C101.148 246.426 94.5725 244.797 89.187 243.024C83.7993 241.248 79.5898 239.388 76.7457 237.982C75.3269 237.271 74.2298 236.711 73.4991 236.306C73.1497 236.124 72.8728 235.978 72.6555 235.865C72.4637 235.768 72.3625 235.722 72.3572 235.731Z" fill="white"/>
<path d="M194.946 273.652C194.958 273.689 195.428 273.586 196.268 273.37C197.214 273.112 198.401 272.787 199.813 272.401C202.799 271.561 206.913 270.362 211.447 269.006C215.982 267.65 220.08 266.392 223.037 265.454C224.428 265 225.599 264.62 226.531 264.318C227.352 264.036 227.801 263.864 227.79 263.828C227.778 263.791 227.309 263.893 226.468 264.11C225.522 264.369 224.335 264.693 222.924 265.079C219.937 265.92 215.824 267.118 211.288 268.474C206.754 269.831 202.658 271.088 199.701 272.025C198.309 272.478 197.139 272.858 196.206 273.163C195.385 273.443 194.936 273.615 194.946 273.652Z" fill="white"/>
<path d="M191.848 332.561C191.892 332.708 202.527 329.657 215.601 325.746C228.679 321.834 239.243 318.545 239.198 318.397C239.154 318.252 228.521 321.303 215.441 325.214C202.369 329.125 191.803 332.414 191.848 332.561Z" fill="white"/>
<path d="M37.895 205.193C37.8727 205.224 38.2913 205.552 39.0667 206.117C39.8411 206.687 40.9872 207.474 42.4274 208.411C45.3055 210.288 49.4 212.71 54.1081 215.024C58.8193 217.336 63.2398 219.095 66.4843 220.226C68.1055 220.792 69.4285 221.218 70.3531 221.483C71.2755 221.75 71.7911 221.881 71.8028 221.845C71.8145 221.808 71.3213 221.607 70.4212 221.278C69.4232 220.904 68.1471 220.428 66.6196 219.858C63.4198 218.636 59.043 216.828 54.352 214.528C49.6652 212.222 45.559 209.866 42.6361 208.079C41.2503 207.219 40.0925 206.501 39.1881 205.938C38.3765 205.429 37.9163 205.162 37.895 205.193Z" fill="white"/>
<path d="M16.6765 265.71C16.6605 265.746 17.2762 266.035 18.4042 266.531C19.529 267.033 21.1832 267.696 23.2507 268.456C27.3815 269.979 33.2166 271.771 39.8143 273.088C46.4162 274.395 52.4941 274.971 56.8933 275.145C59.0929 275.234 60.876 275.254 62.1063 275.221C63.3376 275.197 64.0172 275.165 64.0161 275.127C64.0161 275.088 63.3376 275.047 62.1084 275.006C60.8813 274.973 59.1046 274.891 56.9135 274.753C52.5335 274.479 46.4929 273.844 39.9218 272.544C33.3561 271.233 27.5317 269.51 23.3807 268.085C21.3047 267.375 19.6313 266.769 18.4852 266.329C17.3348 265.898 16.6914 265.675 16.6765 265.71Z" fill="white"/>
<path d="M47.3504 362.519C47.3685 362.515 47.3493 362.312 47.295 361.926C47.2257 361.481 47.1384 360.926 47.0319 360.248C46.9009 359.523 46.7571 358.634 46.658 357.59C46.5504 356.55 46.3672 355.372 46.3204 354.055C46.2809 353.397 46.2383 352.709 46.1957 351.993C46.1563 351.276 46.1776 350.529 46.1659 349.756C46.1179 348.21 46.2309 346.56 46.3118 344.824C46.5802 341.359 47.1054 337.565 48.0289 333.66C48.9907 329.762 50.254 326.147 51.5972 322.941C52.3183 321.359 52.9702 319.839 53.7191 318.484C54.0833 317.802 54.405 317.127 54.7682 316.507C55.1315 315.891 55.483 315.298 55.8196 314.73C56.4629 313.58 57.1638 312.616 57.7348 311.739C58.2972 310.856 58.8319 310.132 59.2793 309.546C59.684 308.99 60.0132 308.536 60.2784 308.173C60.5031 307.855 60.6139 307.682 60.599 307.67C60.5852 307.657 60.4456 307.807 60.1921 308.102C59.9045 308.45 59.5466 308.885 59.1078 309.415C58.6327 309.982 58.0703 310.692 57.4802 311.562C56.8815 312.425 56.154 313.38 55.4851 314.524C55.1368 315.09 54.7746 315.68 54.3954 316.295C54.0205 316.913 53.6882 317.587 53.3122 318.27C52.541 319.626 51.8678 321.148 51.1285 322.737C49.7491 325.957 48.4592 329.599 47.4899 333.53C46.5589 337.469 46.0434 341.296 45.8016 344.791C45.7345 346.541 45.6365 348.204 45.7057 349.762C45.7281 350.54 45.7164 351.293 45.7675 352.014C45.824 352.733 45.8772 353.424 45.9294 354.085C46.0018 355.409 46.2127 356.591 46.3512 357.633C46.479 358.677 46.6548 359.565 46.8199 360.286C46.9669 360.958 47.0894 361.509 47.1853 361.949C47.2758 362.327 47.3312 362.524 47.3504 362.519Z" fill="white"/>
<path d="M6.19751 329.87C6.25822 329.873 6.28484 329.002 6.52663 327.468C6.75458 325.932 7.35961 323.735 8.61652 321.262C9.85958 318.784 11.893 316.112 14.6358 313.677C17.385 311.254 20.8788 309.105 24.8679 307.691C28.8761 306.304 32.9217 305.747 36.5965 305.622C40.2767 305.495 43.6001 305.729 46.3802 305.989C49.1603 306.252 51.4067 306.53 52.9608 306.707C53.6894 306.785 54.2838 306.849 54.7525 306.899C55.1636 306.938 55.3798 306.948 55.383 306.93C55.3852 306.911 55.1732 306.862 54.7684 306.789C54.3019 306.711 53.7128 306.613 52.9907 306.492C51.4451 306.25 49.204 305.913 46.4196 305.599C43.6352 305.288 40.298 305.012 36.5795 305.112C32.8695 305.209 28.7622 305.756 24.6847 307.167C20.6211 308.608 17.0751 310.808 14.2971 313.295C11.5245 315.793 9.4878 318.54 8.26711 321.085C7.03151 323.625 6.47867 325.873 6.3125 327.436C6.1751 328.21 6.21984 328.829 6.18576 329.239C6.1751 329.652 6.17834 329.869 6.19751 329.87Z" fill="white"/>
<path d="M120.792 299.037C120.791 299.056 120.998 299.09 121.394 299.137C121.852 299.185 122.425 299.245 123.128 299.317C124.714 299.451 126.879 299.632 129.518 299.853C134.917 300.271 142.379 300.779 150.63 301.21C158.882 301.643 166.36 301.901 171.777 301.96C174.484 301.979 176.677 301.989 178.191 301.94C178.897 301.918 179.475 301.899 179.935 301.884C180.332 301.866 180.542 301.847 180.541 301.828C180.541 301.809 180.331 301.789 179.934 301.774C179.474 301.76 178.897 301.744 178.191 301.725C176.602 301.685 174.431 301.632 171.785 301.568C166.376 301.409 158.906 301.089 150.659 300.655C142.448 300.192 135.018 299.771 129.546 299.461C126.9 299.313 124.732 299.191 123.144 299.102C122.438 299.071 121.862 299.046 121.402 299.027C121.003 299.015 120.793 299.018 120.792 299.037Z" fill="white"/>
<path d="M109.333 309.592C111.444 309.592 113.564 309.312 115.61 308.747C120.488 307.399 125.15 304.039 128.383 299.759C126.254 299.58 124.48 299.432 123.128 299.318C122.425 299.246 121.852 299.186 121.394 299.138C121.01 299.093 120.804 299.059 120.792 299.039C120.496 299.193 120.196 299.345 119.892 299.492C116.074 301.303 112.148 302.372 108.525 302.831C106.787 303.055 105.12 303.151 103.556 303.151C101.855 303.151 100.273 303.037 98.8487 302.848C96.1112 302.491 93.9414 301.933 92.48 301.447C92.3628 301.413 92.251 301.378 92.1434 301.343C96.0516 306.79 102.652 309.592 109.333 309.592ZM128.641 299.411C130.857 296.37 132.352 292.889 132.705 289.347C131.788 290.465 130.756 291.598 129.605 292.71C127.194 295.043 124.224 297.253 120.813 299.03C120.845 299.023 120.916 299.02 121.025 299.02C121.122 299.02 121.248 299.023 121.403 299.027C121.862 299.047 122.438 299.072 123.144 299.103C124.547 299.181 126.403 299.286 128.641 299.411Z" fill="#385AA4"/>
<path d="M103.555 303.151C105.12 303.151 106.787 303.055 108.525 302.832C112.148 302.372 116.073 301.304 119.892 299.492C120.196 299.345 120.496 299.194 120.792 299.04V299.038C120.792 299.034 120.8 299.032 120.812 299.03C124.224 297.253 127.194 295.043 129.604 292.71C130.756 291.598 131.788 290.466 132.705 289.348C132.718 289.212 132.73 289.077 132.74 288.942C128.59 294.577 121.316 299.275 114.602 301.25C111.081 302.286 106.846 302.91 102.672 302.91C98.89 302.91 95.1587 302.398 92.0505 301.214C92.0803 301.256 92.1123 301.301 92.1432 301.343C92.2508 301.379 92.3626 301.414 92.4798 301.448C93.9412 301.933 96.111 302.492 98.8485 302.848C100.273 303.037 101.854 303.151 103.555 303.151Z" fill="#0F191D"/>
<path d="M128.382 299.759C128.468 299.644 128.555 299.528 128.64 299.41C126.402 299.286 124.546 299.18 123.144 299.103C122.437 299.072 121.861 299.046 121.402 299.027C121.248 299.023 121.121 299.02 121.024 299.02C120.915 299.02 120.844 299.023 120.812 299.029C120.799 299.031 120.792 299.034 120.792 299.038V299.039C120.803 299.059 121.009 299.093 121.393 299.138C121.852 299.186 122.425 299.246 123.128 299.318C124.479 299.432 126.253 299.58 128.382 299.759Z" fill="#A7A9A8"/>
<path d="M60.1867 294.227C60.1835 294.245 60.3677 294.297 60.7193 294.378C61.1368 294.466 61.6492 294.576 62.2712 294.707C63.6176 294.984 65.5754 295.351 67.9986 295.774C72.8441 296.626 79.5633 297.669 87.0152 298.582C94.4715 299.492 101.244 300.097 106.152 300.439C108.607 300.61 110.594 300.726 111.969 300.782C112.604 300.804 113.127 300.821 113.552 300.836C113.914 300.843 114.106 300.837 114.107 300.817C114.108 300.799 113.919 300.768 113.559 300.726C113.137 300.682 112.616 300.631 111.984 300.567C110.531 300.437 108.57 300.261 106.184 300.048C101.288 299.607 94.5301 298.94 87.0834 298.032C79.6389 297.121 72.9208 296.139 68.0615 295.388C65.6947 295.021 63.7486 294.719 62.3085 294.496C61.679 294.405 61.1613 294.33 60.7395 294.268C60.3805 294.224 60.1899 294.207 60.1867 294.227Z" fill="white"/>
<path d="M58.1629 307.446C57.8028 307.4 57.4886 307.364 57.2266 307.334C57.249 307.364 57.2713 307.394 57.2958 307.423C57.5791 307.426 57.8678 307.435 58.1629 307.446ZM60.764 307.444C60.9004 307.33 61.0271 307.207 61.1411 307.075C61.9155 306.181 62.2553 305.001 62.5738 303.861C63.3737 300.994 64.1747 298.116 64.9523 295.228C63.8967 295.032 62.9956 294.857 62.2713 294.708C61.6492 294.577 61.1368 294.467 60.7193 294.379C60.3678 294.298 60.1835 294.246 60.1867 294.227C60.1878 294.222 60.2027 294.22 60.2325 294.22C60.3103 294.22 60.4807 294.237 60.7395 294.269C61.1613 294.331 61.679 294.405 62.3085 294.496C63.0776 294.615 63.9905 294.757 65.0354 294.919C69.1853 279.453 72.6163 263.692 71.4328 247.826C69.4218 255.522 67.4118 263.219 65.4018 270.915C65.0386 272.385 64.6658 273.887 64.2866 275.414C60.8716 289.151 57.8902 300.831 56.6844 305.244C56.6769 305.945 56.7877 306.613 57.0988 307.14C57.2138 307.142 57.3406 307.144 57.479 307.148C58.2374 307.167 59.3367 307.241 60.6831 307.431C60.7097 307.435 60.7374 307.44 60.764 307.444Z" fill="#385AA4"/>
<path d="M58.8956 308.171C59.3781 308.171 59.8692 308.019 60.3059 307.764C59.4804 307.623 58.7582 307.52 58.1628 307.446C57.8677 307.434 57.5791 307.425 57.2957 307.422C57.4725 307.636 57.693 307.817 57.9668 307.956C58.2597 308.104 58.5761 308.171 58.8956 308.171Z" fill="#CC4341"/>
<path d="M56.6842 305.243C57.89 300.831 60.8714 289.15 64.2864 275.414C64.6656 273.887 65.0384 272.385 65.4016 270.915C62.6066 281.617 59.8116 292.317 57.0166 303.019C56.8355 303.712 56.6927 304.496 56.6842 305.243Z" fill="#0F191D"/>
<path d="M60.3059 307.765C60.4667 307.671 60.6212 307.564 60.7639 307.444C60.7373 307.44 60.7096 307.436 60.683 307.431C59.3366 307.241 58.2373 307.167 57.4789 307.148C57.3405 307.144 57.2137 307.142 57.0987 307.141C57.1381 307.208 57.1807 307.273 57.2265 307.334C57.4885 307.364 57.8027 307.401 58.1628 307.446C58.7582 307.521 59.4804 307.623 60.3059 307.765Z" fill="#0F191D"/>
<path d="M71.4327 247.826C71.453 247.748 71.4732 247.671 71.4934 247.593L71.3496 246.804C71.3794 247.144 71.4071 247.486 71.4327 247.826Z" fill="#CC4341"/>
<path d="M64.9521 295.228C64.9798 295.125 65.0075 295.021 65.0352 294.919C63.9902 294.757 63.0774 294.615 62.3083 294.496C61.6788 294.405 61.1611 294.331 60.7393 294.269C60.4805 294.237 60.31 294.22 60.2323 294.22C60.2024 294.22 60.1875 294.222 60.1865 294.227C60.1833 294.246 60.3676 294.298 60.7191 294.379C61.1366 294.467 61.649 294.577 62.271 294.708C62.9953 294.857 63.8965 295.032 64.9521 295.228Z" fill="#A7A9A8"/>
<path d="M341.051 266.018L319.158 373.494H129.135C127.038 373.494 125.34 371.795 125.34 369.698C125.34 367.603 127.038 365.904 129.135 365.904H167.388L187.686 265.949C188.075 264.03 189.751 262.646 191.707 262.624L336.94 261.039C339.582 261.01 341.579 263.428 341.051 266.018Z" fill="#9BACD1"/>
<path d="M341.051 266.017C341.051 266.017 341.075 265.909 341.11 265.694C341.145 265.479 341.174 265.148 341.129 264.717C341.053 263.886 340.602 262.491 339.119 261.576C338.755 261.352 338.328 261.189 337.863 261.078C337.396 260.973 336.885 260.98 336.368 260.985C335.326 260.993 334.185 261.001 332.949 261.011C330.475 261.031 327.618 261.055 324.399 261.082C311.509 261.204 292.799 261.382 269.484 261.602C257.824 261.719 245.014 261.849 231.204 261.989C224.299 262.06 217.145 262.133 209.759 262.209C206.067 262.247 202.316 262.287 198.51 262.325C196.608 262.345 194.692 262.366 192.761 262.385C192.272 262.398 191.813 262.378 191.291 262.422C190.783 262.475 190.283 262.618 189.824 262.845C188.902 263.297 188.145 264.083 187.737 265.033C187.523 265.508 187.436 266.024 187.34 266.494L187.045 267.939C186.849 268.904 186.652 269.873 186.455 270.845C186.057 272.788 185.66 274.744 185.26 276.713C184.459 280.649 183.648 284.635 182.827 288.667C181.186 296.734 179.507 304.989 177.794 313.415C174.368 330.264 170.805 347.793 167.135 365.851L167.388 365.643C160.204 365.642 152.842 365.642 145.358 365.641C141.617 365.641 137.845 365.641 134.049 365.64H131.199H129.77C129.306 365.644 128.798 365.618 128.291 365.729C127.289 365.935 126.38 366.547 125.799 367.388C125.211 368.228 124.971 369.298 125.127 370.311C125.301 371.555 126.106 372.669 127.201 373.267C127.751 373.561 128.366 373.728 128.987 373.749L130.742 373.757C133.065 373.757 135.383 373.756 137.694 373.756C142.316 373.756 146.911 373.756 151.477 373.756C160.607 373.755 169.62 373.754 178.495 373.752C196.245 373.748 213.444 373.744 229.938 373.74C262.924 373.724 293.081 373.708 319.158 373.694H319.322L319.355 373.534C326.046 340.499 331.489 313.626 335.262 295.003C337.133 285.698 338.59 278.457 339.58 273.531C340.067 271.077 340.44 269.202 340.691 267.93C340.938 266.668 341.051 266.017 341.051 266.017C341.051 266.017 340.9 266.66 340.634 267.92C340.368 269.187 339.976 271.059 339.465 273.508C338.45 278.428 336.958 285.663 335.04 294.958C331.227 313.573 325.725 340.434 318.961 373.453L319.158 373.292C293.081 373.28 262.924 373.263 229.938 373.246C213.444 373.244 196.245 373.24 178.495 373.236C169.62 373.235 160.607 373.234 151.477 373.233C146.911 373.232 142.316 373.232 137.694 373.232C135.383 373.232 133.065 373.232 130.742 373.232L129.007 373.224C128.466 373.204 127.93 373.06 127.451 372.804C126.499 372.285 125.797 371.313 125.647 370.231C125.511 369.349 125.72 368.419 126.231 367.688C126.737 366.954 127.528 366.422 128.399 366.243C128.829 366.146 129.283 366.17 129.77 366.165H131.199H134.049C137.845 366.165 141.617 366.165 145.358 366.165C152.842 366.164 160.204 366.163 167.388 366.163H167.601L167.643 365.955C171.307 347.895 174.862 330.365 178.282 313.512C179.988 305.087 181.663 296.831 183.299 288.763C184.115 284.729 184.923 280.743 185.721 276.805C186.119 274.837 186.516 272.881 186.91 270.937C187.107 269.966 187.303 268.997 187.499 268.031L187.791 266.586C187.892 266.095 187.969 265.636 188.159 265.216C188.523 264.366 189.201 263.66 190.024 263.256C190.436 263.052 190.884 262.922 191.339 262.874C191.782 262.835 192.291 262.852 192.766 262.839C194.696 262.818 196.613 262.795 198.516 262.774C202.321 262.73 206.072 262.688 209.763 262.645C217.149 262.559 224.304 262.477 231.208 262.397C245.018 262.235 257.828 262.084 269.488 261.947C292.802 261.66 311.511 261.429 324.4 261.269C327.62 261.225 330.477 261.187 332.951 261.154C334.186 261.136 335.327 261.12 336.37 261.105C336.893 261.095 337.384 261.086 337.841 261.184C338.293 261.289 338.712 261.444 339.07 261.659C340.527 262.539 340.991 263.902 341.081 264.723C341.167 265.579 341.022 266.015 341.051 266.017Z" fill="#17282F"/>
<path d="M253.488 315.202C253.488 318.67 256.297 321.479 259.764 321.479C263.23 321.479 266.04 318.67 266.04 315.202C266.04 311.736 263.23 308.927 259.764 308.927C256.297 308.927 253.488 311.736 253.488 315.202Z" fill="#2A4457"/>
<path d="M340.873 266.887C340.873 266.887 340.652 266.87 340.219 266.865C339.768 266.863 339.13 266.86 338.298 266.855C336.589 266.857 334.104 266.861 330.91 266.864C324.476 266.895 315.197 266.941 303.739 266.995C280.782 267.158 249.098 267.382 214.101 267.627C209.724 267.663 205.4 267.698 201.137 267.732C200.071 267.74 199.01 267.749 197.951 267.758C197.435 267.768 196.884 267.735 196.325 267.855C195.776 267.967 195.251 268.18 194.783 268.481C193.843 269.077 193.139 270.027 192.854 271.097C192.618 272.147 192.441 273.142 192.231 274.16C190.626 282.258 189.075 290.066 187.6 297.506C184.659 312.384 182.011 325.783 179.786 337.042C177.582 348.286 175.8 357.392 174.562 363.703C173.959 366.84 173.49 369.282 173.168 370.958C173.016 371.776 172.9 372.404 172.819 372.847C172.743 373.274 172.717 373.494 172.717 373.494C172.717 373.494 172.779 373.28 172.872 372.857C172.965 372.416 173.098 371.792 173.272 370.979C173.617 369.306 174.118 366.873 174.763 363.745C176.038 357.439 177.878 348.346 180.15 337.114C182.407 325.862 185.092 312.47 188.074 297.6C189.561 290.162 191.119 282.355 192.737 274.261C192.943 273.258 193.132 272.212 193.354 271.233C193.605 270.286 194.229 269.446 195.063 268.918C195.478 268.652 195.943 268.464 196.428 268.366C196.903 268.259 197.418 268.288 197.955 268.279C199.014 268.271 200.075 268.262 201.141 268.254C205.403 268.221 209.728 268.188 214.106 268.153C249.101 267.846 280.786 267.569 303.742 267.367C315.2 267.241 324.478 267.139 330.912 267.068C334.106 267.021 336.59 266.986 338.299 266.961C339.13 266.943 339.769 266.929 340.219 266.919C340.652 266.906 340.873 266.887 340.873 266.887Z" fill="#17282F"/>
<path d="M87.1027 103.655C86.5328 123.473 94.9456 143.376 109.558 156.776C112.903 147.084 116.248 137.392 119.594 127.7" fill="#17282F"/>
<path d="M162.767 45.8181C154.151 41.11 143.745 40.4337 134.116 42.3606C124.489 44.2885 115.517 48.6462 107.018 53.563C102.251 56.3218 97.4957 59.3544 94.0679 63.6673C87.8121 71.5379 81.6277 84.4648 81.0248 94.5009C80.538 102.616 83.6452 122.933 87.0761 130.304C90.2226 137.069 104.955 142.218 112.226 143.887L178.948 66.2908C176.59 57.6714 170.61 50.1044 162.767 45.8181Z" fill="#17282F"/>
<path d="M174.271 56.2856L158.276 53.4245C167.019 74.2477 169.39 121.863 174.391 143.887C180.288 135.332 193.979 109.276 193.247 98.9129C192.514 88.5487 193.275 54.5185 174.271 56.2856Z" fill="#17282F"/>
<path d="M98.4384 90.945C99.2991 78.7797 107.174 68.8022 118.991 65.7877L155.825 56.3907C171.743 54.6715 182.373 74.2537 183.416 90.2303C184.574 107.981 185.288 126.713 183.214 139.963C179.042 166.608 158.635 170.044 158.635 170.044C158.632 170.005 158.629 182.715 158.618 190.495L146.29 241.521L106.566 186.652L98.3447 91.2678C98.334 90.8119 98.3958 91.5511 98.4384 90.945Z" fill="#FF8B7B"/>
<path d="M175.412 110.356C175.48 112.161 174.009 113.705 172.126 113.811C170.248 113.915 168.665 112.543 168.598 110.739C168.53 108.934 170.002 107.388 171.88 107.283C173.763 107.178 175.345 108.553 175.412 110.356Z" fill="#17282F"/>
<path d="M179.416 100.666C178.994 101.114 176.402 99.204 172.726 99.221C169.054 99.1859 166.36 101.084 165.96 100.635C165.765 100.435 166.194 99.63 167.367 98.7726C168.522 97.9183 170.491 97.0864 172.781 97.0907C175.071 97.0981 176.999 97.9364 178.108 98.7971C179.239 99.662 179.624 100.467 179.416 100.666Z" fill="#17282F"/>
<path d="M143.37 110.358C143.439 112.161 141.967 113.705 140.084 113.811C138.207 113.915 136.624 112.542 136.557 110.739C136.489 108.936 137.961 107.389 139.84 107.283C141.721 107.177 143.304 108.553 143.37 110.358Z" fill="#17282F"/>
<path d="M144.508 100.669C144.083 101.115 141.488 99.2052 137.814 99.2233C134.144 99.1881 131.449 101.085 131.05 100.636C130.854 100.438 131.28 99.6323 132.457 98.7748C133.61 97.9195 135.581 97.0876 137.87 97.0919C140.16 97.0993 142.088 97.9387 143.198 98.7983C144.327 99.6632 144.714 100.468 144.508 100.669Z" fill="#17282F"/>
<path d="M155.999 129.537C155.982 129.328 158.266 128.929 161.967 128.447C162.905 128.347 163.793 128.159 163.951 127.519C164.17 126.839 163.775 125.829 163.318 124.738C162.43 122.469 161.501 120.089 160.526 117.597C156.649 107.428 153.839 99.0668 154.25 98.9156C154.661 98.7622 158.138 106.88 162.014 117.048C162.947 119.554 163.841 121.945 164.69 124.232C165.048 125.298 165.661 126.507 165.185 127.915C164.933 128.617 164.246 129.127 163.644 129.291C163.043 129.475 162.515 129.487 162.051 129.516C158.325 129.725 156.013 129.746 155.999 129.537Z" fill="#17282F"/>
<path d="M123.306 160.566C123.306 160.566 131.974 178.862 158.628 176.311L158.635 170.045C158.635 170.045 141.083 171.198 123.306 160.566Z" fill="#F68260"/>
<path d="M143.353 87.384C142.994 88.3842 139.321 87.9187 135.012 88.4481C130.688 88.8912 127.214 90.1609 126.64 89.2662C126.383 88.838 126.987 87.8953 128.392 86.9249C129.782 85.9567 132.005 85.0332 134.593 84.7381C137.182 84.4495 139.553 84.8553 141.125 85.4912C142.71 86.126 143.508 86.9089 143.353 87.384Z" fill="#17282F"/>
<path d="M178.218 89.4229C177.573 90.2591 175.039 89.3984 171.993 89.3643C168.95 89.2237 166.371 89.9374 165.775 89.0661C165.514 88.6421 165.919 87.806 167.044 87.0124C168.153 86.2231 170.008 85.5744 172.1 85.633C174.194 85.6948 176.008 86.4468 177.068 87.3011C178.147 88.1564 178.502 89.0149 178.218 89.4229Z" fill="#17282F"/>
<path d="M176.18 65.9039C174.551 61.8967 170.152 59.4894 165.831 59.2711C161.511 59.0527 157.291 60.6878 153.545 62.8533C137.681 72.0223 129.528 94.1684 113.853 103.656C109.998 105.99 104.981 103.852 101.703 106.943C98.4242 110.034 96.297 114.972 98.11 119.097C96.0052 116.209 93.8706 113.268 92.6733 109.899C91.475 106.53 91.3248 102.613 93.1121 99.5166C94.4681 97.1669 96.8637 95.3731 97.5209 92.741C98.0993 90.4253 97.1865 88.0031 97.2866 85.6182C97.3878 83.1907 98.5307 80.9389 99.7269 78.8235C105.866 67.9651 114.312 58.1441 125.188 52.0364C132.295 48.0463 140.421 45.7135 148.565 45.9905C156.711 46.2674 164.844 49.2616 170.806 54.8186C174.312 58.0866 177.998 61.4685 176.18 65.9039Z" fill="#17282F"/>
<path d="M102.086 110.245C101.806 109.481 87.9121 104.466 87.7268 119.235C87.5489 133.581 102.026 130.758 102.054 130.345C102.083 129.934 102.086 110.245 102.086 110.245Z" fill="#F8A58D"/>
<path d="M97.68 124.868C97.6161 124.822 97.4264 125.04 97.0036 125.23C96.5903 125.414 95.8798 125.538 95.1342 125.251C93.6238 124.68 92.3701 122.263 92.3243 119.675C92.3008 118.369 92.5863 117.128 93.0582 116.104C93.5066 115.058 94.1915 114.331 94.9552 114.203C95.7168 114.034 96.2537 114.496 96.4241 114.902C96.6137 115.305 96.52 115.59 96.5956 115.616C96.635 115.652 96.9056 115.378 96.7959 114.784C96.7383 114.498 96.5743 114.159 96.2388 113.881C95.8979 113.596 95.392 113.449 94.8604 113.502C93.7527 113.567 92.7482 114.576 92.2295 115.702C91.6489 116.831 91.2985 118.225 91.3251 119.693C91.389 122.585 92.8451 125.305 94.9126 125.924C95.9192 126.196 96.7639 125.899 97.2028 125.566C97.6491 125.214 97.729 124.895 97.68 124.868Z" fill="#F68260"/>
<path d="M96.3792 102.871C96.3898 102.89 96.687 102.724 97.2452 102.387C97.7937 102.039 98.6405 101.573 99.6503 100.858C101.656 99.4087 104.437 97.1122 107.396 93.8081C110.375 90.522 113.49 86.2592 116.868 81.5031C120.254 76.7578 123.969 71.5043 128.709 66.7601C131.122 64.4422 133.659 62.3619 136.349 60.7226C139.032 59.0695 141.844 57.853 144.603 56.9775C150.127 55.1997 155.433 54.8109 159.801 55.1113C164.188 55.385 167.659 56.3171 169.982 57.1064C171.161 57.4643 172.032 57.8605 172.639 58.0916C173.243 58.3292 173.566 58.4442 173.577 58.4229C173.585 58.4027 173.281 58.2472 172.693 57.9713C172.1 57.6997 171.24 57.264 170.066 56.8656C167.754 55.9975 164.267 54.9866 159.833 54.649C155.42 54.2858 150.038 54.6288 144.42 56.4012C141.614 57.2757 138.751 58.4996 136.016 60.173C133.273 61.8347 130.694 63.9458 128.249 66.2924C123.452 71.0953 119.735 76.3903 116.377 81.1538C113.025 85.9311 109.962 90.1982 107.05 93.5002C104.155 96.8193 101.447 99.1478 99.5001 100.652C98.5191 101.394 97.6989 101.891 97.1749 102.275C96.6423 102.646 96.3664 102.851 96.3792 102.871Z" fill="#33535F"/>
<path d="M96.0489 127.406C94.6514 127.146 93.1367 128.117 92.7906 129.496C92.4444 130.874 93.32 132.446 94.6738 132.876C96.0287 133.308 97.651 132.532 98.1665 131.207C98.681 129.883 98.0067 128.214 96.7179 127.618" fill="white"/>
<path d="M96.7182 127.617C96.6351 127.702 97.6534 128.114 98.0081 129.545C98.1754 130.227 98.0848 131.134 97.4479 131.796C96.846 132.459 95.7563 132.87 94.7743 132.563C93.7954 132.247 93.1445 131.28 93.0359 130.391C92.8995 129.482 93.3501 128.69 93.8806 128.23C94.998 127.268 96.0663 127.522 96.0493 127.405C96.0567 127.368 95.8288 127.255 95.3771 127.246C94.9308 127.235 94.2481 127.371 93.5866 127.872C92.9358 128.343 92.3041 129.311 92.4362 130.46C92.5416 131.562 93.2936 132.76 94.5761 133.189C95.8682 133.58 97.1752 133.037 97.8984 132.199C98.6696 131.339 98.7133 130.185 98.4555 129.423C98.2063 128.631 97.728 128.126 97.3573 127.876C96.9824 127.623 96.731 127.584 96.7182 127.617Z" fill="#17282F"/>
<path d="M99.987 106.93C99.7622 110.848 99.5811 114.986 101.392 118.468C103.203 121.951 107.768 124.32 111.177 122.371C113.956 120.783 114.787 117.224 115.258 114.057C116.619 104.919 117.242 95.6814 118.682 86.556L99.987 106.93Z" fill="#17282F"/>
<path d="M172.648 59.0795C172.632 59.1626 171.38 58.8409 169.081 58.7674C166.795 58.7067 163.417 59.0082 159.586 60.5026C157.677 61.245 155.647 62.2335 153.638 63.5661C151.625 64.8943 149.574 66.4878 147.5 68.2507C143.385 71.8073 139.122 76.085 135.487 81.2022C133.665 83.7618 132.05 86.3928 130.302 88.8288C128.569 91.2734 126.641 93.4815 124.549 95.2966C120.378 98.9203 116.082 101.461 112.425 103.408C108.755 105.349 105.686 106.707 103.569 107.647C102.569 108.073 101.756 108.418 101.115 108.692C100.551 108.922 100.248 109.03 100.236 109.005C100.225 108.98 100.505 108.822 101.048 108.544C101.672 108.235 102.464 107.843 103.437 107.362C105.511 106.336 108.538 104.9 112.155 102.907C115.756 100.907 119.979 98.3376 124.058 94.7395C126.09 92.9489 127.957 90.7909 129.659 88.3697C131.378 85.9592 132.987 83.324 134.83 80.7356C138.52 75.5439 142.838 71.2449 147.02 67.6851C149.129 65.919 151.208 64.334 153.275 63.0047C155.341 61.669 157.428 60.6922 159.386 59.969C163.32 58.5139 166.779 58.2945 169.095 58.4543C170.258 58.5299 171.153 58.6854 171.749 58.8228C172.345 58.9656 172.653 59.0529 172.648 59.0795Z" fill="#33535F"/>
<path d="M99.5907 98.0684C99.6141 98.111 99.1646 98.4103 98.321 98.9238C97.3389 99.5011 96.1289 100.212 94.6877 101.056C94.2946 101.282 93.8867 101.515 93.4649 101.758C93.0079 102.008 92.5041 102.229 91.8948 102.278C91.5944 102.295 91.2376 102.268 90.9234 102.05C90.6113 101.839 90.411 101.481 90.3865 101.103C90.3567 100.35 90.7614 99.7951 91.0639 99.2891C92.3581 97.2184 93.777 94.9475 95.2831 92.537L95.8509 93.0653C94.5055 94.0634 92.9397 94.858 91.2397 95.365C89.5333 95.8752 87.7811 96.0691 86.1056 95.969C85.6944 95.9562 85.231 95.8997 84.8039 95.7463C84.3832 95.5983 83.8964 95.3128 83.6897 94.777C83.4767 94.253 83.677 93.6724 83.9305 93.3273C84.1808 92.9577 84.4897 92.6872 84.7485 92.4294C86.881 90.3661 88.4788 88.1932 89.6345 86.2663C91.9374 82.3858 92.5903 79.6047 92.7416 79.659C92.7863 79.6718 92.666 80.3684 92.2889 81.5902C91.9012 82.8055 91.2482 84.5492 90.1277 86.5517C89.0135 88.5532 87.4274 90.8135 85.2673 92.9598C84.7325 93.4669 84.2021 94.0495 84.4087 94.5012C84.5781 94.9528 85.3962 95.1754 86.1492 95.1818C87.7342 95.2649 89.3927 95.0763 91.0086 94.5927C92.6191 94.1123 94.104 93.3646 95.3822 92.4305L97.0939 91.1767L95.9499 92.9598C94.4129 95.3512 92.9663 97.604 91.6466 99.6577C91.3153 100.154 91.0171 100.645 91.0362 101.058C91.0544 101.466 91.4027 101.705 91.8628 101.67C92.7927 101.622 93.6342 100.99 94.4416 100.608C95.9265 99.8441 97.1749 99.2018 98.1879 98.6809C99.073 98.2442 99.5672 98.0258 99.5907 98.0684Z" fill="#33535F"/>
<path d="M142.018 136.315C142.506 134.127 144.743 132.449 146.973 132.674C148.61 132.838 150.089 133.947 150.829 135.416C151.571 136.886 151.603 138.663 151.047 140.213L150.971 140.557C149.466 142.219 146.86 142.803 144.825 141.865C142.787 140.928 141.53 138.504 142.018 136.315Z" fill="#F68260"/>
<path d="M153.636 140.633C153.641 140.075 149.924 140.253 147.128 137.202C144.322 134.158 144.541 130.175 144.022 130.172C143.785 130.132 143.343 131.09 143.38 132.766C143.406 134.408 144.052 136.777 145.762 138.644C147.478 140.504 149.678 141.232 151.209 141.282C152.77 141.347 153.67 140.887 153.636 140.633Z" fill="#17282F"/>
<path d="M28.416 366.395C28.4149 366.405 28.5001 366.419 28.6674 366.438C28.8666 366.459 29.1094 366.485 29.4056 366.514C30.1032 366.572 31.0534 366.651 32.2517 366.751C34.724 366.947 38.3051 367.189 42.7319 367.45C51.5836 367.973 63.8278 368.509 77.3587 368.737C90.8939 368.96 103.149 368.833 112.014 368.605C116.446 368.494 120.033 368.371 122.509 368.257C123.712 368.197 124.664 368.15 125.362 368.116C125.659 368.095 125.903 368.079 126.103 368.065C126.271 368.051 126.356 368.039 126.356 368.029C126.355 368.019 126.269 368.012 126.101 368.008C125.901 368.007 125.656 368.007 125.359 368.005C124.659 368.013 123.707 368.026 122.503 368.041C119.975 368.082 116.402 368.141 112.007 368.213C103.142 368.341 90.895 368.406 77.3662 368.184C63.8448 367.954 51.607 367.48 42.7522 367.058C38.3616 366.839 34.7921 366.661 32.2666 366.535C31.064 366.479 30.1118 366.436 29.4141 366.404C29.1158 366.395 28.8708 366.388 28.6706 366.382C28.5023 366.381 28.4171 366.384 28.416 366.395Z" fill="white"/>
<path d="M209.252 48.1124C207.49 50.6876 208.149 54.2026 210.724 55.9655C213.299 57.7262 216.815 57.0673 218.577 54.4921C220.339 51.9169 219.68 48.4019 217.105 46.639C214.53 44.8783 211.014 45.5372 209.252 48.1124Z" fill="#D3DFFF"/>
<path d="M205.663 62.9549C205.986 64.6789 207.656 65.8153 209.393 65.4891C211.13 65.1629 212.277 63.5015 211.953 61.7753C211.63 60.0513 209.96 58.9171 208.223 59.2433C206.485 59.5674 205.339 61.2309 205.663 62.9549Z" fill="#D3DFFF"/>
<path d="M205.992 26.9571C208.255 39.0316 219.878 46.984 231.953 44.7221C244.028 42.458 251.981 30.835 249.718 18.7605C247.455 6.68602 235.832 -1.26858 223.757 0.995522C211.683 3.25962 203.729 14.8826 205.992 26.9571Z" fill="#BDCEFB"/>
<path d="M233.593 22.8581C233.593 24.405 234.848 25.6602 236.396 25.6602C237.944 25.6602 239.198 24.405 239.198 22.8581C239.198 21.3091 237.944 20.0561 236.396 20.0561C234.848 20.0561 233.593 21.3091 233.593 22.8581Z" fill="white"/>
<path d="M225.052 22.8581C225.052 24.405 226.307 25.6602 227.855 25.6602C229.403 25.6602 230.657 24.405 230.657 22.8581C230.657 21.3091 229.403 20.0561 227.855 20.0561C226.307 20.0561 225.052 21.3091 225.052 22.8581Z" fill="white"/>
<path d="M216.511 22.8581C216.511 24.405 217.766 25.6602 219.314 25.6602C220.862 25.6602 222.116 24.405 222.116 22.8581C222.116 21.3091 220.862 20.0561 219.314 20.0561C217.766 20.0561 216.511 21.3091 216.511 22.8581Z" fill="white"/>
<path d="M41.1626 66.7123C41.6082 66.7402 42.0203 67.0177 42.2003 67.4596L44.4471 72.9964C44.5886 73.3446 44.5582 73.7393 44.3664 74.0621C44.174 74.3848 43.8413 74.599 43.4677 74.6399C42.4877 74.7485 41.561 75.3009 40.9255 76.1556C40.3402 76.9413 40.0938 77.8797 40.2496 78.73C40.4041 79.5778 40.9683 80.3754 41.7969 80.9203C42.6838 81.5025 43.7662 81.7228 44.696 81.5068C46.5945 81.0662 48.0661 78.9671 47.9078 76.9221C47.8569 76.2611 48.351 75.6845 49.0113 75.6336C49.6835 75.5839 50.2489 76.0767 50.3004 76.7371C50.5493 79.9515 48.2777 83.1398 45.2372 83.8448C43.6607 84.2098 41.9241 83.8759 40.4792 82.9256C39.1051 82.0232 38.1617 80.6509 37.8886 79.1614C37.6143 77.6588 38.019 76.0407 39.0002 74.7225C39.7096 73.7698 40.6549 73.0467 41.7081 72.629L39.9759 68.3614C39.727 67.7476 40.023 67.0475 40.6369 66.7986C40.8094 66.7291 40.9882 66.7018 41.1626 66.7123Z" fill="#E3E3E2"/>
<path d="M38.6872 65.0051C38.4712 64.508 38.6983 63.9295 39.1955 63.7129C39.692 63.4963 40.2705 63.7234 40.4871 64.2206C40.7037 64.7171 40.4765 65.2956 39.9794 65.5128C39.4829 65.7294 38.9044 65.5016 38.6872 65.0051Z" fill="#E3E3E2"/>
<path d="M75.9025 23.1856C75.7237 22.7791 75.7802 22.2894 76.0881 21.9288L79.9461 17.4191C80.1881 17.1355 80.55 16.9816 80.9223 17.0039C81.2954 17.0263 81.6355 17.2218 81.8428 17.5327C82.3858 18.347 83.2957 18.9124 84.3397 19.0831C85.3004 19.2401 86.2407 19.0297 86.9197 18.5034C87.5962 17.9808 88.0431 17.1187 88.1449 16.1393C88.2541 15.091 87.9543 14.0359 87.3387 13.3141C86.0837 11.8407 83.5601 11.5018 81.8285 12.5743C81.2693 12.9212 80.5351 12.7487 80.1881 12.1895C79.8374 11.6191 80.0137 10.8954 80.5735 10.5485C83.2945 8.86216 87.1438 9.40959 89.1541 11.7699C90.1955 12.9939 90.6939 14.6777 90.5158 16.3857C90.347 18.01 89.5674 19.4685 88.3776 20.3896C87.1779 21.3181 85.5661 21.6992 83.9548 21.4354C82.7905 21.2455 81.7217 20.7409 80.8721 20.0029L77.8985 23.4786C77.4709 23.9788 76.7187 24.0372 76.2184 23.6089C76.0781 23.4891 75.9726 23.3439 75.9025 23.1856Z" fill="#E3E3E2"/>
<path d="M75.5273 26.1483C75.1878 26.5666 74.574 26.63 74.1563 26.2905C73.7379 25.9516 73.6746 25.3371 74.0141 24.9194C74.3536 24.5017 74.9675 24.4378 75.3852 24.7773C75.8035 25.1168 75.8668 25.7306 75.5273 26.1483Z" fill="#E3E3E2"/>
<path d="M50.8641 12.0902C56.4034 10.8564 63.508 14.6988 65.4221 19.8751C67.3368 25.0513 65.2595 31.4565 61.0912 35.0737C64.3434 39.2562 64.4793 45.4795 61.7305 50.0091C58.9822 54.5392 53.652 57.2595 48.3535 57.2273C43.0544 57.195 37.9141 54.5591 34.4676 50.5347C29.9797 52.7468 24.2629 52.2018 20.2733 49.1805C16.2844 46.1598 14.2095 40.8054 15.1219 35.8855C8.84272 33.594 5.39249 25.569 8.04951 19.4363C10.7059 13.3036 18.9203 10.3313 24.886 13.3452C24.7569 6.65949 30.5873 0.421925 37.2655 0.0991859C43.9444 -0.223553 50.3489 5.42379 50.8641 12.0902C50.4526 12.0232 51.2762 12.1566 50.8641 12.0902Z" fill="#FCFDFD"/>
<path d="M50.864 12.0927C50.864 12.0927 50.89 12.1014 50.9633 12.1157L50.9769 12.1181L50.9807 12.1188L50.9819 12.1045L50.9745 12.1026L50.9403 12.0964L50.8584 12.0815L50.7554 12.0635L50.8621 12.1057L50.8814 12.1144L50.8776 12.0914C50.7957 11.5595 50.774 10.1519 49.9243 8.22849C49.5178 7.26585 48.8915 6.20144 48.027 5.10537C47.1599 4.01178 45.9906 2.93369 44.5308 2.00892C43.0754 1.08601 41.2854 0.348667 39.2571 0.0991631C39.0039 0.0706139 38.7482 0.0420876 38.4906 0.0129166C38.2306 0.0104332 37.9687 0.00854874 37.7043 0.00606537C37.1742 -0.0268288 36.6417 0.0799446 36.0968 0.120289C35.0249 0.315792 33.9145 0.580181 32.8644 1.08788C32.5944 1.19711 32.33 1.32312 32.0762 1.47394C31.8192 1.61917 31.5548 1.7557 31.2991 1.91024C30.8063 2.25036 30.2881 2.56939 29.8263 2.97778C29.3341 3.35017 28.9065 3.80573 28.4516 4.24391C28.0432 4.72429 27.6025 5.19163 27.245 5.73284C25.7151 7.81762 24.7425 10.5019 24.7549 13.3501L24.9455 13.2304C22.3499 11.9319 19.1411 11.6831 16.1192 12.5377C13.1109 13.3774 10.187 15.317 8.47707 18.2601C6.7442 21.194 6.5698 24.9936 7.77821 28.3327C8.37528 30.0091 9.30377 31.5942 10.5358 32.9411C11.7647 34.2854 13.3113 35.3877 15.0672 36.0375L14.9648 35.8588C14.4887 38.427 14.817 41.179 15.8641 43.6703C16.9074 46.1566 18.6806 48.4195 21.0378 49.9066C25.1149 52.4935 30.4141 52.7008 34.5389 50.6806L34.3465 50.6415C37.3269 54.0892 41.4102 56.4471 45.6859 57.1466C49.9628 57.8901 54.3309 56.7978 57.6428 54.4995C59.3024 53.3506 60.7094 51.9026 61.7384 50.2579C62.7619 48.6107 63.4068 46.7816 63.6544 44.9501C63.9269 43.1192 63.8052 41.287 63.39 39.5827C62.9642 37.879 62.1934 36.3162 61.1886 34.9998L61.1724 35.1692C63.1902 33.3991 64.5606 31.1573 65.3761 28.8969C65.7913 27.7648 66.0359 26.6092 66.1563 25.4802C66.2742 24.3512 66.2698 23.239 66.0979 22.1858C65.7994 20.0762 64.91 18.1999 63.696 16.8357C62.5068 15.4455 61.1476 14.435 59.843 13.7008C58.534 12.9653 57.2704 12.5085 56.1519 12.2187C55.0292 11.9375 54.0479 11.8488 53.2578 11.8357C52.4677 11.8395 51.8632 11.8885 51.466 11.9754C51.0669 12.0468 50.864 12.0927 50.864 12.0927C50.864 12.0927 51.0719 12.071 51.4722 12.012C51.8688 11.9375 52.4715 11.8997 53.2566 11.9083C54.0417 11.9325 55.0143 12.0319 56.1259 12.3217C57.2325 12.6202 58.4825 13.0833 59.7747 13.8212C61.0619 14.5579 62.4013 15.5671 63.5669 16.9443C64.7573 18.2986 65.6163 20.1351 65.9024 22.2143C66.0675 23.2508 66.0669 24.3456 65.9459 25.4572C65.823 26.5688 65.5784 27.7071 65.1651 28.8218C64.3539 31.0468 62.9953 33.2508 61.0098 34.9824L60.9223 35.0587L60.9937 35.1518C61.9724 36.4428 62.7234 37.9746 63.1368 39.646C63.5396 41.318 63.6556 43.1161 63.3832 44.911C63.1374 46.7072 62.5006 48.4977 61.4976 50.1065C60.4866 51.7152 59.1056 53.1322 57.4758 54.2574C54.2205 56.5079 49.9336 57.5754 45.7368 56.8406C41.5393 56.151 37.5187 53.8267 34.5898 50.4329L34.5085 50.3392L34.3968 50.3938C30.3787 52.3626 25.1857 52.159 21.211 49.6335C18.9152 48.1856 17.1824 45.9767 16.1608 43.5456C15.1367 41.1101 14.8152 38.4196 15.2776 35.9165L15.303 35.7849L15.1758 35.7383C11.7454 34.4666 9.22619 31.49 8.06991 28.2284C6.88633 24.9638 7.05514 21.261 8.73525 18.4097C10.393 15.5435 13.2505 13.6362 16.1961 12.8095C19.156 11.9667 22.2934 12.2057 24.8269 13.4643L25.0187 13.5599L25.0175 13.3445C24.9995 10.564 25.9429 7.92624 27.4405 5.87312C27.7912 5.33936 28.2231 4.87945 28.6228 4.40465C29.0697 3.97267 29.4887 3.52208 29.9715 3.15528C30.4246 2.75123 30.9335 2.43655 31.4164 2.09953C31.6684 1.94685 31.9278 1.81157 32.1798 1.66819C32.4287 1.518 32.6881 1.39325 32.9538 1.28526C33.9847 0.781906 35.0746 0.518745 36.1272 0.321999C36.6628 0.279797 37.1854 0.172428 37.7061 0.202839C37.9662 0.203461 38.2237 0.204689 38.4788 0.205929C38.7333 0.233238 38.9847 0.260536 39.2342 0.287846C41.2308 0.524315 43.0009 1.24118 44.4464 2.14547C45.8944 3.05101 47.0594 4.11046 47.9264 5.18792C48.791 6.26723 49.4222 7.31677 49.8349 8.26761C50.6995 10.1662 50.7454 11.5639 50.8516 12.0939L50.8665 12.0797L50.7516 12.0865L50.8553 12.1014L50.9378 12.1132L50.972 12.1181L50.98 12.1188L50.9831 12.1045L50.9794 12.1039L50.9651 12.1026C50.8919 12.0927 50.864 12.0927 50.864 12.0927Z" fill="#1D2A30"/>
<path d="M35.7697 18.6549C37.083 17.9542 38.5826 17.6419 40.039 17.867C41.7555 18.1317 43.3502 19.1591 44.4145 20.686C45.4234 22.1332 45.8177 23.8725 45.4962 25.4559C45.1726 27.0548 44.1257 28.499 42.624 29.4202C41.4275 30.1575 40.0503 30.4991 38.7134 30.416L38.7398 36.0204C38.743 36.568 38.3009 37.0148 37.7527 37.0173C37.2046 37.0193 36.7577 36.5778 36.7558 36.0297L36.7235 29.2539C36.7222 28.9429 36.8664 28.6497 37.1133 28.4605C37.3577 28.2719 37.6809 28.2099 37.9806 28.2935C39.1561 28.6191 40.4684 28.4156 41.5866 27.7286C42.6207 27.0949 43.3367 26.1229 43.552 25.0623C43.7659 24.0067 43.4871 22.8254 42.7865 21.82C42.0313 20.7368 40.9198 20.0105 39.7364 19.8281C37.3827 19.4641 34.7626 21.1717 34.0145 23.5542C33.8511 24.0774 33.2954 24.3678 32.7716 24.2044C32.249 24.0404 31.9579 23.4834 32.1219 22.9609C32.7067 21.0936 34.0846 19.554 35.7697 18.6549Z" fill="#FD9646"/>
<path d="M39.0521 40.0956C39.0704 40.7105 38.5875 41.2231 37.9733 41.242C37.3585 41.2603 36.8459 40.7774 36.8269 40.1632C36.8086 39.5484 37.2909 39.0352 37.9057 39.0169C38.5199 38.9979 39.0331 39.4814 39.0521 40.0956Z" fill="#FD9646"/>
<path d="M73.6868 43.1395C76.507 42.8255 79.3589 45.1033 79.6767 47.9229C79.9938 50.7425 77.7204 53.5975 74.9014 53.9197C72.0818 54.2418 69.2236 51.972 68.8978 49.153C68.5726 46.334 70.8373 43.4728 73.6557 43.1426" fill="#FCFDFD"/>
<path d="M73.6552 43.1443C73.6552 43.1443 73.1667 43.1238 72.3531 43.4261C71.5506 43.7215 70.4253 44.4259 69.5899 45.7535C69.1821 46.4133 68.8482 47.2251 68.7564 48.1455C68.6714 49.0616 68.834 50.0813 69.3342 50.9949C69.5725 51.4561 69.8866 51.8918 70.2652 52.2803C70.6363 52.6763 71.072 53.0276 71.5605 53.31C72.5225 53.8965 73.7154 54.2037 74.9182 54.0821C76.118 53.93 77.2115 53.3615 78.0172 52.5739C78.4293 52.1878 78.775 51.7472 79.0474 51.2786C79.3286 50.8143 79.5365 50.3191 79.6644 49.8163C79.9468 48.8133 79.8754 47.7831 79.5862 46.9098C79.2889 46.0334 78.7799 45.3178 78.2344 44.7667C77.1216 43.6619 75.866 43.2287 75.0182 43.122C74.1573 43.0109 73.6862 43.1412 73.6862 43.1412C73.6875 43.1809 74.1648 43.0996 74.9983 43.2461C75.8188 43.3876 77.021 43.8432 78.0712 44.9268C78.5863 45.4668 79.0611 46.1594 79.3317 46.9936C79.593 47.8253 79.652 48.791 79.377 49.7387C79.2523 50.2129 79.0518 50.6815 78.7824 51.1203C78.5211 51.5635 78.1909 51.9805 77.7987 52.3449C77.0322 53.089 76.0007 53.6184 74.8816 53.7606C73.7601 53.8735 72.6361 53.5905 71.7212 53.0375C71.2576 52.7713 70.8418 52.4398 70.488 52.0668C70.1268 51.7 69.8258 51.2885 69.5974 50.8547C69.1164 49.9938 68.9556 49.0393 69.0233 48.1704C69.099 47.2971 69.405 46.5151 69.7854 45.8727C70.5644 44.5799 71.6325 43.8655 72.4009 43.5428C73.1792 43.2126 73.6626 43.1834 73.6552 43.1443Z" fill="#1D2A30"/>
<path d="M84.2524 54.9469C85.4689 54.8116 86.699 55.7947 86.8355 57.0105C86.9727 58.2264 85.9927 59.4578 84.7768 59.5962C83.5604 59.7352 82.3277 58.7564 82.1875 57.5406C82.0466 56.3247 83.0235 55.0909 84.2393 54.9487" fill="#FCFDFD"/>
<path d="M84.2399 54.9455C84.2399 54.9312 84.0258 54.9114 83.6646 55.0336C83.309 55.1534 82.8075 55.4544 82.4314 56.0366C82.2477 56.3265 82.0956 56.6852 82.0509 57.0954C82.0099 57.5038 82.0801 57.9625 82.3016 58.3709C82.7218 59.1833 83.6919 59.8648 84.7948 59.7537C85.8952 59.6134 86.6872 58.7309 86.9131 57.8452C87.0372 57.3965 87.0025 56.9341 86.8703 56.5456C86.7344 56.1552 86.5053 55.8405 86.2614 55.5997C85.7637 55.1174 85.2063 54.9368 84.8333 54.9002C84.4541 54.863 84.2499 54.93 84.253 54.9443C84.2555 54.9734 84.4615 54.9511 84.8134 55.0243C85.1598 55.0957 85.6631 55.298 86.0976 55.7598C86.5308 56.2048 86.8653 56.9688 86.6257 57.7676C86.4153 58.5453 85.6935 59.318 84.7582 59.4328C83.8216 59.5315 82.9446 58.9413 82.5642 58.2306C82.1514 57.5069 82.3047 56.6877 82.6262 56.1564C82.9459 55.6084 83.3909 55.2974 83.7124 55.1503C84.0382 55.0001 84.2443 54.9747 84.2399 54.9455Z" fill="#1D2A30"/>
</svg>
