<svg width="498" height="312" viewBox="0 0 498 312" fill="none" xmlns="http://www.w3.org/2000/svg">
<g filter="url(#filter0_d)">
<path d="M361 40.8301H27C20.3726 40.8301 15 46.2027 15 52.8301V281.83C15 288.457 20.3726 293.83 27 293.83H361C367.627 293.83 373 288.457 373 281.83V52.8301C373 46.2027 367.627 40.8301 361 40.8301Z" fill="#F5F7F9"/>
</g>
<g filter="url(#filter1_d)">
<path d="M346 75.8301H43C36.3726 75.8301 31 81.2027 31 87.8301C31 94.4575 36.3726 99.8301 43 99.8301H346C352.627 99.8301 358 94.4575 358 87.8301C358 81.2027 352.627 75.8301 346 75.8301Z" fill="white"/>
</g>
<path d="M150 114.828H40C35.0294 114.828 31 118.858 31 123.828V258.828C31 263.799 35.0294 267.828 40 267.828H150C154.971 267.828 159 263.799 159 258.828V123.828C159 118.858 154.971 114.828 150 114.828Z" fill="#0C28A8"/>
<path d="M89 82.8281H51C48.2386 82.8281 46 85.0667 46 87.8281C46 90.5895 48.2386 92.8281 51 92.8281H89C91.7614 92.8281 94 90.5895 94 87.8281C94 85.0667 91.7614 82.8281 89 82.8281Z" fill="#DCEAFF"/>
<g filter="url(#filter2_d)">
<path d="M259 12.8281H189C183.477 12.8281 179 17.3053 179 22.8281V149.828C179 155.351 183.477 159.828 189 159.828H259C264.523 159.828 269 155.351 269 149.828V22.8281C269 17.3053 264.523 12.8281 259 12.8281Z" fill="#092247"/>
</g>
<path d="M251 22.8281H198C192.477 22.8281 188 27.3053 188 32.8281V79.8281C188 85.351 192.477 89.8281 198 89.8281H251C256.523 89.8281 261 85.351 261 79.8281V32.8281C261 27.3053 256.523 22.8281 251 22.8281Z" fill="#1886D9"/>
<path d="M251 99.8281H199C194.029 99.8281 190 103.858 190 108.828C190 113.799 194.029 117.828 199 117.828H251C255.971 117.828 260 113.799 260 108.828C260 103.858 255.971 99.8281 251 99.8281Z" fill="#1886D9"/>
<path d="M275.5 127.828H222.5C217.253 127.828 213 132.081 213 137.328C213 142.575 217.253 146.828 222.5 146.828H275.5C280.747 146.828 285 142.575 285 137.328C285 132.081 280.747 127.828 275.5 127.828Z" fill="#1886D9"/>
<path d="M211 55.8281C217.627 55.8281 223 50.4555 223 43.8281C223 37.2007 217.627 31.8281 211 31.8281C204.373 31.8281 199 37.2007 199 43.8281C199 50.4555 204.373 55.8281 211 55.8281Z" fill="#FFB900"/>
<path d="M208 89.8281C208.5 89.8281 223.5 64.1611 223.5 64.1611L237.667 89.8281H208Z" fill="#F7F8F9"/>
<path d="M221 89.8281C221.393 89.8281 233.178 69.6611 233.178 69.6611L244.31 89.8281H221Z" fill="#DCEAFF"/>
<path d="M36 64.8281C38.7614 64.8281 41 62.5895 41 59.8281C41 57.0667 38.7614 54.8281 36 54.8281C33.2386 54.8281 31 57.0667 31 59.8281C31 62.5895 33.2386 64.8281 36 64.8281Z" fill="#FFB900"/>
<path d="M51 64.8281C53.7614 64.8281 56 62.5895 56 59.8281C56 57.0667 53.7614 54.8281 51 54.8281C48.2386 54.8281 46 57.0667 46 59.8281C46 62.5895 48.2386 64.8281 51 64.8281Z" fill="#00C197"/>
<path d="M66 64.8281C68.7614 64.8281 71 62.5895 71 59.8281C71 57.0667 68.7614 54.8281 66 54.8281C63.2386 54.8281 61 57.0667 61 59.8281C61 62.5895 63.2386 64.8281 66 64.8281Z" fill="#092247"/>
<path d="M346.67 91.89L344.041 89.155C344.694 88.3776 345.061 87.401 345.083 86.3865C345.105 85.372 344.78 84.3804 344.162 83.5755C343.544 82.7705 342.67 82.2005 341.685 81.9596C340.699 81.7186 339.66 81.8211 338.741 82.2502C337.821 82.6792 337.076 83.4092 336.627 84.3194C336.179 85.2296 336.054 86.2656 336.274 87.2562C336.494 88.2468 337.045 89.1327 337.837 89.7676C338.628 90.4025 339.613 90.7484 340.627 90.748C341.543 90.7506 342.436 90.4686 343.183 89.941L345.832 92.696C345.884 92.7553 345.948 92.8034 346.019 92.8375C346.09 92.8716 346.167 92.8909 346.245 92.8943C346.324 92.8977 346.403 92.8851 346.476 92.8572C346.55 92.8294 346.617 92.7869 346.674 92.7323C346.731 92.6777 346.776 92.6122 346.806 92.5397C346.837 92.4671 346.853 92.3892 346.852 92.3104C346.852 92.2317 346.836 92.1538 346.805 92.0816C346.773 92.0093 346.728 91.9441 346.67 91.89ZM340.627 82.99C341.28 82.99 341.918 83.1836 342.461 83.5462C343.004 83.9088 343.426 84.4242 343.676 85.0272C343.926 85.6302 343.991 86.2937 343.864 86.9338C343.737 87.574 343.422 88.162 342.961 88.6235C342.499 89.085 341.911 89.3993 341.271 89.5266C340.631 89.654 339.968 89.5886 339.365 89.3388C338.762 89.0891 338.246 88.6661 337.884 88.1234C337.521 87.5807 337.327 86.9427 337.327 86.29C337.328 85.415 337.676 84.5759 338.294 83.9572C338.913 83.3386 339.752 82.991 340.627 82.991V82.99Z" fill="#092247"/>
<g filter="url(#filter3_d)">
<path d="M23.9199 209.638C23.9199 209.638 34.9118 193.515 48.0688 206.813C61.2258 220.111 62.6479 233.953 74.5249 208.932C74.5249 208.932 86.2938 176.332 94.8838 177.274C94.8838 177.274 104.017 176.026 109.007 195.633C113.997 215.24 126.19 225.408 133.607 198.933C141.024 172.458 138.079 161.273 148.671 160.333" stroke="white" strokeWidth="2" strokeLinecap="round"/>
</g>
<g filter="url(#filter4_d)">
<path d="M478.707 172.189H231.293C226.322 172.189 222.293 176.219 222.293 181.189V267.295C222.293 272.266 226.322 276.295 231.293 276.295H478.707C483.678 276.295 487.707 272.266 487.707 267.295V181.189C487.707 176.219 483.678 172.189 478.707 172.189Z" fill="white"/>
</g>
<path d="M333.497 189.352H247.695C245.484 189.352 243.691 191.144 243.691 193.356C243.691 195.567 245.484 197.36 247.695 197.36H333.497C335.709 197.36 337.501 195.567 337.501 193.356C337.501 191.144 335.709 189.352 333.497 189.352Z" fill="#FD9646"/>
<path d="M468.257 214.521H245.979C244.716 214.521 243.691 215.545 243.691 216.809C243.691 218.072 244.716 219.097 245.979 219.097H468.257C469.521 219.097 470.545 218.072 470.545 216.809C470.545 215.545 469.521 214.521 468.257 214.521Z" fill="#DDE2F9"/>
<path d="M468.257 230.536H245.979C244.716 230.536 243.691 231.561 243.691 232.824C243.691 234.088 244.716 235.112 245.979 235.112H468.257C469.521 235.112 470.545 234.088 470.545 232.824C470.545 231.561 469.521 230.536 468.257 230.536Z" fill="#DDE2F9"/>
<path d="M324.917 246.553H245.979C244.716 246.553 243.691 247.577 243.691 248.841C243.691 250.104 244.716 251.129 245.979 251.129H324.917C326.181 251.129 327.205 250.104 327.205 248.841C327.205 247.577 326.181 246.553 324.917 246.553Z" fill="#DDE2F9"/>
<path d="M473.055 45.6275C477.945 44.8161 481.213 39.9567 480.353 34.7737C479.493 29.5906 474.831 26.0467 469.941 26.858C465.05 27.6694 461.783 32.5288 462.643 37.7119C463.503 42.8949 468.164 46.4388 473.055 45.6275Z" fill="#263238"/>
<path d="M465.383 45.7148C465.383 45.7148 471.722 50.2648 479.86 44.8878C475.61 46.0148 470.905 44.2158 470.905 44.2158L465.383 45.7148Z" fill="#263238"/>
<path d="M471.122 38.0124C471.877 42.5414 469.222 46.7604 465.197 47.4224C461.172 48.0844 457.307 44.9614 456.552 40.4324C455.797 35.9034 458.452 31.6844 462.477 31.0124C466.502 30.3404 470.346 33.4824 471.122 38.0124Z" fill="#385AA4"/>
<path d="M456.758 62.2504C464.803 60.1304 474.564 46.7394 465.899 33.4834C462.621 33.4834 453.646 36.5134 453.646 36.5134L456.758 62.2504Z" fill="#263238"/>
<path d="M435.83 31.4971C429.63 37.0081 426.648 51.9401 440.63 61.2881C443.556 59.8091 450.216 53.0671 450.216 53.0671L435.83 31.4971Z" fill="#263238"/>
<path d="M437.619 93.116C437.619 94.626 437.505 95.929 437.392 97.304C437.279 98.679 437.154 100.024 436.999 101.368C436.72 104.077 436.348 106.755 435.899 109.434C435.012 114.776 433.856 120.07 432.435 125.296L431.308 129.205L430.067 133.083C429.468 135.085 428.345 136.89 426.814 138.312C425.283 139.733 423.4 140.72 421.36 141.169C418.161 141.799 414.858 141.643 411.733 140.714C410.323 140.343 408.941 139.873 407.597 139.308C406.264 138.764 404.968 138.132 403.719 137.416L405.787 132.577C406.893 132.794 408.176 133.063 409.365 133.228C410.554 133.393 411.774 133.528 412.943 133.58C414.976 133.776 417.027 133.538 418.961 132.88C419.51 132.677 419.988 132.318 420.336 131.846C420.464 131.656 420.568 131.451 420.646 131.236C420.671 131.104 420.713 130.975 420.77 130.853C420.776 130.777 420.776 130.701 420.77 130.625L420.853 130.315L421.794 126.615L422.652 122.882C423.752 117.898 424.637 112.862 425.361 107.806C425.733 105.283 426.043 102.749 426.333 100.216C426.467 98.954 426.591 97.683 426.695 96.431C426.799 95.179 426.912 93.867 426.974 92.75L437.619 93.116Z" fill="#FF8B7B"/>
<path d="M430.142 83.262C426.368 85.562 422.521 101.999 422.521 101.999L438.787 110.271C438.787 110.271 445.715 92.547 442.487 87.811C439.066 82.817 435.633 79.901 430.142 83.262Z" fill="#385AA4"/>
<path opacity="0.2" d="M426.989 95.6013C426.244 98.4443 426.265 101.434 427.051 104.266L438.767 110.274C438.767 110.274 442.81 99.9333 443.275 92.9233C439.129 88.7943 429.605 88.2773 426.989 95.6013Z" fill="black"/>
<path d="M407.819 133.258L397.344 126.413L398.988 135.647C398.988 135.647 402.804 138.036 405.188 137.508L407.819 133.258Z" fill="#FF8B7B"/>
<path d="M427.483 90.8819C428.083 100.023 430.068 116.382 436.004 143.298L478.059 140.816C476.343 123.744 475.701 113.186 481.813 77.5739C475.855 76.707 469.842 76.2725 463.821 76.2739C457.433 76.1994 451.048 76.576 444.712 77.4009C441.961 77.8149 439.097 78.3729 436.502 78.9209C433.812 79.4963 431.419 81.0223 429.762 83.2193C428.106 85.4162 427.297 88.1367 427.483 90.8819Z" fill="#385AA4"/>
<path opacity="0.2" d="M447.689 85.4541C447.689 85.4541 451.825 90.6861 457.45 92.3821C463.075 94.0781 464.688 82.5901 463.82 76.2821C458.609 74.9791 447.689 85.4541 447.689 85.4541Z" fill="black"/>
<path d="M447.689 85.449C447.689 85.449 452.353 90.133 458.029 91.819C463.705 93.505 464.709 82.585 463.861 76.308C458.609 74.979 447.689 85.449 447.689 85.449Z" fill="white"/>
<path opacity="0.2" d="M447.691 85.4546C445.944 88.4149 443.214 90.6689 439.977 91.8247C434.466 93.8927 440.339 79.7056 444.713 77.4096C449.923 76.1476 447.691 85.4546 447.691 85.4546Z" fill="black"/>
<path d="M447.69 85.454C445.769 88.2283 442.939 90.2444 439.69 91.154C434.065 92.839 440.341 79.707 444.715 77.411C449.923 76.147 447.69 85.454 447.69 85.454Z" fill="white"/>
<path d="M478.546 138.315L479.846 142.015C480.001 142.294 479.68 142.615 479.195 142.646L435.895 145.2C435.523 145.2 435.195 145.055 435.151 144.817L434.551 141.074C434.551 140.816 434.83 140.574 435.244 140.547L477.836 138.034C477.968 138.015 478.103 138.032 478.228 138.081C478.352 138.13 478.462 138.211 478.546 138.315Z" fill="white"/>
<path d="M472.963 143.422L474.111 143.36C474.339 143.36 474.504 143.215 474.473 143.07L473.656 138.21C473.656 138.065 473.429 137.962 473.201 137.983L472.053 138.045C471.825 138.045 471.66 138.19 471.691 138.324L472.508 143.184C472.541 143.36 472.735 143.433 472.963 143.422Z" fill="#263238"/>
<path d="M439.138 145.428L440.275 145.356C440.503 145.356 440.668 145.222 440.647 145.077L439.82 140.217C439.82 140.072 439.593 139.969 439.365 139.979L438.217 140.051C437.99 140.051 437.824 140.196 437.855 140.33L438.672 145.19C438.704 145.325 438.911 145.428 439.138 145.428Z" fill="#263238"/>
<path d="M455.981 144.395L457.118 144.323C457.346 144.323 457.511 144.189 457.49 144.044L456.642 139.225C456.642 139.08 456.415 138.977 456.187 138.987L455.05 139.059C454.822 139.059 454.657 139.204 454.678 139.338L455.495 144.198C455.55 144.333 455.756 144.395 455.981 144.395Z" fill="#263238"/>
<path opacity="0.2" d="M480.893 83.0762C477.252 84.8103 474.361 87.8037 472.755 91.5032C470.883 96.2182 476.291 105.597 477.584 107.703C478.184 101.076 479.249 93.1582 480.893 83.0762Z" fill="black"/>
<path d="M460.782 57.1836C459.944 63.3836 459.262 72.4256 463.812 76.2726C457.52 80.3761 452.066 85.6402 447.743 91.7836C440.412 82.0946 444.703 77.3686 444.703 77.3686C451.466 75.3006 451.124 72.5606 449.646 67.8556L460.782 57.1836Z" fill="#FF8B7B"/>
<path opacity="0.2" d="M456.251 61.5576L449.664 67.8756C450.024 68.9671 450.287 70.0881 450.45 71.2256C453.05 70.6986 457.027 68.2166 457.43 65.3416C457.614 63.9876 456.514 62.1776 456.251 61.5576Z" fill="black"/>
<path d="M460.584 42.6657C462.218 52.8307 463.117 57.0907 459.209 63.3467C453.325 72.7977 440.482 72.5807 435.85 63.1087C431.714 54.5777 429.708 39.3877 438.621 33.1937C440.585 31.8191 442.867 30.9696 445.252 30.7261C447.637 30.4825 450.044 30.853 452.245 31.8022C454.446 32.7515 456.368 34.248 457.827 36.1494C459.287 38.0509 460.236 40.2941 460.584 42.6657Z" fill="#FF8B7B"/>
<path d="M457.793 29.1633C447.453 21.7493 421.932 24.8923 425.851 33.4853C430.566 43.8253 438.663 44.0943 438.663 44.0943C438.663 44.0943 435.437 42.5433 435.509 40.4753C443.089 38.1173 448.89 42.8843 452.167 39.7753C450.73 45.6483 460.15 51.2013 460.15 51.2013C462.774 48.9097 464.887 46.0912 466.35 42.9293C468.588 37.8153 466.81 29.4393 457.793 29.1633Z" fill="#263238"/>
<path d="M445.188 48.9094C445.364 49.7264 445.089 50.4814 444.548 50.6094C444.007 50.7374 443.442 50.1644 443.255 49.3474C443.068 48.5304 443.354 47.7654 443.885 47.6474C444.416 47.5294 445.002 48.0944 445.188 48.9094Z" fill="#263238"/>
<path d="M435.965 50.9771C436.151 51.7941 435.865 52.5491 435.334 52.6771C434.803 52.8051 434.217 52.2321 434.034 51.4151C433.851 50.5981 434.134 49.8431 434.675 49.7151C435.216 49.5871 435.778 50.1621 435.965 50.9771Z" fill="#263238"/>
<path d="M434.929 49.707L432.861 49.583C432.861 49.583 434.161 50.886 434.929 49.707Z" fill="#263238"/>
<path d="M439.128 51.8164C438.823 53.8417 438.238 55.8148 437.391 57.6794C437.873 57.8834 438.395 57.9789 438.918 57.9592C439.442 57.9395 439.955 57.8051 440.421 57.5654L439.128 51.8164Z" fill="#FF5652"/>
<path d="M445.592 59.7686C445.209 59.9214 444.815 60.0425 444.413 60.1306C444.38 60.1402 444.346 60.1431 444.312 60.139C444.278 60.135 444.246 60.1241 444.216 60.1069C444.187 60.0898 444.161 60.0669 444.141 60.0396C444.121 60.0122 444.106 59.981 444.098 59.9479C444.091 59.9148 444.09 59.8804 444.096 59.8469C444.102 59.8134 444.114 59.7815 444.133 59.7531C444.152 59.7247 444.176 59.7004 444.205 59.6818C444.233 59.6631 444.265 59.6505 444.299 59.6446C445.317 59.4394 446.273 58.9976 447.09 58.3549C447.906 57.7122 448.56 56.8865 448.999 55.9446C449.01 55.9139 449.027 55.8858 449.05 55.8618C449.072 55.8379 449.099 55.8187 449.129 55.8052C449.159 55.7917 449.191 55.7843 449.224 55.7833C449.256 55.7823 449.289 55.7879 449.32 55.7996C449.35 55.81 449.378 55.8263 449.401 55.8476C449.425 55.869 449.444 55.8949 449.458 55.9238C449.471 55.9527 449.479 55.9841 449.48 56.016C449.481 56.0479 449.476 56.0797 449.465 56.1096C449.095 56.9473 448.561 57.7027 447.895 58.3314C447.229 58.96 446.444 59.4493 445.587 59.7706L445.592 59.7686Z" fill="#263238"/>
<path d="M464.504 50.5341C464.192 52.5002 463.113 54.2624 461.504 55.4341C459.353 56.9751 457.368 55.2691 457.233 52.7761C457.088 50.5321 458.04 47.0271 460.552 46.4761C461.103 46.3682 461.673 46.3992 462.209 46.5665C462.745 46.7338 463.231 47.0321 463.623 47.4343C464.015 47.8366 464.301 48.3302 464.454 48.8705C464.608 49.4108 464.624 49.9809 464.502 50.5291L464.504 50.5341Z" fill="#FF8B7B"/>
<path d="M446.596 44.4985C446.496 44.5276 446.389 44.5231 446.292 44.4857C446.195 44.4483 446.112 44.3801 446.058 44.2915C444.827 42.3785 441.922 42.2235 441.922 42.2235C441.857 42.2223 441.793 42.2081 441.734 42.1817C441.675 42.1554 441.621 42.1175 441.577 42.0703C441.533 42.023 441.498 41.9674 441.476 41.9067C441.453 41.8459 441.443 41.7813 441.446 41.7165C441.452 41.5851 441.51 41.4615 441.607 41.3724C441.703 41.2833 441.831 41.2359 441.963 41.2405C442.097 41.2405 445.427 41.4165 446.926 43.7535C446.96 43.8072 446.984 43.8671 446.996 43.9299C447.007 43.9927 447.006 44.0572 446.992 44.1196C446.979 44.182 446.953 44.2411 446.917 44.2936C446.881 44.3461 446.834 44.3909 446.781 44.4255C446.726 44.4638 446.662 44.4888 446.596 44.4985Z" fill="#263238"/>
<path d="M430.702 48.0829C430.602 48.1266 430.49 48.1353 430.384 48.1075C430.278 48.0798 430.185 48.0172 430.119 47.93C430.054 47.8427 430.019 47.7359 430.022 47.6266C430.024 47.5174 430.063 47.4122 430.133 47.3279C430.597 46.6993 431.206 46.1916 431.908 45.8478C432.61 45.5041 433.384 45.3343 434.166 45.3529C434.23 45.3581 434.292 45.3759 434.349 45.4052C434.406 45.4345 434.457 45.4748 434.498 45.5238C434.539 45.5728 434.571 45.6295 434.59 45.6906C434.609 45.7517 434.616 45.8161 434.611 45.8799C434.598 46.0087 434.536 46.1276 434.438 46.2122C434.34 46.2968 434.213 46.3407 434.084 46.3349C433.466 46.3265 432.855 46.4667 432.302 46.7437C431.75 47.0208 431.272 47.4266 430.909 47.9269C430.857 47.9984 430.785 48.0527 430.702 48.0829Z" fill="#263238"/>
<path d="M383.475 262.67L374.324 258.617L383.217 235.31L392.358 239.363L383.475 262.67Z" fill="#FF8B7B"/>
<path d="M373.974 256.682L385.018 260.425C385.21 260.487 385.372 260.617 385.475 260.791C385.577 260.964 385.613 261.169 385.576 261.367L383.87 270.548C383.817 270.777 383.717 270.991 383.577 271.179C383.436 271.366 383.258 271.522 383.053 271.636C382.849 271.75 382.622 271.819 382.389 271.841C382.156 271.862 381.921 271.834 381.699 271.759C377.873 270.384 376.099 269.535 371.245 267.88C368.257 266.846 361.939 265.812 357.802 264.416C353.665 263.02 354.845 258.863 356.685 259.08C364.957 260.042 368.825 258.046 372.196 256.753C372.763 256.529 373.39 256.504 373.974 256.682Z" fill="#263238"/>
<g opacity="0.2">
<path opacity="0.2" d="M392.359 239.372L383.208 235.319L377.914 249.227L387.531 252.05L392.359 239.372Z" fill="black"/>
</g>
<path d="M456.097 142.12C456.097 142.12 399.638 146.173 397.415 165.32C393.62 197.903 377.768 242.925 377.768 242.925L390.468 248.325C390.468 248.325 414.024 204.967 420.579 176.676C431.509 170.476 485.972 192.642 478.02 140.815L456.097 142.12Z" fill="#263238"/>
<path d="M391.893 250.199L375.121 245.06L376.321 238.876L394.955 244.398L391.893 250.199Z" fill="#385AA4"/>
<path d="M368.4 256.213L368.338 256.113C368.221 255.904 368.16 255.669 368.16 255.43C368.16 255.191 368.221 254.956 368.338 254.748C368.393 254.609 368.487 254.489 368.607 254.4C368.728 254.312 368.871 254.259 369.02 254.248C370.344 254.114 372.67 257.048 372.929 257.348C372.959 257.386 372.975 257.433 372.975 257.482C372.975 257.531 372.959 257.578 372.929 257.617C372.906 257.659 372.871 257.693 372.829 257.715C372.786 257.738 372.738 257.746 372.691 257.741C371.419 257.665 369.124 257.293 368.4 256.213ZM372.205 257.247C371.233 256.099 369.796 254.683 369.105 254.755C369.038 254.76 368.975 254.785 368.922 254.825C368.869 254.865 368.828 254.92 368.805 254.983C368.727 255.122 368.686 255.278 368.686 255.438C368.686 255.597 368.727 255.754 368.805 255.893C369.105 256.503 370.377 256.993 372.205 257.227V257.247Z" fill="#385AA4"/>
<path d="M372.35 257.397C371.636 256.363 370.82 254.026 371.316 253.097C371.418 252.923 371.576 252.79 371.765 252.72C371.953 252.65 372.16 252.648 372.35 252.714C372.536 252.751 372.711 252.828 372.863 252.941C373.015 253.054 373.14 253.199 373.229 253.366C373.984 254.666 373.029 257.502 372.991 257.626C372.978 257.666 372.953 257.702 372.92 257.73C372.887 257.757 372.848 257.775 372.805 257.781C372.764 257.79 372.721 257.788 372.681 257.775C372.641 257.763 372.605 257.74 372.577 257.709C372.495 257.61 372.419 257.507 372.35 257.399V257.397ZM372.774 253.54C372.718 253.451 372.644 253.374 372.557 253.316C372.469 253.257 372.371 253.217 372.267 253.199C371.957 253.137 371.843 253.199 371.781 253.344C371.419 253.975 371.998 255.95 372.681 257.004C372.939 256.042 373.26 254.388 372.815 253.604L372.774 253.54Z" fill="#385AA4"/>
<path d="M410.112 233.375L401.54 238.535L387.57 217.864L396.142 212.704L410.112 233.375Z" fill="#FF8B7B"/>
<path d="M399.772 237.707L409.182 230.82C409.339 230.715 409.527 230.667 409.715 230.684C409.904 230.701 410.08 230.782 410.216 230.913L416.73 237.572C416.888 237.746 417.007 237.951 417.08 238.173C417.153 238.396 417.178 238.632 417.154 238.865C417.129 239.099 417.056 239.324 416.938 239.527C416.821 239.73 416.661 239.906 416.471 240.043C413.152 242.38 411.435 243.343 407.299 246.371C404.755 248.232 400.236 252.834 396.721 255.398C393.206 257.962 390.521 254.633 391.706 253.247C397.238 247.047 397.848 242.72 398.696 239.247C398.86 238.622 399.241 238.076 399.771 237.706L399.772 237.707Z" fill="#263238"/>
<g opacity="0.2">
<path opacity="0.2" d="M396.142 212.714L387.57 217.874L395.904 230.2L403.742 223.944L396.142 212.714Z" fill="black"/>
</g>
<path d="M430.791 143.299C430.791 143.299 371.178 140.559 367.714 159.523C361.814 191.796 390.649 226.736 390.649 226.736L402.396 219.415C402.396 219.415 393.514 194.598 390.132 172.386C401.444 166.926 462.226 194.38 457.655 142.15L430.791 143.299Z" fill="#263238"/>
<path opacity="0.2" d="M411.074 151.861C410.115 151.862 409.168 152.077 408.303 152.492C401.416 155.739 396.329 159.927 395.481 165.325C395.16 167.393 394.788 169.461 394.375 171.602H396.557C396.888 169.462 397.177 167.352 397.415 165.294C398.077 159.545 403.615 155.16 411.075 151.851L411.074 151.861Z" fill="black"/>
<path d="M404.747 219.311L390.891 230.096L386.527 225.547L401.759 213.479L404.747 219.311Z" fill="#385AA4"/>
<path d="M396.164 242H396.04C395.802 241.969 395.576 241.877 395.384 241.734C395.191 241.591 395.038 241.401 394.94 241.183C394.865 241.054 394.826 240.908 394.826 240.759C394.826 240.61 394.865 240.464 394.94 240.335C395.602 239.187 399.345 238.97 399.769 238.935C399.817 238.933 399.864 238.946 399.905 238.972C399.945 238.998 399.977 239.035 399.996 239.08C400.021 239.12 400.034 239.167 400.034 239.214C400.034 239.262 400.021 239.308 399.996 239.349C399.08 240.366 397.456 242.031 396.164 242ZM399.183 239.477C397.683 239.611 395.698 239.977 395.357 240.583C395.321 240.638 395.302 240.703 395.302 240.769C395.302 240.835 395.321 240.899 395.357 240.955C395.417 241.101 395.515 241.228 395.64 241.324C395.766 241.421 395.914 241.482 396.071 241.503C396.805 241.596 397.932 240.831 399.183 239.528V239.477Z" fill="#385AA4"/>
<path d="M399.399 239.444C398.117 239.444 395.759 238.762 395.315 237.79C395.234 237.614 395.215 237.416 395.262 237.228C395.309 237.039 395.419 236.873 395.573 236.756C395.71 236.627 395.874 236.528 396.052 236.467C396.23 236.407 396.42 236.385 396.607 236.404C398.107 236.549 399.885 238.948 399.957 239.051C399.977 239.089 399.988 239.132 399.988 239.175C399.988 239.218 399.977 239.261 399.957 239.299C399.937 239.337 399.909 239.37 399.874 239.395C399.84 239.42 399.8 239.437 399.757 239.444C399.637 239.453 399.516 239.453 399.395 239.444H399.399ZM396.483 236.88C396.378 236.879 396.274 236.898 396.176 236.937C396.079 236.976 395.99 237.034 395.914 237.107C395.676 237.324 395.707 237.469 395.759 237.583C396.059 238.245 398.003 238.907 399.264 238.958C398.633 238.183 397.454 236.973 396.564 236.89L396.483 236.88Z" fill="#385AA4"/>
<path d="M444.132 47.6396L442.064 47.5156C442.064 47.5156 443.398 48.8186 444.132 47.6396Z" fill="#263238"/>
<path d="M463.543 128.015L453.543 122.938L455.952 133.217C455.952 133.217 462.363 135.006 465.352 131.893L463.543 128.015Z" fill="#FF8B7B"/>
<path d="M486.976 88.3086C487.41 89.1666 487.71 89.8286 488.01 90.5626C488.31 91.2966 488.62 92.0106 488.91 92.7346C489.489 94.1826 490.027 95.6406 490.533 97.0986C491.515 100.025 492.343 102.993 493.077 105.981C493.811 108.969 494.359 111.989 494.825 115.029C495.032 116.559 495.249 118.08 495.383 119.61L495.583 121.91L495.635 122.531V123.493C495.628 124.187 495.556 124.88 495.418 125.561C495.12 126.975 494.5 128.302 493.608 129.439C492.824 130.43 491.871 131.276 490.795 131.939C489.095 132.934 487.238 133.633 485.304 134.007C482.094 134.634 478.819 134.863 475.553 134.689C469.475 134.417 463.443 133.512 457.553 131.989L458.442 126.819C464.113 127.186 469.802 127.186 475.473 126.819C478.084 126.674 480.672 126.238 483.187 125.519C484.127 125.263 485.015 124.847 485.813 124.289C485.987 124.175 486.126 124.013 486.213 123.824V123.724L485.758 120.891C485.53 119.505 485.241 118.13 484.993 116.755C484.414 114.015 483.742 111.285 483.028 108.586C482.314 105.887 481.428 103.219 480.495 100.593C480.04 99.2686 479.554 97.9666 479.047 96.6836L478.272 94.7836C478.024 94.1836 477.724 93.4906 477.517 93.0356L486.976 88.3086Z" fill="#FF8B7B"/>
<path d="M481.817 77.5753C486.108 78.6093 492.023 92.8173 492.023 92.8173L478.767 104.853C478.767 104.853 469.688 93.7273 471.125 88.1633C472.642 82.3523 476.923 76.3963 481.817 77.5753Z" fill="#385AA4"/>
<path d="M444.992 124.624L447.474 133.114L455.964 133.214L453.555 122.935L444.992 124.624Z" fill="#FF8B7B"/>
<path d="M452.903 147.952H409.473C407.838 147.887 406.271 147.277 405.021 146.221C403.771 145.165 402.91 143.721 402.573 142.12L397.403 113.82C397.234 113.111 397.23 112.373 397.393 111.662C397.556 110.952 397.881 110.288 398.343 109.724C398.804 109.16 399.389 108.709 400.053 108.408C400.717 108.107 401.441 107.963 402.17 107.988H445.652C447.287 108.054 448.853 108.663 450.103 109.719C451.353 110.776 452.215 112.219 452.552 113.82L457.722 142.12C457.892 142.834 457.895 143.577 457.729 144.291C457.563 145.006 457.233 145.672 456.766 146.238C456.299 146.803 455.707 147.252 455.036 147.55C454.366 147.847 453.635 147.985 452.903 147.952Z" fill="white"/>
<path opacity="0.5" d="M452.128 147.952H409.422C407.787 147.887 406.22 147.277 404.97 146.221C403.721 145.165 402.859 143.721 402.522 142.12L397.352 113.82C397.183 113.111 397.18 112.373 397.343 111.662C397.506 110.952 397.83 110.288 398.292 109.724C398.753 109.16 399.338 108.709 400.002 108.408C400.666 108.107 401.39 107.963 402.119 107.988H444.825C446.46 108.054 448.027 108.663 449.276 109.719C450.526 110.776 451.388 112.219 451.725 113.82L456.895 142.12C457.064 142.829 457.067 143.568 456.904 144.278C456.741 144.988 456.416 145.652 455.955 146.216C455.494 146.78 454.908 147.231 454.245 147.532C453.581 147.833 452.856 147.977 452.128 147.952Z" fill="#385AA4"/>
<path d="M397.344 126.413L398.988 135.647L402.588 132.276L401.616 125.4C401.576 125.122 401.459 124.86 401.277 124.646C401.096 124.431 400.857 124.272 400.588 124.188C400.32 124.103 400.033 124.097 399.761 124.168C399.49 124.24 399.243 124.387 399.052 124.593L397.344 126.413Z" fill="#FF8B7B"/>
<defs>
<filter id="filter0_d" x="0" y="28.8301" width="388" height="283" filterUnits="userSpaceOnUse" color-interpolation-filters="sRGB">
<feFlood flood-opacity="0" result="BackgroundImageFix"/>
<feColorMatrix in="SourceAlpha" type="matrix" values="0 0 0 0 0 0 0 0 0 0 0 0 0 0 0 0 0 0 127 0" result="hardAlpha"/>
<feOffset dy="3"/>
<feGaussianBlur stdDeviation="7.5"/>
<feColorMatrix type="matrix" values="0 0 0 0 0.00392157 0 0 0 0 0.290196 0 0 0 0 0.717647 0 0 0 0.2 0"/>
<feBlend mode="normal" in2="BackgroundImageFix" result="effect1_dropShadow"/>
<feBlend mode="normal" in="SourceGraphic" in2="effect1_dropShadow" result="shape"/>
</filter>
<filter id="filter1_d" x="29" y="75.8301" width="331" height="28" filterUnits="userSpaceOnUse" color-interpolation-filters="sRGB">
<feFlood flood-opacity="0" result="BackgroundImageFix"/>
<feColorMatrix in="SourceAlpha" type="matrix" values="0 0 0 0 0 0 0 0 0 0 0 0 0 0 0 0 0 0 127 0" result="hardAlpha"/>
<feOffset dy="2"/>
<feGaussianBlur stdDeviation="1"/>
<feColorMatrix type="matrix" values="0 0 0 0 0.847059 0 0 0 0 0.909804 0 0 0 0 1 0 0 0 0.89 0"/>
<feBlend mode="normal" in2="BackgroundImageFix" result="effect1_dropShadow"/>
<feBlend mode="normal" in="SourceGraphic" in2="effect1_dropShadow" result="shape"/>
</filter>
<filter id="filter2_d" x="164" y="0.828125" width="120" height="177" filterUnits="userSpaceOnUse" color-interpolation-filters="sRGB">
<feFlood flood-opacity="0" result="BackgroundImageFix"/>
<feColorMatrix in="SourceAlpha" type="matrix" values="0 0 0 0 0 0 0 0 0 0 0 0 0 0 0 0 0 0 127 0" result="hardAlpha"/>
<feOffset dy="3"/>
<feGaussianBlur stdDeviation="7.5"/>
<feColorMatrix type="matrix" values="0 0 0 0 0.0352941 0 0 0 0 0.133333 0 0 0 0 0.278431 0 0 0 0.31 0"/>
<feBlend mode="normal" in2="BackgroundImageFix" result="effect1_dropShadow"/>
<feBlend mode="normal" in="SourceGraphic" in2="effect1_dropShadow" result="shape"/>
</filter>
<filter id="filter3_d" x="16.9199" y="159.333" width="138.751" height="76.494" filterUnits="userSpaceOnUse" color-interpolation-filters="sRGB">
<feFlood flood-opacity="0" result="BackgroundImageFix"/>
<feColorMatrix in="SourceAlpha" type="matrix" values="0 0 0 0 0 0 0 0 0 0 0 0 0 0 0 0 0 0 127 0" result="hardAlpha"/>
<feOffset dy="6"/>
<feGaussianBlur stdDeviation="3"/>
<feColorMatrix type="matrix" values="0 0 0 0 0 0 0 0 0 0 0 0 0 0 0 0 0 0 0.161 0"/>
<feBlend mode="normal" in2="BackgroundImageFix" result="effect1_dropShadow"/>
<feBlend mode="normal" in="SourceGraphic" in2="effect1_dropShadow" result="shape"/>
</filter>
<filter id="filter4_d" x="212.293" y="165.189" width="285.414" height="124.106" filterUnits="userSpaceOnUse" color-interpolation-filters="sRGB">
<feFlood flood-opacity="0" result="BackgroundImageFix"/>
<feColorMatrix in="SourceAlpha" type="matrix" values="0 0 0 0 0 0 0 0 0 0 0 0 0 0 0 0 0 0 127 0" result="hardAlpha"/>
<feOffset dy="3"/>
<feGaussianBlur stdDeviation="5"/>
<feColorMatrix type="matrix" values="0 0 0 0 0 0 0 0 0 0 0 0 0 0 0 0 0 0 0.161 0"/>
<feBlend mode="normal" in2="BackgroundImageFix" result="effect1_dropShadow"/>
<feBlend mode="normal" in="SourceGraphic" in2="effect1_dropShadow" result="shape"/>
</filter>
</defs>
</svg>
