<svg width="103" height="20" viewBox="0 0 103 20" fill="none" xmlns="http://www.w3.org/2000/svg">
<path d="M0.330322 0.0566406V19.6222H4.89673V0.0566406H0.330322Z" fill="#092247"/>
<path d="M21.5995 0.0566396V10.4111C21.5995 10.7245 21.6096 11.058 21.6276 11.4116C21.6455 11.7652 21.6718 12.1289 21.7079 12.5045L12.4144 0.75606C12.3112 0.627114 12.1992 0.505593 12.079 0.392396C11.9877 0.308144 11.884 0.238345 11.7716 0.185426C11.6562 0.133626 11.5336 0.099618 11.408 0.0845518C11.2434 0.0642447 11.0776 0.0548091 10.9118 0.0563061H8.521V19.6222H12.5225V9.13532C12.5225 8.84798 12.5144 8.54265 12.4962 8.21514C12.4781 7.88762 12.4561 7.55422 12.428 7.21476L21.6533 18.8709C21.8353 19.1212 22.0751 19.3239 22.3524 19.4615C22.6333 19.5759 22.935 19.6306 23.2382 19.6222H25.6008V0.0566396H21.5995Z" fill="#092247"/>
<path d="M41.421 3.54861V0.0568848H28.8247V19.6225H33.3911V12.0086H40.079V8.50474H33.3918V3.54861H41.421Z" fill="#092247"/>
<path d="M44.1865 19.6222H48.7529V7.18847L44.1865 2.62207V19.6222Z" fill="#092247"/>
<path d="M65.4572 0.0568848V10.4113C65.4572 10.7247 65.4653 11.0583 65.4834 11.4119C65.5016 11.7654 65.5275 12.1291 65.5636 12.5047L56.2721 0.756305C56.1679 0.628295 56.0559 0.506843 55.9367 0.392642C55.7514 0.220494 55.5156 0.112708 55.2642 0.0852998C55.0996 0.0649879 54.9338 0.0555523 54.768 0.0570541H52.3772V19.6225H56.3787V9.13556C56.3787 8.84823 56.3706 8.5429 56.3524 8.21538C56.3343 7.88787 56.3123 7.55446 56.2842 7.21501L65.5095 18.8711C65.692 19.121 65.9317 19.3236 66.2086 19.4618C66.4896 19.5761 66.7913 19.6309 67.0946 19.6225H69.4572V0.0568848H65.4572Z" fill="#092247"/>
<path d="M73.0835 0.0568848V19.6225H77.6499V0.0568848H73.0835Z" fill="#092247"/>
<path d="M79.9316 0.0568848V3.65705H85.4362V19.6225H89.9757V3.65705H95.4806V0.0568848H79.9316Z" fill="#092247"/>
<path d="M97.7639 0.0566406V19.6222H102.33V0.0566406H97.7639Z" fill="#092247"/>
<path d="M48.7554 0.0561523V4.62458L46.4712 2.34036L48.7554 0.0561523Z" fill="#D22635"/>
<path d="M48.7554 0.0563965L46.4712 2.34061L44.1875 0.0563965H48.7554Z" fill="#F8B133"/>
</svg>
