<?xml version="1.0" standalone="no"?>
<!DOCTYPE svg PUBLIC "-//W3C//DTD SVG 1.1//EN" "http://www.w3.org/Graphics/SVG/1.1/DTD/svg11.dtd" >
<svg xmlns="http://www.w3.org/2000/svg" xmlns:xlink="http://www.w3.org/1999/xlink" version="1.1">
<metadata>
Created by FontForge 20201107 at Wed Dec 22 20:51:25 2021
 By 
</metadata>
<defs>
<font id="Flynas-Regular" horiz-adv-x="0" >
  <font-face 
    font-family="Flynas"
    font-weight="400"
    font-stretch="normal"
    units-per-em="1150"
    panose-1="0 0 5 0 0 0 0 0 0 0"
    ascent="920"
    descent="-230"
    x-height="515"
    cap-height="700"
    bbox="-194 -423 1459 1101"
    underline-thickness="50"
    underline-position="-100"
    unicode-range="U+000D-FEFC"
  />
<missing-glyph horiz-adv-x="500" 
d="M474 774q26 -26 26 -71v-806q0 -45 -26 -71t-71 -26h-305q-45 0 -71.5 26t-26.5 71v806q0 45 26.5 71t71.5 26h305q45 0 71 -26zM429 750h-358l179 -390zM50 676v-752l172 376zM450 676l-172 -376l172 -376v752zM250 240l-179 -390h358z" />
    <glyph glyph-name="uniFDF2" unicode="&#x627;&#xfedf;&#xfee0;&#xfeea;" horiz-adv-x="1516" arabic-form="isolated" 
d="M773 1022l1 57q0 11 6 16.5t14 5.5q6 0 11.5 -4.5t5.5 -10.5l1 -75q0 -10 -5.5 -15t-11.5 -5q-22 0 -22 31zM712.5 862q-16.5 29 -16.5 65q0 7 5.5 11.5t12.5 4.5q11 0 17 -16q2 -9 4 -25.5t7.5 -26t19.5 -9.5q12 0 21 8t9 19q0 9 -4 23q-4 16 -4 23t5.5 12t12.5 5
q12 0 16 -16q2 -6 4 -20q3 -21 8 -31t20 -10q11 0 20.5 8t9.5 19q0 8 -4 24t-4 24t5.5 12t13.5 4q12 -3 17 -23.5t5 -39.5q0 -25 -18.5 -42.5t-43.5 -17.5q-17 0 -36 12q-24 -26 -52 -26q-34 0 -50.5 29zM1224.5 719.5q12.5 -10.5 12.5 -27.5v-509q0 -50 -25.5 -92
t-68 -66.5t-92.5 -24.5h-97q-45 0 -79.5 21t-62.5 59q-31 -42 -61.5 -61t-77.5 -19h-68q-95 0 -151 95q-39 -47 -80 -71t-98 -24q-63 0 -116.5 30.5t-85 83.5t-31.5 116t31.5 116t85 84t116.5 31q70 0 128.5 -38.5t85.5 -102.5q9 -22 12 -41.5t5 -53.5q1 -35 6 -60t22 -49
q22 -38 83 -38h55q41 0 68.5 31t27.5 75v510q0 18 12.5 29t30.5 11q17 0 29.5 -11t12.5 -29v-510q0 -44 29 -75t72 -31h96q42 0 72 31.5t30 73.5v509q0 17 12 27.5t29 10.5q18 0 30.5 -10.5zM1446 718.5q13 -10.5 13 -27.5v-651q0 -17 -12.5 -28t-30.5 -11q-17 0 -29 11
t-12 28v651q0 17 12 27.5t29 10.5t30 -10.5zM350 98q34 21 54 56.5t20 75.5q0 41 -19.5 76.5t-53.5 56.5t-75 21t-75 -21t-54 -56.5t-20 -76.5t20 -76t54 -56t75 -21q40 0 74 21z" />
    <glyph glyph-name="uniFEF5" unicode="&#xfedf;&#xfe82;" horiz-adv-x="597" arabic-form="isolated" 
d="M46.5 849.5q25.5 18.5 47.5 18.5q5 0 13 -2q10 -2 22 -6.5t18 -6.5q26 -12 43 -12q22 0 52 15l23 9q13 2 23.5 -7t6.5 -22q-8 -23 -43 -37t-64 -14q-15 0 -29 5t-33 14q-6 2 -18 8q-6 3 -12 3q-7 0 -18 -7q-5 -5 -15 -14.5t-18.5 -14.5t-18.5 -5q-13 0 -21 9t-4 21
q20 27 45.5 45.5zM64 64q10 12 30 12h194q50 0 93 26.5t68 70.5t25 94v414q0 14 10 25.5t30 11.5q21 0 31.5 -11.5t10.5 -25.5v-414q0 -72 -36 -133.5t-98 -97.5t-134 -36h-194q-20 0 -30 12.5t-10 25.5q0 14 10 26zM314 260q0 -16 -14 -27t-31 -11q-25 0 -37 23l-173 394
q-4 7 -4 15q0 15 13.5 25.5t29.5 10.5q26 0 37 -24l175 -390q4 -10 4 -16z" />
    <glyph glyph-name="uniFEF6" unicode="&#xfee0;&#xfe82;" horiz-adv-x="686" arabic-form="final" 
d="M20.5 849.5q24.5 18.5 46.5 18.5q5 0 13 -2q10 -2 22 -6.5t18 -6.5q26 -12 43 -12q21 0 51 15l23 9q13 2 23.5 -7t7.5 -22q-8 -23 -43 -37t-64 -14q-14 0 -26 4t-32 13q-4 2 -22 10q-6 3 -12 3q-7 0 -18 -7q-7 -6 -16.5 -15t-18 -14t-17.5 -5q-13 0 -21 9t-4 21
q22 27 46.5 45.5zM539.5 709.5q10.5 -12.5 10.5 -26.5v-502q0 -45 30 -74t73 -29h56v-78h-59q-60 0 -99.5 30t-59.5 81q-71 -111 -211 -111h-194q-21 0 -31.5 12.5t-10.5 26.5q0 13 11 25t31 12h194q51 0 94 26.5t67.5 71t24.5 94.5v415q0 14 10.5 26.5t31.5 12.5
t31.5 -12.5zM309 255q0 -16 -12.5 -26t-29.5 -10q-24 0 -34 21l-186 412q-4 7 -4 14q0 15 13.5 25.5t30.5 10.5q25 0 36 -21l182 -410q4 -8 4 -16z" />
    <glyph glyph-name="uniFEF7" unicode="&#xfedf;&#xfe84;" horiz-adv-x="597" arabic-form="isolated" 
d="M-13.5 830q6.5 6 17.5 6h27q-11 13 -16 24t-5 27q0 38 27.5 64.5t65.5 26.5q29 0 48.5 -13.5t34.5 -40.5q5 -10 5 -17t-5 -12t-15 -5q-8 1 -13 6.5t-11 14.5q-9 14 -18 21t-26 7q-21 0 -35.5 -15.5t-14.5 -36.5q0 -25 15.5 -37t39.5 -14h72q9 0 15.5 -6t6.5 -15
q0 -8 -6.5 -13.5t-15.5 -5.5h-179q-8 0 -14.5 5.5t-6.5 13.5q0 9 6.5 15zM64 64q10 12 30 12h194q50 0 93 26.5t68 70.5t25 94v414q0 14 10 25.5t30 11.5q21 0 31.5 -11.5t10.5 -25.5v-414q0 -72 -36 -133.5t-98 -97.5t-134 -36h-194q-20 0 -30 12.5t-10 25.5q0 14 10 26z
M314 260q0 -16 -14 -27t-31 -11q-25 0 -37 23l-173 394q-4 7 -4 15q0 15 13.5 25.5t29.5 10.5q26 0 37 -24l175 -390q4 -10 4 -16z" />
    <glyph glyph-name="uniFEF8" unicode="&#xfee0;&#xfe84;" horiz-adv-x="686" arabic-form="final" 
d="M-13.5 830q6.5 6 17.5 6h27q-11 13 -16 24t-5 27q0 38 27.5 64.5t65.5 26.5q29 0 48.5 -13.5t34.5 -40.5q5 -10 5 -17t-5 -12t-15 -5q-8 1 -13 6.5t-11 14.5q-9 14 -18 21t-26 7q-21 0 -35.5 -15.5t-14.5 -36.5q0 -25 15.5 -37t39.5 -14h72q9 0 15.5 -6t6.5 -15
q0 -8 -6.5 -13.5t-15.5 -5.5h-179q-8 0 -14.5 5.5t-6.5 13.5q0 9 6.5 15zM539.5 709.5q10.5 -12.5 10.5 -26.5v-502q0 -45 30 -74t73 -29h56v-78h-59q-60 0 -99.5 30t-59.5 81q-33 -51 -87 -81t-124 -30h-194q-21 0 -31.5 12.5t-10.5 26.5q0 13 11 25t31 12h194
q54 0 96.5 26.5t66 70.5t23.5 95v415q0 14 10.5 26.5t31.5 12.5t31.5 -12.5zM309 254q0 -15 -12.5 -24.5t-28.5 -9.5q-24 0 -35 20l-186 412q-4 7 -4 14q0 15 13.5 25.5t30.5 10.5q25 0 36 -21l182 -410q4 -8 4 -17z" />
    <glyph glyph-name="uniFEF9" unicode="&#xfedf;&#xfe88;" horiz-adv-x="597" arabic-form="isolated" 
d="M64 64q10 12 30 12h194q50 0 93 26.5t68 70.5t25 94v414q0 14 10 25.5t30 11.5q21 0 31.5 -11.5t10.5 -25.5v-414q0 -72 -36 -133.5t-98 -97.5t-134 -36h-194q-20 0 -30 12.5t-10 25.5q0 14 10 26zM314 260q0 -16 -14 -27t-31 -11q-25 0 -37 23l-173 394q-4 7 -4 15
q0 15 13.5 25.5t29.5 10.5q26 0 37 -24l175 -390q4 -10 4 -16zM117 -218h27q-11 13 -16 24t-5 26q0 39 27.5 65.5t65.5 26.5q30 0 49.5 -13.5t34.5 -40.5q5 -10 5 -17t-5 -12t-15 -5q-8 1 -13 6t-12 15q-8 13 -17.5 20.5t-26.5 7.5q-21 0 -35.5 -15.5t-14.5 -37.5
q0 -25 15.5 -37t40.5 -13h72q9 0 15 -5.5t6 -15.5q0 -8 -6.5 -13.5t-14.5 -5.5h-179q-9 0 -15 5.5t-6 13.5q0 19 23 21z" />
    <glyph glyph-name="uniFEFA" unicode="&#xfee0;&#xfe88;" horiz-adv-x="686" arabic-form="final" 
d="M539.5 709.5q10.5 -12.5 10.5 -26.5v-502q0 -45 30 -74t73 -29h56v-78h-59q-60 0 -99.5 30t-59.5 81q-71 -111 -211 -111h-194q-21 0 -31.5 12.5t-10.5 26.5q0 13 11 25t31 12h194q56 0 98.5 26.5t65 70.5t22.5 95v415q0 14 10.5 26.5t31.5 12.5t31.5 -12.5zM309 255
q0 -16 -12.5 -26t-29.5 -10q-24 0 -34 21l-186 412q-4 7 -4 14q0 15 13.5 25.5t30.5 10.5q25 0 36 -21l182 -410q4 -8 4 -16zM98.5 -224.5q6.5 5.5 17.5 6.5h27q-11 13 -16 24t-5 26q0 39 27.5 65.5t65.5 26.5q30 0 49 -13.5t35 -40.5q5 -8 5 -17q0 -7 -5 -12t-15 -5
q-8 1 -13 6t-12 15q-8 13 -17.5 20.5t-26.5 7.5q-21 0 -35.5 -15.5t-14.5 -37.5q0 -25 15.5 -37t40.5 -13h72q9 0 15 -5.5t6 -15.5q0 -8 -6.5 -13.5t-14.5 -5.5h-179q-9 0 -15.5 5.5t-6.5 13.5q0 9 6.5 14.5z" />
    <glyph glyph-name="uniFEFB" unicode="&#xfedf;&#xfe8e;" horiz-adv-x="597" arabic-form="isolated" 
d="M64 64q10 12 30 12h194q50 0 93 26.5t68 70.5t25 94v414q0 14 10 25.5t30 11.5q21 0 31.5 -11.5t10.5 -25.5v-414q0 -72 -36 -133.5t-98 -97.5t-134 -36h-194q-20 0 -30 12.5t-10 25.5q0 14 10 26zM313 263q0 -17 -14.5 -28.5t-31.5 -11.5q-25 0 -35 22l-173 394
q-4 7 -4 15q0 15 13.5 25.5t29.5 10.5q26 0 37 -24l174 -387q4 -12 4 -16z" />
    <glyph glyph-name="uniFEFC" unicode="&#xfee0;&#xfe8e;" horiz-adv-x="686" arabic-form="final" 
d="M539.5 709.5q10.5 -12.5 10.5 -26.5v-502q0 -45 30 -74t73 -29h56v-78h-59q-60 0 -99.5 30t-59.5 81q-71 -111 -211 -111h-194q-21 0 -31.5 12.5t-10.5 26.5q0 13 11 25t31 12h194q51 0 94 26.5t67.5 71t24.5 94.5v415q0 14 10.5 26.5t31.5 12.5t31.5 -12.5zM309 255
q0 -16 -12.5 -26t-29.5 -10q-24 0 -34 21l-186 412q-4 7 -4 14q0 15 13.5 25.5t30.5 10.5q25 0 36 -21l182 -410q4 -8 4 -16z" />
    <glyph glyph-name="uniFB51" unicode="&#x671;" horiz-adv-x="286" arabic-form="final" 
d="M125 927q42 0 57 -26t15 -71v-49h-225q-11 0 -17.5 5t-6.5 11q0 7 6.5 11.5t17.5 4.5l36 -1q32 115 117 115zM150 878q-8 19 -33 19q-30 0 -47.5 -25t-25.5 -60h114v17q0 30 -8 49zM73.5 719.5q12.5 10.5 30.5 10.5q17 0 29 -10.5t12 -27.5v-481q0 -37 18 -67.5t48.5 -48
t67.5 -17.5h80v-78h-83q-58 0 -107.5 28.5t-78.5 77t-29 105.5v481q0 17 12.5 27.5z" />
    <glyph glyph-name="uniFB57" unicode="&#x67e;" horiz-adv-x="936" arabic-form="final" 
d="M77 449q13 11 30 11q19 0 30.5 -12t11.5 -32v-122q-1 -57 22 -106.5t66 -80t101 -30.5h208q57 0 100 30.5t65.5 80.5t22.5 106v126q0 18 12 29t30 11t30.5 -10.5t12.5 -28.5v-238q0 -43 28 -74t70 -31h51v-78h-48q-56 0 -95 30t-66 83q-49 -57 -97 -85t-116 -28h-208
q-73 0 -136 36t-100.5 98t-37.5 136v151q0 17 13 28zM401 -87q-17 16 -41 16t-41 -16t-17 -40t17 -40.5t41 -16.5t41 16.5t17 40.5t-17 40zM512.5 -87q-17.5 -16 -17.5 -40t17.5 -40.5t41.5 -16.5t41 16.5t17 40.5t-17 40t-41 16t-41.5 -16zM417 -238.5q-17 -15.5 -17 -38.5
q0 -24 17 -39.5t41 -15.5t40.5 15.5t16.5 39.5t-16.5 39t-40.5 15t-41 -15.5z" />
    <glyph glyph-name="uniFB58" unicode="&#x67e;" horiz-adv-x="370" arabic-form="initial" 
d="M188 118.5q35 40.5 35 100.5v194q0 50 42 50q18 0 30.5 -11.5t12.5 -28.5v-212q0 -57 -29.5 -105.5t-79.5 -77t-107 -28.5h-120v78h120q61 0 96 40.5zM101 -87q-17 16 -41 16t-41 -16t-17 -40t17 -40.5t41 -16.5t41 16.5t17 40.5t-17 40zM212.5 -87q-17.5 -16 -17.5 -40
t17.5 -40.5t41.5 -16.5t41 16.5t17 40.5t-17 40t-41 16t-41.5 -16zM117 -238q-17 -15 -17 -39t17 -39.5t41 -15.5t40.5 15.5t16.5 39.5t-16.5 39t-40.5 15t-41 -15z" />
    <glyph glyph-name="uniFB59" unicode="&#x67e;" horiz-adv-x="387" arabic-form="medial" 
d="M236.5 452q12.5 -9 12.5 -25v-191q0 -159 152 -159l19 1v-78h-41q-53 0 -95 23.5t-78 68.5q-29 -45 -74.5 -68.5t-101.5 -23.5h-55v78l44 -1q144 0 144 159v191q0 16 12.5 25t30.5 9t30.5 -9zM129.5 -87q-17.5 16 -41.5 16t-41 -16t-17 -40t17 -40.5t41 -16.5t41.5 16.5
t17.5 40.5t-17.5 40zM240.5 -87q-17.5 -16 -17.5 -40t17.5 -40.5t41.5 -16.5t41 16.5t17 40.5t-17 40t-41 16t-41.5 -16zM145.5 -238q-16.5 -15 -16.5 -39t16.5 -39.5t40.5 -15.5t40.5 15.5t16.5 39.5t-16.5 39t-40.5 15t-40.5 -15z" />
    <glyph glyph-name="uniFB67" unicode="&#x679;" horiz-adv-x="936" arabic-form="final" 
d="M336 815q7 0 11.5 -4t4.5 -11v-95q23 16 38 22.5t37 6.5h46q37 0 62 -25.5t25 -63.5q0 -35 -25 -61t-60 -26h-155v242q0 15 16 15zM511 606q16 16 16 39t-13.5 37t-36.5 17q-67 0 -96 -14.5t-29 -59.5v-35h121q22 0 38 16zM77 449q13 11 30 11q19 0 30.5 -12t11.5 -32
v-122q-1 -57 22 -106.5t66 -80t101 -30.5h208q57 0 100 30.5t65.5 80.5t22.5 106v126q0 18 12 29t30 11t30.5 -10.5t12.5 -28.5v-238q0 -43 28 -74t70 -31h51v-78h-48q-56 0 -95 30t-66 83q-49 -57 -97 -85t-116 -28h-208q-73 0 -136 36t-100.5 98t-37.5 136v151q0 17 13 28
z" />
    <glyph glyph-name="uniFB68" unicode="&#x679;" horiz-adv-x="341" arabic-form="initial" 
d="M159 815q16 0 16 -15v-95q23 15 38.5 22t36.5 7h46q37 0 62 -25.5t25 -63.5q0 -35 -25 -61t-60 -26h-155v242q0 15 16 15zM334 606q16 16 16 39t-13.5 37t-36.5 17q-67 0 -96 -14.5t-29 -59.5v-35h121q22 0 38 16zM314.5 451.5q12.5 -11.5 12.5 -28.5v-212
q0 -64 -29 -112t-78.5 -73.5t-108.5 -25.5h-132v78h127q70 0 103 37.5t33 103.5v194q0 50 43 50q17 0 29.5 -11.5z" />
    <glyph glyph-name="uniFB69" unicode="&#x679;" horiz-adv-x="390" arabic-form="medial" 
d="M106 815q17 0 17 -15v-95q21 15 37 22t37 7h47q37 0 61.5 -25.5t24.5 -63.5q0 -36 -24.5 -61.5t-59.5 -25.5h-156v242q0 15 16 15zM282 606.5q16 16.5 16 38.5q0 24 -14 39t-36 15q-67 0 -96 -14.5t-29 -59.5v-35h121q22 0 38 16.5zM236.5 452q12.5 -9 12.5 -25v-191
q0 -75 36.5 -117t109.5 -42l25 1v-78h-41q-53 0 -100 27t-73 65q-29 -44 -73 -68t-97 -24h-64v78l53 -1q138 0 138 159v191q0 16 12.5 25t30.5 9t30.5 -9z" />
    <glyph glyph-name="uniFB6B" unicode="&#x6a4;" horiz-adv-x="926" arabic-form="final" 
d="M716.5 804.5q16.5 -15.5 16.5 -39.5q0 -23 -16.5 -38.5t-40.5 -15.5t-41 15t-17 39q0 23 17.5 39t40.5 16q24 0 40.5 -15.5zM621 645.5q17 -15.5 17 -39.5t-17 -39t-42 -15q-24 0 -40.5 15t-16.5 39q0 23 17 39t40 16q25 0 42 -15.5zM729 645.5q17 15.5 41 15.5t41 -15.5
t17 -39.5q0 -23 -17.5 -38.5t-40.5 -15.5q-25 0 -41.5 15t-16.5 39t17 39.5zM117.5 449.5q12.5 -11.5 12.5 -28.5v-241q0 -41 28 -70.5t69 -29.5h266q-37 37 -54 70t-17 80q0 63 31.5 116t84.5 84t116 31q62 0 115.5 -31t85 -84.5t31.5 -115.5q0 -46 -18 -81t-53 -71h162
v-78h-750q-48 0 -90 22t-67 60.5t-25 87.5v251q0 18 12.5 29t30.5 11q17 0 29.5 -11.5zM731 101q33 21 52 55.5t19 73.5q0 40 -20 75t-54 56t-74 21q-41 0 -74.5 -21t-53 -55.5t-19.5 -75.5t20.5 -75.5t55.5 -54.5t76 -20q39 0 72 21z" />
    <glyph glyph-name="uniFB6C" unicode="&#x6a4;" horiz-adv-x="580" arabic-form="initial" 
d="M361.5 804.5q16.5 -15.5 16.5 -39.5q0 -23 -16.5 -38.5t-40.5 -15.5t-41 15t-17 39q0 23 17.5 39t40.5 16q24 0 40.5 -15.5zM266 645.5q17 -15.5 17 -39.5t-17 -39t-42 -15q-24 0 -40.5 15t-16.5 39q0 23 17 39t40 16q25 0 42 -15.5zM374 645.5q17 15.5 41 15.5t41 -15.5
t17 -39.5q0 -23 -17.5 -38.5t-40.5 -15.5q-25 0 -41.5 15t-16.5 39t17 39.5zM154 78q-35 34 -53 70.5t-18 82.5q0 63 31.5 116t84.5 84t116 31q62 0 115.5 -31.5t85 -84.5t31.5 -115q0 -61 -31 -114.5t-84 -85t-114 -31.5h-341v78h177zM186 156.5q19 -34.5 52 -55.5t72 -21
q42 0 77 20.5t55 55t20 75.5q0 40 -19.5 75t-53 55.5t-74.5 20.5q-40 0 -74 -20.5t-54 -55.5t-20 -75t19 -74.5z" />
    <glyph glyph-name="uniFB6D" unicode="&#x6a4;" horiz-adv-x="568" arabic-form="medial" 
d="M373 804.5q17 -15.5 17 -39.5q0 -23 -17 -38.5t-41 -15.5t-41 15t-17 39q0 23 17.5 39t40.5 16q24 0 41 -15.5zM277 645.5q17 -15.5 17 -39.5t-17 -39t-41 -15t-41 15.5t-17 38.5q0 24 17 39.5t41 15.5t41 -15.5zM385 645.5q17 15.5 41 15.5t41.5 -16t17.5 -39t-18 -38.5
t-41 -15.5q-24 0 -41 15t-17 39t17 39.5zM84 148.5q-18 36.5 -18 82.5q0 63 31.5 116.5t84.5 84.5t117 31q63 0 116.5 -31t84.5 -84.5t31 -116.5q0 -46 -18 -82.5t-53 -70.5h152v-78h-637v78h162q-35 34 -53 70.5zM375 101q33 21 52.5 55.5t19.5 74.5q0 41 -19.5 75.5
t-53.5 55.5t-75 21t-75 -21t-54 -55.5t-20 -75.5t20.5 -75.5t55.5 -55t76 -20.5q40 0 73 21z" />
    <glyph glyph-name="uniFB7B" unicode="&#x686;" horiz-adv-x="742" arabic-form="final" 
d="M102 -40q32 54 86.5 85.5t119.5 31.5h246q-5 75 -42 142.5t-99 108.5t-137 41q-34 0 -57.5 -7t-51.5 -19q-3 -1 -16 -7t-25 -6q-16 0 -27 10.5t-11 24.5q0 7 1 10q21 36 76.5 53.5t110.5 17.5q111 0 200 -62t134 -166q6 -13 14 -43q10 -32 19 -49.5t29 -29.5
q29 -19 65 -19l24 1v-78h-32q-34 0 -57.5 9t-48.5 29q-1 -2 -4 -13.5t-7 -18t-11 -6.5h-293q-42 0 -77.5 -22t-56 -58t-20.5 -78q0 -43 20.5 -78.5t56 -56.5t78.5 -21q35 0 52.5 -7t17.5 -32q0 -22 -20.5 -31t-47.5 -9q-70 0 -125 31t-85.5 84.5t-30.5 119.5q0 64 32 118z
M354.5 -91.5q12.5 12.5 30.5 12.5t31 -12.5t13 -30.5q0 -19 -12.5 -31.5t-31.5 -12.5q-18 0 -30.5 13t-12.5 31t12.5 30.5zM510 -91q13 12 32 12q18 0 30.5 -12.5t12.5 -30.5t-12.5 -31t-30.5 -13q-19 0 -32 13t-13 31q0 19 13 31zM433 -213q13 12 31 12t30.5 -12t12.5 -30
t-12.5 -30t-30.5 -12t-31 12t-13 30t13 30z" />
    <glyph glyph-name="uniFB7C" unicode="&#x686;" horiz-adv-x="679" arabic-form="initial" 
d="M486 230q-36 63 -96.5 101t-135.5 38q-42 0 -69 -8t-52 -21q-20 -10 -30 -10q-17 0 -28 10.5t-11 25.5q0 5 1 8q17 35 76 53t113 18q108 0 191 -54t128.5 -146.5t45.5 -206.5q0 -17 -12.5 -27.5t-29.5 -10.5h-603v78h553l-1 17q-4 72 -40 135zM245 -99.5
q17 -15.5 17 -39.5t-17 -40.5t-41 -16.5t-41 16.5t-17 40.5t17 39.5t41 15.5t41 -15.5zM439 -99.5q17 -15.5 17 -39.5t-17 -40.5t-41 -16.5t-41.5 16.5t-17.5 40.5t17.5 39.5t41.5 15.5t41 -15.5zM261 -250.5q17 15.5 41 15.5t40.5 -15.5t16.5 -39.5t-16.5 -39t-40.5 -15
t-41 15t-17 39t17 39.5z" />
    <glyph glyph-name="uniFB7D" unicode="&#x686;" horiz-adv-x="739" arabic-form="medial" 
d="M546 78l-2 16q-5 72 -42.5 135.5t-99 101.5t-134.5 38q-31 0 -55.5 -6.5t-60.5 -20.5q-24 -10 -35 -13q-18 -1 -30.5 12.5t-10.5 30.5q16 36 76.5 56t113.5 20q105 0 190 -56t135 -152q7 -13 19 -51l9 -24t10 -24q10 -27 36 -45t57 -19l28 1v-78h-37q-58 1 -99 37
q-2 -5 -4.5 -14.5t-6.5 -16t-12 -6.5h-614v78h569zM247 -86.5q17 -15.5 17 -39.5t-16.5 -40.5t-41.5 -16.5q-24 0 -41 16.5t-17 40.5t17 39.5t41 15.5t41 -15.5zM441 -86.5q17 -15.5 17 -39.5t-17 -40.5t-41 -16.5t-41.5 16.5t-17.5 40.5t17.5 39.5t41.5 15.5t41 -15.5z
M344.5 -237.5q16.5 -15.5 16.5 -39.5t-16.5 -39t-40.5 -15t-41 15.5t-17 38.5q0 24 17 39.5t41 15.5t40.5 -15.5z" />
    <glyph glyph-name="uniFB89" unicode="&#x688;" horiz-adv-x="630" arabic-form="final" 
d="M221 815q7 0 11.5 -4t4.5 -11v-100q21 34 74 34h47q37 0 62 -25.5t25 -63.5q0 -35 -25 -61t-60 -26h-155v242q0 15 16 15zM396 606.5q16 16.5 16 38.5q0 23 -13.5 37t-36.5 17q-66 0 -95.5 -15t-29.5 -59v-35h121q22 0 38 16.5zM63 66.5q12 10.5 29 10.5h337v153
q0 41 -19.5 76t-53.5 56t-75 21q-39 0 -73 -18q-16 -7 -23 -7q-17 0 -29.5 10t-12.5 26q0 20 23.5 35t56 23t58.5 8q58 0 107 -26t80.5 -72t38.5 -102q4 -37 5 -47q2 -35 8 -64q9 -31 38 -51t61 -20h31v-78h-41q-30 0 -61 15t-52 38q-6 -33 -9.5 -43t-15.5 -10h-379
q-17 0 -29 11t-12 28t12 27.5z" />
    <glyph glyph-name="uniFB8B" unicode="&#x698;" horiz-adv-x="424" arabic-form="final" 
d="M260 804.5q17 -15.5 17 -39.5q0 -23 -17 -38.5t-41 -15.5t-41 15.5t-17 38.5t17.5 39t40.5 16q24 0 41 -15.5zM164 645.5q17 -15.5 17 -39.5t-17 -39t-41 -15t-40.5 15t-16.5 39t16.5 39.5t40.5 15.5t41 -15.5zM273 645.5q17 15.5 41 15.5q23 0 40.5 -16t17.5 -39
t-17.5 -38.5t-40.5 -15.5q-25 0 -41.5 15t-16.5 39t17 39.5zM257 449.5q13 -10.5 13 -27.5v-238q0 -50 33 -78t83 -28h58v-78h-73q-33 0 -58 12t-45 37l-1 -78q-4 -59 -36 -108t-83 -77t-111 -28q-18 0 -30 10t-12 27q0 18 12 29t30 11q40 0 74 20.5t54 55.5t20 76v435
q0 17 12.5 27.5t29.5 10.5t30 -10.5z" />
    <glyph glyph-name="uniFB8D" unicode="&#x691;" horiz-adv-x="428" arabic-form="final" 
d="M156 815q16 0 16 -15v-95q23 15 38.5 22t36.5 7h47q37 0 61.5 -25.5t24.5 -63.5q0 -36 -24.5 -61.5t-59.5 -25.5h-156v242q0 15 16 15zM332 606.5q16 16.5 16 38.5q0 23 -13.5 37t-36.5 17q-67 0 -96.5 -14.5t-29.5 -59.5v-35h122q22 0 38 16.5zM257 449.5
q13 -10.5 13 -27.5v-238q0 -50 33 -78t83 -28h58v-78h-73q-33 0 -58 12t-45 37l-1 -78q-4 -59 -36 -108t-83 -77t-111 -28q-18 0 -30 10t-12 27q0 18 12 29t30 11q40 0 74 20.5t54 55.5t20 76v435q0 17 12.5 27.5t29.5 10.5t30 -10.5z" />
    <glyph glyph-name="uniFB8F" unicode="&#x6a9;" horiz-adv-x="693" arabic-form="final" 
d="M421 100q34 20 54 54.5t20 73.5q0 41 -19.5 77t-54 57t-74.5 21h-264q-17 0 -30 10.5t-13 27.5t12 29q53 57 263 273q6 6 15 9.5t17 3.5q17 0 29.5 -11.5t12.5 -28.5q-9 -24 -49.5 -68.5t-106.5 -110.5q-41 -41 -53 -54h165q53 0 98 -25.5t72 -69.5q65 -66 65 -169
q0 -47 24.5 -83t68.5 -36h43v-80h-38q-59 0 -94 25t-58 71q-28 -45 -73.5 -70.5t-100.5 -25.5h-374v80h369q40 0 74 20z" />
    <glyph glyph-name="uniFB90" unicode="&#x6a9;" horiz-adv-x="595" arabic-form="initial" 
d="M416 99q34 21 53.5 56t19.5 75q0 41 -19.5 76.5t-53.5 56.5t-75 21h-265q-17 0 -29.5 11t-12.5 28q0 6 3 13.5t7 11.5l265 274q13 13 32 13q17 0 29.5 -11t12.5 -28q-21 -38 -88 -107l-124 -128h170q63 0 116.5 -30.5t84.5 -83.5t31 -117q0 -62 -31 -114.5t-83.5 -84
t-113.5 -31.5h-366v78h362q41 0 75 21z" />
    <glyph glyph-name="uniFB91" unicode="&#x6a9;" horiz-adv-x="693" arabic-form="medial" 
d="M421 100q34 20 54 54.5t20 73.5q0 41 -19.5 77t-54 57t-74.5 21h-264q-17 0 -30 10.5t-13 27.5t12 29q53 57 263 273q6 6 15 9.5t17 3.5q17 0 29.5 -11.5t12.5 -28.5q-9 -24 -49.5 -68.5t-106.5 -110.5q-41 -41 -53 -54h165q53 0 98 -25.5t72 -69.5q65 -66 65 -169
q0 -47 24.5 -83t68.5 -36h43v-80h-38q-59 0 -94 25t-58 71q-28 -45 -73.5 -70.5t-100.5 -25.5h-374v80h369q40 0 74 20z" />
    <glyph glyph-name="uniFB93" unicode="&#x6af;" horiz-adv-x="722" arabic-form="final" 
d="M272 855l19 -36l-229 -221l-18 36zM475.5 305.5q-19.5 35.5 -53 57t-74.5 21.5h-265q-18 0 -30.5 10.5t-12.5 27.5q0 16 11 27l267 277q13 13 33 13q16 0 29 -11q12 -10 12 -28q0 -16 -10 -26l-204 -213h168q80 0 141 -49q50 -41 71.5 -92.5t21.5 -120.5q0 -47 26.5 -84
t71.5 -37h52v-78h-53q-48 0 -87 27t-63 68q-30 -42 -73.5 -68.5t-100.5 -26.5h-382v78h377q40 0 73.5 20.5t53.5 55.5t20 75q0 41 -19.5 76.5z" />
    <glyph glyph-name="uniFB94" unicode="&#x6af;" horiz-adv-x="603" arabic-form="initial" 
d="M282 820l-229 -221v54l229 221v-54zM416 99q34 21 53.5 56t19.5 75q0 41 -19.5 76.5t-53.5 56.5t-75 21h-265q-17 0 -29.5 11t-12.5 28q0 6 3 13.5t7 11.5l265 274q13 13 32 13q17 0 29.5 -11t12.5 -28q-21 -38 -88 -107l-124 -128h170q63 0 116.5 -30.5t84.5 -83.5
t31 -117q0 -62 -31 -114.5t-83.5 -84t-113.5 -31.5h-369v78h365q41 0 75 21z" />
    <glyph glyph-name="uniFB95" unicode="&#x6af;" horiz-adv-x="717" arabic-form="medial" 
d="M298 819l-229 -221l-27 28l229 221zM482.5 305q-19.5 36 -53.5 57.5t-75 21.5h-265q-17 0 -29.5 10.5t-12.5 27.5q0 16 11 27l267 277q15 15 33 15q15 0 27 -10q13 -11 13 -29q0 -19 -17 -36l-196 -205h168q80 0 141 -49q50 -41 71.5 -92.5t21.5 -120.5q0 -47 26.5 -84
t71.5 -37h40v-78h-41q-48 0 -87 27t-63 68q-30 -42 -73.5 -68.5t-100.5 -26.5h-375v78h369q40 0 74 20.5t54 55t20 73.5q0 42 -19.5 78z" />
    <glyph glyph-name="uniFBFD" unicode="&#x6cc;" horiz-adv-x="863" arabic-form="final" 
d="M270.5 266.5q-13.5 -13.5 -15.5 -16.5q-25 -27 -41.5 -48.5t-28.5 -56t-12 -80.5q0 -66 32 -122.5t87 -90t120 -33.5h160q45 0 81 23.5t55 63.5q12 25 15 59t4 39q-63 6 -118.5 29.5t-70.5 58.5q-3 17 8.5 30.5t29.5 13.5q7 0 15.5 -4t18.5 -10q35 -20 71.5 -32t96.5 -12
h103v-78h-70q-2 -44 -10.5 -77t-27.5 -64q-30 -54 -83.5 -85.5t-117.5 -31.5h-160q-88 0 -162.5 43t-118 117.5t-43.5 162.5q0 74 34 145t98 111q13 11 31 11q17 0 28.5 -10.5t10.5 -28.5q-6 -13 -19.5 -26.5z" />
    <glyph glyph-name="uniFBFE" unicode="&#x6cc;" horiz-adv-x="355" arabic-form="initial" 
d="M314 452q13 -12 13 -29v-211q0 -58 -29.5 -106.5t-79.5 -77t-107 -28.5h-137v78h111q74 0 115 36t41 105v194q0 23 10 37t33 14q17 0 30 -12zM24 -123q17 15 40 15t40.5 -15t17.5 -38t-17 -38.5t-41 -15.5q-22 0 -39.5 15.5t-17.5 38.5t17 38zM217 -123q17 15 40 15
t40.5 -15t17.5 -38t-17 -38.5t-41 -15.5q-22 0 -39.5 15.5t-17.5 38.5t17 38z" />
    <glyph glyph-name="uniFBFF" unicode="&#x6cc;" horiz-adv-x="398" arabic-form="medial" 
d="M234 453q13 -10 13 -26v-190q0 -159 142 -159h25v-78h-38q-55 0 -101 26.5t-71 65.5q-28 -42 -69.5 -67t-98.5 -25h-47v77h32q140 0 140 160v190q0 15 13 24.5t30 11.5q17 0 30 -10zM141 -123q-17 15 -40 15t-40.5 -15t-17.5 -38t17.5 -38.5t40.5 -15.5t40 15.5t17 38.5
t-17 38zM253.5 -123q-17.5 -15 -17.5 -38t17.5 -38.5t40.5 -15.5t40 15.5t17 38.5t-17 38t-40 15t-40.5 -15z" />
    <glyph glyph-name="uniFC5E" unicode="&#xfc5e;" arabic-form="isolated" 
d="M-86.5 251q6.5 -23 9.5 -42t4 -23l54 11q-6 20 -6 37q0 35 23 56t59 21q28 0 45 -14.5t17 -42.5q0 -31 -19 -50t-52 -25l-151 -30l-19 102q0 23 17 23q12 0 18.5 -23zM44 211.5q18 4.5 27.5 14t9.5 26.5q0 27 -29 27q-18 0 -29.5 -12.5t-11.5 -30.5q0 -14 7 -31z
M-46.5 76q2.5 -17 8.5 -26t19 -9q11 0 20 8t9 19q0 8 -1 14t-2 10q-4 14 -4 23q0 7 5.5 11.5t11.5 4.5q11 0 16 -13l4 -20q4 -24 9 -33.5t20 -9.5q12 0 21 7.5t9 19.5q0 9 -4 23t-4 22v3q0 6 5.5 10t12.5 4q12 0 17.5 -21t5.5 -40q0 -25 -18 -43t-44 -18q-18 0 -36 13
q-12 -13 -24 -19.5t-28 -6.5q-33 0 -49.5 26.5t-17.5 61.5q0 9 5.5 15t12.5 6q13 0 16 -17q2 -8 4.5 -25z" />
    <glyph glyph-name="uniFC5F" unicode="&#xfc5f;" arabic-form="isolated" 
d="M-83 228.5q2 -16.5 8 -26t20 -9.5q11 0 20 8t9 19q0 9 -4 23q-1 4 -2 9.5t-1 13.5q0 7 5 12t12 5q13 0 17 -16q2 -5 4 -21q2 -19 7.5 -29.5t20.5 -10.5q11 0 20 7.5t9 19.5q0 6 -1 13t-2 11q-4 16 -4 24t5.5 12t13.5 4q11 -3 16.5 -24t5.5 -39q0 -25 -18.5 -42.5
t-44.5 -17.5q-15 0 -36 12q-24 -26 -51 -26q-34 0 -50.5 29t-16.5 65q0 6 5.5 10.5t12.5 4.5q12 0 16 -15q2 -9 4 -25.5zM111 132.5q5 -5.5 5 -12.5q0 -15 -14 -19q-13 -2 -34 -5t-45 -7q-80 -13 -98 -15q-8 0 -12.5 6t-4.5 13q0 15 15 18q155 26 175 27q8 0 13 -5.5z
M125 61q5 -6 5 -13q0 -15 -14 -19l-177 -26q-8 0 -13 5.5t-5 12.5q0 6 4 11.5t11 7.5l132 20l44 7q8 0 13 -6z" />
    <glyph glyph-name="uniFC60" unicode="&#xfc60;" arabic-form="isolated" 
d="M87.5 227.5q4.5 -5.5 4.5 -12.5q0 -15 -13 -19q-156 -26 -177 -27q-8 0 -12.5 6t-4.5 13q0 14 14 17q35 7 99 17t77 11q8 0 12.5 -5.5zM-65 73.5q2 -16.5 8 -26t20 -9.5q11 0 20 8t9 19q0 1 -3 22q-4 16 -4 24q0 7 5 12t12 5q5 0 10 -4t7 -12q2 -7 4 -21q2 -20 7 -30
t20 -10q12 0 21 7.5t9 19.5q0 6 -1 13t-2 11q-4 16 -4 24q0 7 5.5 11.5t12.5 4.5q12 -3 17.5 -24t5.5 -39q0 -25 -18.5 -42.5t-44.5 -17.5q-17 0 -36 12q-25 -27 -51 -27q-34 0 -50.5 29t-16.5 66q0 6 5 10.5t12 4.5q13 0 17 -15q2 -9 4 -25.5z" />
    <glyph glyph-name="uniFC61" unicode="&#xfc61;" arabic-form="isolated" 
d="M-39 230q0 35 23.5 56.5t59.5 21.5q28 0 45 -15t17 -43q0 -38 -35 -60.5t-82.5 -31.5t-87.5 -9q-8 0 -14.5 4.5t-4.5 11.5q6 11 23 16.5t36 8t27 4.5q-7 23 -7 36zM50.5 215.5q17.5 9.5 17.5 32.5q0 28 -29 28q-19 0 -29.5 -12t-10.5 -31q0 -17 5 -31q29 4 46.5 13.5z
M-55 77.5q2 -16.5 8 -26t20 -9.5q11 0 20 8t9 19q0 8 -4 22q-4 16 -4 24q0 7 5.5 12t12.5 5q5 0 10 -4t7 -12q2 -7 4 -21q2 -20 7 -30t20 -10q12 0 21 7.5t9 19.5q0 8 -4 24t-4 24q0 7 6 11.5t13 4.5q12 -3 17 -23.5t5 -39.5q0 -25 -18 -42.5t-44 -17.5q-17 0 -36 12
q-25 -27 -52 -27q-33 0 -49.5 29t-16.5 66q0 6 5 10.5t12 4.5q13 0 17 -15q2 -9 4 -25.5z" />
    <glyph glyph-name="uniFC62" unicode="&#xfc62;" arabic-form="isolated" 
d="M-87 162.5q2 -16.5 8 -26t20 -9.5q12 0 20.5 8t8.5 20q0 1 -3 22q-4 16 -4 24q0 7 5 11.5t12 4.5q13 0 17 -16q2 -6 4 -20q2 -20 7 -30t21 -10q11 0 20 7.5t9 19.5q0 6 -1 13t-2 11q-4 16 -4 24q0 7 6 11.5t13 4.5q11 -3 16.5 -24.5t5.5 -38.5q0 -26 -18.5 -43.5
t-44.5 -17.5q-17 0 -36 13q-24 -27 -51 -27q-34 0 -50.5 29t-16.5 65q0 7 5 11.5t13 4.5q12 0 16 -16q2 -9 4 -25.5zM111 61q5 -5 5 -12q0 -6 -4 -12t-11 -8l-177 -27q-8 0 -12.5 5.5t-4.5 13.5q0 6 4 11.5t11 6.5l175 27q9 0 14 -5z" />
    <glyph glyph-name="uniFC63" unicode="&#xfc63;" arabic-form="isolated" 
d="M-24 273.5q6 5.5 14 5.5q6 0 11.5 -4.5t5.5 -10.5l1 -75q0 -10 -5.5 -15t-12.5 -5q-21 0 -21 31l1 57q0 11 6 16.5zM-70 85q3 -20 8 -30.5t20 -10.5q12 0 21 8t9 19q0 9 -4 23q-4 16 -4 23t5.5 12t12.5 5q12 0 16 -16q2 -6 4 -20q3 -21 8 -31t20 -10q11 0 20.5 8t9.5 19
q0 8 -4 24t-4 24t5.5 12t13.5 4q12 -3 17 -23.5t5 -39.5q0 -25 -18.5 -42.5t-43.5 -17.5q-17 0 -36 12q-24 -26 -52 -26q-34 0 -50.5 29t-16.5 65q0 7 5.5 11.5t12.5 4.5q5 0 10 -4t6 -12q2 -6 4 -20z" />
    <glyph glyph-name="uniFE70" unicode="&#xfe70;" horiz-adv-x="6" arabic-form="isolated" 
d="M32 877q136 22 148 23q10 0 16.5 -7.5t6.5 -16.5q0 -7 -4.5 -13t-13.5 -9q-15 -1 -66 -10q-96 -15 -113 -16q-10 0 -16 6.5t-6 15.5q0 8 4.5 14t13.5 8zM179 799q10 0 16 -7t6 -16q0 -7 -4.5 -13.5t-13.5 -8.5q-149 -24 -179 -27q-10 0 -16 6.5t-6 15.5q0 8 4.5 14.5
t13.5 8.5q164 26 179 27z" />
    <glyph glyph-name="uniFE72" unicode="&#xfe72;" horiz-adv-x="6" arabic-form="isolated" 
d="M-8 846q6 5 15 5q8 0 14 -3.5t8 -10.5l18 -85l53 11q-6 16 -6 41q0 38 24.5 60.5t61.5 22.5q32 0 52.5 -18t20.5 -49q0 -33 -21 -53.5t-55 -26.5l-165 -35l-26 127q0 9 6 14zM143 773q29 3 47 12t18 32q0 14 -8.5 22.5t-22.5 8.5q-18 0 -29 -11t-11 -30q0 -16 6 -34z" />
    <glyph glyph-name="uniFE76" unicode="&#xfe76;" horiz-adv-x="6" arabic-form="isolated" 
d="M200 772q6 -7 6 -16q0 -17 -18 -23l-60 -9q-114 -17 -119 -17q-10 0 -16 6.5t-6 15.5q0 8 4.5 14t13.5 8l29 5q131 22 150 23q10 0 16 -7z" />
    <glyph glyph-name="uniFE78" unicode="&#xfe78;" horiz-adv-x="7" arabic-form="isolated" 
d="M53 770q-8 15 -12.5 29t-4.5 26q0 34 24.5 58.5t59.5 24.5t59 -24t24 -59q0 -23 -11.5 -43t-31.5 -29l-165 -66l-4 -1q-7 0 -12.5 5.5t-5.5 11.5q0 7 8 11l82 38q-2 3 -10 18zM124 776q20 7 31 18.5t11 30.5q0 20 -13 34t-33 14q-19 0 -33 -14t-14 -34q0 -13 10 -32.5
t13 -26.5q8 3 28 10z" />
    <glyph glyph-name="uniFE7A" unicode="&#xfe7a;" horiz-adv-x="6" arabic-form="isolated" 
d="M200 -157q6 -7 6 -16q0 -8 -4.5 -14.5t-13.5 -8.5q-155 -24 -179 -25q-9 0 -15 6.5t-6 15.5q0 16 17 22q155 26 179 27q10 0 16 -7z" />
    <glyph glyph-name="uniFE7C" unicode="&#xfe7c;" horiz-adv-x="6" arabic-form="isolated" 
d="M-14.5 854q5.5 5 14.5 5q23 0 21 -37l-2 -29q0 -45 33 -45q29 0 31 41l-2 38q0 15 4 23.5t17 8.5q19 0 21 -30l-2 -41q0 -18 7.5 -29t24.5 -11q33 0 31 45l-1 39q0 27 21 27q9 0 14.5 -5t5.5 -14v-60q0 -29 -21 -50t-50 -21q-30 0 -51 22q-12 -12 -23.5 -17t-26.5 -5
q-31 0 -51.5 21.5t-20.5 51.5v58q0 9 5.5 14z" />
    <glyph glyph-name="uniFE7E" unicode="&#xfe7e;" horiz-adv-x="7" arabic-form="isolated" 
d="M126.5 834.5q22.5 -18.5 22.5 -55.5q0 -33 -25 -54.5t-59 -21.5q-37 0 -60 19t-23 55q0 34 25 55t59 21q38 0 60.5 -18.5zM92 751q9 11 9 28t-9.5 27t-26.5 10q-16 0 -26.5 -11t-10.5 -28q0 -16 10.5 -26.5t27.5 -10.5t26 11z" />
    <glyph glyph-name="uniFE82" unicode="&#x622;" horiz-adv-x="324" arabic-form="final" 
d="M46.5 849.5q25.5 18.5 47.5 18.5q5 0 13 -2q10 -2 22 -6.5t18 -6.5q26 -12 43 -12q22 0 52 15l23 9q13 2 23.5 -7t6.5 -22q-8 -23 -43 -37t-64 -14q-15 0 -29 5t-33 14q-6 2 -18 8q-6 3 -12 3q-7 0 -18 -7q-5 -5 -15 -14.5t-18.5 -14.5t-18.5 -5q-13 0 -21 9t-4 21
q20 27 45.5 45.5zM151 719.5q13 -10.5 13 -27.5v-481q0 -66 46 -99.5t114 -33.5h34v-78h-64q-58 0 -107.5 28t-78.5 76.5t-29 106.5v481q0 17 12 27.5t30 10.5q17 0 30 -10.5z" />
    <glyph glyph-name="uniFE84" unicode="&#x623;" horiz-adv-x="304" arabic-form="final" 
d="M15 860q-5 11 -5 27q0 38 27.5 64.5t65.5 26.5q29 0 48.5 -13.5t34.5 -40.5q5 -10 5 -17t-5 -12t-15 -5q-8 1 -13 6.5t-11 14.5q-9 14 -18 21t-26 7q-21 0 -35.5 -15.5t-14.5 -36.5q0 -25 15.5 -37t39.5 -14h72q9 0 15.5 -6t6.5 -15q0 -8 -6.5 -13.5t-15.5 -5.5h-179
q-8 0 -14.5 5.5t-6.5 13.5q0 9 6.5 15t17.5 6h27q-11 13 -16 24zM191.5 111q46.5 -33 115.5 -33h31v-78h-63q-58 0 -107.5 28t-78.5 76.5t-29 106.5v481q0 17 12.5 27.5t30.5 10.5q16 0 29 -11t13 -27v-481q0 -67 46.5 -100z" />
    <glyph glyph-name="uniFE86" unicode="&#x624;" horiz-adv-x="582" arabic-form="final" 
d="M224 610.5q-5 10.5 -5 26.5q0 38 27.5 64.5t65.5 26.5q56 0 83 -53q3 -7 3 -13q0 -9 -6 -14t-14 -5q-7 0 -11 3t-11.5 16t-17 20.5t-26.5 7.5q-22 0 -36.5 -15.5t-14.5 -37.5q0 -25 15.5 -37t40.5 -14h72q9 0 15.5 -5.5t6.5 -14.5t-6.5 -14t-15.5 -5h-179q-9 0 -15 5
t-6 14t6 14.5t17 6.5h28q-11 13 -16 23.5zM387.5 432q49.5 -27 79.5 -76q27 -34 35.5 -69.5t8.5 -85.5v-53l-1 -70h108v-78h-109q-4 -68 -31 -122.5t-77.5 -86.5t-120.5 -32q-19 0 -30.5 11.5t-11.5 26.5q0 24 25 34q143 10 159 169h-139q-63 0 -117 30t-86 82.5t-32 116.5
q0 63 31 116t84.5 83.5t116.5 30.5q58 0 107.5 -27zM407.5 303.5q-19.5 35.5 -53.5 57t-74 21.5q-41 0 -75 -21t-53.5 -56t-19.5 -76t19.5 -76t53.5 -55.5t75 -20.5h146l1 151q0 40 -19.5 75.5z" />
    <glyph glyph-name="uniFE88" unicode="&#x625;" horiz-adv-x="329" arabic-form="final" 
d="M133 719.5q12 -10.5 12 -27.5v-481q0 -37 18 -67.5t48.5 -48t67.5 -17.5h80v-78h-83q-58 0 -107.5 28.5t-78.5 77t-29 105.5v481q0 17 12.5 27.5t30.5 10.5q17 0 29 -10.5zM138 -161q-5 11 -5 27q0 38 27.5 64.5t65.5 26.5q29 0 48.5 -13.5t34.5 -40.5q5 -10 5 -17
t-5 -12t-15 -5q-8 1 -13 6t-12 15q-8 13 -17 20.5t-26 7.5q-21 0 -36 -15.5t-15 -36.5q0 -47 56 -51h72q9 0 15.5 -6t6.5 -15q0 -8 -6.5 -13.5t-15.5 -5.5h-179q-9 0 -15 5.5t-6 13.5q0 9 6.5 15t16.5 6h28q-11 13 -16 24z" />
    <glyph glyph-name="uniFE8A" unicode="&#x626;" horiz-adv-x="877" arabic-form="final" 
d="M188 474q-5 11 -5 26q0 39 27.5 65.5t65.5 26.5q29 0 48.5 -13.5t35.5 -40.5q4 -10 4 -16q0 -18 -20 -18q-8 1 -13 6.5t-11 14.5q-9 14 -18 21t-26 7q-21 0 -35.5 -15.5t-14.5 -37.5q0 -25 15.5 -37t40.5 -13h71q9 0 15.5 -6t6.5 -15q0 -8 -6.5 -13.5t-15.5 -5.5h-179
q-8 0 -14.5 5.5t-6.5 13.5q0 9 6.5 14.5t17.5 6.5h27q-11 13 -16 24zM132 210.5q36 72.5 101 117.5q18 14 39 14q17 0 28 -11t9 -29q-3 -9 -13 -20t-22 -22q-28 -25 -47 -47.5t-33 -59.5t-14 -88q0 -66 32 -122.5t87 -90t121 -33.5h160q44 0 80.5 24t56.5 64q10 22 13 41.5
t5 54.5q-60 2 -117 27t-72 62q-4 17 8 30.5t30 13.5q9 0 17.5 -4t20.5 -12t18 -11q30 -20 66.5 -26t84.5 -6l112 1v-78h-84q-3 -45 -11.5 -77.5t-26.5 -64.5q-30 -54 -83.5 -85t-117.5 -31h-160q-88 0 -162.5 43t-118 117.5t-43.5 162.5q0 73 36 145.5z" />
    <glyph glyph-name="uniFE8B" unicode="&#x626;" horiz-adv-x="403" arabic-form="initial" 
d="M180 610.5q-5 10.5 -5 26.5q0 38 27.5 64.5t65.5 26.5q29 0 48.5 -13.5t34.5 -39.5q5 -10 5 -18q0 -7 -5 -12t-15 -5q-8 2 -13 7.5t-11 14.5q-10 14 -18.5 21t-25.5 7q-21 0 -35.5 -15.5t-14.5 -37.5q0 -25 15.5 -37t39.5 -14h72q9 0 15.5 -5.5t6.5 -14.5t-6.5 -14
t-15.5 -5h-179q-9 0 -15 5t-6 14t6.5 14.5t17.5 6.5h27q-11 13 -16 23.5zM193 116.5q37 38.5 39 94.5v213q2 18 13.5 28.5t29.5 10.5q17 0 29.5 -11.5t12.5 -28.5v-212q0 -58 -29.5 -106.5t-79 -76.5t-107.5 -28h-135v78h135q55 0 92 38.5z" />
    <glyph glyph-name="uniFE8C" unicode="&#x626;" horiz-adv-x="401" arabic-form="medial" 
d="M130 609.5q-5 10.5 -5 26.5q0 38 27.5 64.5t65.5 26.5q29 0 48.5 -13.5t34.5 -40.5q5 -10 5 -17t-5 -12t-15 -5q-8 2 -13 7t-11 14q-9 14 -18 21t-26 7q-21 0 -35.5 -15.5t-14.5 -36.5q0 -25 15 -37t40 -14h72q9 0 15.5 -5.5t6.5 -14.5t-6.5 -14.5t-15.5 -5.5h-179
q-9 0 -15 5.5t-6 14.5t6 14.5t17 6.5h28q-11 13 -16 23.5zM232 449q11 -12 12 -34l-1 -168v-35q1 -49 32 -86.5t78 -44.5q7 -3 31 -3h31v-78h-42q-56 0 -96.5 23.5t-76.5 68.5q-28 -42 -73 -66t-97 -26h-48v78h34t38 4q47 10 75.5 46.5t28.5 84.5l-1 173v31q3 44 43 44
q21 0 32 -12z" />
    <glyph glyph-name="uniFE8E" unicode="&#x627;" horiz-adv-x="330" arabic-form="final" 
d="M82 719.5q12 10.5 30 10.5q16 0 29.5 -11t13.5 -27v-481q0 -44 26.5 -79.5t67.5 -46.5q22 -7 100 -7v-78h-65q-58 0 -107 28t-78 76.5t-29 106.5v481q0 17 12 27.5z" />
    <glyph glyph-name="uniFE90" unicode="&#x628;" horiz-adv-x="1008" arabic-form="final" 
d="M150 406v-132q0 -53 24.5 -98.5t68 -73t96.5 -27.5h229q56 0 99 28t66.5 75.5t24.5 101.5v144q0 17 12 26.5t30 9.5t30.5 -10.5t12.5 -27.5v-234q0 -46 32 -78t78 -32h67v-78h-72q-58 0 -103.5 33.5t-60.5 85.5q-34 -55 -91 -88t-125 -33h-229q-74 0 -137 36.5t-100 98.5
t-37 137v152q0 17 12.5 27.5t29.5 10.5q45 0 43 -54zM497.5 -136.5q17.5 -15.5 17.5 -40.5q0 -24 -17.5 -39.5t-42.5 -15.5q-24 0 -41 15.5t-17 39.5t17 40t41 16q25 0 42.5 -15.5z" />
    <glyph glyph-name="uniFE91" unicode="&#x628;" horiz-adv-x="375" arabic-form="initial" 
d="M178.5 96q30.5 18 47.5 48.5t17 66.5v202q-1 22 10 36t33 14q17 0 29.5 -11.5t12.5 -28.5v-212q0 -58 -29.5 -106.5t-79 -76.5t-107.5 -28h-124v78h124q36 0 66.5 18zM108.5 -122q17.5 15 40.5 15t40 -15t17 -38t-17 -38.5t-40 -15.5t-40.5 15.5t-17.5 38.5t17.5 38z" />
    <glyph glyph-name="uniFE92" unicode="&#x628;" horiz-adv-x="417" arabic-form="medial" 
d="M241.5 447.5q10.5 -13.5 10.5 -35.5l1 -212q0 -36 20.5 -64t52 -43t61.5 -15h40v-78h-45q-54 0 -96 24t-77 68q-29 -41 -71.5 -66.5t-90.5 -25.5h-60v78h45q57 0 96 35.5t38 96.5v194q-2 57 43 57q22 0 32.5 -13.5zM249 -122q17 -15 17 -38t-17 -38.5t-40 -15.5t-40 15.5
t-17 38.5t17 38t40 15t40 -15z" />
    <glyph glyph-name="uniFE94" unicode="&#x629;" horiz-adv-x="626" arabic-form="final" 
d="M144 643q17 15 41 15t41 -15.5t17 -38.5q0 -22 -17.5 -37.5t-40.5 -15.5q-24 0 -41 15t-17 38q0 24 17 39zM333 642.5q17 15.5 41 15.5t40.5 -15t16.5 -39q0 -23 -17 -38t-40 -15q-24 0 -41 15t-17 38t17 38.5zM380 435q48 -26 80 -70t40 -98q8 -25 8 -87q0 -48 38.5 -75
t97.5 -27v-78h-45q-50 0 -80 23t-45.5 44.5t-19.5 27.5q-39 -47 -80 -71t-98 -24q-63 0 -116.5 30.5t-85 83.5t-31.5 116t31.5 116t85 84t116.5 31q56 0 104 -26zM350 98q34 21 54 56.5t20 75.5q0 41 -19.5 76.5t-53.5 56.5t-75 21t-75 -21t-54 -56.5t-20 -76.5t20 -76
t54 -56t75 -21q40 0 74 21z" />
    <glyph glyph-name="uniFE96" unicode="&#x62a;" horiz-adv-x="995" arabic-form="final" 
d="M301 642.5q17 15.5 41 15.5t40.5 -15t16.5 -39q0 -23 -17 -38t-40 -15t-40.5 15t-17.5 38t17 38.5zM571 643q16 -15 16 -39q0 -23 -17 -38t-40 -15t-40 15t-17 38q0 24 16.5 39t40.5 15q25 0 41 -15zM77.5 449.5q12.5 10.5 29.5 10.5q20 0 32 -11.5t11 -31.5v-124
q-1 -57 21.5 -107t65.5 -80.5t102 -30.5h229q58 0 100.5 29.5t65 78.5t24.5 105v133q0 18 12 28.5t30 10.5t30.5 -10.5t12.5 -27.5v-234q0 -46 32 -78t78 -32h72v-78h-77q-58 0 -103.5 33.5t-60.5 85.5q-34 -55 -91 -88t-125 -33h-229q-74 0 -137 36.5t-100 98.5t-37 137
v152q0 17 12.5 27.5z" />
    <glyph glyph-name="uniFE97" unicode="&#x62a;" horiz-adv-x="474" arabic-form="initial" 
d="M232.5 644q17.5 -15 17.5 -39t-17.5 -39t-41.5 -15t-41 15.5t-17 38.5q0 24 17 39t41 15t41.5 -15zM421 644q17 -15 17 -39q0 -23 -17.5 -38.5t-40.5 -15.5t-40 15.5t-17 38.5q0 24 16.5 39t40.5 15t41 -15zM115 78q58 0 95 41t37 100l-1 194q-1 22 10 36t33 14
q18 0 30.5 -11.5t12.5 -28.5v-212q0 -58 -29.5 -106.5t-79.5 -76.5t-108 -28h-127v78h127z" />
    <glyph glyph-name="uniFE98" unicode="&#x62a;" horiz-adv-x="401" arabic-form="medial" 
d="M154.5 643q16.5 -15 16.5 -39q0 -23 -17 -38t-40 -15t-40 15t-17 38q0 24 16.5 39t40.5 15t40.5 -15zM344.5 643q16.5 -15 16.5 -39q0 -23 -17.5 -38t-40.5 -15t-40 15t-17 38q0 24 16.5 39t40.5 15q25 0 41.5 -15zM25 78q66 0 98 42t33 113v190q2 18 13 28t29 10
q38 0 43 -37v-191q2 -155 139 -155h38v-78h-47q-54 0 -95.5 23.5t-77.5 68.5q-28 -41 -71 -66.5t-91 -25.5h-55v78h44z" />
    <glyph glyph-name="uniFE9A" unicode="&#x62b;" horiz-adv-x="995" arabic-form="final" 
d="M473.5 786q16.5 -15 16.5 -39q0 -23 -17 -38.5t-40 -15.5q-24 0 -40.5 15.5t-16.5 38.5q0 24 16.5 39t40.5 15t40.5 -15zM379.5 643q16.5 -15 16.5 -39q0 -23 -17 -38t-40 -15t-40.5 15t-17.5 38t17 38.5t41 15.5t40.5 -15zM568 643q16 -15 16 -39q0 -23 -17 -38t-40 -15
t-40 15t-17 38q0 24 16.5 39t40.5 15q25 0 41 -15zM77.5 449.5q12.5 10.5 29.5 10.5q19 0 31.5 -10.5t11.5 -28.5v-132q-1 -56 22 -105t66.5 -79t100.5 -30h229q58 0 101 30.5t66 80t25 105.5l-1 134q0 15 12.5 25t28.5 10q18 0 30.5 -10.5t12.5 -27.5v-234q0 -46 32 -78
t78 -32h75v-78h-80q-58 0 -103.5 33.5t-60.5 85.5q-34 -55 -91 -88t-125 -33h-229q-74 0 -137 36.5t-100 98.5t-37 137v152q0 17 12.5 27.5z" />
    <glyph glyph-name="uniFE9B" unicode="&#x62b;" horiz-adv-x="460" arabic-form="initial" 
d="M318.5 788q16.5 -15 16.5 -39q0 -23 -17 -39t-40 -16q-24 0 -41 15.5t-17 39.5t17 39t41 15t40.5 -15zM141.5 644q16.5 15 40.5 15t41.5 -15t17.5 -39t-17.5 -39t-41.5 -15q-23 0 -40 15.5t-17 38.5q0 24 16.5 39zM412.5 644q16.5 -15 16.5 -39q0 -23 -17 -38.5
t-40 -15.5q-24 0 -41 15.5t-17 38.5q0 24 17 39t41 15t40.5 -15zM101 78q60 0 95.5 39.5t35.5 97.5v202q0 21 10.5 33.5t32.5 12.5q17 0 29.5 -11.5t12.5 -28.5v-212q0 -58 -29.5 -106.5t-79 -76.5t-107.5 -28h-111v78h111z" />
    <glyph glyph-name="uniFE9C" unicode="&#x62b;" horiz-adv-x="397" arabic-form="medial" 
d="M233.5 791q16.5 -15 16.5 -39t-17 -39t-41 -15q-23 0 -40 15.5t-17 38.5t17.5 38.5t39.5 15.5q25 0 41.5 -15zM139.5 643q16.5 -15 16.5 -39q0 -23 -17 -38t-40 -15t-40 15t-17 38q0 24 16.5 39t40.5 15t40.5 -15zM329.5 643q16.5 -15 16.5 -39q0 -23 -17.5 -38
t-40.5 -15t-40 15t-17 38q0 24 16.5 39t40.5 15q25 0 41.5 -15zM115 116q36 38 37 109l1 199q0 17 11.5 27t29.5 10q19 0 30.5 -8.5t12.5 -25.5v-202q1 -72 38.5 -109.5t101.5 -37.5h44v-78h-54q-54 0 -95.5 23.5t-77.5 68.5q-29 -41 -73 -66.5t-93 -25.5h-51v78h40
q62 0 98 38z" />
    <glyph glyph-name="uniFE9E" unicode="&#x62c;" horiz-adv-x="799" arabic-form="final" 
d="M522.5 234.5q-35.5 65.5 -97.5 106t-144 40.5q-58 0 -155 -41q-19 -1 -31.5 9t-12.5 25q0 21 21 35q28 23 83.5 37t94.5 14q90 0 165.5 -38.5t126.5 -106t71 -151.5q13 -42 42.5 -64.5t74.5 -21.5h64v-78h-78q-60 0 -109 42q-2 -22 -7.5 -32t-19.5 -10h-297
q-43 0 -80 -22.5t-58 -60t-21 -80.5q0 -46 23 -84t64 -59q19 -11 38.5 -15t53.5 -4q52 0 53 -37q0 -20 -15 -30t-38 -11q-6 -1 -19 -1q-14 0 -32 2q-59 5 -108 38t-77.5 85.5t-28.5 115.5q0 66 33 121.5t89.5 88t122.5 32.5h240q6 0 9.5 4.5t2.5 9.5q-8 76 -43.5 141.5z
M472 -96q25 0 36 -20q4 -8 4 -17q0 -23 -24 -36q-12 -5 -21 -5q-25 0 -35 20q-5 10 -5 18q0 10 6 19.5t17 15.5q12 5 22 5z" />
    <glyph glyph-name="uniFE9F" unicode="&#x62c;" horiz-adv-x="684" arabic-form="initial" 
d="M513 78q7 0 11.5 5t3.5 12q-4 72 -41 135t-99 101t-135 38q-42 0 -67.5 -7.5t-43 -17t-24.5 -12.5q-9 -3 -17 -3q-23 0 -33 16q-8 11 -8 22q0 21 21 34q32 21 81.5 32.5t90.5 11.5q117 0 207 -66t131 -174q25 -64 27 -148q0 -25 -17 -41t-42 -16h-586v78h540zM356 -122
q17 -15 17 -38t-17 -38t-40 -15t-40 15t-17 38t17 38t40 15t40 -15z" />
    <glyph glyph-name="uniFEA0" unicode="&#x62c;" horiz-adv-x="771" arabic-form="medial" 
d="M518 234q-37 66 -99 106.5t-141 40.5q-34 0 -73 -11t-69 -28q-9 -3 -18 -3q-17 0 -28 10.5t-11 25.5q0 11 7 22t21 18q27 21 79.5 33t91.5 12q90 0 165.5 -38.5t126.5 -106t71 -151.5q13 -42 42.5 -64.5t74.5 -22.5l64 1v-78h-78q-60 0 -109 42q-2 -22 -7.5 -32
t-19.5 -10h-629v78l572 -1q5 0 9 5.5t3 10.5q-8 75 -45 141zM358 -96q17 14 40 14t40 -14.5t17 -37.5q0 -24 -16.5 -39.5t-40.5 -15.5t-40.5 16t-16.5 40q0 23 17 37z" />
    <glyph glyph-name="uniFEA2" unicode="&#x62d;" horiz-adv-x="799" arabic-form="final" 
d="M522 234.5q-36 65.5 -98 106t-143 40.5q-34 0 -71.5 -10t-65.5 -27q-13 -6 -25 -6q-17 0 -27 10t-10 24q0 12 8.5 23.5t25.5 19.5q28 20 79 32.5t86 12.5q90 0 165.5 -38.5t126.5 -106t71 -151.5q13 -42 42.5 -64.5t74.5 -21.5h64v-78h-78q-60 0 -109 42q-2 -22 -7.5 -32
t-19.5 -10h-297q-43 0 -80 -22.5t-58 -60t-21 -80.5q0 -46 23 -84t64 -59q19 -11 38.5 -15t53.5 -4q52 0 53 -37q0 -20 -15 -30t-38 -11q-6 -1 -19 -1q-14 0 -32 2q-59 5 -108 38t-77.5 85.5t-28.5 115.5q0 66 33 121.5t89.5 88t122.5 32.5h240q6 0 9.5 4.5t2.5 9.5
q-8 76 -44 141.5z" />
    <glyph glyph-name="uniFEA3" unicode="&#x62d;" horiz-adv-x="684" arabic-form="initial" 
d="M513 78q7 0 11.5 5t3.5 12q-4 72 -41 135t-99 101t-135 38q-42 0 -67.5 -7.5t-43 -17t-24.5 -12.5q-9 -3 -17 -3q-23 0 -33 16q-8 11 -8 22q0 21 21 34q32 21 81.5 32.5t90.5 11.5q117 0 207 -66t131 -174q25 -64 27 -148q0 -25 -17 -41t-42 -16h-586v78h540z" />
    <glyph glyph-name="uniFEA4" unicode="&#x62d;" horiz-adv-x="771" arabic-form="medial" 
d="M516 233q-39 66 -101.5 107t-136.5 41q-34 0 -72 -10t-65 -27q-11 -4 -22 -4q-18 0 -29.5 10.5t-11.5 25.5q0 24 26 38q29 21 82.5 33.5t91.5 12.5q90 0 165.5 -38.5t126.5 -106t71 -151.5q13 -42 42.5 -64.5t74.5 -22.5l64 1v-78h-78q-60 0 -109 42q-2 -22 -7.5 -32
t-19.5 -10h-629v78l572 -1q5 0 9 5.5t3 10.5q-8 74 -47 140z" />
    <glyph glyph-name="uniFEA6" unicode="&#x62e;" horiz-adv-x="797" arabic-form="final" 
d="M378.5 647.5q16.5 -15.5 16.5 -39.5q0 -23 -17 -38.5t-41 -15.5t-41 15.5t-17 38.5q0 24 17 39.5t41 15.5q25 0 41.5 -15.5zM522.5 234.5q-35.5 65.5 -97.5 106t-144 40.5q-33 0 -71 -10t-65 -26q-10 -5 -24 -5q-17 0 -28.5 10.5t-11.5 24.5q0 20 20 33q28 23 84 37.5
t96 14.5q90 0 165.5 -38.5t126.5 -106t71 -151.5q13 -42 42.5 -64.5t74.5 -21.5h64v-78h-78q-60 0 -109 42q-2 -22 -7.5 -32t-19.5 -10h-297q-43 0 -80 -22.5t-58 -60t-21 -80.5q0 -46 23 -84t64 -59q19 -11 38.5 -15t53.5 -4q52 0 53 -37q0 -20 -15 -30t-38 -11
q-6 -1 -19 -1q-14 0 -32 2q-59 5 -108 38t-77.5 85.5t-28.5 115.5q0 66 33 121.5t89.5 88t122.5 32.5h240q6 0 9.5 4.5t2.5 9.5q-8 76 -43.5 141.5z" />
    <glyph glyph-name="uniFEA7" unicode="&#x62e;" horiz-adv-x="685" arabic-form="initial" 
d="M348.5 647.5q16.5 -15.5 16.5 -39.5q0 -23 -17 -38.5t-41 -15.5q-23 0 -40.5 15.5t-17.5 38.5q0 24 17 39.5t41 15.5q25 0 41.5 -15.5zM513 78q7 0 11.5 5t3.5 12q-4 72 -41 135t-99 101t-135 38q-42 0 -67.5 -7.5t-43 -17t-24.5 -12.5q-9 -3 -17 -3q-23 0 -33 16
q-8 11 -8 22q0 21 21 34q32 21 81.5 32.5t90.5 11.5q117 0 207 -66t131 -174q25 -64 27 -148q0 -25 -17 -41t-42 -16h-586v78h540z" />
    <glyph glyph-name="uniFEA8" unicode="&#x62e;" horiz-adv-x="803" arabic-form="medial" 
d="M359.5 647.5q16.5 -15.5 16.5 -39.5q0 -23 -16.5 -38.5t-40.5 -15.5t-41 15.5t-17 38.5q0 24 17 39.5t41 15.5t40.5 -15.5zM518 234q-37 66 -99 106.5t-141 40.5q-34 0 -69.5 -11t-85.5 -31q-18 -4 -32.5 10.5t-10.5 33.5q10 26 45.5 43.5t78.5 25.5t74 8
q90 0 165.5 -38.5t126.5 -106t71 -151.5q13 -42 42.5 -64.5t74.5 -21.5h64v-78h-78q-60 0 -109 42q-2 -22 -7.5 -32t-19.5 -10h-629v78l572 -1q5 0 9 5.5t3 10.5q-8 75 -45 141z" />
    <glyph glyph-name="uniFEAA" unicode="&#x62f;" horiz-adv-x="666" arabic-form="final" 
d="M416 85.5q11 8.5 11 23.5v68q0 58 -2.5 78t-11.5 40q-17 39 -52 63t-76 24q-12 0 -25 -4t-17 -5q-46 -13 -59 -16q-18 -1 -30.5 10.5t-12.5 27.5t12 26q79 37 125 37q72 4 132.5 -37.5t87.5 -114.5q10 -29 11.5 -52t1.5 -89q1 -39 30 -63t69 -24h77v-78h-87
q-32 0 -59.5 13t-46.5 35q-8 -48 -48 -48h-356q-20 0 -31.5 12t-11.5 27q0 16 11.5 27t31.5 11h298q17 0 28 8.5z" />
    <glyph glyph-name="uniFEAC" unicode="&#x630;" horiz-adv-x="636" arabic-form="final" 
d="M256.5 652.5q17.5 15.5 41.5 15.5q23 0 40 -15.5t17 -38.5q0 -24 -16.5 -39.5t-40.5 -15.5q-25 0 -42 15.5t-17 39.5q0 23 17.5 38.5zM416 85.5q11 8.5 11 23.5v68q0 58 -2.5 78t-11.5 40q-17 39 -52 63t-76 24q-12 0 -25 -4t-17 -5q-46 -13 -59 -16q-18 -1 -30.5 10.5
t-12.5 27.5t12 26q79 37 125 37q72 4 132.5 -37.5t87.5 -114.5q10 -29 11.5 -52t1.5 -89q1 -39 30 -63t69 -24h77v-78h-87q-32 0 -59.5 13t-46.5 35q-8 -48 -48 -48h-356q-20 0 -31.5 12t-11.5 27q0 16 11.5 27t31.5 11h298q17 0 28 8.5z" />
    <glyph glyph-name="uniFEAE" unicode="&#x631;" horiz-adv-x="409" arabic-form="final" 
d="M-23.5 -176.5q12.5 11.5 29.5 11.5q41 0 75.5 20.5t54 56t19.5 76.5v438q0 17 13 28t30 11t29.5 -11t12.5 -28v-245q4 -43 35 -73t75 -30h85v-78h-90q-32 0 -60 15t-46 40l-1 -83q-4 -60 -36 -109.5t-83.5 -78t-112.5 -28.5q-18 0 -30 11t-12 28t12.5 28.5z" />
    <glyph glyph-name="uniFEB0" unicode="&#x632;" horiz-adv-x="414" arabic-form="final" 
d="M245.5 644.5q16.5 -15.5 16.5 -39.5q0 -23 -17 -38t-40 -15q-24 0 -41 15t-17 38q0 24 17 39.5t41 15.5t40.5 -15.5zM-23.5 -176.5q12.5 11.5 29.5 11.5q41 0 75.5 20.5t54 56t19.5 76.5v438q0 17 13 28t30 11t29.5 -11t12.5 -28v-245q4 -43 35 -73t75 -30h85v-78h-90
q-32 0 -60 15t-46 40l-1 -83q-4 -60 -36 -109.5t-83.5 -78t-112.5 -28.5q-18 0 -30 11t-12 28t12.5 28.5z" />
    <glyph glyph-name="uniFEB2" unicode="&#x633;" horiz-adv-x="1408" arabic-form="final" 
d="M1430 1h-71q-46 0 -84 22.5t-59 59.5q-23 -38 -62 -59.5t-86 -22.5q-47 0 -87 23t-62 60q-23 -38 -63 -60.5t-87 -22.5q-73 0 -121 56l-2 -9q-10 -64 -47 -115.5t-93.5 -81t-123.5 -29.5q-78 0 -144.5 38.5t-106 104t-39.5 142.5q0 42 12 83t37 73q15 15 35 15
q11 0 25 -7q19 -11 19 -28q0 -9 -6 -20q-17 -33 -25 -59.5t-8 -56.5q0 -54 27 -101t73 -75.5t101 -28.5q56 0 102 28.5t73 75.5t27 101v317q0 13 10.5 25.5t29.5 12.5q17 0 28.5 -12.5t11.5 -29.5v-241q3 -42 33 -71.5t72 -29.5t72.5 29.5t34.5 71.5l-1 243q0 17 12.5 28.5
t30.5 11.5q20 0 32 -12.5t12 -30.5l-1 -240q3 -43 34.5 -72t75.5 -29q43 0 73.5 32t30.5 76v234q0 18 12 30t30 12q17 0 30.5 -11t13.5 -28v-238q0 -46 28.5 -76.5t73.5 -30.5h67v-77z" />
    <glyph glyph-name="uniFEB3" unicode="&#x633;" horiz-adv-x="886" arabic-form="initial" 
d="M137.5 108.5q30.5 30.5 30.5 73.5v237q0 17 12.5 27.5t29.5 10.5t29.5 -11t12.5 -27v-233q0 -45 31 -77.5t76 -32.5q42 0 72.5 29t34.5 71l-1 243q0 17 12.5 27.5t29.5 10.5t30.5 -10.5t13.5 -27.5l-1 -242q3 -42 33.5 -71.5t72.5 -29.5q45 0 76.5 32.5t31.5 77.5v233
q0 17 12 27.5t29 10.5t30 -10.5t13 -27.5v-234q0 -51 -26.5 -93.5t-70.5 -67.5t-95 -25q-46 0 -86 23t-63 61q-23 -38 -62.5 -61t-85.5 -23q-44 0 -84 20.5t-66 58.5q-22 -36 -59.5 -57t-81.5 -21h-79v78h75q43 0 73.5 30.5z" />
    <glyph glyph-name="uniFEB4" unicode="&#x633;" horiz-adv-x="917" arabic-form="medial" 
d="M108.5 100.5q21.5 22.5 21.5 53.5v268q0 17 12.5 27.5t30.5 10.5q17 0 29.5 -10.5t12.5 -27.5v-231q0 -46 31.5 -80.5t77.5 -34.5q44 0 75 33.5t31 77.5v235q0 17 13 27.5t30 10.5t29.5 -10.5t12.5 -27.5v-231q0 -47 31 -81t77 -34t76.5 33.5t30.5 79.5v233
q0 17 12.5 27.5t29.5 10.5t30 -10.5t13 -27.5v-267q0 -34 21.5 -55.5t54.5 -21.5h49v-78h-50q-44 0 -72 17.5t-51 52.5q-26 -33 -64 -52t-80 -19q-48 0 -82.5 21t-67.5 62q-31 -40 -66.5 -61.5t-82.5 -21.5q-43 0 -76.5 18t-68.5 53q-33 -44 -64 -57.5t-88 -13.5h-52v79h81
q31 0 52.5 22.5z" />
    <glyph glyph-name="uniFEB6" unicode="&#x634;" horiz-adv-x="1408" arabic-form="final" 
d="M869 801q17 15 40 15q24 0 41 -14.5t17 -38.5t-17 -39.5t-41 -15.5t-40.5 15.5t-16.5 39.5q0 23 17 38zM774 642.5q17 15.5 40 15.5t40 -15.5t17 -38.5q0 -24 -16.5 -39t-40.5 -15t-40.5 15t-16.5 39q0 23 17 38.5zM963 642.5q17 15.5 40 15.5q24 0 41 -15t17 -39
t-16.5 -39t-41.5 -15q-24 0 -40.5 15t-16.5 39q0 23 17 38.5zM1430 0h-71q-46 0 -83.5 22.5t-59.5 60.5q-23 -38 -62 -59.5t-86 -22.5q-47 0 -87 23t-62 60q-23 -38 -63 -60.5t-87 -22.5q-73 0 -121 56l-2 -9q-10 -64 -47 -115.5t-93.5 -81t-123.5 -29.5q-78 0 -144.5 38.5
t-106 104t-39.5 142.5q0 42 12 83t37 73q15 15 35 15q11 0 25 -7q19 -11 19 -28q0 -9 -6 -20q-17 -33 -25 -59.5t-8 -56.5q0 -54 27 -101t73 -75.5t101 -28.5q56 0 102 28.5t73 75.5t27 101v317q0 13 10.5 25.5t29.5 12.5q17 0 28.5 -12.5t11.5 -29.5v-241q3 -42 33 -71.5
t72 -29.5t72.5 29.5t34.5 71.5l-1 243q0 17 12.5 28.5t30.5 11.5q20 0 32 -12.5t12 -30.5l-1 -240q3 -43 34.5 -72t75.5 -29q43 0 73.5 32t30.5 76v234q0 18 12 30t30 12q17 0 30.5 -11t13.5 -28v-238q0 -46 28.5 -76.5t73.5 -30.5h67v-78z" />
    <glyph glyph-name="uniFEB7" unicode="&#x634;" horiz-adv-x="876" arabic-form="initial" 
d="M533 805q17 -15 17 -40q0 -24 -17 -39t-42 -15q-24 0 -40.5 15.5t-16.5 38.5t17 39t40 16q25 0 42 -15zM355 645.5q17 15.5 41 15.5t41 -15.5t17 -39.5t-17 -39t-41 -15t-41 15t-17 39t17 39.5zM628 645.5q17 -15.5 17 -39.5t-17 -39t-42 -15q-24 0 -40.5 15t-16.5 39
q0 23 17 39t40 16q25 0 42 -15.5zM122.5 108.5q30.5 30.5 30.5 73.5v237q0 17 12.5 27.5t29.5 10.5t29.5 -11t12.5 -27v-233q0 -45 31 -77.5t76 -32.5q42 0 72.5 29t34.5 71l-1 243q0 17 12.5 27.5t29.5 10.5t30.5 -10.5t13.5 -27.5l-1 -242q3 -42 33.5 -71.5t72.5 -29.5
q45 0 76.5 32.5t31.5 77.5v233q0 17 12 27.5t29 10.5t30 -10.5t13 -27.5v-234q0 -51 -26.5 -93.5t-70.5 -67.5t-95 -25q-46 0 -86 23t-63 61q-23 -38 -62.5 -61t-85.5 -23q-44 0 -84 20.5t-66 58.5q-22 -36 -59.5 -57t-81.5 -21h-79v78h75q43 0 73.5 30.5z" />
    <glyph glyph-name="uniFEB8" unicode="&#x634;" horiz-adv-x="921" arabic-form="medial" 
d="M513.5 804.5q16.5 -15.5 16.5 -39.5q0 -23 -17 -38.5t-40 -15.5q-24 0 -41 15t-17 39q0 23 17.5 39t40.5 16q24 0 40.5 -15.5zM418 645.5q17 -15.5 17 -39.5t-17 -39t-42 -15q-24 0 -40.5 15t-16.5 39q0 23 17 39t40 16q25 0 42 -15.5zM526 645.5q17 15.5 41 15.5
q23 0 40.5 -16t17.5 -39t-17.5 -38.5t-40.5 -15.5q-25 0 -41.5 15t-16.5 39t17 39.5zM108.5 100.5q21.5 22.5 21.5 53.5v268q0 17 12.5 27.5t30.5 10.5q17 0 29.5 -10.5t12.5 -27.5v-231q0 -46 31.5 -80.5t77.5 -34.5q44 0 75 33.5t31 77.5v235q0 17 13 27.5t30 10.5
t29.5 -10.5t12.5 -27.5v-231q0 -47 31 -81t77 -34t76.5 33.5t30.5 79.5v233q0 17 12.5 27.5t29.5 10.5t30 -10.5t13 -27.5v-267q0 -34 21.5 -55.5t54.5 -21.5h54v-78h-55q-44 0 -72 17.5t-51 52.5q-26 -33 -64 -52t-80 -19q-48 0 -82.5 21t-67.5 62q-31 -40 -66.5 -61.5
t-82.5 -21.5q-43 0 -76.5 18t-68.5 53q-27 -40 -61.5 -55t-90.5 -15h-51v78h80q31 0 52.5 22.5z" />
    <glyph glyph-name="uniFEBA" unicode="&#x635;" horiz-adv-x="1386" arabic-form="final" 
d="M1396 0h-53q-54 0 -96.5 29.5t-59.5 75.5q-29 -46 -76.5 -75.5t-103.5 -29.5h-401q-33 -73 -102 -123t-163 -50q-78 0 -142 38t-101.5 103t-37.5 142q0 42 12 83t36 73q15 16 34 16q11 0 23 -7q18 -11 18 -31q0 -10 -5 -18q-17 -26 -25 -58t-8 -58q0 -54 26.5 -101
t72.5 -75.5t101 -28.5t100.5 28.5t72 75.5t26.5 101v318q0 15 10.5 27t32.5 12q15 0 27 -9t12 -29v-107q25 64 86.5 105t144.5 41h145q64 0 118 -31t86 -84.5t32 -116.5v-47q0 -46 32.5 -78.5t77.5 -32.5h48v-78zM1077.5 99q34.5 22 54.5 58t20 77t-20 77t-54.5 57.5
t-75.5 21.5h-167q-56 0 -103 -29t-74.5 -78t-27.5 -104v-102h372q41 0 75.5 22z" />
    <glyph glyph-name="uniFEBB" unicode="&#x635;" horiz-adv-x="925" arabic-form="initial" 
d="M754 425.5q53 -33.5 82 -86.5t29 -111q0 -61 -31 -113.5t-83.5 -83.5t-112.5 -31h-658v78h220v339q0 14 11 26.5t31 12.5q13 0 24.5 -9.5t11.5 -25.5v-112q26 66 83.5 108t125.5 42h145q69 0 122 -33.5zM706.5 98q34.5 20 54.5 54.5t20 75.5t-20 76t-54 56t-75 21h-145
q-56 0 -102 -28.5t-73 -76t-27 -101.5v-97h347q40 0 74.5 20z" />
    <glyph glyph-name="uniFEBC" unicode="&#x635;" horiz-adv-x="1026" arabic-form="medial" 
d="M1036 78v-78h-53q-54 0 -96.5 29.5t-60.5 75.5q-28 -46 -75.5 -75.5t-103.5 -29.5h-667v77h204v351q0 15 10 27t31 12q13 0 24.5 -9.5t11.5 -24.5v-114q29 71 91 110t146 39h144q64 0 118 -31t86 -84.5t32 -116.5v-47q0 -46 32.5 -78.5t77.5 -32.5h48zM717.5 99
q34.5 22 54.5 58t20 77t-20 77t-54.5 57.5t-75.5 21.5h-167q-57 0 -104 -29t-74.5 -78t-27.5 -104v-102h373q41 0 75.5 22z" />
    <glyph glyph-name="uniFEBE" unicode="&#x636;" horiz-adv-x="1386" arabic-form="final" 
d="M878 638q17 15 39 15q24 0 41.5 -15t17.5 -38q0 -24 -17 -39.5t-42 -15.5q-23 0 -39.5 16t-16.5 39t17 38zM1396 0h-53q-54 0 -96.5 29.5t-59.5 75.5q-29 -46 -76.5 -75.5t-103.5 -29.5h-401q-33 -73 -102 -123t-163 -50q-78 0 -142 38t-101.5 103t-37.5 142q0 42 12 83
t36 73q15 16 34 16q11 0 23 -7q18 -11 18 -31q0 -10 -5 -18q-17 -26 -25 -58t-8 -58q0 -54 26.5 -101t72.5 -75.5t101 -28.5t100.5 28.5t72 75.5t26.5 101v318q0 15 10.5 27t32.5 12q15 0 27 -9t12 -29v-107q25 64 86.5 105t144.5 41h145q64 0 118 -31t86 -84.5t32 -116.5
v-47q0 -46 32.5 -78.5t77.5 -32.5h48v-78zM1077.5 99q34.5 22 54.5 58t20 77t-20 77t-54.5 57.5t-75.5 21.5h-167q-56 0 -103 -29t-74.5 -78t-27.5 -104v-102h372q41 0 75.5 22z" />
    <glyph glyph-name="uniFEBF" unicode="&#x636;" horiz-adv-x="925" arabic-form="initial" 
d="M500.5 633.5q17.5 15.5 40.5 15.5t40 -15.5t17 -38.5t-17 -38t-40 -15t-40.5 15t-17.5 38t17.5 38.5zM754 425.5q53 -33.5 82 -86.5t29 -111q0 -61 -31 -113.5t-83.5 -83.5t-112.5 -31h-658v78h220v339q0 14 11 26.5t31 12.5q13 0 24.5 -9.5t11.5 -25.5v-112
q26 66 83.5 108t125.5 42h145q69 0 122 -33.5zM706.5 98q34.5 20 54.5 54.5t20 75.5t-20 76t-54 56t-75 21h-145q-56 0 -102 -28.5t-73 -76t-27 -101.5v-97h347q40 0 74.5 20z" />
    <glyph glyph-name="uniFEC0" unicode="&#x636;" horiz-adv-x="1026" arabic-form="medial" 
d="M495.5 561.5q-17.5 15.5 -17.5 38.5t17.5 38.5t40.5 15.5q25 0 41.5 -15t16.5 -39q0 -23 -17.5 -38.5t-40.5 -15.5t-40.5 15.5zM1036 78v-78h-53q-54 0 -96.5 29.5t-60.5 75.5q-28 -46 -75.5 -75.5t-103.5 -29.5h-667v77h204v351q0 15 10 27t31 12q13 0 24.5 -9.5
t11.5 -24.5v-114q29 71 91 110t146 39h144q64 0 118 -31t86 -84.5t32 -116.5v-47q0 -46 32.5 -78.5t77.5 -32.5h48zM717.5 99q34.5 22 54.5 58t20 77t-20 77t-54.5 57.5t-75.5 21.5h-167q-57 0 -104 -29t-74.5 -78t-27.5 -104v-102h373q41 0 75.5 22z" />
    <glyph glyph-name="uniFEC2" unicode="&#x637;" horiz-adv-x="955" arabic-form="final" 
d="M196 690.5q12 10.5 30 10.5q16 0 29 -11t13 -27v-319q32 53 84 85t118 32h120q70 0 123 -32.5t82 -88.5t29 -124v-22.5t2.5 -32t8.5 -25.5q12 -27 36.5 -42.5t53.5 -15.5h53v-78h-53q-51 0 -87.5 25t-66.5 70q-77 -95 -175 -95h-497q-17 0 -29.5 11t-12.5 28
q0 16 10 27.5t24 11.5h93v585q0 17 12 27.5zM665 98q34 21 54 56t20 76t-20 76.5t-54 56.5t-75 21h-120q-54 0 -100.5 -28.5t-74 -76.5t-27.5 -102v-100h322q41 0 75 21z" />
    <glyph glyph-name="uniFEC3" unicode="&#x637;" horiz-adv-x="791" arabic-form="initial" 
d="M111 687.5q12 10.5 30 10.5q17 0 29.5 -10.5t12.5 -27.5v-326q3 1 18 18q40 45 82 76t102 31h126q63 0 116.5 -31t84.5 -83.5t31 -115.5q0 -60 -31 -113t-83 -84.5t-112 -31.5h-544v78h126v582q0 17 12 27.5zM585 98.5q34 20.5 54 55.5t20 75q0 42 -19.5 77t-53 55.5
t-75.5 20.5h-126q-52 0 -98.5 -33.5t-75 -80.5t-28.5 -81v-109h328q40 0 74 20.5z" />
    <glyph glyph-name="uniFEC4" unicode="&#x637;" horiz-adv-x="967" arabic-form="medial" 
d="M156 690q13 11 31 11t30 -10.5t12 -28.5v-309q67 117 224 117l127 -1q78 0 140.5 -45.5t85.5 -118.5q8 -23 10 -46.5t2 -69.5q0 -50 35.5 -80.5t89.5 -30.5h55v-78h-76q-53 0 -96 29t-61 75q-29 -46 -77 -75t-102 -29h-618v78h175v584q0 17 13 28zM656 100q35 22 55 58
t20 77t-20.5 77t-55 57.5t-75.5 21.5h-145q-56 0 -103.5 -29t-75 -77.5t-27.5 -104.5v-102h351q41 0 76 22z" />
    <glyph glyph-name="uniFEC6" unicode="&#x638;" horiz-adv-x="955" arabic-form="final" 
d="M196 690.5q12 10.5 30 10.5q16 0 29 -11t13 -27v-309q49 54 94 80.5t108 26.5h120q70 0 123 -32.5t82 -88.5t29 -124v-22.5t2.5 -32t8.5 -25.5q12 -27 36.5 -42.5t53.5 -15.5h52v-78h-52q-51 0 -87.5 25t-66.5 70q-77 -95 -175 -95h-497q-17 0 -29.5 11t-12.5 28
q0 16 10 27.5t24 11.5h93v585q0 17 12 27.5zM555 643.5q17 -15.5 17 -38.5q0 -24 -17 -39t-41 -15t-40.5 15t-16.5 39q0 23 17 38.5t40 15.5q24 0 41 -15.5zM665 98q34 21 54 56t20 76t-20 76.5t-54 56.5t-75 21h-120q-54 0 -100.5 -28.5t-74 -76.5t-27.5 -102v-100h322
q41 0 75 21z" />
    <glyph glyph-name="uniFEC7" unicode="&#x638;" horiz-adv-x="811" arabic-form="initial" 
d="M111 687.5q12 10.5 30 10.5q17 0 29.5 -10.5t12.5 -27.5v-320q30 57 87 88t128 31h113q63 0 116.5 -31t84.5 -83.5t31 -115.5q0 -60 -31 -113t-83 -84.5t-112 -31.5h-544v78h126v582q0 17 12 27.5zM431 644q17 15 40 15q24 0 40.5 -15t16.5 -38t-17 -38t-40 -15t-40 15
t-17 38t17 38zM585 98q34 21 54 56t20 75q0 42 -19.5 77t-53 55.5t-75.5 20.5h-126q-55 0 -101.5 -28t-73.5 -75.5t-27 -102.5v-99h328q40 0 74 21z" />
    <glyph glyph-name="uniFEC8" unicode="&#x638;" horiz-adv-x="967" arabic-form="medial" 
d="M156 690q13 11 31 11t30 -10.5t12 -28.5v-309q67 117 224 117l127 -1q78 0 140.5 -45.5t85.5 -118.5q8 -23 10 -46.5t2 -69.5q0 -50 35.5 -80.5t89.5 -30.5h55v-78h-76q-53 0 -96 29t-61 75q-29 -46 -77 -75t-102 -29h-618v78h175v584q0 17 13 28zM423 644q17 15 40 15
t40 -15t17 -38t-17 -38t-40 -15q-24 0 -40.5 15t-16.5 38t17 38zM656 100q35 22 55 58t20 77t-20.5 77t-55 57.5t-75.5 21.5h-145q-56 0 -103.5 -29t-75 -77.5t-27.5 -104.5v-102h351q41 0 76 22z" />
    <glyph glyph-name="uniFECA" unicode="&#x639;" horiz-adv-x="618" arabic-form="final" 
d="M75.5 -48q29.5 52 79.5 83q24 13 47.5 19t58.5 10l-42 37q-60 50 -92 83t-32 54q0 63 31.5 115.5t85 83t116.5 30.5q62 0 115 -31t85 -83.5t32 -114.5q0 -18 -32 -51t-91 -84l-28 -25h239v-78h-363q-42 0 -77.5 -22t-56 -58.5t-20.5 -78.5q0 -43 21 -78.5t56.5 -56.5
t77.5 -21h29q18 0 29.5 -11t11.5 -29q0 -21 -18.5 -29.5t-43.5 -8.5q-67 0 -124 29.5t-90.5 83t-33.5 121.5q0 59 29.5 111zM451.5 315.5q-20.5 33.5 -53.5 54t-70 20.5q-40 0 -73 -19.5t-52.5 -53t-20.5 -72.5l146 -132l146 132q-2 37 -22.5 70.5z" />
    <glyph glyph-name="uniFECB" unicode="&#x639;" horiz-adv-x="599" arabic-form="initial" 
d="M94 143.5q-22 38.5 -22 86.5q0 63 31.5 116t85 84t116.5 31q66 0 121 -33.5t89 -103.5q12 -21 12 -38q0 -20 -16 -29q-11 -7 -24 -7q-12 0 -22 6.5t-16 17.5q-4 7 -19 36.5t-46.5 51.5t-78.5 22q-41 0 -75 -21t-54 -56.5t-20 -76.5q0 -40 20 -75t54 -56t75 -21h205
q18 0 30 -10.5t12 -28.5t-12 -28.5t-30 -10.5h-528v78h172q-38 27 -60 65.5z" />
    <glyph glyph-name="uniFECC" unicode="&#x639;" horiz-adv-x="591" arabic-form="medial" 
d="M106 178q-41 40 -41 60q0 62 31.5 115t84.5 84t116 31t116.5 -30.5t85 -83.5t31.5 -116q0 -17 -42 -59t-109 -101h237v-78h-285q-9 0 -18 3l-15 5q-3 -1 -12 -4.5t-18 -3.5h-289v78h236q-68 60 -109 100zM420.5 316q-20.5 34 -53.5 54.5t-70 20.5q-61 0 -102 -42.5
t-44 -103.5l146 -132l146 132q-2 37 -22.5 71z" />
    <glyph glyph-name="uniFECE" unicode="&#x63a;" horiz-adv-x="618" arabic-form="final" 
d="M282 641q17 15 40 15t40.5 -15t17.5 -38t-17.5 -38.5t-40.5 -15.5t-40 15.5t-17 38.5t17 38zM75.5 -48q29.5 52 79.5 83q24 13 47.5 19t58.5 10l-42 37q-60 50 -92 83t-32 54q0 63 31.5 115.5t85 83t116.5 30.5q62 0 115 -31t85 -83.5t32 -114.5q0 -18 -32 -51t-91 -84
l-28 -25h239v-78h-363q-42 0 -77.5 -22t-56 -58.5t-20.5 -78.5q0 -43 21 -78.5t56.5 -56.5t77.5 -21h29q18 0 29.5 -11t11.5 -29q0 -21 -18.5 -29.5t-43.5 -8.5q-67 0 -124 29.5t-90.5 83t-33.5 121.5q0 59 29.5 111zM451.5 315.5q-20.5 33.5 -53.5 54t-70 20.5
q-40 0 -73 -19.5t-52.5 -53t-20.5 -72.5l146 -132l146 132q-2 37 -22.5 70.5z" />
    <glyph glyph-name="uniFECF" unicode="&#x63a;" horiz-adv-x="599" arabic-form="initial" 
d="M345.5 643q16.5 -15 16.5 -39q0 -23 -17 -38t-41 -15q-22 0 -39 15t-17 38t16.5 38.5t39.5 15.5q25 0 41.5 -15zM94 143.5q-22 38.5 -22 86.5q0 63 31.5 116t85 84t116.5 31q73 0 128.5 -34t81.5 -103q11 -17 11 -33q0 -20 -16 -32q-9 -6 -23 -6q-13 0 -23.5 5t-14.5 16
q-11 31 -24 53.5t-42.5 39.5t-77.5 17q-41 0 -75 -21t-54 -56.5t-20 -76.5q0 -40 20 -75t54 -56t75 -21h205q18 0 30 -10.5t12 -28.5t-12 -28.5t-30 -10.5h-528v78h172q-38 27 -60 65.5z" />
    <glyph glyph-name="uniFED0" unicode="&#x63a;" horiz-adv-x="591" arabic-form="medial" 
d="M342 643q17 -15 17 -38t-17.5 -38.5t-40.5 -15.5t-40 15.5t-17 38.5t17 38t40 15q24 0 41 -15zM106 178q-41 40 -41 60q0 62 31.5 115t84.5 84t116 31t116.5 -30.5t85 -83.5t31.5 -116q0 -17 -42 -59t-109 -101h248v-78h-296q-9 0 -18 3l-15 5q-3 -1 -12 -4.5t-18 -3.5
h-289v78h236q-68 60 -109 100zM420.5 316q-20.5 34 -53.5 54.5t-70 20.5q-61 0 -102 -42.5t-44 -103.5l146 -132l146 132q-2 37 -22.5 71z" />
    <glyph glyph-name="uniFED2" unicode="&#x641;" horiz-adv-x="943" arabic-form="final" 
d="M629.5 640q16.5 15 39.5 15q24 0 41 -14.5t17 -38.5q0 -23 -17 -38.5t-41 -15.5q-23 0 -39.5 15.5t-16.5 38.5t16.5 38zM117.5 449q12.5 -11 12.5 -28v-242q0 -41 28 -71.5t69 -30.5h269q-32 26 -53 69t-21 83q0 64 31.5 117t85 83.5t116.5 30.5t116.5 -31t85 -84
t31.5 -116q0 -41 -21 -84t-53 -67h152v-78h-739q-52 0 -93.5 23.5t-65 64.5t-23.5 93v240q0 17 12.5 28t30.5 11q17 0 29.5 -11zM527 154q20 -35 54 -56t74 -21t74 21t54 56t20 75q0 41 -19.5 76.5t-53.5 56.5t-75 21t-75 -21t-53.5 -56.5t-19.5 -76.5q0 -40 20 -75z" />
    <glyph glyph-name="uniFED3" unicode="&#x641;" horiz-adv-x="601" arabic-form="initial" 
d="M351 648.5q17 -15.5 17 -38.5t-17 -38t-40 -15t-40.5 15t-17.5 38t17.5 38.5t40.5 15.5t40 -15.5zM103 147.5q-20 40.5 -20 82.5q0 63 31.5 116t85 83.5t116.5 30.5q62 0 115 -31t84.5 -84t31.5 -115q0 -61 -31 -114t-83.5 -84.5t-113.5 -31.5h-345v78h182
q-33 29 -53 69.5zM187 154.5q20 -35.5 54 -56.5t75 -21q40 0 74 21t53.5 56.5t19.5 75.5q0 41 -19.5 76t-53 56t-74.5 21t-75 -21t-54 -56.5t-20 -75.5t20 -75.5z" />
    <glyph glyph-name="uniFED4" unicode="&#x641;" horiz-adv-x="587" arabic-form="medial" 
d="M331.5 656.5q17.5 -15.5 17.5 -38.5t-17.5 -38.5t-40.5 -15.5q-24 0 -41 15.5t-17 38.5q0 24 17 39t41 15q23 0 40.5 -15.5zM66 230q0 64 31 117t84.5 84t117.5 31q63 0 116.5 -31t85 -84.5t31.5 -116.5q0 -82 -73 -152h164v-78h-654v78h170q-73 70 -73 152zM373 98
q34 21 54 56.5t20 75.5q0 41 -19.5 76.5t-53.5 57t-75 21.5t-75 -21.5t-54 -57t-20 -76.5q0 -40 20 -75.5t54.5 -56.5t74.5 -21t74 21z" />
    <glyph glyph-name="uniFED6" unicode="&#x642;" horiz-adv-x="971" arabic-form="final" 
d="M683 563q-17 15 -17 38q0 22 17.5 38t38.5 16q24 0 41 -15t17 -38t-17 -38.5t-40 -15.5t-40 15zM508 563.5q-16 14.5 -16 36.5q0 24 16.5 39.5t39.5 15.5q25 0 42 -17t15 -42q-1 -21 -19 -34t-40 -13t-38 14.5zM997 0h-123q-2 -64 -44 -117.5t-110.5 -84.5t-144.5 -31
h-230q-81 0 -149.5 40.5t-109 109t-40.5 149.5v146q0 17 12.5 30t29.5 13q19 0 32 -12.5t13 -31.5v-141q0 -59 29 -108.5t78.5 -78.5t107.5 -29h224q58 0 103.5 18.5t73 48.5t34.5 63l1 14l-153 -1q-65 0 -120 31.5t-86.5 85t-31.5 117.5q0 66 33 121.5t89.5 88t122.5 31.5
q65 -1 119.5 -34.5t86 -88.5t31.5 -120v-151h122v-78zM498 153.5q21 -35.5 57 -56.5t79 -21l157 1l-1 155q0 43 -21.5 78.5t-57.5 56.5t-77 21q-43 0 -79 -21t-57 -57t-21 -79q0 -42 21 -77.5z" />
    <glyph glyph-name="uniFED7" unicode="&#x642;" horiz-adv-x="601" arabic-form="initial" 
d="M262 648.5q17 -15.5 17 -38.5t-17.5 -38t-40.5 -15t-40 15t-17 38t17.5 38.5t39.5 15.5q24 0 41 -15.5zM356.5 648.5q17.5 15.5 40.5 15.5q24 0 40.5 -15t16.5 -39q0 -23 -17 -38t-40 -15t-40.5 15t-17.5 38t17.5 38.5zM103 147.5q-20 40.5 -20 82.5q0 63 31.5 116
t85 83.5t116.5 30.5q62 0 115 -31t84.5 -84t31.5 -115q0 -61 -31 -114t-83.5 -84.5t-113.5 -31.5h-349v78h186q-33 29 -53 69.5zM187 154.5q20 -35.5 54 -56.5t75 -21q40 0 74 21t53.5 56.5t19.5 75.5q0 41 -19.5 76t-53 56t-74.5 21t-75 -21t-54 -56.5t-20 -75.5t20 -75.5z
" />
    <glyph glyph-name="uniFED8" unicode="&#x642;" horiz-adv-x="587" arabic-form="medial" 
d="M167 657q17 15 41 15t41 -15t17 -39q0 -23 -17.5 -38.5t-40.5 -15.5t-40.5 15.5t-17.5 38.5q0 24 17 39zM350.5 657q16.5 15 40.5 15t41 -15t17 -39q0 -23 -17.5 -38.5t-40.5 -15.5t-40 15.5t-17 38.5q0 24 16.5 39zM66 230q0 64 31 117t84.5 84t117.5 31q63 0 116.5 -31
t85 -84.5t31.5 -116.5q0 -82 -73 -152h162v-78h-648v78h166q-73 70 -73 152zM170 154.5q20 -35.5 54.5 -56.5t74.5 -21t74 21t54 56.5t20 75.5q0 41 -19.5 76.5t-53.5 57t-75 21.5t-75 -21.5t-54 -57t-20 -76.5q0 -40 20 -75.5z" />
    <glyph glyph-name="uniFEDA" unicode="&#x643;" horiz-adv-x="976" arabic-form="final" 
d="M55.5 390.5q12.5 10.5 30.5 10.5q17 0 29.5 -10.5t12.5 -27.5v-77q-1 -55 21.5 -103t66 -77t101.5 -29h255q51 0 95 27t69.5 71.5t25.5 95.5v422q0 18 11.5 28t29.5 10t30 -10.5t12 -27.5v-442q0 -42 12 -81q6 -41 49 -66.5t94 -25.5v-78h-54q-59 0 -100.5 29.5
t-58.5 83.5q-37 -50 -92 -81.5t-123 -31.5h-255q-73 0 -136 36.5t-100.5 98.5t-37.5 136v92q0 17 12.5 27.5zM324 408q7 6 20 7h34q-14 16 -20 29t-6 31q0 44 31.5 75t75.5 31q34 0 56 -16t41 -48q4 -8 4 -17q0 -19 -21 -19q-9 2 -13.5 7.5t-12.5 17.5q-11 17 -22 25t-32 8
q-26 0 -43.5 -18.5t-17.5 -45.5q0 -30 19 -44.5t49 -16.5h83q11 0 17 -6t6 -16q0 -9 -7 -15t-16 -6h-209q-10 0 -16.5 5.5t-6.5 15.5t7 16z" />
    <glyph glyph-name="uniFEDB" unicode="&#x643;" horiz-adv-x="614" arabic-form="initial" 
d="M416 99q34 21 53.5 56t19.5 75q0 41 -19.5 76.5t-53.5 56.5t-75 21h-265q-17 0 -29.5 11t-12.5 28q0 6 3 13.5t7 11.5l265 274q13 13 31 13q17 0 30 -10.5t13 -26.5q0 -12 -12 -26l-200 -211h170q63 0 116.5 -30.5t84.5 -83.5t31 -117q0 -62 -31 -114.5t-83.5 -84
t-113.5 -31.5h-373v78h369q41 0 75 21z" />
    <glyph glyph-name="uniFEDC" unicode="&#x643;" horiz-adv-x="713" arabic-form="medial" 
d="M475.5 305.5q-19.5 35.5 -53 57t-74.5 21.5h-265q-18 0 -30.5 10.5t-12.5 27.5q0 16 11 27l267 277q13 13 33 13q16 0 29 -11q12 -10 12 -28q0 -16 -10 -26l-204 -213h168q80 0 141 -49q50 -41 71.5 -92.5t21.5 -120.5q0 -47 26.5 -84t71.5 -37h52v-78h-53q-48 0 -87 27
t-63 68q-30 -42 -73.5 -68.5t-100.5 -26.5h-382v78h377q40 0 73.5 20.5t53.5 55.5t20 75q0 41 -19.5 76.5z" />
    <glyph glyph-name="uniFEDE" unicode="&#x644;" horiz-adv-x="654" arabic-form="final" 
d="M53.5 94q10.5 32 35.5 70q11 10 27 10q15 0 25 -7q9 -5 13.5 -14.5t2.5 -19.5q-2 -6 -13 -37q-10 -26 -14 -41.5t-4 -33.5q0 -46 21 -86t58 -64.5t83 -24.5q45 0 82 24.5t58 65t21 85.5v672q0 17 12.5 28t29.5 11t29 -11t12 -28v-509q0 -47 30.5 -76.5t77.5 -29.5h36v-78
h-50q-27 0 -56 15t-42 35q-4 -50 -10.5 -85t-22.5 -67q-31 -59 -85.5 -94t-121.5 -35q-68 0 -124 34.5t-88.5 92.5t-32.5 125q0 41 10.5 73z" />
    <glyph glyph-name="uniFEDF" unicode="&#x644;" horiz-adv-x="306" arabic-form="initial" 
d="M64 78q42 0 72 31.5t30 73.5v509q0 17 12.5 27.5t29.5 10.5t30 -10.5t13 -27.5v-509q0 -50 -25.5 -92t-68.5 -66.5t-93 -24.5h-83v78h83z" />
    <glyph glyph-name="uniFEE0" unicode="&#x644;" horiz-adv-x="354" arabic-form="medial" 
d="M40 78q41 0 69 31t28 75v510q0 17 12.5 28.5t29.5 11.5q18 0 30.5 -11t12.5 -29v-510q0 -44 28.5 -75t71.5 -31h57v-78h-58q-45 0 -79 20.5t-63 59.5q-30 -42 -60.5 -61t-78.5 -19h-61v78h61z" />
    <glyph glyph-name="uniFEE2" unicode="&#x645;" horiz-adv-x="815" arabic-form="final" 
d="M127 -203q-11 -12 -32 -12t-31.5 12t-10.5 26v406q0 57 29 109.5t82 85.5t121 33h181q82 0 138.5 -47.5t77.5 -118.5q7 -27 8.5 -46t1.5 -63q0 -48 31 -75.5t77 -28.5h27v-78h-33q-53 0 -93 26.5t-62 68.5q-36 -46 -79 -70.5t-100 -24.5q-54 0 -99 23t-74 62t-37 87
q-4 20 -4 42q0 39 14.5 71.5t43.5 64.5q-12 5 -29 5q-57 0 -97 -32.5t-40 -95.5v-404q0 -14 -11 -26zM534 97q34 21 54 56.5t20 75.5t-20 75t-54 56t-74 21t-74 -21t-53.5 -56t-19.5 -75q0 -41 19.5 -76t53.5 -56t74 -21t74 21z" />
    <glyph glyph-name="uniFEE3" unicode="&#x645;" horiz-adv-x="648" arabic-form="initial" 
d="M19 78q37 0 65.5 13.5t43.5 40.5q9 17 11 34t2 50q0 68 28.5 124.5t81.5 89t123 32.5q64 0 117 -31t84.5 -84t31.5 -116t-31.5 -116t-85 -84t-116.5 -31q-56 0 -97 24t-82 71q-5 -6 -23 -32t-51 -44.5t-79 -18.5h-51v78h28zM449 98q34 21 54 56.5t20 76.5t-20 76t-54 56
t-75 21q-40 0 -74 -21t-54 -56.5t-20 -75.5q0 -41 19.5 -76.5t53.5 -56.5t75 -21t75 21z" />
    <glyph glyph-name="uniFEE4" unicode="&#x645;" horiz-adv-x="722" arabic-form="medial" 
d="M20 77q36 0 64 16.5t39 50.5q5 20 7 42t2 28q2 32 4 48q7 57 39 103t82 72.5t108 26.5q88 0 147 -53.5t75 -138.5q7 -20 13 -64q6 -42 14 -68t28.5 -44t58.5 -18h47v-78h-56q-42 0 -70.5 14.5t-44 33.5t-32.5 47q-77 -95 -180 -95q-57 0 -99 24t-82 71
q-31 -48 -65.5 -71.5t-87.5 -23.5h-56v78zM440 98.5q34 21.5 54 57t20 76.5t-19.5 76.5t-53.5 56.5t-76 21q-41 0 -75.5 -21.5t-55 -56.5t-20.5 -76t20.5 -76.5t55 -57t75.5 -21.5t75 21.5z" />
    <glyph glyph-name="uniFEE6" unicode="&#x646;" horiz-adv-x="718" arabic-form="final" 
d="M275.5 379.5q-16.5 15.5 -16.5 38.5q0 24 16.5 39t40.5 15q25 0 41.5 -14t16.5 -37q0 -24 -17 -40.5t-41 -16.5t-40.5 15.5zM741 0h-59q-26 0 -54 11.5t-46 33.5q-10 -56 -42.5 -102.5t-81.5 -72.5q-64 -36 -134 -36q-79 0 -144.5 38.5t-103.5 104t-38 141.5
q0 43 11.5 83.5t35.5 72.5q15 15 35 15q13 0 23 -6q18 -11 18 -30q0 -7 -5 -19q-17 -34 -25 -60t-8 -56q0 -54 26.5 -101t72.5 -75.5t101 -28.5t100.5 28.5t72 75.5t26.5 101v302q0 14 10 28t29 14q22 0 29 -14t7 -25l-2 -265q4 -36 29.5 -58t60.5 -22h56v-78z" />
    <glyph glyph-name="uniFEE7" unicode="&#x646;" horiz-adv-x="377" arabic-form="initial" 
d="M230.5 643.5q16.5 15.5 40.5 15.5t41 -15.5t17 -38.5t-17.5 -38.5t-40.5 -15.5t-40 15.5t-17 38.5t16.5 38.5zM196 118.5q35 40.5 35 100.5v194q0 50 42 50q17 0 29.5 -11.5t12.5 -28.5v-212q0 -57 -29.5 -105.5t-79 -77t-106.5 -28.5h-115v78h115q61 0 96 40.5z" />
    <glyph glyph-name="uniFEE8" unicode="&#x646;" horiz-adv-x="410" arabic-form="medial" 
d="M243.5 643q16.5 -15 16.5 -39q0 -23 -17 -38t-41 -15q-22 0 -39 15t-17 38t16.5 38.5t39.5 15.5q25 0 41.5 -15zM25 78q71 0 104 42t33 116v191q0 16 12.5 25t29.5 9q19 0 31.5 -9t12.5 -25v-191q0 -158 147 -158h29v-78h-47q-54 0 -95.5 23.5t-77.5 68.5
q-29 -43 -73 -67.5t-95 -24.5h-60v78h49z" />
    <glyph glyph-name="uniFEEA" unicode="&#x647;" horiz-adv-x="633" arabic-form="final" 
d="M404.5 422.5q58.5 -38.5 85.5 -102.5q9 -22 12 -41.5t5 -53.5q1 -35 6 -60t22 -49q22 -38 83 -38h31v-78h-44q-95 0 -151 95q-39 -47 -80 -71t-98 -24q-63 0 -116.5 30.5t-85 83.5t-31.5 116t31.5 116t85 84t116.5 31q70 0 128.5 -38.5zM350 98q34 21 54 56.5t20 75.5
q0 41 -19.5 76.5t-53.5 56.5t-75 21t-75 -21t-54 -56.5t-20 -76.5t20 -76t54 -56t75 -21q40 0 74 21z" />
    <glyph glyph-name="uniFEEB" unicode="&#x647;" horiz-adv-x="735" arabic-form="initial" 
d="M656.5 159.5q6.5 -54.5 7.5 -102.5q0 -25 -17 -41t-42 -16h-619v78h149q-20 30 -27.5 52.5t-4.5 61.5q10 55 57 93t108 38q44 0 79 -21t54.5 -55.5t19.5 -73.5q0 -26 -7.5 -51t-22.5 -44h168q7 0 11.5 5t3.5 12q-5 90 -44 162t-103 112.5t-142 40.5q-45 0 -71 -7.5
t-44 -16.5t-25 -12q-12 -4 -17 -4q-20 0 -33 16q-9 11 -9 22q0 21 22 35q33 22 86.5 33t95.5 11q124 0 215 -66.5t132 -173.5q13 -33 19.5 -87.5zM198.5 103.5q26.5 -27.5 64.5 -27.5t64.5 27.5t26.5 65.5t-27 65.5t-64 27.5q-38 0 -64.5 -27.5t-26.5 -65.5t26.5 -65.5z" />
    <glyph glyph-name="uniFEEC" unicode="&#x647;" horiz-adv-x="863" arabic-form="medial" 
d="M883 0h-67q-34 0 -66.5 13.5t-58.5 37.5q-2 -26 -11 -38.5t-29 -12.5h-667v78h149q-18 32 -26 54t-5 59q10 55 56.5 93t107.5 38q44 0 79 -21t55 -55t20 -72q0 -26 -8 -51.5t-22 -44.5h207q5 0 8 4t3 9q-7 93 -48 168.5t-107 119t-145 43.5q-36 0 -76 -10t-69 -28
q-9 -3 -17 -3q-25 0 -36 18q-7 8 -7 20q0 18 20 32q29 25 88.5 37.5t100.5 12.5q151 0 249 -86.5t126 -234.5q14 -45 51.5 -73.5t85.5 -28.5h59v-78zM197 103q26 -27 64 -27t64.5 27t26.5 65t-26.5 65.5t-64.5 27.5q-37 0 -63.5 -27.5t-26.5 -65.5t26 -65z" />
    <glyph glyph-name="uniFEEE" unicode="&#x648;" horiz-adv-x="587" arabic-form="final" 
d="M81.5 346q31.5 53 85 83.5t116.5 30.5q58 0 108 -27t79 -76q28 -34 36.5 -70.5t8.5 -88.5v-47l-1 -73h92v-78h-93q-2 -36 -13 -78q-20 -74 -72.5 -114t-144.5 -50q-19 -1 -30.5 10.5t-11.5 26.5q0 11 6.5 21t19.5 15q7 1 30 4.5t41 10.5q47 20 65.5 57t22.5 97h-135
q-66 1 -121 29t-87.5 80t-32.5 121q0 63 31.5 116zM411 304.5q-20 35.5 -54 57t-74 21.5q-41 0 -75 -21t-54 -56t-20 -76t20 -76t54 -56t75 -21h148v152q0 40 -20 75.5z" />
    <glyph glyph-name="uniFEF0" unicode="&#x649;" horiz-adv-x="840" arabic-form="final" 
d="M315 306q0 -16 -14 -29q-115 -91 -115 -207q0 -37 12 -78q21 -75 83.5 -124t140.5 -49h159q46 0 81.5 23.5t54.5 64.5q11 23 14 38.5t4 58.5q-52 3 -103 23q-37 16 -64 31q-21 15 -21 37q0 10 4 17q5 9 15 14.5t21 5.5t21 -5q51 -25 62 -30q46 -19 108 -19h121l2 -78h-82
q-3 -50 -12.5 -82t-31.5 -66q-30 -52 -81.5 -81t-112.5 -29h-159q-73 0 -138 31.5t-110 87t-60 125.5q-13 43 -13 87q0 73 36 139t103 116q16 13 36 13q18 0 29 -11q10 -10 10 -24z" />
    <glyph glyph-name="uniFEF2" unicode="&#x64a;" horiz-adv-x="884" arabic-form="final" 
d="M315 306q0 -16 -14 -29q-115 -91 -115 -207q0 -37 12 -78q21 -75 83.5 -124t140.5 -49h159q46 0 81.5 23.5t54.5 64.5q11 23 14 38.5t4 58.5q-52 3 -103 23q-37 16 -64 31q-21 15 -21 37q0 10 4 17q5 9 15 14.5t21 5.5t21 -5q51 -25 62 -30q46 -19 108 -19h121l2 -78h-82
q-3 -50 -12.5 -82t-31.5 -66q-30 -52 -81.5 -81t-112.5 -29h-159q-73 0 -138 31.5t-110 87t-60 125.5q-13 43 -13 87q0 73 36 139t103 116q16 13 36 13q18 0 29 -11q10 -10 10 -24zM452.5 -330q17.5 -15 17.5 -38q0 -24 -17 -39.5t-42 -15.5q-23 0 -40 16t-17 39t17 38
t40 15q24 0 41.5 -15zM547.5 -330q17.5 15 40.5 15t40 -15t17 -38t-17 -39t-40 -16q-24 0 -41 15.5t-17 39.5q0 23 17.5 38z" />
    <glyph glyph-name="uniFEF3" unicode="&#x64a;" horiz-adv-x="377" arabic-form="initial" 
d="M314.5 451.5q12.5 -11.5 12.5 -28.5v-212q0 -59 -26 -107t-75 -76t-115 -28h-132v78h125q67 0 102.5 35t35.5 106v194q0 50 43 50q17 0 29.5 -11.5zM14 -122q17 15 40 15t40.5 -15t17.5 -38t-17.5 -38.5t-40.5 -15.5t-40 15.5t-17 38.5t17 38zM193 -122q17 15 40 15
t40.5 -15t17.5 -38t-17.5 -38.5t-40.5 -15.5t-40 15.5t-17 38.5t17 38z" />
    <glyph glyph-name="uniFEF4" unicode="&#x64a;" horiz-adv-x="412" arabic-form="medial" 
d="M234 453q13 -10 13 -26v-190q0 -76 34.5 -117.5t107.5 -41.5h37v-78h-50q-56 0 -99 24t-73 68q-29 -43 -71.5 -67.5t-96.5 -24.5h-55v78h38q142 0 142 159v190q0 15 13 24.5t30 11.5q17 0 30 -10zM70 -122q17 15 40 15t40.5 -15t17.5 -38t-17.5 -38.5t-40.5 -15.5
t-40 15.5t-17 38.5t17 38zM249 -122q17 15 40 15t40 -15t17 -38t-17.5 -38.5t-39.5 -15.5q-23 0 -40 15.5t-17 38.5t17 38z" />
    <glyph glyph-name=".notdef" horiz-adv-x="500" 
d="M474 774q26 -26 26 -71v-806q0 -45 -26 -71t-71 -26h-305q-45 0 -71.5 26t-26.5 71v806q0 45 26.5 71t71.5 26h305q45 0 71 -26zM429 750h-358l179 -390zM50 676v-752l172 376zM450 676l-172 -376l172 -376v752zM250 240l-179 -390h358z" />
    <glyph glyph-name="uni0000" 
 />
    <glyph glyph-name="uni0000" 
 />
    <glyph glyph-name="nonmarkingreturn" unicode="&#xd;" horiz-adv-x="250" 
 />
    <glyph glyph-name="space" unicode=" " horiz-adv-x="279" 
 />
    <glyph glyph-name="exclam" unicode="!" horiz-adv-x="243" 
d="M168 656l-22 -435q-2 -9 -8 -15t-16 -6t-16.5 5.5t-8.5 15.5l-22 435l-1 13q0 31 23 31h51q25 0 20 -44zM90 4q-14 14 -14 33t14 32.5t33 13.5t32 -13.5t13 -32.5q0 -20 -13 -33.5t-32 -13.5t-33 14z" />
    <glyph glyph-name="quotedbl" unicode="&#x22;" horiz-adv-x="391" 
d="M152 690.5q9 -9.5 9 -23.5q0 -7 -1 -10l-57 -229q-3 -10 -11 -15.5t-18 -5.5q-9 0 -15.5 5.5t-6.5 14.5l25 227q2 22 15.5 34t35.5 12q15 0 24 -9.5zM320.5 690.5q9.5 -9.5 9.5 -23.5q0 -7 -1 -10l-57 -229q-3 -10 -11 -15.5t-19 -5.5q-9 0 -15 5.5t-6 14.5l24 227
q2 22 15.5 34t35.5 12q15 0 24.5 -9.5z" />
    <glyph glyph-name="numbersign" unicode="#" horiz-adv-x="677" 
d="M74 249h81l36 208l-84 1q-19 0 -23.5 7.5t-4.5 35.5q0 23 25 27l99 1l26 146q8 25 39 25q12 0 19.5 -6.5t7.5 -17.5l-25 -147h197l25 143q7 28 40 28q11 0 18.5 -6.5t7.5 -17.5l-25 -147l86 -1q12 -2 14 -10.5t2 -34.5q0 -23 -23 -25l-91 -1l-35 -208h82q21 -1 25 -8
t4 -36t-33 -29h-91l-25 -147q-4 -14 -13 -21.5t-27 -7.5q-12 0 -19 6.5t-7 18.5l25 151h-197l-25 -147q-4 -14 -13 -21.5t-27 -7.5q-12 0 -19.5 6.5t-7.5 18.5l25 151l-76 1q-14 0 -19 4t-5.5 15t-0.5 27q0 26 32 26zM457 459h-201l-36 -213h200z" />
    <glyph glyph-name="dollar" unicode="$" horiz-adv-x="639" 
d="M130 136q51 -30 89 -46.5t83 -20.5v251q-223 52 -223 192q0 56 30 97.5t80.5 64.5t110.5 25l-1 54q0 10 7 18t19 8q13 0 20.5 -9.5t7.5 -22.5l-2 -49q62 -5 117.5 -28t74.5 -56q1 -3 1 -10q0 -16 -12 -25.5t-27 -6.5q-51 44 -156 58v-242q231 -54 231 -195
q0 -59 -31 -102t-83 -65.5t-116 -25.5l1 -71q-1 -13 -8 -20t-19 -7q-11 0 -18 7.5t-7 19.5v72q-57 5 -119.5 28t-97.5 57q-15 8 -15 26q0 16 12 28t29 9zM197.5 440.5q38.5 -25.5 104.5 -41.5v235q-59 -1 -101 -32t-42 -84q0 -52 38.5 -77.5zM456 100.5q45 32.5 45 87.5
q0 53 -41.5 79.5t-110.5 43.5v-245q62 2 107 34.5z" />
    <glyph glyph-name="percent" unicode="%" horiz-adv-x="833" 
d="M67.5 615.5q20.5 42.5 58 68t86.5 25.5q48 0 85.5 -25.5t58 -68t20.5 -89.5q0 -48 -20.5 -90t-58 -67.5t-86.5 -25.5q-48 0 -85.5 25.5t-58 67.5t-20.5 89q0 48 20.5 90.5zM170 3q-9 0 -16 6.5t-7 15.5q0 5 5 13l493 650q7 10 18 10q9 0 16 -6.5t7 -15.5q0 -5 -5 -13
l-494 -651q-6 -9 -17 -9zM289.5 435q27.5 39 27.5 90t-28.5 91t-77.5 40t-77 -39.5t-28 -90.5t28.5 -90.5t77.5 -39.5q50 0 77.5 39zM477.5 264.5q20.5 42.5 58 68t86.5 25.5t86.5 -25.5t58 -67.5t20.5 -90t-20.5 -90.5t-58 -68t-86.5 -25.5t-86.5 25.5t-58 67.5t-20.5 90
t20.5 90.5zM700 83q27 39 27 91q0 51 -28.5 91t-77.5 40t-76.5 -39.5t-27.5 -90.5t28.5 -91t77.5 -40q50 0 77 39z" />
    <glyph glyph-name="ampersand" unicode="&#x26;" horiz-adv-x="678" 
d="M87.5 303q46.5 48 127.5 85q-36 40 -56 79t-20 83q0 49 25 86t66.5 57t89.5 20q46 0 86 -19t64.5 -54.5t24.5 -82.5q0 -67 -46.5 -111t-121.5 -76l165 -174q13 20 32 59q21 42 36 66t28 29q14 1 26.5 -7.5t12.5 -23.5q0 -19 -33.5 -79.5t-55.5 -90.5q40 -38 65.5 -65.5
t34.5 -48.5q0 -12 -15.5 -24.5t-28.5 -12.5q-29 9 -104 99q-101 -108 -226 -108q-57 0 -108.5 22.5t-83 66t-31.5 102.5q0 75 46.5 123zM232.5 480.5q19.5 -32.5 52.5 -69.5q64 30 101.5 60.5t37.5 81.5q0 43 -30.5 70.5t-73.5 27.5q-44 0 -75.5 -29.5t-31.5 -73.5
q0 -35 19.5 -67.5zM445 144l-183 194q-63 -30 -99 -64.5t-36 -91.5q0 -38 20.5 -67t54 -44.5t71.5 -15.5q97 0 172 89z" />
    <glyph glyph-name="quotesingle" unicode="'" horiz-adv-x="217" 
d="M152 690.5q9 -9.5 9 -23.5q0 -7 -1 -10l-57 -229q-3 -10 -11 -15.5t-18 -5.5q-9 0 -15.5 5.5t-6.5 14.5l25 227q2 22 15.5 34t35.5 12q15 0 24 -9.5z" />
    <glyph glyph-name="parenleft" unicode="(" horiz-adv-x="411" 
d="M320 624q-47 -38 -83.5 -77.5t-65 -105t-28.5 -154.5q0 -118 47.5 -197.5t151.5 -156.5q13 -13 13 -29q0 -14 -9 -24t-22 -10q-9 0 -20 6q-117 67 -181 172.5t-64 238.5t64 238.5t181 172.5q10 6 20 6q14 0 23 -10.5t9 -23.5q0 -17 -13 -27q-5 -5 -23 -19z" />
    <glyph glyph-name="parenright" unicode=")" horiz-adv-x="411" 
d="M160 662.5q29 -21.5 48 -37.5q70 -66 107 -152.5t37 -185.5q0 -91 -31.5 -171.5t-92.5 -143.5q-26 -30 -73 -65.5t-68 -35.5q-13 0 -22 9.5t-9 23.5q0 16 13 29q63 50 99 89q49 50 74.5 119.5t25.5 145.5q0 82 -28 155t-82 126q-25 24 -64 54q-16 12 -24 19
q-15 14 -15 30q0 10 7 19q9 13 25 13q12 0 22 -6q22 -13 51 -34.5z" />
    <glyph glyph-name="asterisk" unicode="*" horiz-adv-x="428" 
d="M68 611q0 10 9.5 19t16.5 5l107 -70l-10 116q0 10 7 15.5t16 5.5q10 0 16.5 -5.5t6.5 -15.5l-9 -116q21 16 57.5 41t49.5 29q10 0 16.5 -7.5t6.5 -17.5q0 -13 -12 -18q-4 -4 -79 -38l-26 -12q3 -2 27 -13q75 -35 77 -37q14 -6 14 -18q0 -9 -7.5 -16.5t-17.5 -7.5
q-5 0 -11 3l-95 65l9 -116q0 -10 -6.5 -15.5t-16.5 -5.5q-9 0 -16 5.5t-7 15.5l10 116l-95 -65q-6 -3 -12 -3q-9 0 -16.5 7.5t-7.5 15.5q0 13 13 19q7 4 23.5 12t33.5 16l47 22l-105 52q-14 6 -14 17z" />
    <glyph glyph-name="plus" unicode="+" horiz-adv-x="615" 
d="M308 598q35 0 38 -36v-173h167q36 -2 36 -37t-40 -37h-163v-174q-3 -35 -38 -35q-33 0 -38 31l-1 178h-170q-33 5 -33 37t32 37h171v177q5 32 39 32z" />
    <glyph glyph-name="comma" unicode="," horiz-adv-x="209" 
d="M83 1q-13 0 -19.5 4t-6.5 16v38q0 26 14 36.5t41 10.5q19 0 30 -10.5t11 -29.5v-34t-9 -51t-28 -31q-16 -52 -47 -60q-10 0 -16 5.5t-7 15.5q1 7 4.5 11t12.5 11q15 9 24 23t9 45h-13z" />
    <glyph glyph-name="hyphen" unicode="-" horiz-adv-x="396" 
d="M69 331q10 10 28 10h202q18 0 28 -10t10 -27q0 -18 -10 -28t-28 -10h-202q-18 0 -28 10t-10 28q0 17 10 27z" />
    <glyph glyph-name="period" unicode="." horiz-adv-x="209" 
d="M69.5 83.5q12.5 12.5 35.5 12.5t35.5 -12.5t12.5 -35.5t-12.5 -35.5t-35.5 -12.5q-22 0 -35 13t-13 35q0 23 12.5 35.5z" />
    <glyph glyph-name="slash" unicode="/" horiz-adv-x="495" 
d="M440 786.5q9 5.5 18 5.5q13 0 23 -9.5t10 -23.5q0 -8 -2 -13l-428 -848q-6 -11 -15.5 -16.5t-19.5 -5.5q-13 0 -22.5 9t-9.5 22q0 7 3 15l428 848q6 11 15 16.5z" />
    <glyph glyph-name="zero" unicode="0" horiz-adv-x="718" 
d="M93.5 526q34.5 83 102.5 135t163 52t163 -51.5t102.5 -135t34.5 -176.5t-34.5 -176t-103 -135t-163.5 -52q-94 0 -162 52t-102.5 135t-34.5 176t34.5 176zM168.5 215.5q23.5 -65.5 72 -108.5t119.5 -43t119 42.5t70.5 108.5t22.5 135q0 68 -23.5 134t-72 109t-118.5 43
q-71 0 -119 -42.5t-71 -108.5t-23 -135t23.5 -134.5z" />
    <glyph glyph-name="one" unicode="1" horiz-adv-x="355" 
d="M245.5 698q8.5 -9 8.5 -25v-630q0 -20 -11 -31.5t-31 -11.5t-31.5 11.5t-11.5 31.5v579l-26 -11q-70 -29 -80 -30q-14 -1 -22.5 10.5t-8.5 25.5q0 12 6.5 22t19.5 14l164 52q15 2 23.5 -7z" />
    <glyph glyph-name="two" unicode="2" horiz-adv-x="588" 
d="M415.5 418.5q30.5 42.5 30.5 91.5q0 57 -43 91t-102 34q-58 0 -102.5 -29t-70.5 -70q-11 -10 -24 -10q-15 0 -27 12t-12 27t11 26q38 57 99 88.5t132 31.5q59 0 111 -23t83.5 -67.5t31.5 -104.5q0 -70 -38 -123.5t-107 -111.5l-229 -209h347q16 0 25.5 -9.5t9.5 -26.5
t-9.5 -26.5t-25.5 -9.5h-437q-16 0 -23.5 8.5t-7.5 21.5q0 14 6.5 29t17.5 24l272 247q51 46 81.5 88.5z" />
    <glyph glyph-name="three" unicode="3" horiz-adv-x="569" 
d="M84 146q8 -5 14.5 -9.5t10.5 -7.5q39 -30 77.5 -48.5t92.5 -18.5q41 0 78 16t60 46.5t23 72.5q0 137 -215 137q-23 0 -34 7t-11 29q11 25 57.5 78.5t96 106t71.5 74.5h-314q-17 0 -26.5 9.5t-9.5 26.5q0 16 9.5 25.5t26.5 9.5h390q14 0 22.5 -8.5t8.5 -22.5t-6.5 -28
t-16.5 -23l-208 -226q105 -7 174.5 -52.5t69.5 -143.5q0 -64 -34 -111.5t-90 -72.5t-119 -25q-62 0 -127.5 24t-106.5 69q-16 13 -16 33q0 16 10.5 27t27.5 11q6 0 14 -5z" />
    <glyph glyph-name="four" unicode="4" horiz-adv-x="646" 
d="M608.5 222.5q9.5 -9.5 9.5 -23.5q0 -15 -9.5 -24.5t-24.5 -9.5h-73v-124q0 -17 -11 -29t-28 -12q-19 0 -31.5 11.5t-12.5 30.5v123h-354q-20 0 -30 12.5t-10 31.5q0 23 14 40l356 425q18 23 48 23q26 0 42.5 -17t16.5 -42v-406h73q15 0 24.5 -9.5zM428 600l-305 -368h305
v368z" />
    <glyph glyph-name="five" unicode="5" horiz-adv-x="606" 
d="M200 82.5q49 -20.5 97 -20.5q74 0 124.5 41.5t50.5 113.5q0 46 -24 79.5t-63.5 51t-85.5 17.5q-33 0 -58.5 -6t-49 -14.5t-31.5 -11.5q-10 -2 -16 -2q-22 0 -37.5 13t-15.5 34l16 246q1 34 23.5 55t56.5 21h296q17 0 26.5 -9.5t9.5 -25.5t-11 -26.5t-27 -10.5h-301
l-13 -230q76 34 153 34q65 0 118.5 -25.5t85.5 -74t32 -113.5q0 -73 -35 -125.5t-94 -79.5t-130 -27q-66 0 -130.5 25.5t-101.5 66.5q-10 14 -10 29q0 16 10 26.5t24 10.5q12 0 22 -7q40 -35 89 -55.5z" />
    <glyph glyph-name="six" unicode="6" horiz-adv-x="640" 
d="M89.5 515q30.5 87 97 142.5t166.5 55.5q47 0 94 -14t82 -45q15 -10 15 -27q0 -15 -10.5 -27t-25.5 -12q-9 0 -16 4q-30 24 -63.5 36t-75.5 12q-82 0 -128 -52.5t-62.5 -129t-14.5 -156.5q19 61 75.5 99.5t124.5 38.5q64 0 119 -27t87.5 -76t32.5 -114q0 -68 -35 -122
t-93.5 -84t-125.5 -30q-141 0 -207.5 96.5t-66.5 245.5q0 99 30.5 186zM180.5 136q24.5 -37 64.5 -58.5t86 -21.5q45 0 85 21t63.5 58.5t23.5 83.5q0 47 -24.5 82.5t-65 54.5t-87.5 19q-44 0 -83 -20t-63 -55.5t-24 -80.5q0 -46 24.5 -83z" />
    <glyph glyph-name="seven" unicode="7" horiz-adv-x="563" 
d="M58.5 678.5q10.5 10.5 26.5 10.5h400q23 0 34 -15t11 -35q0 -14 -5 -26l-301 -590q-13 -23 -36 -23q-15 0 -26.5 9.5t-11.5 23.5q0 8 3 15l286 567h-354q-17 0 -27 10t-10 28q0 15 10.5 25.5z" />
    <glyph glyph-name="eight" unicode="8" horiz-adv-x="628" 
d="M91.5 297.5q45.5 46.5 113.5 64.5q-60 21 -96 62t-36 101t36 102t91.5 63t113.5 21t113.5 -21t91.5 -63t36 -102t-36.5 -101t-96.5 -62q69 -20 114.5 -65.5t45.5 -111.5q0 -65 -40.5 -109.5t-102 -65.5t-125.5 -21q-63 0 -125 21.5t-102.5 65.5t-40.5 109
q0 66 45.5 112.5zM427 421.5q48 33.5 48 95.5q0 40 -24 69t-61 44t-77 15q-39 0 -76 -15t-60.5 -44t-23.5 -69q0 -41 23.5 -70.5t60.5 -44t77 -14.5q65 0 113 33.5zM158 116q28 -31 70 -45.5t86 -14.5q45 0 87 14.5t69.5 45t27.5 76.5q0 45 -28 76t-70.5 46t-86.5 15
t-86 -15t-69.5 -46t-27.5 -76t28 -76z" />
    <glyph glyph-name="nine" unicode="9" horiz-adv-x="640" 
d="M86.5 599q34.5 54 93 84t127.5 30q144 0 208.5 -96t64.5 -246q0 -98 -30.5 -185.5t-96 -143t-166.5 -55.5q-43 0 -95.5 16.5t-86.5 45.5q-22 13 -22 36q0 13 8.5 23t21.5 10q8 0 12 -2l27 -14q42 -22 70.5 -32t64.5 -10q119 0 162.5 99.5t43.5 235.5q-17 -64 -74 -102.5
t-126 -38.5q-66 0 -121 27t-87.5 77t-32.5 117q0 70 34.5 124zM398 339.5q39 20.5 62.5 56.5t23.5 82q0 47 -23.5 85t-64 59.5t-87.5 21.5t-86.5 -21.5t-62.5 -59.5t-23 -85q0 -48 24 -84.5t64.5 -55.5t88.5 -19q45 0 84 20.5z" />
    <glyph glyph-name="colon" unicode=":" horiz-adv-x="215" 
d="M143.5 492.5q12.5 -12.5 12.5 -34.5q0 -23 -12.5 -35.5t-35.5 -12.5q-22 0 -35 13t-13 35q0 23 12.5 35t35.5 12t35.5 -12.5zM143.5 83.5q12.5 -12.5 12.5 -35.5t-12.5 -35.5t-35.5 -12.5q-22 0 -35 13t-13 35q0 23 12.5 35.5t35.5 12.5t35.5 -12.5z" />
    <glyph glyph-name="semicolon" unicode=";" horiz-adv-x="215" 
d="M143.5 493.5q12.5 -12.5 12.5 -35.5q0 -22 -12.5 -35t-35.5 -13q-22 0 -35 13t-13 35q0 23 12.5 35.5t35.5 12.5t35.5 -12.5zM86 0q-12 0 -19 4t-7 16v38q0 48 55 48q19 0 30 -11t11 -30v-34t-9 -50.5t-28 -31.5q-16 -52 -47 -60q-10 1 -16 6.5t-6 15.5q1 8 5 12.5
t12 8.5q16 11 24 24t8 44h-13z" />
    <glyph glyph-name="less" unicode="&#x3c;" horiz-adv-x="615" 
d="M68 381.5q9 13.5 25 20.5l406 192q8 2 10 2q13 0 21.5 -10t8.5 -24t-8.5 -25.5t-24.5 -17.5l-363 -167l362 -166q16 -6 23.5 -17t7.5 -24q0 -15 -8.5 -25.5t-20.5 -10.5q-5 0 -8 1l-406 192q-16 7 -25 20.5t-9 29.5t9 29.5z" />
    <glyph glyph-name="equal" unicode="=" horiz-adv-x="615" 
d="M92 503q10 10 27 10h377q17 0 27 -10t10 -27t-10 -27t-27 -10h-377q-17 0 -27 10t-10 27t10 27zM92 256q10 10 27 10h377q17 0 27 -10t10 -27t-10 -27t-27 -10h-377q-17 0 -27 10t-10 27t10 27z" />
    <glyph glyph-name="greater" unicode="&#x3e;" horiz-adv-x="615" 
d="M547 381.5q9 -13.5 9 -29.5t-9 -29.5t-24 -20.5l-407 -192q-8 -2 -11 -2q-13 0 -21 9.5t-8 23.5t8.5 26t25.5 18l362 167l-362 166q-17 6 -25.5 18.5t-8.5 25.5q0 14 8.5 24t21.5 10q2 0 10 -2l407 -192q15 -7 24 -20.5z" />
    <glyph glyph-name="question" unicode="?" horiz-adv-x="515" 
d="M361.5 687q51.5 -23 82 -67.5t30.5 -106.5q0 -88 -58.5 -139.5t-150.5 -60.5l-6 -101q-2 -24 -26 -24q-14 0 -22 8.5t-9 24.5l-9 120v4q0 19 14 19q61 5 122 35t61 108q0 59 -43 93t-103 34q-45 0 -76 -16.5t-61 -43.5q-23 -21 -36 -24q-17 1 -28.5 15.5t-9.5 29.5
q11 36 48 62t83 39.5t85 13.5q61 0 112.5 -23zM197.5 3.5q-13.5 13.5 -13.5 33.5q0 19 13.5 32.5t32.5 13.5t32.5 -13.5t13.5 -32.5t-13.5 -33t-32.5 -14t-32.5 13.5z" />
    <glyph glyph-name="at" unicode="@" horiz-adv-x="955" 
d="M113 488.5q56 102.5 154 163.5t217 61q108 0 203.5 -50.5t153 -139.5t57.5 -198q0 -60 -19.5 -118t-60.5 -96.5t-103 -38.5q-51 0 -83.5 28t-40.5 76q-29 -47 -71 -75t-94 -28q-51 0 -90 23t-60 63.5t-21 91.5q0 60 27 116.5t76 92t110 35.5q52 0 91 -27.5t55 -76.5
l10 56q2 11 10.5 16.5t19.5 5.5q20 0 29.5 -11.5t7.5 -32.5l-30 -177q-5 -28 -5 -51q0 -40 20 -64.5t59 -24.5q48 0 78.5 34.5t43.5 84.5t13 97q0 103 -53.5 186t-142.5 130t-191 47q-112 0 -203 -57.5t-142.5 -154t-51.5 -207.5q0 -116 52.5 -208t144.5 -144t208 -52
q48 0 82 6.5t61 17t83 36.5q4 2 7 2q5 0 9.5 -4t4.5 -9t-7 -11q-47 -33 -111.5 -49t-129.5 -16q-122 0 -220.5 56t-155.5 154t-57 220q0 119 56 221.5zM523 161.5q35 25.5 54.5 66t19.5 83.5q0 51 -32.5 86t-83.5 35q-45 0 -80 -25.5t-54 -66t-19 -84.5q0 -55 31 -87.5
t86 -32.5q43 0 78 25.5z" />
    <glyph glyph-name="A" unicode="A" horiz-adv-x="778" 
d="M424 695q15 -10 23 -27l281 -611q3 -9 3 -17q0 -17 -13 -29t-30 -12q-11 0 -21.5 6.5t-16.5 19.5q-54 115 -71 154h-380l-70 -150q-6 -14 -17.5 -21.5t-24.5 -7.5q-16 0 -28 10.5t-12 26.5q0 9 5 21l280 609q8 17 23.5 27.5t34.5 10.5t34 -10zM551 248l-162 353
l-163 -353h325z" />
    <glyph glyph-name="B" unicode="B" horiz-adv-x="721" 
d="M523.5 678q52.5 -22 81.5 -62.5t29 -92.5q0 -56 -34.5 -101t-90.5 -62q72 -14 116 -62t44 -111q0 -55 -32 -97.5t-90 -66t-134 -23.5h-261q-29 0 -46.5 17.5t-17.5 46.5v572q0 29 17.5 46.5t46.5 17.5h250q69 0 121.5 -22zM394 385q70 0 112.5 34t42.5 89t-44.5 88
t-118.5 33h-213v-244h221zM405 71q80 0 128.5 34.5t48.5 91.5q0 56 -46 90.5t-121 34.5h-242v-251h232z" />
    <glyph glyph-name="C" unicode="C" horiz-adv-x="717" 
d="M106 532q46 83 126.5 132t180.5 49q64 0 127 -21t108 -63q23 -16 23 -39q0 -15 -10.5 -26t-27.5 -11q-6 0 -10 1q-9 3 -20.5 10.5t-15.5 10.5q-39 27 -77.5 43t-97.5 16q-76 0 -136 -39t-93.5 -104.5t-33.5 -140.5t33.5 -140t93.5 -104.5t136 -39.5q62 0 101 16.5
t87 51.5l29 20q19 3 32 -8.5t13 -28.5q0 -18 -17 -34q-46 -47 -110.5 -71.5t-137.5 -24.5q-99 0 -179 49t-125 132t-45 181q0 100 46 183z" />
    <glyph glyph-name="D" unicode="D" horiz-adv-x="771" 
d="M526.5 656q86.5 -44 135.5 -123.5t49 -181.5t-49 -182t-136 -124.5t-197 -44.5h-177q-30 0 -47 17t-17 47v572q0 30 17 47t47 17h179q109 0 195.5 -44zM332 77q82 0 148.5 33.5t104.5 95.5t38 144q0 81 -38.5 143t-105 96t-148.5 34h-156v-546h157z" />
    <glyph glyph-name="E" unicode="E" horiz-adv-x="664" 
d="M595 690q10 -10 10 -27t-10 -27t-27 -10h-394v-239h356q17 0 26 -9t9 -26q0 -16 -9.5 -25.5t-25.5 -9.5h-356v-243h399q17 0 27 -10t10 -27t-10 -27t-27 -10h-421q-30 0 -47 17t-17 47v572q0 30 17 47t47 17h416q17 0 27 -10z" />
    <glyph glyph-name="F" unicode="F" horiz-adv-x="633" 
d="M590.5 689.5q10.5 -10.5 10.5 -27.5q0 -18 -10.5 -28t-27.5 -10h-388v-248h350q17 0 26.5 -9.5t9.5 -26.5t-9.5 -27t-26.5 -10h-350v-260q0 -19 -11.5 -31t-31.5 -12t-32 11.5t-12 31.5v593q0 30 17 47t47 17h411q17 0 27.5 -10.5z" />
    <glyph glyph-name="G" unicode="G" horiz-adv-x="775" 
d="M624 654q28 -11 28 -39q0 -16 -10.5 -28t-27.5 -12q-7 0 -16 3q-7 3 -12.5 6t-10.5 6q-39 21 -74 33t-84 12q-76 0 -137.5 -39.5t-96.5 -105t-35 -141.5q0 -80 34.5 -145.5t96.5 -103.5t143 -38q54 0 105.5 18.5t92.5 52.5v173h-177q-16 0 -26 8t-10 25q0 15 9.5 24.5
t24.5 9.5h200q28 0 44.5 -17t16.5 -45v-185q0 -26 -17 -41q-45 -46 -123 -72t-144 -26q-104 0 -185.5 46.5t-127 129t-45.5 186.5q0 100 47 183.5t128.5 132t182.5 48.5q100 0 206 -59z" />
    <glyph glyph-name="H" unicode="H" horiz-adv-x="755" 
d="M163.5 688.5q11.5 -11.5 11.5 -31.5v-266h406v266q0 20 11.5 31.5t31.5 11.5t31.5 -11.5t11.5 -31.5v-614q0 -20 -11.5 -31.5t-31.5 -11.5t-31.5 11.5t-11.5 31.5v271h-406v-271q0 -20 -11.5 -31.5t-31.5 -11.5t-32 11.5t-12 31.5v614q0 20 12 31.5t32 11.5t31.5 -11.5z
" />
    <glyph glyph-name="I" unicode="I" horiz-adv-x="275" 
d="M106.5 688.5q11.5 11.5 31.5 11.5t31.5 -11.5t11.5 -31.5v-614q0 -20 -11.5 -31.5t-31.5 -11.5t-31.5 11.5t-11.5 31.5v614q0 20 11.5 31.5z" />
    <glyph glyph-name="J" unicode="J" horiz-adv-x="405" 
d="M289 69q-44 -59 -148 -60q-27 0 -61 4q-13 2 -21 11t-8 25q0 13 10 22t23 8q22 -2 32 -2q14 0 22 1q56 2 83.5 38t27.5 115v436q0 17 12 29t29 12q18 0 30.5 -12t12.5 -29v-426q0 -113 -44 -172z" />
    <glyph glyph-name="K" unicode="K" horiz-adv-x="714" 
d="M101 688q13 12 30 12q20 0 32 -11t12 -32v-359l382 388q11 12 28 12q15 0 26 -10.5t11 -25.5q0 -14 -10 -25l-228 -234l253 -337q9 -13 9 -25q0 -17 -13.5 -29.5t-31.5 -12.5q-21 0 -34 20l-243 322l-151 -148v-156q0 -16 -11 -26.5t-31 -10.5q-18 0 -30.5 12.5
t-12.5 30.5v614q0 19 13 31z" />
    <glyph glyph-name="L" unicode="L" horiz-adv-x="596" 
d="M163.5 688.5q11.5 -11.5 11.5 -31.5v-581h358q17 0 27.5 -10t10.5 -28q0 -17 -10.5 -27.5t-27.5 -10.5h-381q-30 0 -47 17t-17 47v593q0 20 12 31.5t32 11.5t31.5 -11.5z" />
    <glyph glyph-name="M" unicode="M" horiz-adv-x="862" 
d="M105.5 687q16.5 12 39.5 12q17 0 31.5 -9t24.5 -26l231 -337l44 65q20 30 92.5 137t93.5 135q23 36 61 36q21 0 36 -13t15 -33v-611q0 -19 -12 -31t-31 -12q-20 0 -31.5 12t-11.5 32v521l-213 -306q-21 -28 -45 -28q-25 0 -44 28l-213 306v-522q0 -19 -11.5 -31
t-30.5 -12q-20 0 -31.5 11.5t-11.5 31.5v611q1 21 17.5 33z" />
    <glyph glyph-name="N" unicode="N" horiz-adv-x="782" 
d="M681.5 688q12.5 -12 12.5 -31v-613q0 -19 -12.5 -31.5t-31.5 -12.5q-16 0 -26.5 3.5t-18.5 13.5l-431 542v-517q0 -18 -12.5 -30t-30.5 -12q-19 0 -30.5 12t-11.5 31v604q0 23 15.5 38t38.5 15q26 0 42 -21l424 -533v511q0 18 12 30.5t30 12.5t30.5 -12z" />
    <glyph glyph-name="O" unicode="O" horiz-adv-x="838" 
d="M105 539.5q45 82.5 126.5 128t188.5 45.5q106 0 187.5 -45t126 -127.5t44.5 -190.5t-44.5 -190t-126 -127.5t-188.5 -45.5t-188.5 45t-126 127.5t-44.5 190.5q0 107 45 189.5zM182 201q34 -65 95.5 -100.5t142.5 -35.5q80 0 141.5 35.5t95 100t33.5 149.5t-34 149.5
t-95.5 100t-142.5 35.5q-80 0 -141.5 -35.5t-95 -100t-33.5 -149.5q0 -84 34 -149z" />
    <glyph glyph-name="P" unicode="P" horiz-adv-x="670" 
d="M553.5 643.5q77.5 -56.5 77.5 -167.5q0 -115 -80 -172t-203 -57h-174v-204q0 -19 -11.5 -31t-31.5 -12q-19 0 -31 12t-12 31v593q0 30 17 47t46 17h203q122 0 199.5 -56.5zM489 354.5q56 38.5 56 118.5q0 79 -56 116t-142 37h-173v-310h173q86 0 142 38.5z" />
    <glyph glyph-name="Q" unicode="Q" horiz-adv-x="838" 
d="M107 534q47 83 129.5 131t183.5 48t183 -48t128.5 -131t46.5 -184q0 -65 -21 -125t-62 -110q9 -9 21 -17q36 -30 43 -41q12 -12 12 -25t-9.5 -22t-22.5 -9q-12 0 -25 10q-11 5 -67 57q-47 -40 -105.5 -60.5t-122.5 -20.5q-101 0 -183 48t-129 131t-47 184t47 184z
M584 123q-5 4 -46 37t-59 55q-15 15 -15 30q0 12 9 20.5t22 8.5q16 0 29 -12q18 -10 65 -55q29 -27 40 -35q61 74 61 177q0 77 -35.5 142.5t-97.5 104.5t-139 39q-78 0 -139.5 -38.5t-96 -104t-34.5 -142.5t35.5 -142.5t97.5 -104.5t139 -39q96 0 164 59z" />
    <glyph glyph-name="R" unicode="R" horiz-adv-x="722" 
d="M105 683.5q17 16.5 43 16.5h243q116 0 191 -52t75 -162q0 -86 -55.5 -136.5t-141.5 -66.5l161 -218q9 -13 9 -25q0 -17 -13 -28.5t-30 -11.5q-20 0 -32 18l-185 252h-195v-229q0 -17 -12 -29t-30 -12q-19 0 -32 11t-13 30v600q0 26 17 42.5zM381 340q80 0 134.5 35
t54.5 107q0 73 -52 108t-131 35h-212v-285h206z" />
    <glyph glyph-name="S" unicode="S" horiz-adv-x="646" 
d="M340 62q66 0 115.5 30.5t49.5 91.5q0 41 -25.5 66t-64 38.5t-103.5 29.5q-79 19 -127 37.5t-82 56.5t-34 102q0 62 35.5 107t91.5 67.5t117 22.5q52 0 111.5 -15t102.5 -43q14 -6 20.5 -16.5t6.5 -21.5q0 -15 -10.5 -26t-27.5 -11q-9 0 -18 3q-98 57 -188 57
q-36 0 -71.5 -13t-59 -39.5t-23.5 -64.5q0 -40 25.5 -64.5t62.5 -37.5t103 -29q79 -19 127.5 -37.5t83 -57t34.5 -103.5q0 -67 -36.5 -113t-95 -68t-124.5 -22q-59 0 -127.5 20.5t-121.5 60.5q-32 17 -32 42q0 15 11.5 25.5t28.5 10.5q12 0 25 -7q96 -79 220 -79z" />
    <glyph glyph-name="T" unicode="T" horiz-adv-x="611" 
d="M575.5 689.5q10.5 -10.5 10.5 -27.5q0 -18 -10.5 -28t-27.5 -10h-199v-581q0 -20 -11.5 -31.5t-31.5 -11.5t-32 11.5t-12 31.5v581h-198q-17 0 -27.5 10t-10.5 28q0 17 10.5 27.5t27.5 10.5h484q17 0 27.5 -10.5z" />
    <glyph glyph-name="U" unicode="U" horiz-adv-x="754" 
d="M154 688q12 -12 12 -32v-346q0 -110 52.5 -177t159.5 -67q106 0 158.5 66.5t52.5 175.5v348q0 20 12 32t32 12t31.5 -12t11.5 -32v-345q0 -150 -76 -236.5t-224 -86.5q-146 0 -222 86t-76 235v347q0 20 12 32t32 12t32 -12z" />
    <glyph glyph-name="V" unicode="V" horiz-adv-x="739" 
d="M621.5 693q10.5 7 23.5 7q17 0 31 -12t14 -29q0 -7 -3 -16l-267 -611q-7 -17 -21 -27t-33 -10q-18 0 -32 10t-21 27l-266 609q-4 8 -4 18q0 18 14 30t32 12q13 0 23.5 -7.5t16.5 -21.5l238 -559l239 559q5 14 15.5 21z" />
    <glyph glyph-name="W" unicode="W" horiz-adv-x="1055" 
d="M498 696q13 9 30 9t29.5 -9t17.5 -25l173 -539l175 542q4 14 15.5 21.5t24.5 7.5q17 0 29.5 -11t12.5 -28q0 -4 -2 -14l-204 -616q-5 -16 -18.5 -26t-30.5 -10t-30.5 9.5t-19.5 25.5l-173 533l-173 -533q-6 -16 -19.5 -25.5t-30.5 -9.5q-16 0 -30 10t-20 26l-203 616
q-2 10 -2 14q0 18 13 29t30 11q14 0 25 -7.5t15 -21.5l175 -542l173 538q5 16 18 25z" />
    <glyph glyph-name="X" unicode="X" horiz-adv-x="695" 
d="M73 662q0 16 12.5 28t28.5 12q21 0 35 -21l199 -261l199 262q12 19 32 19q16 0 28.5 -11.5t12.5 -27.5q0 -13 -8 -24l-213 -281l222 -294q9 -13 9 -26q0 -16 -12.5 -26.5t-28.5 -10.5q-22 0 -35 20l-207 273l-209 -275q-13 -19 -32 -19q-15 0 -27.5 12t-12.5 29
q0 13 9 26l220 290l-215 284q-7 10 -7 22z" />
    <glyph glyph-name="Y" unicode="Y" horiz-adv-x="682" 
d="M88 701q10 0 19.5 -6t16.5 -16l218 -317l217 317q12 21 35 21q12 0 20 -5q10 -5 16 -14t6 -20q0 -12 -8 -23l-243 -355v-240q0 -18 -12.5 -30.5t-31.5 -12.5t-31 12t-12 31v238l-244 355q-7 11 -7 24q0 20 17 32q11 9 24 9z" />
    <glyph glyph-name="Z" unicode="Z" horiz-adv-x="686" 
d="M77 84l428 542h-396q-17 0 -27 10t-10 27t10 27t27 10h474q21 0 30.5 -12.5t9.5 -30.5q0 -19 -18 -40l-429 -543h410q17 0 27 -10t10 -27t-10 -27t-27 -10h-487q-19 0 -30.5 14t-11.5 29q0 19 20 41z" />
    <glyph glyph-name="bracketleft" unicode="[" horiz-adv-x="428" 
d="M372.5 692.5q7.5 -7.5 7.5 -21.5q0 -13 -7.5 -21.5t-21.5 -8.5h-187v-712h187q14 0 21.5 -8.5t7.5 -21.5q0 -14 -7.5 -21.5t-21.5 -7.5h-177q-41 0 -64.5 23.5t-23.5 63.5v656q0 40 23.5 63.5t64.5 23.5h177q14 0 21.5 -7.5z" />
    <glyph glyph-name="backslash" unicode="\" horiz-adv-x="495" 
d="M502 -96q0 -12 -9.5 -20.5t-21.5 -8.5q-20 0 -30 21l-433 846q-4 7 -4 16q0 13 10.5 22.5t23.5 9.5q18 0 29 -19l430 -849q5 -10 5 -18z" />
    <glyph glyph-name="bracketright" unicode="]" horiz-adv-x="428" 
d="M56.5 692q8.5 8 21.5 8h177q41 0 64 -23t23 -64v-656q0 -40 -23.5 -63.5t-63.5 -23.5h-177q-13 0 -21.5 8t-8.5 21t8.5 21.5t21.5 8.5h187v712h-187q-13 0 -21.5 8.5t-8.5 21.5t8.5 21z" />
    <glyph glyph-name="underscore" unicode="_" horiz-adv-x="569" 
d="M5.5 -104.5q7.5 7.5 20.5 7.5h517q13 0 20.5 -7.5t7.5 -20.5t-7.5 -20.5t-20.5 -7.5h-517q-13 0 -20.5 7.5t-7.5 20.5t7.5 20.5z" />
    <glyph glyph-name="a" unicode="a" horiz-adv-x="593" 
d="M511.5 12q-12.5 -13 -29.5 -13q-15 0 -27.5 9.5t-12.5 25.5v64q-22 -51 -74.5 -81.5t-133.5 -30.5q-67 0 -110 23t-63 59.5t-20 77.5q0 120 140 152q49 11 97 11q34 0 62 -4l97 -11v54q0 53 -31.5 85.5t-106.5 32.5q-65 0 -98 -23.5t-52 -67.5q-12 -9 -25 -9
q-18 0 -27 13q-9 11 -9 23q0 8 4 13q17 50 70.5 79.5t137.5 29.5q222 0 222 -177l2 -305q0 -17 -12.5 -30zM339 252q-23 3 -44 3q-35 0 -67 -9q-102 -17 -102 -96q0 -46 36 -74.5t95 -28.5q180 0 180 165v28z" />
    <glyph glyph-name="b" unicode="b" horiz-adv-x="642" 
d="M89.5 718.5q11.5 11.5 29.5 11.5q19 0 30.5 -11.5t11.5 -30.5v-286q26 50 78 81t112 31q72 0 127 -33t85 -93t30 -139q0 -78 -29.5 -137.5t-83 -92t-123.5 -32.5q-63 0 -119.5 35t-79.5 91v-83q0 -14 -12 -22t-27 -8q-19 0 -30.5 11.5t-11.5 30.5l1 646q0 19 11.5 30.5z
M462 111.5q48 52.5 48 138.5q0 87 -49.5 140t-130.5 53q-77 0 -124 -51.5t-47 -135.5q0 -89 48.5 -143t127.5 -54t127 52.5z" />
    <glyph glyph-name="c" unicode="c" horiz-adv-x="564" 
d="M83.5 393q35.5 62 97 98t135.5 36q46 0 92 -17t79 -48q22 -12 22 -36q0 -14 -9 -24.5t-23 -10.5q-8 0 -20 5q-30 26 -60.5 42.5t-80.5 16.5q-53 0 -95.5 -27t-66.5 -72.5t-24 -97.5t24.5 -97.5t67 -73t95.5 -27.5q52 0 84.5 13.5t63.5 47.5q12 5 23 5q19 0 26 -15
q4 -7 4 -17q0 -17 -15 -28q-45 -44 -89 -61t-101 -17q-74 0 -134.5 36.5t-95.5 98t-35 135.5q0 73 35.5 135z" />
    <glyph glyph-name="d" unicode="d" horiz-adv-x="642" 
d="M87 387q30 60 85 93t127 33q60 0 112 -31t77 -81v287q0 19 11.5 30t30.5 11t30 -11t11 -30l1 -647q0 -19 -11.5 -30.5t-30.5 -11.5q-15 0 -27 10t-12 26v81q-23 -59 -79 -94t-119 -35q-70 0 -123.5 32.5t-83 91.5t-29.5 137q0 79 30 139zM441.5 112.5
q48.5 54.5 48.5 143.5q0 84 -47 135.5t-124 51.5q-81 0 -130.5 -53.5t-49.5 -140.5q0 -86 48 -138.5t127 -52.5t127.5 54.5z" />
    <glyph glyph-name="e" unicode="e" horiz-adv-x="592" 
d="M533 244.5q-13 -10.5 -31 -10.5h-370q6 -83 58 -132t128 -49q43 0 80 19t66 50q10 5 18 5q15 0 25 -15q6 -7 6 -17q0 -16 -16 -29q-33 -36 -82.5 -57t-100.5 -21q-76 0 -136.5 34t-94.5 95.5t-34 140.5q0 75 32.5 136.5t90.5 97t130 35.5q66 0 117 -26.5t82 -77.5
q21 -31 33 -71t12 -79q0 -18 -13 -28.5zM444 371q-20 41 -56.5 66t-86.5 25q-73 0 -119 -51t-51 -128h335q-2 47 -22 88z" />
    <glyph glyph-name="f" unicode="f" horiz-adv-x="355" 
d="M123 630q11 47 45.5 76t100.5 29q37 0 57 -7q29 -8 29 -31q0 -16 -9 -24.5t-24 -6.5q-16 4 -37 4q-43 0 -62.5 -22.5t-23.5 -53t-4 -83.5h138q11 0 17 -8.5t6 -22.5t-9.5 -23.5t-23.5 -9.5h-127v-404q0 -18 -12 -30.5t-30 -12.5t-30 12t-12 31v404h-56q-13 0 -20.5 9
t-7.5 25q0 14 7.5 24t19.5 10h57q0 68 11 115z" />
    <glyph glyph-name="g" unicode="g" horiz-adv-x="661" 
d="M571 504q13 -12 13 -30l-1 -439q0 -133 -62.5 -204.5t-206.5 -71.5q-84 0 -134 27t-79 76q-18 15 -18 32q0 12 9 23q7 10 21 10q16 0 28 -12q21 -47 63 -69t109 -22q105 0 145 55.5t40 154.5v82q-26 -55 -73.5 -85.5t-129.5 -30.5q-71 0 -127 32.5t-87.5 90.5t-31.5 130
q0 81 35.5 142.5t93.5 94.5t125 33q80 0 128.5 -34.5t68.5 -83.5v79q0 16 11.5 23.5t27.5 8.5q19 0 32 -12zM455 118q47 53 47 144q0 89 -46.5 142.5t-134.5 53.5q-58 0 -100 -27.5t-63.5 -73t-21.5 -100.5q0 -57 23 -100.5t64.5 -67.5t94.5 -24q90 0 137 53z" />
    <glyph glyph-name="h" unicode="h" horiz-adv-x="618" 
d="M151 719q11 -11 11 -31v-286q22 57 72.5 91t113.5 34q97 0 148.5 -59.5t51.5 -157.5v-267q0 -20 -11 -31.5t-30 -11.5t-31 12t-12 31v243q0 75 -37.5 120.5t-110.5 45.5q-46 0 -81 -23.5t-54 -62t-19 -83.5v-240q0 -20 -11.5 -31.5t-30.5 -11.5t-31 12t-12 31v645
q0 19 11.5 30.5t31.5 11.5t31 -11z" />
    <glyph glyph-name="i" unicode="i" horiz-adv-x="250" 
d="M93 645q-14 14 -14 33t14 32.5t33 13.5t32.5 -13.5t13.5 -32.5t-13.5 -33t-32.5 -14t-33 14zM155.5 504q11.5 -11 11.5 -30v-431q0 -20 -11.5 -31.5t-30.5 -11.5t-30.5 12t-11.5 31v431q0 19 11.5 30t30.5 11t30.5 -11z" />
    <glyph glyph-name="j" unicode="j" horiz-adv-x="251" 
d="M93 645q-14 14 -14 33t14 32.5t33 13.5t32.5 -13.5t13.5 -32.5t-13.5 -33t-32.5 -14t-33 14zM47 -89q14 7 25.5 31t11.5 70v463q0 17 12.5 28.5t30.5 11.5q17 0 29 -11.5t12 -28.5v-461q0 -89 -34.5 -133t-108.5 -44q-19 0 -29.5 9.5t-10.5 22.5q0 20 28 31q20 4 34 11z
" />
    <glyph glyph-name="k" unicode="k" horiz-adv-x="566" 
d="M150 718q12 -12 12 -30v-444l265 260q10 13 25 13q14 0 25.5 -10.5t11.5 -24.5q0 -11 -9 -22l-167 -164l192 -238q6 -10 6 -20q0 -16 -12.5 -27t-28.5 -11q-19 0 -30 18l-182 218l-96 -94l-1 -102q0 -40 -41 -40q-18 0 -30.5 12t-12.5 30v646q0 18 12 30t31 12
q18 0 30 -12z" />
    <glyph glyph-name="l" unicode="l" horiz-adv-x="250" 
d="M94.5 719q11.5 11 30.5 11t30.5 -11t11.5 -30v-646q0 -20 -11.5 -31.5t-30.5 -11.5t-30.5 12t-11.5 31v646q0 19 11.5 30z" />
    <glyph glyph-name="m" unicode="m" horiz-adv-x="941" 
d="M821.5 470q48.5 -57 48.5 -152v-275q0 -19 -12 -31t-30 -12t-30.5 12t-12.5 31v251q0 70 -33.5 114t-98.5 44q-39 0 -70.5 -22.5t-49 -59t-17.5 -77.5v-250q0 -19 -12 -31t-30 -12q-17 0 -29.5 12.5t-12.5 30.5v251q0 70 -34 114t-99 44q-39 0 -70.5 -22.5t-49 -59
t-17.5 -77.5v-250q0 -19 -12 -31t-29 -12q-18 0 -30.5 12t-12.5 31v431q0 17 12.5 29t30.5 12q16 0 28.5 -11t12.5 -26v-78q19 51 66.5 89t102.5 38q66 0 109.5 -32.5t62.5 -93.5q24 56 72 91t108 35q90 0 138.5 -57z" />
    <glyph glyph-name="n" unicode="n" horiz-adv-x="618" 
d="M148.5 505q12.5 -10 12.5 -27v-83q20 58 72 95t115 37q95 0 147.5 -59.5t52.5 -157.5v-267q0 -18 -11.5 -30.5t-29.5 -12.5t-30.5 12.5t-12.5 30.5v243q0 76 -38 121t-110 45q-44 0 -79.5 -22.5t-55 -61.5t-19.5 -85v-240q0 -18 -12 -30.5t-30 -12.5t-30.5 12.5
t-12.5 30.5v431q0 17 12.5 29t30.5 12q16 0 28.5 -10z" />
    <glyph glyph-name="o" unicode="o" horiz-adv-x="642" 
d="M83.5 394.5q36.5 61.5 99.5 97t139 35.5q75 0 138 -35t99.5 -96t36.5 -137t-36.5 -138t-99.5 -97.5t-139 -35.5t-138.5 35t-99 96.5t-36.5 137.5t36.5 137.5zM155 158q25 -45 69 -71t98 -26q55 0 98.5 26t68 71t24.5 100q0 54 -25 99.5t-69.5 71.5t-98.5 26
q-55 0 -98.5 -26t-67.5 -71.5t-24 -100.5q0 -54 25 -99z" />
    <glyph glyph-name="p" unicode="p" horiz-adv-x="647" 
d="M89 507.5q12 11.5 28 11.5t27.5 -9t11.5 -25v-87q25 58 76.5 93.5t121.5 35.5q69 0 123 -31.5t84 -89t30 -132.5q0 -78 -33 -137.5t-89.5 -91.5t-125.5 -32q-68 0 -117 28t-68 72v-286q0 -16 -11.5 -28t-27.5 -12q-17 0 -29 12t-12 29l-1 651q0 17 12 28.5zM203 410.5
q-48 -54.5 -48 -146.5q0 -86 46 -138t126 -52q83 0 133 55t50 143q0 87 -48.5 140t-129.5 53t-129 -54.5z" />
    <glyph glyph-name="q" unicode="q" horiz-adv-x="643" 
d="M551 -201q-12 -12 -29 -12q-16 0 -27.5 11.5t-11.5 28.5v285q-19 -43 -68 -71t-117 -28q-70 0 -126.5 32t-89.5 91.5t-33 137.5q0 75 30 132.5t84 89t124 31.5q71 0 123.5 -35t74.5 -92v85q0 16 12 25t27 9q17 0 28.5 -11.5t11.5 -28.5l-1 -651q0 -17 -12 -29zM179.5 412
q-48.5 -53 -48.5 -140q0 -88 50 -143t132 -55q80 0 126.5 52t46.5 138q0 92 -48 146.5t-130 54.5q-80 0 -128.5 -53z" />
    <glyph glyph-name="r" unicode="r" horiz-adv-x="392" 
d="M150.5 503.5q10.5 -12.5 11.5 -32.5v-96q19 57 62 98.5t99 41.5q18 0 29 -11.5t11 -29.5q0 -26 -26 -35q-53 -8 -92.5 -40.5t-61 -78.5t-21.5 -94v-182q0 -19 -11.5 -31.5t-30.5 -12.5q-18 0 -30.5 12.5t-12.5 30.5v431q0 18 12.5 30t30.5 12q20 0 30.5 -12.5z" />
    <glyph glyph-name="s" unicode="s" horiz-adv-x="522" 
d="M162.5 5q-50.5 15 -91.5 43q-17 9 -17 28q0 8 5 18q9 14 27 14q8 0 15 -3q38 -26 80 -39.5t83 -13.5q53 0 85 23t32 60q0 38 -33 56.5t-102 36.5q-94 25 -138 57.5t-44 91.5q0 68 54 108t137 40q41 0 82.5 -10.5t77.5 -31.5q9 -4 14.5 -12t5.5 -17q0 -8 -5 -16
q-4 -8 -11.5 -12.5t-16.5 -4.5q-7 0 -13 3q-33 19 -68 29t-67 10q-50 0 -81 -21.5t-31 -55.5t32.5 -53.5t100.5 -37.5q98 -26 141 -59.5t43 -94.5q0 -69 -54 -110t-142 -41q-50 0 -100.5 15z" />
    <glyph glyph-name="t" unicode="t" horiz-adv-x="395" 
d="M120 662.5q12 11.5 30 11.5q17 0 29.5 -12t12.5 -29v-118h128q15 0 24.5 -9.5t9.5 -24.5t-9.5 -25t-24.5 -10h-128v-288q0 -47 20 -68t64 -23q3 -1 11 -1q7 0 34 3q33 -5 33 -34q0 -27 -33 -36q-34 -9 -64 -9q-72 0 -110.5 40.5t-38.5 111.5v304h-49q-16 0 -26 9t-10 26
q0 16 10 25t26 9h49v118q0 18 12 29.5z" />
    <glyph glyph-name="u" unicode="u" horiz-adv-x="618" 
d="M142 503.5q12 -11.5 12 -29.5v-244q0 -76 38 -121t110 -45q44 0 79.5 22.5t55.5 61t20 84.5v242q0 18 12 29.5t30 11.5t30 -11.5t12 -29.5v-431q0 -18 -12 -30.5t-30 -12.5q-16 0 -28.5 9.5t-12.5 26.5v82q-17 -55 -71 -92.5t-117 -37.5q-95 0 -147.5 59.5t-52.5 158.5
v268q0 18 12 29.5t30 11.5t30 -11.5z" />
    <glyph glyph-name="v" unicode="v" horiz-adv-x="584" 
d="M474 512.5q10 6.5 22 6.5q16 0 28 -10t12 -27q0 -10 -2 -15l-190 -431q-7 -16 -20.5 -26t-30.5 -10t-31 9.5t-20 25.5l-190 430q-3 8 -3 15q0 17 13 28t30 11q28 0 36 -26l166 -391l165 391q5 13 15 19.5z" />
    <glyph glyph-name="w" unicode="w" horiz-adv-x="825" 
d="M385.5 513q12.5 9 27.5 9t28 -9t17 -24l123 -367l120 370q4 14 14 20.5t23 6.5q15 0 27 -10t12 -26q0 -6 -1 -10l-146 -438q-5 -16 -18 -25.5t-29 -9.5t-29 9.5t-18 24.5l-123 369l-125 -369q-5 -15 -17.5 -24.5t-28.5 -9.5t-28.5 9.5t-17.5 24.5l-146 438q-1 4 -1 11
q0 16 12 26t28 10q13 0 23 -7t14 -20l120 -370l123 367q4 15 16.5 24z" />
    <glyph glyph-name="x" unicode="x" horiz-adv-x="574" 
d="M65 481q0 14 12 24.5t27 10.5t28 -16l155 -181l159 182q13 15 27 15t26.5 -10.5t12.5 -24.5q0 -10 -8 -19l-171 -200l179 -208q8 -8 8 -19q0 -14 -12 -25t-27 -11q-13 0 -29 16l-166 189l-168 -189q-16 -16 -27 -16q-14 0 -25.5 11.5t-11.5 25.5q0 10 7 18l179 207
l-168 201q-7 8 -7 19z" />
    <glyph glyph-name="y" unicode="y" horiz-adv-x="573" 
d="M63 -136q-10 3 -16 11.5t-6 19.5q0 14 10.5 23.5t23.5 9.5q6 0 9 -1q30 -14 58 -14q34 0 56.5 20t50.5 79l-207 455q-3 8 -3 16q0 16 11.5 28t28.5 12q13 0 23 -7.5t15 -19.5l174 -394l163 394q5 12 15 19.5t23 7.5q17 0 28.5 -11.5t11.5 -27.5q0 -7 -3 -15l-198 -463
q-27 -64 -52 -98.5t-54 -48.5t-71 -14q-46 0 -91 19z" />
    <glyph glyph-name="z" unicode="z" horiz-adv-x="516" 
d="M54 75l312 372h-286q-16 0 -25 9.5t-9 25.5q0 15 9.5 24t24.5 9h373q13 0 20 -7t7 -20q0 -26 -18 -47l-314 -372h300q15 0 24.5 -9.5t9.5 -24.5q0 -16 -9 -25.5t-25 -9.5h-386q-13 0 -20 7t-7 20q0 27 19 48z" />
    <glyph glyph-name="bar" unicode="|" horiz-adv-x="294" 
d="M123 789q9 9 24 9t24 -9t9 -24v-860q0 -15 -9 -24t-24 -9t-24 9t-9 24v860q0 15 9 24z" />
    <glyph glyph-name="uni00A0" unicode="&#xa0;" horiz-adv-x="279" 
 />
    <glyph glyph-name="exclamdown" unicode="&#xa1;" horiz-adv-x="243" 
d="M89 577q-14 14 -14 33t13.5 32t33.5 13q19 0 32.5 -13t13.5 -32t-13.5 -33t-32.5 -14t-33 14zM138 494q6 -6 8 -15l22 -435l1 -13q0 -31 -21 -31h-51q-23 0 -23 30q0 10 1 14l22 435q2 10 8.5 15.5t16.5 5.5t16 -6z" />
    <glyph glyph-name="dieresis" unicode="&#xa8;" horiz-adv-x="500" 
d="M136 666.5q7 10.5 19 11.5q1 5 6.5 8t12.5 3q17 0 27.5 -10t10.5 -28q0 -14 -7.5 -24t-19.5 -11q-1 -6 -6 -9t-12 -3q-18 0 -28 10.5t-10 27.5q0 14 7 24.5zM295.5 666.5q7.5 10.5 19.5 11.5q1 5 6.5 8t12.5 3q17 0 27.5 -10t10.5 -28q0 -14 -7.5 -24t-19.5 -11
q-1 -6 -6.5 -9t-12.5 -3q-17 0 -27.5 10.5t-10.5 27.5q0 14 7.5 24.5z" />
    <glyph glyph-name="guillemotleft" unicode="&#xab;" horiz-adv-x="526" 
d="M222 390.5q-16 -20.5 -33 -43.5q-59 -75 -68 -87l12 -16q94 -115 116 -148q6 -9 6 -17q0 -12 -9 -19t-22 -7q-17 0 -28 12q-113 131 -138 162q-12 15 -12 33q0 20 12 33q109 130 138 161q10 14 29 14q13 0 22 -6.5t9 -17.5q0 -9 -7 -19q-11 -14 -27 -34.5zM396 344
q-14 -18 -35.5 -46t-30.5 -38q5 -6 111 -141l18 -23q6 -9 6 -17q0 -11 -9.5 -18.5t-22.5 -7.5q-17 0 -28 12q-4 6 -99 117l-39 45q-12 15 -12 34t12 32l86 99q26 33 52 62q10 14 30 14q12 0 21.5 -6.5t9.5 -17.5q0 -9 -7 -19q-23 -27 -63 -81z" />
    <glyph glyph-name="macron" unicode="&#xaf;" horiz-adv-x="500" 
d="M106 659q7 7 20 7h249q13 0 20 -7t7 -20t-7 -20.5t-20 -7.5h-249q-13 0 -20 7.5t-7 20.5t7 20z" />
    <glyph glyph-name="degree" unicode="&#xb0;" horiz-adv-x="446" 
d="M87 629.5q22 35.5 58.5 56.5t77.5 21t77.5 -21t58.5 -56.5t22 -76.5q0 -42 -22 -77.5t-58 -56.5t-78 -21t-78 21t-58 56.5t-22 77.5q0 41 22 76.5zM147 476q32 -32 76 -32q45 0 76.5 32t31.5 77q0 44 -32 76t-76 32q-45 0 -76.5 -32t-31.5 -77q0 -44 32 -76z" />
    <glyph glyph-name="plusminus" unicode="&#xb1;" horiz-adv-x="615" 
d="M281 628.5q10 9.5 27 9.5q19 0 27 -11t9 -31l-1 -154h171q16 0 25 -9t9 -25q0 -15 -9 -24.5t-25 -9.5l-171 1l1 -160q0 -17 -9.5 -27t-26.5 -10q-33 0 -36 33v164l-171 -1q-16 0 -25 9.5t-9 24.5q0 16 9 25t25 9h171l-1 160q0 17 10 26.5zM539.5 55.5q8.5 -8.5 8.5 -23.5
t-8.5 -23.5t-23.5 -8.5h-417q-15 0 -23.5 8.5t-8.5 23.5t8.5 23.5t23.5 8.5h417q15 0 23.5 -8.5z" />
    <glyph glyph-name="paragraph" unicode="&#xb6;" horiz-adv-x="510" 
d="M407 685q15 -15 15 -41v-601q0 -20 -12 -31.5t-32 -11.5t-31.5 11.5t-11.5 31.5v213q-123 0 -208.5 53t-85.5 169q0 90 57 145t148 68q36 9 120 9q26 0 41 -15z" />
    <glyph glyph-name="periodcentered" unicode="&#xb7;" horiz-adv-x="209" 
d="M69.5 330.5q12.5 12.5 35.5 12.5t35.5 -12.5t12.5 -35.5t-12.5 -35.5t-35.5 -12.5q-22 0 -35 13t-13 35q0 23 12.5 35.5z" />
    <glyph glyph-name="guillemotright" unicode="&#xbb;" horiz-adv-x="526" 
d="M184 384q48 -56 75 -91q12 -13 12 -33q0 -18 -12 -33q-24 -31 -73 -88.5t-65 -73.5q-12 -12 -28 -12q-13 0 -22 7t-9 19q0 10 5 17q16 25 102 131l27 33l-24 30q-86 103 -105 135q-6 11 -6 18q0 12 8.5 18.5t21.5 6.5q19 0 30 -14q15 -14 63 -70zM271 444q0 11 9 17.5
t21 6.5q19 0 29 -14q15 -14 63 -70t75 -91q12 -13 12 -33q0 -18 -12 -33q-26 -33 -74 -90t-64 -72q-10 -12 -28 -12q-13 0 -22 7t-9 19q0 8 6 17q10 18 42 58t61 75l25 31l-34 42q-80 99 -94 123q-6 11 -6 19z" />
    <glyph glyph-name="questiondown" unicode="&#xbf;" horiz-adv-x="515" 
d="M309.5 691.5q13.5 -13.5 13.5 -33.5q0 -19 -14 -32.5t-33 -13.5t-32.5 13.5t-13.5 32.5t13.5 33t32.5 14q20 0 33.5 -13.5zM144.5 8q-51.5 23 -82 67.5t-30.5 106.5q0 88 58.5 139.5t150.5 60.5l6 101q2 24 26 24q14 0 22 -8.5t9 -24.5l10 -120v-4q0 -18 -15 -20
q-61 -5 -122 -34.5t-61 -107.5q0 -59 43.5 -93t103.5 -34q44 0 75 16.5t61 43.5q26 22 36 24q18 -1 29 -15.5t9 -29.5q-11 -36 -48 -62t-83 -39.5t-85 -13.5q-61 0 -112.5 23z" />
    <glyph glyph-name="multiply" unicode="&#xd7;" horiz-adv-x="615" 
d="M93 532q0 14 11 23.5t26 9.5q14 0 24 -10l155 -153l18 19q16 16 74.5 75t62.5 60q9 8 22 8q14 0 25 -10t11 -23q0 -12 -10 -23l-155 -155l154 -154q10 -11 10 -24q0 -14 -11.5 -24t-26.5 -10q-13 0 -22 8l-154 154l-155 -154q-9 -8 -22 -8q-14 0 -25 10t-11 23q0 12 9 22
l155 155l-154 155q-11 12 -11 26z" />
    <glyph glyph-name="divide" unicode="&#xf7;" horiz-adv-x="615" 
d="M311 604q19 0 30 -11.5t11 -30.5q0 -42 -47 -42q-19 0 -30.5 11.5t-11.5 30.5q0 42 48 42zM540 377q9 -9 9 -25t-9 -25t-25 -9h-415q-16 0 -25 9t-9 25t9 25t25 9h415q16 0 25 -9zM311 176q20 0 30.5 -11.5t10.5 -31.5q0 -42 -47 -42q-20 0 -31 12t-11 32q0 41 48 41z
" />
    <glyph glyph-name="uni02C9" unicode="&#x2c9;" horiz-adv-x="405" 
d="M92 670q9 9 22 9h242q13 0 22 -9t10 -22q-1 -14 -10 -23t-22 -9h-242q-13 0 -22 9.5t-10 22.5q1 13 10 22z" />
    <glyph glyph-name="dotaccent" unicode="&#x2d9;" horiz-adv-x="500" 
d="M215 666.5q7 10.5 19 11.5q1 5 7.5 8t13.5 3q18 0 28 -10t10 -28q0 -14 -7.5 -24t-19.5 -11q-1 -6 -7 -9t-13 -3q-18 0 -28 10.5t-10 27.5q0 14 7 24.5z" />
    <glyph glyph-name="ring" unicode="&#x2da;" horiz-adv-x="500" 
d="M172.5 773q32.5 31 77.5 31t78 -31t33 -75q0 -45 -33 -75.5t-78 -30.5t-77.5 31t-32.5 75t32.5 75zM197 645.5q22 -21.5 53 -21.5q32 0 53.5 21.5t21.5 52.5t-21.5 52.5t-53.5 21.5q-31 0 -53 -21.5t-22 -52.5t22 -52.5z" />
    <glyph glyph-name="uni037E" unicode="&#x37e;" horiz-adv-x="281" 
d="M164.5 492.5q14.5 -14.5 14.5 -36.5t-14.5 -36t-36.5 -14t-36.5 14t-14.5 36q0 23 14.5 37t36.5 14t36.5 -14.5zM85.5 22.5q-8.5 12.5 -8.5 41.5q0 21 14 34.5t36 13.5q25 0 38 -17.5t13 -43.5q0 -66 -28 -116.5t-77 -59.5h-4q-11 0 -17 6t-2 17q3 8 9 13t17 12
q20 13 31 27.5t13 48.5q-26 11 -34.5 23.5z" />
    <glyph glyph-name="uni060C" unicode="&#x60c;" horiz-adv-x="228" 
d="M179 274q5 -1 9 -4.5t4 -8.5q0 -11 -27 -45q-24 -32 -36 -53t-12 -44q0 -13 5.5 -21t15.5 -15q12 -9 17.5 -17.5t5.5 -23.5q0 -22 -12.5 -37t-33.5 -15q-31 0 -47.5 23.5t-16.5 56.5q0 47 36.5 108t78.5 92q6 4 13 4z" />
    <glyph glyph-name="uni0615" unicode="&#x615;" 
d="M45 783l23 -1v202q0 7 4 11.5t11 4.5t11.5 -4.5t4.5 -11.5v-97q14 15 32.5 24t39.5 9h47q35 0 59.5 -25t24.5 -60q0 -34 -24 -59t-58 -25h-186q-7 0 -11 4t-4 11q0 17 26 17zM256 796.5q15 15.5 15 38.5t-15.5 38.5t-37.5 15.5h-47q-30 0 -51 -21.5t-21 -51.5v-35h119
q23 0 38 15.5z" />
    <glyph glyph-name="uni061B" unicode="&#x61b;" horiz-adv-x="279" 
d="M193 535q8 -7 11 -11q-4 -7 -19 -26q-24 -28 -38.5 -52.5t-14.5 -50.5q0 -15 5 -22.5t16 -15.5t16.5 -16.5t5.5 -24.5q0 -22 -12.5 -36.5t-33.5 -14.5q-32 0 -48 23.5t-16 56.5q0 51 33.5 103.5t80.5 96.5q6 -3 14 -10zM168.5 99q18.5 -19 18.5 -45t-18.5 -45t-44.5 -19
q-28 0 -46 18.5t-18 45.5t18 45.5t46 18.5q26 0 44.5 -19z" />
    <glyph glyph-name="uni061F" unicode="&#x61f;" horiz-adv-x="563" 
d="M390 698q53 -33 86 -104q2 -3 2 -10q0 -11 -8.5 -19.5t-19.5 -8.5q-7 0 -14.5 7.5t-19.5 24.5q-18 26 -34 43t-42 30t-62 13q-42 0 -77.5 -21.5t-56.5 -58t-21 -78.5q0 -36 11.5 -62t28.5 -43t47 -40q34 -26 55 -47.5t35.5 -57t14.5 -87.5q0 -12 -8.5 -20.5t-19.5 -8.5
q-13 0 -19 6t-8 17q-2 55 -24 90t-72 72q-49 36 -73.5 76t-24.5 105q0 58 28.5 107.5t77.5 78.5t106 29q59 0 112 -33zM319.5 57.5q12.5 -12.5 12.5 -31.5t-12.5 -32t-31.5 -13q-20 0 -33 13t-13 32t13 31.5t33 12.5q19 0 31.5 -12.5z" />
    <glyph glyph-name="uni0621" unicode="&#x621;" horiz-adv-x="657" 
d="M142 151q-18 34 -18 81q0 64 31.5 117t85.5 84t118 31q66 0 118.5 -30t92.5 -108q10 -16 10 -33q0 -19 -11 -31.5t-26 -12.5q-20 0 -36 24q-22 40 -35.5 60t-41.5 36.5t-71 16.5q-41 0 -75 -21.5t-54 -56.5t-20 -76t20 -76.5t54 -56.5t75 -21h206q18 0 30.5 -10.5
t12.5 -28.5q0 -17 -12.5 -28t-30.5 -11h-478q-18 0 -30.5 11t-12.5 28t11 27t28 12h114q-37 39 -55 73z" />
    <glyph glyph-name="uni0622" unicode="&#x622;" horiz-adv-x="299" 
d="M63 849.5q25 18.5 47 18.5q5 0 13 -2q10 -2 22 -6.5t18 -6.5q26 -12 43 -12q22 0 52 15l23 9q13 2 23.5 -7t6.5 -22q-8 -23 -43 -37t-64 -14q-15 0 -29 5t-33 14q-6 2 -18 8q-6 3 -12 3q-8 0 -17 -7q-6 -5 -16 -14.5t-18 -14.5t-18 -5q-13 0 -21 9t-4 21q20 27 45 45.5z
M179.5 718.5q12.5 -10.5 12.5 -27.5v-651q0 -18 -12 -28.5t-30 -10.5t-30 10.5t-12 28.5v651q0 17 12.5 27.5t29.5 10.5t29.5 -10.5z" />
    <glyph glyph-name="uni0623" unicode="&#x623;" horiz-adv-x="388" 
d="M118 860.5q-5 11.5 -5 26.5q0 38 27.5 64.5t65.5 26.5q56 0 84 -54q4 -8 4 -15q0 -9 -5.5 -15t-13.5 -6q-10 0 -18 12q-2 3 -8 14.5t-16.5 18t-26.5 6.5q-21 0 -35.5 -15.5t-14.5 -36.5q0 -47 56 -51h71q9 0 15.5 -6t6.5 -15q0 -8 -6.5 -13.5t-15.5 -5.5h-179
q-8 0 -14.5 5.5t-6.5 13.5q0 9 6.5 15t17.5 6h27q-11 13 -16 24.5zM230.5 718.5q12.5 -10.5 12.5 -27.5v-651q0 -18 -12 -28.5t-30 -10.5q-17 0 -29.5 11t-12.5 28v651q0 17 12.5 27.5t29.5 10.5t29.5 -10.5z" />
    <glyph glyph-name="uni0624" unicode="&#x624;" horiz-adv-x="607" 
d="M255 610.5q-5 10.5 -5 26.5q0 38 27.5 64.5t65.5 26.5q56 0 83 -53q3 -8 3 -13q0 -9 -5.5 -14t-13.5 -5q-6 0 -11 3q-4 3 -12 16t-17.5 20.5t-26.5 7.5q-21 0 -35.5 -15.5t-14.5 -37.5q0 -25 15.5 -37t39.5 -14h72q9 0 15.5 -5.5t6.5 -14.5t-6.5 -14t-15.5 -5h-179
q-9 0 -15 5t-6 14t6.5 14.5t17.5 6.5h27q-11 13 -16 23.5zM442.5 432q53.5 -31 85.5 -84.5t32 -115.5l-1 -245q-2 -102 -66 -163.5t-167 -66.5q-19 0 -30.5 12t-11.5 28q0 21 21 31q8 2 50 11.5t75 41t38 86.5l3 107q-29 -35 -61.5 -54.5t-83.5 -19.5q-63 0 -116.5 31
t-85.5 84.5t-32 116.5t32 116t85.5 84t116.5 31t116.5 -31zM401.5 99q34.5 21 54 56.5t19.5 76.5t-20 76t-54 56t-75 21t-75 -21t-53.5 -56t-19.5 -76t19.5 -76.5t53.5 -56.5t75 -21t75.5 21z" />
    <glyph glyph-name="uni0625" unicode="&#x625;" horiz-adv-x="222" 
d="M87 718.5q12 10.5 30 10.5q17 0 30 -10.5t13 -27.5v-651q0 -17 -10 -28t-32 -11t-32.5 8t-10.5 31v651q0 17 12 27.5zM36 -160.5q-5 11.5 -5 26.5q0 38 27.5 64.5t65.5 26.5q30 0 49 -13.5t35 -40.5q5 -8 5 -16q0 -18 -21 -18q-7 1 -12 6t-12 15q-8 13 -17.5 20.5
t-26.5 7.5q-21 0 -35.5 -15.5t-14.5 -36.5q0 -47 56 -51h71q9 0 15.5 -6t6.5 -15q0 -8 -6.5 -13.5t-15.5 -5.5h-179q-8 0 -14.5 5.5t-6.5 13.5q0 9 6.5 15t17.5 6h27q-11 13 -16 24.5z" />
    <glyph glyph-name="uni0626" unicode="&#x626;" horiz-adv-x="860" 
d="M105 406.5q-5 10.5 -5 26.5q0 38 27.5 64.5t65.5 26.5q29 0 48.5 -13.5t34.5 -39.5q5 -10 5 -18q0 -7 -5 -12t-15 -5q-8 2 -13 7t-11 14q-9 14 -18 21t-26 7q-22 0 -36 -15t-14 -37q0 -25 15.5 -37t39.5 -14h72q9 0 15.5 -5.5t6.5 -14.5t-6.5 -14t-15.5 -5h-179
q-9 0 -15 5t-6 14t6.5 14.5t17.5 6.5h27q-11 13 -16 23.5zM184 271q15 0 26.5 -11t9.5 -27q-3 -12 -15 -40q-12 -29 -19 -52t-7 -50q0 -62 30.5 -115t83 -85t114.5 -32h110q47 0 92 21.5t76.5 59.5t40.5 84q-65 0 -103.5 1.5t-77.5 7.5q-49 7 -90 37.5t-64.5 75.5t-23.5 96
q0 60 30 110.5t80.5 80t110.5 29.5t115 -32.5t85 -97.5q12 -19 12 -35q0 -15 -10 -25t-31 -10q-13 1 -22.5 11.5t-24.5 32.5q-24 38 -50 59.5t-74 21.5q-39 0 -71 -19.5t-50.5 -53t-18.5 -72.5q0 -38 19 -71t51 -53t70 -20h199q33 0 33 -46q0 -30 -11 -61
q-32 -93 -112.5 -150t-179.5 -57h-110q-84 0 -155 41t-113 111.5t-42 154.5q0 56 22 108.5t56 70.5q3 1 9 1z" />
    <glyph glyph-name="uni0627" unicode="&#x627;" horiz-adv-x="248" 
d="M94 718.5q12 10.5 30 10.5q17 0 30 -10.5t13 -27.5v-651q0 -17 -13 -28t-30 -11q-18 0 -30 10.5t-12 28.5v651q0 17 12 27.5z" />
    <glyph glyph-name="uni0628" unicode="&#x628;" horiz-adv-x="910" 
d="M78 454.5q13 10.5 30 10.5q39 0 43 -39v-142q0 -55 24 -102t68 -75.5t99 -28.5h230q55 0 98.5 27.5t68 74t24.5 100.5v135q0 50 43 50q17 0 30 -10.5t13 -27.5v-153q0 -75 -37.5 -137.5t-101.5 -99.5t-138 -37h-230q-74 0 -137.5 37t-101.5 100t-38 137v153q0 17 13 27.5
zM499.5 -134q17.5 -16 17.5 -40q0 -25 -17.5 -40.5t-42.5 -15.5q-24 0 -41.5 16t-17.5 40t17.5 40t41.5 16q25 0 42.5 -16z" />
    <glyph glyph-name="uni0629" unicode="&#x629;" horiz-adv-x="559" 
d="M149.5 643.5q16.5 15.5 40.5 15.5t41 -15t17 -39q0 -23 -17.5 -38.5t-40.5 -15.5t-40 15.5t-17 38.5t16.5 38.5zM325.5 643.5q16.5 15.5 40.5 15.5t40.5 -15t16.5 -39q0 -23 -17 -38.5t-40 -15.5t-40 15.5t-17 38.5t16.5 38.5zM395 433q54 -31 86 -84t32 -116
q0 -64 -31.5 -117.5t-85.5 -84.5t-118 -31t-117.5 31t-85 84.5t-31.5 117.5t31.5 117t85.5 83.5t117 30.5t117 -31zM353.5 98.5q34.5 21.5 54.5 57.5t20 77t-19.5 77t-54 57t-76.5 21t-76 -21t-54 -56.5t-20 -77.5q0 -41 20 -77t54.5 -57.5t75.5 -21.5t75.5 21.5z" />
    <glyph glyph-name="uni062A" unicode="&#x62a;" horiz-adv-x="875" 
d="M317 642.5q17 15.5 41 15.5t40.5 -15t16.5 -39q0 -23 -17 -38t-40 -15q-24 0 -41 15t-17 38t17 38.5zM586.5 643q16.5 -15 16.5 -39q0 -23 -17 -38t-40 -15t-40 15t-17 38q0 24 16.5 39t40.5 15t40.5 -15zM83 454.5q13 10.5 30 10.5q21 0 32.5 -12t11.5 -34l-2 -135
q0 -54 24.5 -101t68.5 -75.5t99 -28.5h187q57 0 100.5 30t67.5 79t23 104l-1 127q0 22 11.5 34t32.5 12q18 0 30.5 -10.5t12.5 -27.5v-153q0 -74 -37.5 -137t-101.5 -100t-138 -37h-187q-74 0 -138 37t-101.5 100t-37.5 137v153q0 17 13 27.5z" />
    <glyph glyph-name="uni062B" unicode="&#x62b;" horiz-adv-x="871" 
d="M478 795.5q17 -15.5 17 -38.5t-17 -38.5t-40 -15.5q-24 0 -41 15.5t-17 38.5t17 38.5t41 15.5q23 0 40 -15.5zM384.5 643q16.5 -15 16.5 -39q0 -23 -17 -38t-40 -15q-24 0 -41 15t-17 38t17.5 38.5t40.5 15.5q24 0 40.5 -15zM491.5 643q16.5 15 40.5 15q25 0 41 -15
t16 -39q0 -23 -17 -38t-40 -15t-40 15t-17 38q0 24 16.5 39zM83 454.5q13 10.5 30 10.5q42 0 44 -46l-1 -127q-1 -56 23 -105t67.5 -78.5t100.5 -29.5h187q58 0 101.5 30.5t67 80.5t23.5 106v138q0 15 12.5 23t29.5 8q18 0 30.5 -10.5t12.5 -27.5v-153q0 -74 -37.5 -137
t-101.5 -100t-138 -37h-187q-74 0 -138 37t-101.5 100t-37.5 137v153q0 17 13 27.5z" />
    <glyph glyph-name="uni062C" unicode="&#x62c;" horiz-adv-x="711" 
d="M513.5 234.5q-35.5 65.5 -97 105.5t-144.5 40q-35 0 -73 -10.5t-67 -27.5q-13 -5 -21 -5q-17 0 -27.5 11.5t-10.5 26.5q0 20 19 32q28 23 84 37.5t96 14.5q112 0 197 -55t131.5 -148t49.5 -205q0 -23 -16.5 -37.5t-39.5 -14.5h-289q-43 0 -79.5 -22.5t-58 -60.5
t-21.5 -81q0 -46 23 -84t64 -59q19 -11 39 -15t53 -4q53 0 53 -38q0 -23 -24 -32.5t-53 -9.5q-65 0 -120.5 32t-88 87t-32.5 123q0 66 33 121.5t89.5 88t122.5 32.5h240q6 0 10 5t2 11q-8 76 -43.5 141.5zM415.5 -98q17.5 15 40.5 15t39.5 -15t16.5 -38q0 -24 -16 -39
t-40 -15q-23 0 -40 15.5t-18 38.5q0 23 17.5 38z" />
    <glyph glyph-name="uni062D" unicode="&#x62d;" horiz-adv-x="711" 
d="M513.5 234.5q-35.5 65.5 -97.5 105.5t-144 40q-34 0 -71.5 -10t-64.5 -27q-13 -6 -25 -6q-17 0 -27 10.5t-10 25.5q0 12 7.5 23t21.5 17q28 20 80.5 33t88.5 13q112 0 197 -55t131.5 -148t49.5 -205q0 -23 -16.5 -37.5t-39.5 -14.5h-289q-43 0 -79.5 -22.5t-58 -60.5
t-21.5 -81q0 -46 23 -84t64 -59q19 -11 39 -15t53 -4q53 0 53 -38q0 -23 -24 -32.5t-53 -9.5q-65 0 -120.5 32t-88 87t-32.5 123q0 66 33 121.5t89.5 88t122.5 32.5h240q6 0 10 5t2 11q-8 76 -43.5 141.5z" />
    <glyph glyph-name="uni062E" unicode="&#x62e;" horiz-adv-x="727" 
d="M280 630.5q17 15.5 41 15.5t41 -15.5t17 -39.5q0 -23 -17.5 -38.5t-40.5 -15.5q-24 0 -41 15.5t-17 38.5q0 24 17 39.5zM513 234q-36 66 -98 106t-143 40q-33 0 -70.5 -10t-64.5 -26q-11 -4 -23 -4q-18 0 -29 10.5t-11 24.5q0 24 28 37q28 21 80.5 34t89.5 13
q112 0 197 -55t131.5 -148t49.5 -205q0 -23 -16.5 -37.5t-39.5 -14.5h-289q-43 0 -79.5 -22.5t-58 -60.5t-21.5 -81q0 -46 23 -84t64 -59q19 -11 39 -15t53 -4q53 0 53 -38q0 -23 -24 -32.5t-53 -9.5q-65 0 -120.5 32t-88 87t-32.5 123q0 66 33 121.5t89.5 88t122.5 32.5
h240q6 0 10 5t2 11q-8 75 -44 141z" />
    <glyph glyph-name="uni062F" unicode="&#x62f;" horiz-adv-x="570" 
d="M59 68q12 10 30 10h339v156q0 41 -20 76.5t-54 56.5t-76 21q-23 0 -65 -17q-23 -9 -31 -9q-18 0 -30.5 11t-11.5 28q3 20 27.5 34.5t56 22t54.5 7.5q63 0 117 -31t86 -84t32 -116v-194q0 -17 -12.5 -28t-30.5 -11h-381q-18 0 -30 11t-12 28q0 18 12 28z" />
    <glyph glyph-name="uni0630" unicode="&#x630;" horiz-adv-x="563" 
d="M334 651.5q17 -15.5 17 -38.5t-16.5 -38.5t-40.5 -15.5q-25 0 -42 15t-17 39t17.5 39t41.5 15q23 0 40 -15.5zM59 68.5q12 10.5 30 10.5h339v155q0 41 -20 76.5t-54 56.5t-76 21q-23 0 -65 -17q-23 -9 -31 -9q-18 0 -30 10.5t-12 28.5q0 21 25 35.5t58 21.5t57 7
q63 0 116.5 -31t85 -84t31.5 -116v-194q0 -17 -12.5 -28t-30.5 -11h-381q-18 0 -30 11t-12 28q0 18 12 28.5z" />
    <glyph glyph-name="uni0631" unicode="&#x631;" horiz-adv-x="265" 
d="M226.5 452q12.5 -11 12.5 -28v-439q0 -64 -32 -117.5t-86 -84.5t-117 -31q-18 0 -30.5 11t-12.5 28t13 28.5t30 11.5q33 0 62 14t51 39q36 46 36 101v439q0 17 12.5 28t30.5 11t30.5 -11z" />
    <glyph glyph-name="uni0632" unicode="&#x632;" horiz-adv-x="270" 
d="M237.5 647q16.5 -15 16.5 -39t-16.5 -39t-40.5 -15q-25 0 -41.5 15t-16.5 39q0 23 17 38.5t41 15.5t40.5 -15zM226.5 452q12.5 -11 12.5 -28v-439q0 -64 -32 -117.5t-86 -84.5t-117 -31q-18 0 -30.5 11t-12.5 28t13 28.5t30 11.5q33 0 62 14t51 39q36 46 36 101v439
q0 17 12.5 28t30.5 11t30.5 -11z" />
    <glyph glyph-name="uni0633" unicode="&#x633;" horiz-adv-x="1308" 
d="M1220 450q13 -11 13 -28v-236q0 -51 -26.5 -94t-71 -67.5t-95.5 -24.5q-47 0 -87 23t-63 61q-23 -38 -63 -61t-86 -23q-37 0 -69 15t-51 41l-3 -9q-10 -64 -47 -115.5t-93.5 -81t-123.5 -29.5q-78 0 -144.5 38.5t-106 104t-39.5 142.5q0 42 12 83t37 73q15 15 35 15
q11 0 25 -7q19 -11 19 -29q0 -7 -5 -19q-17 -34 -25.5 -60.5t-8.5 -55.5q0 -54 27 -101t73 -75.5t101 -28.5q56 0 102 28.5t73 75.5t27 101v317q0 12 10.5 25t29.5 13q22 0 29.5 -12.5t7.5 -22.5v-249q5 -42 35.5 -71t72.5 -29t72.5 29.5t34.5 71.5l-1 244q0 17 13 28t31 11
q17 0 29.5 -11t12.5 -28v-242q3 -43 34 -73t73 -30q45 0 76.5 32.5t31.5 77.5v235q0 17 12 28t30 11q17 0 30 -11z" />
    <glyph glyph-name="uni0634" unicode="&#x634;" horiz-adv-x="1332" 
d="M925 803q17 -15 17 -39t-17 -39.5t-41 -15.5t-41 16t-17 39t17 38.5t41 15.5t41 -15zM748 643.5q17 15.5 40 15.5q24 0 41 -14.5t17 -39.5q0 -24 -17 -39t-41 -15t-40.5 15.5t-16.5 38.5t17 38.5zM937.5 644q17.5 15 40.5 15t40.5 -15t17.5 -39q0 -23 -17.5 -38.5
t-40.5 -15.5q-24 0 -41 15.5t-17 38.5q0 24 17.5 39zM1220 450q13 -11 13 -28v-236q0 -51 -26.5 -94t-71 -67.5t-95.5 -24.5q-47 0 -87 23t-63 61q-23 -38 -63 -61t-86 -23q-37 0 -69 15t-51 41l-3 -9q-10 -64 -47 -115.5t-93.5 -81t-123.5 -29.5q-78 0 -144.5 38.5
t-106 104t-39.5 142.5q0 42 12 83t37 73q15 15 35 15q11 0 25 -7q19 -11 19 -29q0 -7 -5 -19q-17 -34 -25.5 -60.5t-8.5 -55.5q0 -54 27 -101t73 -75.5t101 -28.5q56 0 102 28.5t73 75.5t27 101v317q0 12 10.5 25t29.5 13q22 0 29.5 -12.5t7.5 -22.5v-249q5 -42 35.5 -71
t72.5 -29t72.5 29.5t34.5 71.5l-1 244q0 17 13 28t31 11q17 0 29.5 -11t12.5 -28v-242q3 -43 34 -73t73 -30q45 0 76.5 32.5t31.5 77.5v235q0 17 12 28t30 11q17 0 30 -11z" />
    <glyph glyph-name="uni0635" unicode="&#x635;" horiz-adv-x="1281" 
d="M1130 434.5q54 -33.5 83.5 -88t29.5 -112.5q0 -61 -31.5 -115t-85 -86.5t-114.5 -32.5h-400q-34 -73 -101 -123t-161 -50q-77 0 -142.5 38t-103.5 103t-38 142q0 43 11.5 83.5t35.5 72.5q15 15 35 15q11 0 23 -7q18 -11 18 -29q0 -7 -5 -19q-17 -35 -25 -61t-8 -55
q0 -54 26.5 -101t72 -75.5t100.5 -28.5t101 28.5t72.5 75.5t26.5 101v314q0 16 10 28.5t31 12.5q15 0 25 -9.5t10 -25.5v-109q31 71 93.5 109.5t144.5 38.5l143 -1q69 0 123 -33.5zM1082.5 99q34.5 22 55 58t20.5 77t-20.5 77t-55 57.5t-75.5 21.5h-165q-57 0 -104 -29
t-74.5 -78t-27.5 -104v-102h371q41 0 75.5 22z" />
    <glyph glyph-name="uni0636" unicode="&#x636;" horiz-adv-x="1281" 
d="M954 639q17 -15 17 -38t-17 -39t-40 -16q-25 0 -42 15.5t-17 39.5q0 23 17.5 38t41.5 15q23 0 40 -15zM1130 434.5q54 -33.5 83.5 -88t29.5 -112.5q0 -61 -31.5 -115t-85 -86.5t-114.5 -32.5h-400q-34 -73 -101 -123t-161 -50q-77 0 -142.5 38t-103.5 103t-38 142
q0 43 11.5 83.5t35.5 72.5q15 15 35 15q11 0 23 -7q18 -11 18 -29q0 -7 -5 -19q-17 -35 -25 -61t-8 -55q0 -54 26.5 -101t72 -75.5t100.5 -28.5t101 28.5t72.5 75.5t26.5 101v314q0 16 10 28.5t31 12.5q15 0 25 -9.5t10 -25.5v-109q31 71 93.5 109.5t144.5 38.5l143 -1
q69 0 123 -33.5zM1082.5 99q34.5 22 55 58t20.5 77t-20.5 77t-55 57.5t-75.5 21.5h-165q-57 0 -104 -29t-74.5 -78t-27.5 -104v-102h371q41 0 75.5 22z" />
    <glyph glyph-name="uni0637" unicode="&#x637;" horiz-adv-x="791" 
d="M111 687.5q12 10.5 30 10.5q17 0 29.5 -10.5t12.5 -27.5v-322q23 49 79 85t123 36h126q63 0 116.5 -31t84.5 -83.5t31 -115.5q0 -60 -31 -113t-83 -84.5t-112 -31.5h-497q-18 0 -28.5 10.5t-10.5 28.5q0 16 9 27.5t26 11.5h83v582q0 17 12 27.5zM585 98q34 21 54 56
t20 75q0 42 -19.5 77t-53 55.5t-75.5 20.5h-126q-55 0 -101.5 -28t-73.5 -75.5t-27 -102.5v-99h328q40 0 74 21z" />
    <glyph glyph-name="uni0638" unicode="&#x638;" horiz-adv-x="796" 
d="M111 687.5q12 10.5 30 10.5q17 0 29.5 -10.5t12.5 -27.5v-314q24 44 80 78.5t122 34.5h126q63 0 116.5 -31t84.5 -83.5t31 -115.5q0 -60 -31 -113t-83 -84.5t-112 -31.5h-497q-18 0 -28.5 10.5t-10.5 28.5q0 16 9 27.5t26 11.5h83v582q0 17 12 27.5zM431 644.5
q16 14.5 41 14.5q23 0 39.5 -15t16.5 -38t-16.5 -38t-39.5 -15q-25 0 -41 14.5t-16 38.5t16 38.5zM585 98q34 21 54 56t20 75q0 42 -19.5 77t-53 55.5t-75.5 20.5h-126q-55 0 -101.5 -28t-73.5 -75.5t-27 -102.5v-99h328q40 0 74 21z" />
    <glyph glyph-name="uni0639" unicode="&#x639;" horiz-adv-x="610" 
d="M89.5 -45q30.5 48 89.5 87q-53 38 -80.5 83t-27.5 106q0 63 31.5 116t85.5 84t117 31q67 0 127.5 -38.5t87.5 -102.5q8 -16 8 -27q0 -16 -12 -26.5t-28 -10.5q-21 0 -31 16q-20 48 -61.5 80t-90.5 32q-41 0 -75 -21.5t-54 -56.5t-20 -76q0 -40 20 -75.5t54.5 -56.5
t74.5 -21h206q17 0 29.5 -11t12.5 -28t-12.5 -28t-29.5 -11h-213q-42 0 -77.5 -22t-56 -59t-20.5 -79q0 -71 46 -114t116 -43h22q18 0 30 -11t12 -29q0 -21 -19.5 -30t-44.5 -9q-67 0 -123.5 30.5t-90 84.5t-33.5 121t30.5 115z" />
    <glyph glyph-name="uni063A" unicode="&#x63a;" horiz-adv-x="611" 
d="M337.5 648.5q17.5 -15.5 17.5 -38.5q0 -24 -17 -39t-42 -15q-24 0 -41 15t-17 39t17 39t41 15t41.5 -15.5zM89.5 -45q30.5 48 89.5 87q-53 38 -80.5 83t-27.5 106q0 63 31.5 116t85.5 84t117 31q66 0 126 -39t88 -101q10 -16 10 -31q0 -25 -26 -36q-8 -4 -18 -4
q-21 0 -33 18q-19 49 -58.5 82.5t-88.5 33.5q-41 0 -75 -21.5t-54 -56.5t-20 -76q0 -40 20 -75.5t54.5 -56.5t74.5 -21h206q17 0 29.5 -11t12.5 -28t-12.5 -28t-29.5 -11h-213q-42 0 -77.5 -22t-56 -59t-20.5 -79q0 -71 46 -114t116 -43h22q18 0 30 -11t12 -29
q0 -21 -19.5 -30t-44.5 -9q-67 0 -123.5 30.5t-90 84.5t-33.5 121t30.5 115z" />
    <glyph glyph-name="uni0640" unicode="&#x640;" horiz-adv-x="138" 
d="M-7 78h151v-78h-151v78z" />
    <glyph glyph-name="uni0641" unicode="&#x641;" horiz-adv-x="982" 
d="M664 643q17 15 40 15t40 -15t17 -38t-17 -38t-40 -15q-24 0 -40.5 15t-16.5 38t17 38zM72 458.5q13 10.5 30 10.5t30 -10.5t13 -27.5v-249q0 -41 29 -72.5t70 -31.5h290q-38 39 -57 74.5t-19 82.5q0 69 32 122t87.5 82.5t122.5 29.5q64 0 117.5 -32t85 -85.5t31.5 -116.5
t-32 -117t-86 -86t-117 -32l-455 -1q-49 0 -91.5 23t-68 63.5t-25.5 90.5v255q0 17 13 27.5zM565.5 158q20.5 -36 55.5 -58t76 -22t75.5 22t54.5 58t20 77t-20 77t-54.5 57.5t-75.5 21.5t-76 -21.5t-55.5 -57.5t-20.5 -77t20.5 -77z" />
    <glyph glyph-name="uni0642" unicode="&#x642;" horiz-adv-x="925" 
d="M511.5 568q-16.5 15 -16.5 38t17 38t39 15q24 0 40.5 -15t16.5 -38q0 -24 -16 -38.5t-41 -14.5q-23 0 -39.5 15zM685.5 568q-16.5 15 -16.5 38t17 38t40 15t40 -15t17 -38t-17 -38t-40 -15q-24 0 -40.5 15zM837.5 -79q-40.5 -69 -109 -109t-150.5 -40h-229
q-77 0 -146.5 36t-112 98t-42.5 135q0 10 2 30l18 145q3 19 15 31.5t29 12.5q19 0 32.5 -13t10.5 -31l-18 -142q-2 -16 -2 -23q0 -52 31 -96t81 -70t105 -26h223q55 0 103 26.5t77.5 72t32.5 100.5l1 19q-25 -38 -65 -60.5t-87 -22.5q-65 0 -120.5 32.5t-88 88.5t-32.5 121
t32.5 120.5t88 88t120.5 32.5t120.5 -32.5t88 -88t32.5 -120.5v-165q0 -81 -40.5 -150zM715 100q36 21 57 57t21 79q0 42 -21 78t-57 57t-78 21q-43 0 -79 -21t-57 -57t-21 -78q0 -43 21 -79t57 -57t79 -21q42 0 78 21z" />
    <glyph glyph-name="uni0643" unicode="&#x643;" horiz-adv-x="906" 
d="M74.5 378.5q11.5 10.5 28.5 10.5t29.5 -10.5t12.5 -27.5v-86q0 -50 23 -93.5t65 -69.5t95 -26h245q50 0 92 25.5t66.5 68.5t24.5 93v406q0 17 12.5 27.5t28.5 10.5t28.5 -11t12.5 -27v-406q0 -72 -35.5 -132t-96.5 -95t-133 -35h-245q-72 0 -133 35t-96.5 95t-35.5 132
v88q0 17 11.5 27.5zM365 443.5q-6 12.5 -6 31.5q0 44 32 75t76 31q35 0 56.5 -16t39.5 -48q4 -8 4 -18q0 -18 -21 -18q-8 2 -13.5 8t-12.5 16q-10 16 -21 25t-32 9q-26 0 -44 -19t-18 -45q0 -30 19 -44.5t49 -16.5h84q10 0 16.5 -6.5t6.5 -16.5q0 -9 -7 -14.5t-16 -5.5h-210
q-9 0 -16 5.5t-7 14.5q0 21 27 23h35q-15 17 -21 29.5z" />
    <glyph glyph-name="uni0644" unicode="&#x644;" horiz-adv-x="608" 
d="M144.5 85q-8.5 -27 -8.5 -50q0 -46 21.5 -85t60 -62t84.5 -23q45 0 83 23.5t60 62.5t22 84v660q0 17 12.5 28t29.5 11q16 0 28.5 -11t12.5 -28v-660q0 -68 -33.5 -124.5t-90 -89t-124.5 -32.5t-125.5 32.5t-91 89t-33.5 124.5q0 26 11 69t27 63q14 17 37 17
q17 0 29.5 -10t12.5 -26q0 -4 -4 -16q-12 -20 -20.5 -47z" />
    <glyph glyph-name="uni0645" unicode="&#x645;" horiz-adv-x="727" 
d="M66 -204q-11 12 -11 26v409q0 63 33.5 115.5t89 83t118.5 30.5h179q60 0 112.5 -31.5t84 -84t31.5 -113.5q0 -57 -29 -110.5t-82.5 -87t-121.5 -33.5q-55 0 -102 24.5t-77 66t-38 90.5q-4 19 -4 42q0 43 17 81.5t46 58.5q-9 3 -29 3q-58 0 -100.5 -34t-42.5 -101v-409
q0 -14 -10.5 -26t-31.5 -12t-32 12zM545 98q34 21 53.5 56.5t19.5 76.5q0 40 -20 75.5t-54 56.5t-74 21t-74.5 -21t-54.5 -56.5t-20 -75.5q0 -41 20 -76.5t54 -56.5t75 -21t75 21z" />
    <glyph glyph-name="uni0646" unicode="&#x646;" horiz-adv-x="694" 
d="M378.5 463.5q17.5 -15.5 17.5 -40.5t-17.5 -41t-42.5 -16q-26 0 -43.5 15.5t-17.5 41.5t17.5 41t43.5 15q25 0 42.5 -15.5zM603.5 448q6.5 -14 6.5 -26l-2 -311q0 -77 -36.5 -140.5t-99 -100t-136.5 -36.5q-77 0 -142.5 38.5t-104 103.5t-38.5 142q0 43 11.5 83.5
t35.5 72.5q15 15 35 15q12 0 23 -6q19 -11 19 -29q0 -9 -6 -20q-17 -34 -25 -60t-8 -56q0 -54 26.5 -101t72.5 -75.5t101 -28.5t100.5 28.5t72 75.5t26.5 101v301q0 15 10 29t30 14q22 0 28.5 -14z" />
    <glyph glyph-name="uni0647" unicode="&#x647;" horiz-adv-x="547" 
d="M391 432.5q54 -31.5 86 -84.5t32 -116t-32 -116.5t-86 -84.5t-117 -31q-64 0 -117.5 30.5t-85 84t-31.5 117.5q0 63 31.5 116.5t85.5 84.5t117 31t117 -31.5zM144 155q20 -36 54.5 -57.5t75.5 -21.5t75.5 21.5t54.5 57.5t20 77t-20 76.5t-54 57t-76 21.5t-76 -21
t-54 -56.5t-20 -77.5q0 -41 20 -77z" />
    <glyph glyph-name="uni0648" unicode="&#x648;" horiz-adv-x="561" 
d="M79 348q32 53 85.5 84t116.5 31t116.5 -31t85.5 -84.5t32 -115.5l-1 -245q0 -63 -31 -116t-84.5 -83.5t-117.5 -30.5q-17 0 -29 10t-12 24q0 6 1 9q0 14 16 22t36 13t29 8q104 44 104 128v103q-26 -27 -43 -41.5t-42 -23.5t-60 -9q-63 0 -116.5 31t-85.5 84.5t-32 116.5
t32 116zM356.5 99q34.5 21 54 56.5t19.5 76.5t-20 76t-54 56t-75 21t-75 -21t-53.5 -56t-19.5 -76t19.5 -76.5t53.5 -56.5t75 -21t75.5 21z" />
    <glyph glyph-name="uni0649" unicode="&#x649;" horiz-adv-x="891" 
d="M191.5 161.5q-12.5 -39.5 -12.5 -70.5q0 -62 30.5 -115t83 -85t114.5 -32h110q47 0 92 21.5t76.5 59.5t40.5 84q-119 0 -148.5 1.5t-42.5 7.5q-47 10 -85.5 41t-60.5 75t-22 93q0 60 30 110.5t80.5 80t110.5 29.5q67 0 126.5 -39.5t83.5 -112.5q2 -10 2 -14
q0 -15 -9.5 -24.5t-27.5 -9.5q-24 0 -36 18q-9 15 -11 19q-14 26 -27.5 43.5t-38.5 31t-62 13.5q-39 0 -71 -19.5t-50.5 -53t-18.5 -72.5q0 -38 19 -71t51 -53t70 -20h199q33 0 33 -46q0 -30 -11 -61q-32 -93 -112.5 -150t-179.5 -57h-110q-84 0 -155 41t-113 111.5
t-42 154.5q0 42 14 93t39 76q14 12 29 12q14 0 25 -8q8 -4 12.5 -12t3.5 -19q-16 -32 -28.5 -71.5z" />
    <glyph glyph-name="uni064A" unicode="&#x64a;" horiz-adv-x="884" 
d="M191.5 161.5q-12.5 -39.5 -12.5 -70.5q0 -62 30.5 -115t83 -85t114.5 -32h110q47 0 92 21.5t76.5 59.5t40.5 84q-119 0 -148.5 1.5t-42.5 7.5q-47 10 -85.5 41t-60.5 75t-22 93q0 60 30 110.5t80.5 80t110.5 29.5q67 0 126.5 -39.5t83.5 -112.5q2 -10 2 -14
q0 -15 -9.5 -24.5t-27.5 -9.5q-24 0 -36 18q-9 15 -11 19q-14 26 -27.5 43.5t-38.5 31t-62 13.5q-39 0 -71 -19.5t-50.5 -53t-18.5 -72.5q0 -38 19 -71t51 -53t70 -20h199q33 0 33 -46q0 -30 -11 -61q-32 -93 -112.5 -150t-179.5 -57h-110q-84 0 -155 41t-113 111.5
t-42 154.5q0 42 14 93t39 76q14 12 29 12q14 0 25 -8q8 -4 12.5 -12t3.5 -19q-16 -32 -28.5 -71.5zM433.5 -292q17.5 -15 17.5 -39t-17 -39t-41 -15q-23 0 -40.5 15.5t-17.5 38.5t17.5 38.5t40.5 15.5t40.5 -15zM529 -292.5q17 15.5 40 15.5t40 -15.5t17 -38.5
q0 -24 -16.5 -39t-40.5 -15t-40.5 15t-16.5 39q0 23 17 38.5z" />
    <glyph glyph-name="uni064B" unicode="&#x64b;" 
d="M-64 149q136 22 148 23q10 0 16.5 -7.5t6.5 -16.5q0 -7 -4.5 -13t-13.5 -9q-15 -2 -66 -10q-94 -14 -114 -16q-9 0 -15 6.5t-6 14.5t4.5 14.5t13.5 8.5zM-70 57q111 19 152 24q10 0 16 -7t6 -16q0 -19 -18 -23l-60 -9q-114 -17 -119 -17q-9 0 -15 6.5t-6 15.5
q0 7 4.5 13.5t13.5 8.5z" />
    <glyph glyph-name="uni064C" unicode="&#x64c;" 
d="M-113.5 140q5.5 5 15.5 5q7 0 13.5 -4t7.5 -10l18 -85l53 11q-6 20 -6 41q0 38 24.5 60.5t62.5 22.5q32 0 52.5 -18t20.5 -49q0 -33 -21.5 -53.5t-55.5 -26.5l-165 -35l-25 127q0 9 5.5 14zM37 67q29 3 47.5 12t18.5 32q0 14 -8.5 22.5t-22.5 8.5q-19 0 -30 -11t-11 -30
q0 -16 6 -34z" />
    <glyph glyph-name="uni064D" unicode="&#x64d;" 
d="M179 -54q10 0 16 -7t6 -16q0 -8 -4.5 -14t-13.5 -8q-35 -6 -100 -15.5t-79 -10.5q-10 0 -15.5 6.5t-5.5 15.5q0 18 17 22q164 26 179 27zM20 -174q160 24 157 24q9 0 15.5 -7.5t6.5 -16.5q0 -16 -18 -22q-35 -6 -100.5 -15.5t-78.5 -10.5q-9 0 -15 6.5t-6 15.5
q0 16 17 22z" />
    <glyph glyph-name="uni064E" unicode="&#x64e;" 
d="M87.5 67.5q6.5 -7.5 6.5 -16.5q0 -7 -4.5 -13t-13.5 -8q-154 -26 -180 -27q-9 0 -15 6.5t-6 15.5q0 8 4.5 14.5t13.5 8.5q164 26 178 27q10 0 16.5 -7.5z" />
    <glyph glyph-name="uni064F" unicode="&#x64f;" 
d="M-41 114q0 35 24 58t59 23q33 0 55.5 -21t22.5 -53q0 -41 -24.5 -58t-53.5 -25t-38 -11l-96 -32q-7 -1 -12.5 5t-5.5 14q0 13 14 17l72 27q-17 36 -17 56zM41.5 77q17.5 6 27 16t9.5 26t-10.5 27t-26.5 11q-18 0 -29.5 -12t-11.5 -30q0 -15 16 -47q8 3 25.5 9z" />
    <glyph glyph-name="uni0650" unicode="&#x650;" 
d="M84 -23q10 0 16 -7t6 -16q0 -8 -4.5 -14.5t-13.5 -8.5q-165 -25 -179 -26q-9 0 -15.5 6.5t-6.5 15.5q0 7 4.5 13t13.5 9q152 25 179 28z" />
    <glyph glyph-name="uni0651" unicode="&#x651;" 
d="M-105.5 143q5.5 5 13.5 5q12 0 15 -11t3.5 -22t0.5 -15q1 -30 6.5 -44.5t26.5 -14.5q18 0 24 13t6 34l-1 34q0 11 5 19t15 8q14 0 17.5 -14t2.5 -27.5t-1 -17.5q0 -22 6 -35t26 -13q18 0 25 12.5t7 32.5q0 11 -1 19.5t-1 15.5q0 27 20 27t20 -24v-51q0 -29 -21 -50
t-50 -21q-15 0 -26 5.5t-23 16.5q-14 -12 -24.5 -17.5t-25.5 -5.5q-30 0 -50.5 20.5t-20.5 50.5v57q0 8 5.5 13z" />
    <glyph glyph-name="uni0652" unicode="&#x652;" 
d="M-50 134q23 -19 23 -55q0 -33 -25 -54.5t-59 -21.5q-38 0 -60.5 18.5t-22.5 55.5q0 33 25 54.5t59 21.5q37 0 60 -19zM-84 50.5q9 10.5 9 27.5t-9.5 27.5t-26.5 10.5t-27 -11.5t-10 -27.5q0 -17 10.5 -27t27.5 -10t26 10.5z" />
    <glyph glyph-name="uni0653" unicode="&#x653;" 
d="M-120.5 691.5q13.5 11.5 16.5 13.5q15 12 16 13q8 -2 16 -2q17 0 51 8l23 4q18 -6 39 -6q29 0 53 12q12 0 20 4t23 13q1 -10 1 -51q-6 -26 -39.5 -39.5t-65.5 -13.5q-49 0 -82 30q-44 -31 -65 -41q-13 0 -20 8t-7 21q7 15 20.5 26.5z" />
    <glyph glyph-name="uni0656" unicode="&#x656;" 
d="M-26.5 759q12.5 8 26.5 8q13 0 24 -7.5t11 -20.5v-177l-74 -11v188q0 12 12.5 20z" />
    <glyph glyph-name="uni0658" unicode="&#x658;" 
d="M109.5 907q5.5 -9 10.5 -29q6 -25 16.5 -38.5t38.5 -13.5t39 13.5t18 39.5q6 19 12.5 28.5t20.5 9.5q12 0 19 -8t7 -20q0 -57 -30 -92t-87 -35q-54 0 -84.5 35.5t-30.5 82.5q0 15 8.5 25.5t21.5 10.5q15 0 20.5 -9z" />
    <glyph glyph-name="uni0660" unicode="&#x660;" horiz-adv-x="247" 
d="M171 418.5q20 -18.5 20 -45.5t-20 -45.5t-47 -18.5q-28 0 -48 18t-20 46t20 46t48 18q27 0 47 -18.5z" />
    <glyph glyph-name="uni0661" unicode="&#x661;" horiz-adv-x="217" 
d="M80 691q12 11 30 11q17 0 29.5 -11t12.5 -28v-625q0 -17 -12.5 -27.5t-29.5 -10.5q-18 0 -30 10.5t-12 27.5v625q0 17 12 28z" />
    <glyph glyph-name="uni0662" unicode="&#x662;" horiz-adv-x="501" 
d="M436 691.5q12 -10.5 12 -27.5t-12 -27.5t-30 -10.5h-183q-36 0 -62 -28.5t-26 -64.5v-494q0 -17 -12 -28t-29 -11q-18 0 -30 11t-12 28v494q0 46 23.5 85t62.5 61.5t85 22.5h183q18 0 30 -10.5z" />
    <glyph glyph-name="uni0663" unicode="&#x663;" horiz-adv-x="635" 
d="M146 665l1 -166q1 -31 18.5 -50.5t46.5 -19.5t47 20t18 50l1 162q2 42 42 42q37 0 42 -38v-166q0 -30 18 -50t46 -20t46 20t19 50v166q4 38 41 38q18 0 30.5 -11t12.5 -28v-184q0 -41 -25 -70t-63 -43.5t-78 -14.5q-24 0 -39 7.5t-29 18t-21 15.5q-23 -20 -45 -30
t-50 -10q-21 0 -36.5 6t-41.5 20v-339q0 -17 -12.5 -28t-29.5 -11q-18 0 -30 11t-12 28v624q0 18 12 28.5t30 10.5q39 0 41 -38z" />
    <glyph glyph-name="uni0664" unicode="&#x664;" horiz-adv-x="494" 
d="M77 281.5q22 36.5 65 69.5q-42 31 -64.5 69t-22.5 87q0 53 27 98t72.5 71t98.5 26h148q18 0 30.5 -11t12.5 -28q0 -20 -14.5 -29t-36.5 -9l-130 1q-53 0 -88.5 -33t-35.5 -86q0 -52 36 -85t88 -33l129 1q22 0 37 -9t15 -30q0 -19 -15.5 -29t-35.5 -10l-129 1
q-53 0 -89 -32.5t-36 -85.5q0 -52 36 -85.5t89 -33.5l129 2q21 0 36 -9.5t15 -29.5q0 -17 -13 -28t-30 -11h-148q-54 0 -99.5 26t-72 70.5t-26.5 98.5q0 50 22 86.5z" />
    <glyph glyph-name="uni0665" unicode="&#x665;" horiz-adv-x="509" 
d="M77 460q18 75 61.5 128t116.5 53q74 0 117.5 -55t60 -132.5t16.5 -155.5q0 -52 -26.5 -96t-71 -69.5t-96.5 -25.5q-58 0 -102.5 27t-69 74t-24.5 104q0 73 18 148zM334.5 217q32.5 35 32.5 81q0 50 -9.5 112t-35 109t-67.5 47q-41 0 -66.5 -46t-35.5 -106t-11 -108
q0 -51 31.5 -87.5t81.5 -36.5q47 0 79.5 35z" />
    <glyph glyph-name="uni0666" unicode="&#x666;" horiz-adv-x="519" 
d="M365.5 679.5q39.5 -22.5 63 -61t23.5 -84.5v-495q0 -17 -12.5 -28t-29.5 -11q-16 0 -29 11t-13 28v495q0 37 -25.5 64t-62.5 27h-183q-16 0 -28.5 11.5t-12.5 27.5q0 17 12 27.5t29 10.5h183q46 0 85.5 -22.5z" />
    <glyph glyph-name="uni0667" unicode="&#x667;" horiz-adv-x="626" 
d="M130 696q11 -7 15 -19l170 -512l171 512q4 12 15 19t24 7q17 0 30 -10.5t13 -27.5q0 -5 -26.5 -87t-40.5 -124l-122 -359q-10 -31 -28.5 -62t-36.5 -31q-13 0 -24.5 7t-16.5 19q-8 18 -37.5 105t-52.5 161l-16 47q-20 58 -62 185t-42 138q0 17 12.5 28t30.5 11
q13 0 24 -7z" />
    <glyph glyph-name="uni0668" unicode="&#x668;" horiz-adv-x="633" 
d="M349 695q11 -7 16 -20q10 -20 39 -107l37 -111l29 -87l19 -56q9 -28 48.5 -146.5t39.5 -128.5q0 -17 -13 -27.5t-30 -10.5q-13 0 -24.5 7t-15.5 19l-170 512l-170 -512q-4 -12 -16 -19t-25 -7q-17 0 -29 10.5t-12 27.5q0 11 43 141t66 198l27 83q57 172 74 214
q10 27 42 27q14 0 25 -7z" />
    <glyph glyph-name="uni0669" unicode="&#x669;" horiz-adv-x="489" 
d="M342 677.5q45 -26.5 72 -72t27 -98.5v-468q0 -17 -12.5 -27t-29.5 -10t-29 10t-12 27v328q-31 -28 -55 -41t-59 -13q-52 0 -98 26t-73.5 71t-27.5 97q0 54 27 99t72.5 71.5t99.5 26.5q53 0 98 -26.5zM324.5 424q33.5 35 33.5 83q0 31 -15 59t-41.5 44.5t-57.5 16.5
q-49 0 -82 -35.5t-33 -84.5q0 -48 33.5 -83t81.5 -35q47 0 80.5 35z" />
    <glyph glyph-name="uni066A" unicode="&#x66a;" horiz-adv-x="692" 
d="M561 664.5q11 -10.5 11 -25.5q-10 -25 -35 -64.5t-46 -71.5l-314 -495q-9 -14 -25 -30.5t-27 -16.5q-16 0 -28 10t-12 25q12 28 60 103l20 31l117 184l199 311q11 18 26 34t28 16q15 0 26 -10.5zM221.5 585.5q20.5 -19.5 20.5 -46.5q0 -28 -20 -47t-48 -19t-48 19t-20 47
t20 47t48 19q27 0 47.5 -19.5zM456 153q20 19 48 19q29 0 48.5 -19t19.5 -47t-20 -47t-48 -19t-48 19t-20 47t20 47z" />
    <glyph glyph-name="uni066B" unicode="&#x66b;" horiz-adv-x="280" 
d="M76 -2.5q-4 9.5 -12 21.5q-7 10 -10 18t-3 18q0 25 15.5 41.5t39.5 16.5q29 0 45 -24t16 -54t-17.5 -70.5t-44 -74.5t-52.5 -47q-2 -1 -7 -1q-9 0 -15.5 6.5t-3.5 15.5q2 5 20 33q16 22 24.5 39t8.5 38q0 14 -4 23.5z" />
    <glyph glyph-name="uni066C" unicode="&#x66c;" horiz-adv-x="280" 
d="M76 425.5q-4 8.5 -12 22.5q-7 11 -10.5 19t-3.5 19q0 23 16.5 39t39.5 16q30 0 45.5 -23.5t15.5 -54.5q0 -29 -17 -69.5t-43 -74t-52 -46.5q-12 -3 -20 2t-8 16q0 6 3 12q22 26 36 51t14 50q0 13 -4 21.5z" />
    <glyph glyph-name="uni066D" unicode="&#x66d;" horiz-adv-x="587" 
d="M246 211l-164 40l26 74l155 -64l-10 170l78 1l-14 -170l156 64l27 -76l-164 -38l107 -133l-62 -46l-90 148l-92 -149l-60 46z" />
    <glyph glyph-name="uni0670" unicode="&#x670;" 
d="M88.5 536q8.5 5 17.5 5t16 -5t7 -14l-1 -202q0 -10 -9 -17t-19 -8q-20 0 -20 17v210q0 9 8.5 14z" />
    <glyph glyph-name="uni0671" unicode="&#x671;" horiz-adv-x="237" 
d="M162 927q42 0 56.5 -26t14.5 -71v-49h-225q-9 0 -13.5 5t-4.5 12q0 6 4.5 10.5t13.5 4.5l36 -1q32 115 118 115zM186.5 877.5q-8.5 19.5 -33.5 19.5q-52 0 -73 -85h115v17q0 29 -8.5 48.5zM92.5 718q12.5 11 29.5 11t29.5 -11t12.5 -28v-650q0 -17 -12.5 -28t-29.5 -11
q-18 0 -30 11t-12 28v650q0 17 12.5 28z" />
    <glyph glyph-name="uni0679" unicode="&#x679;" horiz-adv-x="876" 
d="M314.5 812q3.5 3 12.5 3q7 0 11.5 -4t4.5 -11v-95q23 15 38.5 22t36.5 7h47q36 0 61 -26t25 -63q0 -36 -24.5 -61.5t-59.5 -25.5h-156v242q0 9 3.5 12zM503 606.5q16 16.5 16 38.5q0 23 -13.5 37t-36.5 17q-67 0 -96.5 -14.5t-29.5 -59.5v-35h122q22 0 38 16.5z
M77.5 455.5q12.5 11.5 30.5 11.5q21 0 32.5 -13.5t11.5 -35.5l-2 -134q0 -54 24.5 -101t68.5 -75t98 -28h231q57 0 100.5 29.5t67 78t22.5 104.5l-1 126q0 23 11 36t33 13q17 0 29.5 -12t12.5 -29v-152q0 -75 -37 -137.5t-100.5 -99.5t-137.5 -37h-231q-74 0 -137.5 37
t-101 100t-37.5 137v152q0 18 12.5 29.5z" />
    <glyph glyph-name="uni067E" unicode="&#x67e;" horiz-adv-x="882" 
d="M78 454q13 11 30 11q39 0 43 -39v-143q0 -54 24 -101t68 -75.5t99 -28.5h230q55 0 98.5 27.5t68 74t24.5 100.5v135q0 50 43 50q17 0 30 -11t13 -28v-153q0 -75 -37.5 -137.5t-101.5 -99t-138 -36.5h-230q-74 0 -137.5 37t-101.5 99.5t-38 136.5v153q0 17 13 28zM416 -87
q-17 16 -41 16t-41.5 -16t-17.5 -40t17.5 -40.5t41.5 -16.5t41 16.5t17 40.5t-17 40zM526.5 -87q-17.5 -16 -17.5 -40t17.5 -40.5t41.5 -16.5t41 16.5t17 40.5t-17 40t-41 16t-41.5 -16zM431.5 -238q-16.5 -15 -16.5 -39t16.5 -39.5t40.5 -15.5t40.5 15.5t16.5 39.5
t-16.5 39t-40.5 15t-40.5 -15z" />
    <glyph glyph-name="uni0686" unicode="&#x686;" horiz-adv-x="779" 
d="M516 224.5q-39 69.5 -103 112.5t-141 43q-34 0 -61.5 -7.5t-57.5 -20.5q-26 -12 -37 -12q-17 0 -30.5 11.5t-11.5 28.5q8 27 43.5 45t79 26t75.5 8q114 0 200 -57t132 -153t46 -210q0 -18 -12.5 -29t-30.5 -11h-302q-43 0 -80 -22.5t-58 -60t-21 -80.5q0 -45 21 -82
t57.5 -58.5t82.5 -21.5q36 0 53.5 -6.5t17.5 -32.5q0 -41 -73 -41q-66 0 -122.5 32.5t-89.5 88t-33 121.5t33 121.5t89.5 88t122.5 32.5h255q-5 77 -44 146.5zM342 -91q13 12 31 12t30.5 -12t12.5 -30q0 -19 -12 -32t-31 -13t-31.5 13t-12.5 32q0 18 13 30zM560 -91
q13 -12 13 -30q0 -19 -13 -32t-31 -13t-31 13t-13 32q0 18 13 30t31 12t31 -12zM420.5 -213q-12.5 -12 -12.5 -30t12.5 -29.5t30.5 -11.5q19 0 31.5 11.5t12.5 29.5t-13 30t-31 12t-30.5 -12z" />
    <glyph glyph-name="uni0688" unicode="&#x688;" horiz-adv-x="552" 
d="M220 815q16 0 16 -15v-95q23 15 38.5 22t36.5 7h46q37 0 62 -25.5t25 -63.5q0 -35 -25 -61t-60 -26h-155v242q0 15 16 15zM395 606q16 16 16 39t-13.5 37t-36.5 17q-67 0 -96 -14.5t-29 -59.5v-35h121q22 0 38 16zM408 310.5q-20 35.5 -54 56.5t-76 21q-23 0 -65 -17
q-23 -9 -31 -9q-18 0 -30.5 11t-11.5 28q3 20 27.5 34.5t56 22t54.5 7.5q63 0 117 -31t86 -84t32 -116v-194q0 -17 -12.5 -28t-30.5 -11h-381q-18 0 -30 11t-12 28q0 18 12 28.5t30 10.5h339v155q0 41 -20 76.5z" />
    <glyph glyph-name="uni0691" unicode="&#x691;" horiz-adv-x="297" 
d="M149 815q7 0 11.5 -4t4.5 -11v-101q24 35 75 35h46q37 0 62 -25.5t25 -63.5q0 -35 -25 -61t-60 -26h-155v242q0 15 16 15zM324 606q16 16 16 39t-13.5 37t-36.5 17q-65 2 -95 -13t-30 -61v-35h121q22 0 38 16zM247.5 452q12.5 -11 12.5 -28v-439q0 -64 -32 -117.5
t-86 -84.5t-117 -31q-18 0 -30.5 11t-12.5 28t13 28.5t30 11.5q41 0 75 21t54 56.5t20 76.5v439q0 17 12.5 28t30.5 11t30.5 -11z" />
    <glyph glyph-name="uni0698" unicode="&#x698;" horiz-adv-x="368" 
d="M272 804.5q17 -15.5 17 -39.5q0 -23 -17 -38.5t-41 -15.5t-41 15t-17 39q0 23 17.5 39t40.5 16q24 0 41 -15.5zM176 645.5q17 -15.5 17 -39.5t-17 -39t-41 -15t-40.5 15t-16.5 39t16.5 39.5t40.5 15.5t41 -15.5zM284.5 645.5q16.5 15.5 40.5 15.5t41.5 -16t17.5 -39
t-17.5 -38.5t-41.5 -15.5t-40.5 15t-16.5 39t16.5 39.5zM247.5 452q12.5 -11 12.5 -28v-439q0 -64 -32 -117.5t-86 -84.5t-117 -31q-18 0 -30.5 11t-12.5 28t13 28.5t30 11.5q41 0 75 21t54 56.5t20 76.5v439q0 17 12.5 28t30.5 11t30.5 -11z" />
    <glyph glyph-name="uni06A4" unicode="&#x6a4;" horiz-adv-x="964" 
d="M755.5 804.5q16.5 -15.5 16.5 -39.5q0 -23 -17 -38.5t-40 -15.5q-24 0 -41 15t-17 39t17 39.5t41 15.5t40.5 -15.5zM659.5 645.5q16.5 -15.5 16.5 -39.5t-16.5 -39t-41.5 -15q-24 0 -40.5 15t-16.5 39t16.5 39.5t40.5 15.5q25 0 41.5 -15.5zM768 645.5q17 15.5 41 15.5
q23 0 40.5 -16t17.5 -39t-17.5 -38.5t-40.5 -15.5q-25 0 -41.5 15t-16.5 39t17 39.5zM72 458.5q13 10.5 30 10.5t30 -10.5t13 -27.5v-249q0 -41 29 -72.5t70 -31.5h290q-38 39 -57 74.5t-19 82.5q0 69 32 122t87.5 82.5t122.5 29.5q64 0 117.5 -32t85 -85.5t31.5 -116.5
t-32 -117t-86 -86t-117 -32l-455 -1q-49 0 -91.5 23t-68 63.5t-25.5 90.5v255q0 17 13 27.5zM565.5 158q20.5 -36 55.5 -58t76 -22t75.5 22t54.5 58t20 77t-20 77t-54.5 57.5t-75.5 21.5t-76 -21.5t-55.5 -57.5t-20.5 -77t20.5 -77z" />
    <glyph glyph-name="uni06A9" unicode="&#x6a9;" horiz-adv-x="595" 
d="M416 99q34 21 53.5 56t19.5 75q0 41 -19.5 76.5t-53.5 56.5t-75 21h-265q-17 0 -29.5 11t-12.5 28q0 6 3 13.5t7 11.5l265 274q13 13 32 13q17 0 29.5 -11t12.5 -28q-21 -38 -88 -107l-124 -128h170q63 0 116.5 -30.5t84.5 -83.5t31 -117q0 -62 -31 -114.5t-83.5 -84
t-113.5 -31.5h-356v78h352q41 0 75 21z" />
    <glyph glyph-name="uni06AF" unicode="&#x6af;" horiz-adv-x="603" 
d="M282 820l-229 -221v54l229 221v-54zM416 99q34 21 53.5 56t19.5 75q0 41 -19.5 76.5t-53.5 56.5t-75 21h-265q-17 0 -29.5 11t-12.5 28q0 6 3 13.5t7 11.5l265 274q13 13 32 13q17 0 29.5 -11t12.5 -28q-21 -38 -88 -107l-124 -128h170q63 0 116.5 -30.5t84.5 -83.5
t31 -117q0 -62 -31 -114.5t-83.5 -84t-113.5 -31.5h-367v78h363q41 0 75 21z" />
    <glyph glyph-name="uni06BA" unicode="&#x6ba;" horiz-adv-x="676" 
d="M71 291.5q13 11.5 30 11.5q13 0 24 -11t15 -30.5t4 -47.5l-1 -64q0 -48 12 -67q3 -45 28 -83.5t65 -61t87 -22.5t87 22t65 60.5t29 84.5q11 20 11 67l-1 61q0 30 4 50t16 31q9 11 24 11q17 0 30 -11.5t13 -28.5v-152q0 -75 -38 -138.5t-102 -100.5t-138 -37
q-75 0 -138.5 37t-101 100.5t-37.5 138.5v152q0 17 13 28.5z" />
    <glyph glyph-name="uni06BE" unicode="&#x6be;" horiz-adv-x="699" 
d="M88 121q-9 20 -9 45q0 46 24 83t63.5 58t84.5 21t80.5 -22t55.5 -57.5t20 -75.5q0 -47 -27 -90h46q37 0 67 25t46.5 63.5t16.5 76.5q0 42 -20.5 79t-55 59.5t-74.5 22.5h-297q-20 0 -31.5 12.5t-11.5 26.5q0 15 11 28t32 13h297q64 0 118.5 -33t86 -88.5t31.5 -119.5
q0 -60 -26 -117.5t-78.5 -94.5t-128.5 -37h-439v79h145q-18 23 -27 43zM310 95q28 27 28 68q0 39 -26 67.5t-63 28.5q-39 -1 -65 -29t-26 -65q0 -42 27 -69.5t63 -27.5q34 0 62 27z" />
    <glyph glyph-name="uni06C3" unicode="&#x6c3;" horiz-adv-x="538" 
d="M149.5 643.5q16.5 15.5 40.5 15.5t41 -15t17 -39q0 -23 -17.5 -38.5t-40.5 -15.5t-40 15.5t-17 38.5t16.5 38.5zM325.5 643.5q16.5 15.5 40.5 15.5t40.5 -15t16.5 -39q0 -23 -17 -38.5t-40 -15.5t-40 15.5t-17 38.5t16.5 38.5zM395 433q54 -31 86 -84t32 -116
q0 -64 -31.5 -117.5t-85.5 -84.5t-118 -31t-117.5 31t-85 84.5t-31.5 117.5t31.5 117t85.5 83.5t117 30.5t117 -31zM353.5 98.5q34.5 21.5 54.5 57.5t20 77t-19.5 77t-54 57t-76.5 21t-76 -21t-54 -56.5t-20 -77.5q0 -41 20 -77t54.5 -57.5t75.5 -21.5t75.5 21.5z" />
    <glyph glyph-name="uni06D5" unicode="&#x6d5;" horiz-adv-x="546" 
d="M391 432.5q54 -31.5 85.5 -85t31.5 -115.5q0 -63 -31.5 -116.5t-85 -84.5t-117.5 -31t-117.5 31t-85 84.5t-31.5 116.5t31.5 116.5t85.5 84.5t117 31t117 -31.5zM143.5 155q20.5 -36 55 -57t75.5 -21t75.5 21.5t54.5 57t20 76.5t-20 76.5t-54.5 56.5t-75.5 21t-76 -21
t-55 -56.5t-20 -76.5t20.5 -77z" />
    <glyph glyph-name="uni06F0" unicode="&#x6f0;" horiz-adv-x="223" 
d="M151 411.5q16 -16.5 16 -39.5t-16 -39.5t-39 -16.5q-24 0 -40 16t-16 40q0 23 16 39.5t40 16.5q23 0 39 -16.5z" />
    <glyph glyph-name="uni06F1" unicode="&#x6f1;" horiz-adv-x="193" 
d="M80 691q12 11 30 11q17 0 29.5 -11t12.5 -28v-625q0 -17 -12.5 -27.5t-29.5 -10.5q-18 0 -30 10.5t-12 27.5v625q0 17 12 28z" />
    <glyph glyph-name="uni06F2" unicode="&#x6f2;" horiz-adv-x="479" 
d="M436 691.5q12 -10.5 12 -27.5t-12 -27.5t-30 -10.5h-183q-36 0 -62 -28.5t-26 -64.5v-494q0 -17 -12 -28t-29 -11q-18 0 -30 11t-12 28v494q0 46 23.5 85t62.5 61.5t85 22.5h183q18 0 30 -10.5z" />
    <glyph glyph-name="uni06F3" unicode="&#x6f3;" horiz-adv-x="648" 
d="M146 665l1 -166q1 -31 18.5 -50.5t46.5 -19.5t47 20t18 50l1 162q2 42 42 42q37 0 42 -38v-166q0 -30 18 -50t46 -20t46 20t19 50v166q4 38 41 38q18 0 30.5 -11t12.5 -28v-184q0 -41 -25 -70t-63 -43.5t-78 -14.5q-24 0 -39 7.5t-29 18t-21 15.5q-23 -20 -45 -30
t-50 -10q-21 0 -36.5 6t-41.5 20v-339q0 -17 -12.5 -28t-29.5 -11q-18 0 -30 11t-12 28v624q0 18 12 28.5t30 10.5q39 0 41 -38z" />
    <glyph glyph-name="uni06F4" unicode="&#x6f4;" horiz-adv-x="472" 
d="M77 281.5q22 36.5 65 69.5q-42 31 -64.5 69t-22.5 87q0 53 27 98t72.5 71t98.5 26h148q18 0 30.5 -11t12.5 -28q0 -20 -14.5 -29t-36.5 -9l-130 1q-53 0 -88.5 -33t-35.5 -86q0 -52 36 -85t88 -33l129 1q22 0 37 -9t15 -30q0 -19 -15.5 -29t-35.5 -10l-129 1
q-53 0 -89 -32.5t-36 -85.5q0 -52 36 -85.5t89 -33.5l129 2q21 0 36 -9.5t15 -29.5q0 -17 -13 -28t-30 -11h-148q-54 0 -99.5 26t-72 70.5t-26.5 98.5q0 50 22 86.5z" />
    <glyph glyph-name="uni06F5" unicode="&#x6f5;" horiz-adv-x="488" 
d="M77 460q18 75 61.5 128t116.5 53q74 0 117.5 -55t60 -132.5t16.5 -155.5q0 -52 -26.5 -96t-71 -69.5t-96.5 -25.5q-58 0 -102.5 27t-69 74t-24.5 104q0 73 18 148zM334.5 217q32.5 35 32.5 81q0 50 -9.5 112t-35 109t-67.5 47q-41 0 -66.5 -46t-35.5 -106t-11 -108
q0 -51 31.5 -87.5t81.5 -36.5q47 0 79.5 35z" />
    <glyph glyph-name="uni06F6" unicode="&#x6f6;" horiz-adv-x="498" 
d="M365.5 680q39.5 -22 63 -60.5t23.5 -85.5v-495q0 -18 -12 -28.5t-30 -10.5q-17 0 -29.5 11t-12.5 28v495q0 37 -25.5 64t-62.5 27h-183q-17 0 -29 11t-12 28q0 16 12.5 27t28.5 11h183q46 0 85.5 -22z" />
    <glyph glyph-name="uni06F7" unicode="&#x6f7;" horiz-adv-x="606" 
d="M130 696q11 -7 15 -19l171 -511l170 511q4 12 15 19t24 7q17 0 30 -10.5t13 -27.5q0 -12 -107 -333l-14 -43l-43 -129t-47 -132q-10 -26 -42 -26q-14 0 -25.5 7t-16.5 19q-8 16 -35 97t-49 152l-17 51q-24 67 -66.5 195.5t-42.5 140.5q0 17 12.5 28t30.5 11q13 0 24 -7z
" />
    <glyph glyph-name="uni06F8" unicode="&#x6f8;" horiz-adv-x="614" 
d="M511 10.5q-11 7.5 -15 19.5l-170 510l-170 -510q-4 -13 -15 -20t-25 -7q-17 0 -30 10.5t-13 27.5q0 10 93 292l14 42l19 56q72 215 85 247q12 26 42 26q14 0 25.5 -7t16.5 -19q9 -20 71 -207l31 -93q17 -46 62.5 -185t45.5 -151q0 -17 -12.5 -28t-30.5 -11q-13 0 -24 7.5
z" />
    <glyph glyph-name="uni06F9" unicode="&#x6f9;" horiz-adv-x="466" 
d="M342 677.5q45 -26.5 72 -71.5t27 -98v-468q0 -17 -12.5 -27.5t-29.5 -10.5t-29 10.5t-12 27.5v326q-28 -26 -54.5 -39.5t-59.5 -13.5q-53 0 -99 26t-73 71t-27 98t27 98t73 71.5t99 26.5t98 -26.5zM325 424q33 35 33 84q0 48 -33 83.5t-81 35.5q-49 0 -82 -35t-33 -84
t33 -84t82 -35q48 0 81 35z" />
    <glyph glyph-name="uni2002" unicode="&#x2002;" horiz-adv-x="500" 
 />
    <glyph glyph-name="uni2003" unicode="&#x2003;" horiz-adv-x="1000" 
 />
    <glyph glyph-name="uni2004" unicode="&#x2004;" horiz-adv-x="333" 
 />
    <glyph glyph-name="uni2005" unicode="&#x2005;" horiz-adv-x="250" 
 />
    <glyph glyph-name="uni2007" unicode="&#x2007;" horiz-adv-x="600" 
 />
    <glyph glyph-name="uni2009" unicode="&#x2009;" horiz-adv-x="133" 
 />
    <glyph glyph-name="uni200A" unicode="&#x200a;" horiz-adv-x="75" 
 />
    <glyph glyph-name="endash" unicode="&#x2013;" horiz-adv-x="534" 
d="M68.5 330q9.5 10 26.5 10h344q17 0 27 -10t10 -27t-10 -27t-27 -10h-344q-17 0 -26.5 10t-9.5 27t9.5 27z" />
    <glyph glyph-name="emdash" unicode="&#x2014;" horiz-adv-x="896" 
d="M68.5 330q9.5 10 26.5 10h705q17 0 27 -10t10 -27t-10 -27t-27 -10h-705q-17 0 -26.5 10t-9.5 27t9.5 27z" />
    <glyph glyph-name="quoteleft" unicode="&#x2018;" horiz-adv-x="209" 
d="M112 695q21 3 24 3q11 0 16 -7.5t3 -19.5q-3 -10 -10 -18t-8 -9q-12 -12 -18.5 -23t-6.5 -30h13q12 0 19 -4t7 -16v-38q0 -48 -55 -48q-19 0 -30 11t-11 30v47q0 99 57 122z" />
    <glyph glyph-name="quoteright" unicode="&#x2019;" horiz-adv-x="209" 
d="M84 594q-12 0 -19 4.5t-7 16.5v37q0 48 55 48q19 0 30 -11t11 -30v-47q0 -46 -21.5 -87t-62.5 -41q-10 0 -15.5 6t-6.5 16q6 14 23 29q14 12 20.5 24t6.5 35h-14z" />
    <glyph glyph-name="quotesinglbase" unicode="&#x201a;" horiz-adv-x="209" 
d="M51 -76.5q4 4.5 12 8.5q15 9 24 23t9 45h-13q-13 0 -19.5 4t-6.5 16v38q0 48 55 48q19 0 30 -11t11 -30v-48q0 -48 -20.5 -85.5t-63.5 -42.5q-22 2 -23 22q1 8 5 12.5z" />
    <glyph glyph-name="quotedblleft" unicode="&#x201c;" horiz-adv-x="364" 
d="M112 695q18 3 23 3q7 0 9 -1q13 -6 10 -26q-3 -11 -18 -26q-12 -13 -18 -24t-6 -30h15q11 0 17.5 -4t6.5 -16v-38q0 -48 -55 -48q-19 0 -30 11t-11 30v47q0 98 57 122zM310 671q-4 -10 -10.5 -17.5t-7.5 -8.5q-13 -14 -19 -24.5t-6 -29.5h16q23 0 23 -20v-38
q0 -26 -14 -37t-40 -11q-19 0 -30 11t-11 30v47q0 86 38 107q10 8 24.5 13.5t25.5 3.5q13 -6 11 -26z" />
    <glyph glyph-name="quotedblright" unicode="&#x201d;" horiz-adv-x="364" 
d="M81 594q-23 0 -23 20v38q0 48 54 48q19 0 30 -11t11 -30v-47q0 -46 -21 -87t-62 -41q-10 0 -15.5 6t-6.5 16q5 12 13 19.5t10 9.5q13 12 19.5 24t6.5 35h-16zM237 594q-23 0 -23 20v38q0 26 14 37t40 11q19 0 30 -11t11 -30v-47q0 -46 -20.5 -87t-62.5 -41q-9 0 -15 6
t-7 16q7 17 23 29q13 12 19.5 24t6.5 35h-16z" />
    <glyph glyph-name="quotedblbase" unicode="&#x201e;" horiz-adv-x="364" 
d="M80 0q-11 0 -17 4t-6 16v38q0 26 14 37t40 11q19 0 30 -11t11 -30v-48q0 -48 -20 -85.5t-63 -42.5q-22 2 -23 22q1 8 5 12.5t12 8.5q15 9 24 23t9 45h-16zM206.5 -78q3.5 4 12.5 10q15 10 23.5 23t8.5 45h-15q-12 0 -18 4t-6 16v38q0 48 55 48q19 0 30 -11t11 -30v-48
q0 -48 -20.5 -85.5t-62.5 -42.5q-22 2 -23 22q1 7 4.5 11z" />
    <glyph glyph-name="dagger" unicode="&#x2020;" horiz-adv-x="396" 
d="M177 596q-4 58 -4 80q0 12 6.5 18t18.5 6t19 -6.5t7 -18.5q-3 -72 -7 -120l99 6q26 0 26 -24q0 -23 -26 -23l-99 5q5 -137 7 -262q0 -11 -7 -18t-18 -7q-12 0 -19 6.5t-7 18.5q2 125 7 262l-99 -5q-26 0 -26 23q0 24 26 24l98 -6z" />
    <glyph glyph-name="daggerdbl" unicode="&#x2021;" horiz-adv-x="404" 
d="M176 676q0 12 7 18t19 6t19 -6.5t7 -18.5q-3 -72 -7 -120l99 6q26 0 26 -24q0 -23 -26 -23l-100 5q8 -112 8 -169t-8 -169l100 6q26 0 26 -24q0 -23 -26 -23l-99 5q4 -48 7 -120q0 -12 -7 -18.5t-19 -6.5t-19 6.5t-7 18.5q3 65 7 120l-98 -5q-26 0 -26 23q0 24 26 24
l99 -6q-8 112 -8 169t8 169l-99 -5q-26 0 -26 23q0 24 26 24l98 -6q-4 54 -7 121z" />
    <glyph glyph-name="bullet" unicode="&#x2022;" horiz-adv-x="456" 
d="M117 417q18 30 48 47.5t64 17.5t64 -17.5t47.5 -47.5t17.5 -64t-17.5 -64t-47.5 -47.5t-64 -17.5t-64 17.5t-48 47.5t-18 64t18 64z" />
    <glyph glyph-name="ellipsis" unicode="&#x2026;" horiz-adv-x="618" 
d="M139 84q12 -12 12 -35t-12 -36t-35 -13q-22 0 -34.5 12.5t-12.5 34.5q0 23 12 36t35 13t35 -12zM344 84q12 -12 12 -35t-12 -36t-35 -13t-35 13t-12 36t12.5 35t34.5 12q23 0 35 -12zM549 84q12 -12 12 -35t-12 -36t-35 -13q-22 0 -34.5 12.5t-12.5 34.5q0 23 12 36
t35 13t35 -12z" />
    <glyph glyph-name="guilsinglleft" unicode="&#x2039;" horiz-adv-x="316" 
d="M222 390.5q-16 -20.5 -33 -43.5q-59 -75 -68 -87l12 -16q94 -115 116 -148q6 -9 6 -17q0 -12 -9 -19t-22 -7q-17 0 -28 12q-113 131 -138 162q-12 15 -12 33q0 20 12 33q109 130 138 161q10 14 29 14q13 0 22 -6.5t9 -17.5q0 -9 -7 -19q-11 -14 -27 -34.5z" />
    <glyph glyph-name="guilsinglright" unicode="&#x203a;" horiz-adv-x="314" 
d="M56 444q0 11 9 17.5t22 6.5q19 0 29 -14q29 -31 138 -161q12 -13 12 -33q0 -18 -12 -33q-26 -31 -138 -162q-10 -12 -28 -12q-13 0 -22 7t-9 19q0 8 6 17q15 21 57 74.5t71 89.5q-9 12 -68 87q-17 23 -33 43.5t-27 34.5q-7 10 -7 19z" />
    <glyph glyph-name="Euro" unicode="&#x20ac;" horiz-adv-x="706" 
d="M67 462h69q16 71 55 127.5t97.5 90t130.5 33.5q66 0 127.5 -27.5t86.5 -80.5q2 -10 2 -18q0 -17 -7 -29.5t-24 -13.5q-7 1 -16 9t-17 17q-31 31 -63.5 49.5t-88.5 18.5q-74 0 -125 -50.5t-72 -126.5h228q25 0 25 -25q0 -12 -6.5 -19t-18.5 -7h-239q-5 -33 -5 -64
q0 -25 3 -48h241q25 0 25 -25q0 -12 -6.5 -19t-18.5 -7h-231q20 -82 73 -133.5t134 -51.5q52 0 84 20t65 54q12 14 19 20t14 6q15 0 27 -12.5t13 -27.5q-3 -31 -62 -67q-70 -68 -163 -68q-114 0 -190 72t-100 187l-69 1q-11 1 -15 7.5t-4 24.5q0 17 18 19h63q-2 32 -2 49
q0 36 4 64h-64q-12 1 -15.5 6.5t-3.5 22.5q0 20 22 22z" />
    <glyph glyph-name="uni2117" unicode="&#x2117;" horiz-adv-x="830" 
d="M102 531.5q49 83.5 132 132.5t181 49t181.5 -49t132 -132.5t48.5 -181.5t-49 -181.5t-132 -132.5t-181 -49t-181.5 49t-132 132.5t-48.5 181.5t49 181.5zM584 58.5q77 45.5 121.5 123t44.5 169.5t-44.5 169t-121.5 122t-169 45t-169 -45.5t-121.5 -123t-44.5 -169.5
t44.5 -169t121.5 -122t169 -45t169 45.5zM545 508q42 -30 42 -91q0 -62 -42 -89t-110 -32q-26 -3 -75 -3q-2 -6 -6 -40t-6 -41q0 -23 -4 -35t-22 -12q-12 0 -19 7t-7 19v293q0 26 14 40t39 14h91q63 0 105 -30zM506 355q29 19 29 60q0 40 -28.5 59t-70.5 19h-88v-157h86
q43 0 72 19z" />
    <glyph glyph-name="minus" unicode="&#x2212;" horiz-adv-x="615" 
d="M539 379q10 -10 10 -27t-10 -27t-27 -10h-409q-17 0 -27 10t-10 27t10 27t27 10h409q17 0 27 -10z" />
    <glyph glyph-name="uni2219" unicode="&#x2219;" horiz-adv-x="222" 
d="M84 321.5q13 13.5 32 13.5q21 0 33.5 -13.5t12.5 -34.5q0 -19 -13.5 -32.5t-32.5 -13.5q-20 0 -32.5 14t-12.5 34q0 19 13 32.5z" />
    <glyph glyph-name="notequal" unicode="&#x2260;" horiz-adv-x="544" 
d="M53.5 406.5q6.5 6.5 16.5 6.5h222l52 132q3 7 9 10.5t13 3.5q11 0 18 -8t5 -21l-45 -117h135q10 0 16.5 -6.5t6.5 -16.5t-6.5 -17t-16.5 -7h-155l-52 -138h207q10 0 16.5 -6.5t6.5 -16.5t-6.5 -17t-16.5 -7h-225l-54 -139q-6 -12 -21 -12q-9 0 -16.5 6t-7.5 17
q0 13 23.5 68.5t25.5 59.5l-134 1q-10 0 -16.5 6.5t-6.5 16.5t6.5 16.5t16.5 6.5h152l52 138h-204q-10 0 -16.5 7t-6.5 17t6.5 16.5z" />
    <glyph glyph-name="Q.alt" horiz-adv-x="838" 
d="M603 665q82 -48 128.5 -131t46.5 -184q0 -82 -32 -154t-94 -124l100 -96q12 -15 12 -29q0 -17 -12.5 -29.5t-29.5 -12.5q-15 0 -30 12l-115 110q-71 -39 -158 -39q-102 0 -184 48t-128.5 131t-46.5 184t47 183.5t129.5 130.5t183.5 48t183 -48zM183.5 208.5
q35.5 -65.5 97.5 -104t139 -38.5q78 0 139.5 38.5t96 103.5t34.5 142t-35 142.5t-97.5 104t-139.5 38.5q-78 0 -139.5 -38.5t-96 -103.5t-34.5 -143q0 -76 35.5 -141.5z" />
    <glyph glyph-name="a.alt" horiz-adv-x="663" 
d="M80.5 394q32.5 62 88.5 97.5t125 35.5q72 0 129.5 -36.5t78.5 -96.5l1 92q4 14 15 21.5t24 7.5q17 0 30 -12t13 -31v-429q0 -19 -11 -31t-31 -12q-17 0 -29 9.5t-12 24.5v94q-25 -64 -81 -102.5t-127 -38.5q-69 0 -125 35t-88.5 96.5t-32.5 137.5t32.5 138zM411.5 86
q42.5 27 66.5 72.5t24 99.5t-24 99t-66.5 71.5t-95.5 26.5t-95 -26t-65.5 -71.5t-23.5 -100.5t23.5 -100t65.5 -71.5t95 -26.5t95.5 27z" />
    <glyph glyph-name="three.alt" horiz-adv-x="582" 
d="M499.5 303q43.5 -41 43.5 -110q0 -64 -35.5 -111t-92.5 -71t-120 -24q-65 0 -121 21t-113 75q-20 14 -20 33q0 10 6 20q12 17 31 17q10 0 22 -7q47 -43 89 -64t102 -21q42 0 80.5 15.5t62.5 46.5t24 74q0 66 -50.5 94.5t-128.5 28.5h-56q-13 0 -23.5 10.5t-10.5 23.5
q0 14 10 24t24 10h53q70 0 117.5 31.5t47.5 94.5q0 39 -23.5 67.5t-60 43t-74.5 14.5q-50 0 -82.5 -16.5t-64.5 -44.5q-23 -21 -36 -26q-20 -4 -37 14q-8 9 -8 20q0 18 20 32q92 95 215 95q57 0 111.5 -21t89 -62.5t34.5 -100.5q0 -65 -38.5 -110t-101.5 -60
q71 -15 114.5 -56z" />
    <glyph glyph-name="zero.basic" horiz-adv-x="237" 
d="M70.5 419q20.5 19 50.5 19q29 0 50 -19t21 -48q0 -30 -21 -49t-50 -19q-30 0 -50.5 19t-20.5 49q0 29 20.5 48z" />
    <glyph glyph-name="one.basic" horiz-adv-x="217" 
d="M80 691q12 11 30 11q17 0 29.5 -11t12.5 -28v-625q0 -17 -12.5 -27.5t-29.5 -10.5q-18 0 -30 10.5t-12 27.5v625q0 17 12 28z" />
    <glyph glyph-name="two.basic" horiz-adv-x="501" 
d="M436 691.5q12 -10.5 12 -27.5t-12 -27.5t-30 -10.5h-183q-36 0 -62 -28.5t-26 -64.5v-494q0 -17 -12 -28t-29 -11q-18 0 -30 11t-12 28v494q0 46 23.5 85t62.5 61.5t85 22.5h183q18 0 30 -10.5z" />
    <glyph glyph-name="three.basic" horiz-adv-x="637" 
d="M75 692.5q12 10.5 30 10.5q39 0 41 -38l1 -166q1 -31 18.5 -50.5t46.5 -19.5t47 20t18 50l1 162q2 42 42 42q37 0 42 -38v-166q0 -30 18 -50t46 -20t46 20t19 50v166q4 38 41 38q18 0 30.5 -11t12.5 -28v-184q0 -38 -20.5 -68t-54 -46.5t-70.5 -16.5q-34 0 -54 9.5
t-56 34.5q-26 -22 -45 -32t-50 -10q-18 0 -32.5 5.5t-27.5 12.5t-18 10v-339q0 -17 -12.5 -28t-29.5 -11q-18 0 -30 11t-12 28v624q0 18 12 28.5z" />
    <glyph glyph-name="four.basic" horiz-adv-x="494" 
d="M77 281.5q22 36.5 65 69.5q-42 31 -64.5 69t-22.5 87q0 53 27 98t72.5 71t98.5 26h148q18 0 30.5 -11t12.5 -28q0 -20 -14.5 -29t-36.5 -9l-130 1q-53 0 -88.5 -33t-35.5 -86q0 -52 36 -85t88 -33l129 1q22 0 37 -9t15 -30q0 -19 -15.5 -29t-35.5 -10l-129 1
q-53 0 -89 -32.5t-36 -85.5q0 -52 36 -85.5t89 -33.5l129 2q21 0 36 -9.5t15 -29.5q0 -17 -13 -28t-30 -11h-148q-54 0 -99.5 26t-72 70.5t-26.5 98.5q0 50 22 86.5z" />
    <glyph glyph-name="five.basic" horiz-adv-x="509" 
d="M77 460q18 75 61.5 128t116.5 53q74 0 117.5 -55t60 -132.5t16.5 -155.5q0 -52 -26.5 -96t-71 -69.5t-96.5 -25.5q-58 0 -102.5 27t-69 74t-24.5 104q0 73 18 148zM334.5 217q32.5 35 32.5 81q0 50 -9.5 112t-35 109t-67.5 47q-41 0 -66.5 -46t-35.5 -106t-11 -108
q0 -51 31.5 -87.5t81.5 -36.5q47 0 79.5 35z" />
    <glyph glyph-name="six.basic" horiz-adv-x="519" 
d="M365.5 680q39.5 -22 63 -60.5t23.5 -85.5v-495q0 -18 -12 -28.5t-30 -10.5q-17 0 -29.5 11t-12.5 28v495q0 37 -25.5 64t-62.5 27h-183q-17 0 -29 11t-12 28q0 16 12.5 27t28.5 11h183q46 0 85.5 -22z" />
    <glyph glyph-name="seven.basic" horiz-adv-x="626" 
d="M130 696q11 -7 15 -19l171 -511l170 511q4 12 15 19t24 7q17 0 30 -10.5t13 -27.5q0 -12 -107 -333l-14 -43l-43 -129t-47 -132q-10 -26 -42 -26q-14 0 -25.5 7t-16.5 19q-8 16 -35 97t-49 152l-17 51q-24 67 -66.5 195.5t-42.5 140.5q0 17 12.5 28t30.5 11q13 0 24 -7z
" />
    <glyph glyph-name="eight.basic" horiz-adv-x="633" 
d="M351.5 697q11.5 -7 16.5 -19q7 -15 105 -309.5t104 -317.5q1 -3 1 -10q0 -16 -12.5 -27t-30.5 -11q-13 0 -24 7t-15 20l-170 510l-170 -510q-4 -13 -15.5 -20t-24.5 -7q-18 0 -30.5 10.5t-12.5 25.5q0 3 2 11q7 26 102.5 313.5t106.5 314.5q12 26 42 26q14 0 25.5 -7z
" />
    <glyph glyph-name="nine.basic" horiz-adv-x="489" 
d="M342 677.5q45 -26.5 72 -71.5t27 -98v-468q0 -17 -12.5 -27.5t-29.5 -10.5t-29 10.5t-12 27.5v326q-28 -26 -54.5 -39.5t-59.5 -13.5q-53 0 -99 26t-73 71t-27 98t27 98t73 71.5t99 26.5t98 -26.5zM325 424q33 35 33 84q0 48 -33 83.5t-81 35.5q-49 0 -82 -35t-33 -84
t33 -84t82 -35q48 0 81 35z" />
    <glyph glyph-name="zero.onum" horiz-adv-x="247" 
d="M76 419q20 18 48 18q27 0 47 -18.5t20 -45.5q0 -28 -19.5 -45.5t-47.5 -17.5t-48 17.5t-20 45.5t20 46z" />
    <glyph glyph-name="one.onum" horiz-adv-x="217" 
d="M80 691q12 11 30 11q17 0 29.5 -11t12.5 -28v-625q0 -17 -12.5 -27.5t-29.5 -10.5q-18 0 -30 10.5t-12 27.5v625q0 17 12 28z" />
    <glyph glyph-name="two.onum" horiz-adv-x="501" 
d="M436 691.5q12 -10.5 12 -27.5t-12 -27.5t-30 -10.5h-183q-36 0 -62 -28.5t-26 -64.5v-494q0 -17 -12 -28t-29 -11q-18 0 -30 11t-12 28v494q0 46 23.5 85t62.5 61.5t85 22.5h183q18 0 30 -10.5z" />
    <glyph glyph-name="three.onum" horiz-adv-x="634" 
d="M146 665l1 -166q1 -31 18.5 -50.5t46.5 -19.5t47 20t18 50l1 162q2 42 42 42q37 0 42 -38v-166q0 -30 18 -50t46 -20t46 20t19 50v166q4 38 41 38q18 0 30.5 -11t12.5 -28v-184q0 -35 -21 -64.5t-56 -47t-75 -17.5q-30 0 -51 10t-52 32q-23 -20 -45 -30t-50 -10
q-21 0 -36.5 6t-41.5 20v-339q0 -17 -12.5 -28t-29.5 -11q-18 0 -30 11t-12 28v624q0 18 12 28.5t30 10.5q39 0 41 -38z" />
    <glyph glyph-name="four.onum" horiz-adv-x="494" 
d="M77.5 420q-22.5 38 -22.5 87q0 53 27 98t72.5 71t98.5 26h148q18 0 30.5 -11t12.5 -28q0 -20 -14.5 -29t-36.5 -9l-130 1q-53 0 -88.5 -33t-35.5 -86q0 -52 36 -85t88 -33l129 1q22 0 37 -9t15 -30q0 -19 -15.5 -29t-35.5 -10l-129 1q-53 0 -89 -32.5t-36 -85.5
q0 -52 36 -85.5t89 -33.5l129 2q21 0 36 -9.5t15 -29.5q0 -17 -13 -28t-30 -11h-148q-54 0 -99.5 26t-72 70.5t-26.5 98.5q0 50 22 86.5t65 69.5q-42 31 -64.5 69z" />
    <glyph glyph-name="five.onum" horiz-adv-x="509" 
d="M77 460q18 75 61.5 128t116.5 53q74 0 117.5 -55t60 -132.5t16.5 -155.5q0 -52 -26.5 -96t-71 -69.5t-96.5 -25.5q-58 0 -102.5 27t-69 74t-24.5 104q0 73 18 148zM334.5 217q32.5 35 32.5 81q0 50 -9.5 112t-35 109t-67.5 47q-41 0 -66.5 -46t-35.5 -106t-11 -108
q0 -51 31.5 -87.5t81.5 -36.5q47 0 79.5 35z" />
    <glyph glyph-name="six.onum" horiz-adv-x="519" 
d="M365.5 680q39.5 -22 63 -60.5t23.5 -85.5v-495q0 -18 -12 -28.5t-30 -10.5q-17 0 -29.5 11t-12.5 28v495q0 37 -25.5 64t-62.5 27h-183q-17 0 -29 11t-12 28q0 16 12.5 27t28.5 11h183q46 0 85.5 -22z" />
    <glyph glyph-name="seven.onum" horiz-adv-x="626" 
d="M130 696q11 -7 15 -19l171 -511l170 511q4 12 15 19t24 7q17 0 30 -10.5t13 -27.5q0 -12 -107 -333l-14 -43l-43 -129t-47 -132q-10 -26 -42 -26q-14 0 -25.5 7t-16.5 19q-8 16 -35 97t-49 152l-17 51q-24 67 -66.5 195.5t-42.5 140.5q0 17 12.5 28t30.5 11q13 0 24 -7z
" />
    <glyph glyph-name="eight.onum" horiz-adv-x="633" 
d="M351.5 697q11.5 -7 16.5 -19q7 -15 105 -309.5t104 -317.5q1 -3 1 -10q0 -16 -12.5 -27t-30.5 -11q-13 0 -24 7t-15 20l-170 510l-170 -510q-4 -13 -15.5 -20t-24.5 -7q-18 0 -30.5 10.5t-12.5 25.5q0 3 2 11q7 26 102.5 313.5t106.5 314.5q12 26 42 26q14 0 25.5 -7z
" />
    <glyph glyph-name="nine.onum" horiz-adv-x="489" 
d="M342 677.5q45 -26.5 72 -71.5t27 -98v-468q0 -17 -12.5 -27.5t-29.5 -10.5t-29 10.5t-12 27.5v326q-28 -26 -54.5 -39.5t-59.5 -13.5q-53 0 -99 26t-73 71t-27 98t27 98t73 71.5t99 26.5t98 -26.5zM325 424q33 35 33 84q0 48 -33 83.5t-81 35.5q-49 0 -82 -35t-33 -84
t33 -84t82 -35q48 0 81 35z" />
    <glyph glyph-name="period.tab" horiz-adv-x="300" 
d="M113 89q13 14 38 14q24 0 37 -14t13 -39q0 -24 -13.5 -37t-37.5 -13q-23 0 -36.5 13.5t-13.5 36.5q0 25 13 39z" />
    <glyph glyph-name="comma.tab" horiz-adv-x="300" 
d="M103 -67.5q9 7.5 10 8.5q15 12 22 24t7 36l-14 -1q-13 0 -20.5 4.5t-7.5 17.5v38q0 50 58 50q19 0 30.5 -11.5t11.5 -31.5v-49q0 -49 -22.5 -86t-67.5 -42q-10 0 -16.5 6.5t-4.5 16.5q5 12 14 19.5z" />
    <glyph glyph-name="colon.tab" horiz-adv-x="300" 
d="M200 457q0 -24 -13 -37t-37 -13q-23 0 -36.5 13.5t-13.5 36.5q0 53 51 53q49 0 49 -53zM188 89q12 -14 12 -39q0 -24 -13 -37t-37 -13q-23 0 -36.5 13.5t-13.5 36.5q0 53 51 53q25 0 37 -14z" />
    <glyph glyph-name="semicolon.tab" horiz-adv-x="300" 
d="M187.5 494.5q12.5 -13.5 12.5 -37.5t-13 -37t-37 -13q-23 0 -36.5 13.5t-13.5 36.5q0 25 13 38t38 13q24 0 36.5 -13.5zM113 -59q15 12 22 24t7 35h-14q-13 0 -20 4t-7 17v38q0 49 57 49q19 0 30.5 -11.5t11.5 -30.5v-49q0 -48 -22.5 -85t-67.5 -43q-10 1 -16.5 7
t-4.5 16q6 13 24 29z" />
    <glyph glyph-name="periodcentered.tab" horiz-adv-x="300" 
d="M113.5 340q13.5 13 37.5 13q23 0 36.5 -13.5t13.5 -36.5q0 -26 -12.5 -40t-38.5 -14q-25 0 -37.5 14.5t-12.5 39.5q0 24 13.5 37z" />
    <glyph glyph-name="twodotenleader.tab" horiz-adv-x="600" 
d="M115.5 82q12.5 12 35.5 12q21 0 33.5 -12.5t12.5 -33.5q0 -23 -12.5 -35.5t-35.5 -12.5q-21 0 -33.5 12.5t-12.5 34.5q0 23 12.5 35zM416 82q13 12 35 12t34 -12.5t12 -34.5t-12.5 -34.5t-35.5 -12.5q-22 0 -34 13t-12 35t13 34z" />
    <glyph glyph-name="space.tab" horiz-adv-x="300" 
 />
    <glyph glyph-name="CR.1.1.1" horiz-adv-x="250" 
 />
    <glyph glyph-name="CR.1.1" horiz-adv-x="250" 
 />
    <glyph glyph-name="CR.1" horiz-adv-x="250" 
 />
    <glyph glyph-name="caron.alt" horiz-adv-x="500" 
d="M219 652q3 28 4 36l4 36q2 15 11 23.5t24 8.5q11 0 18 -5.5t7 -16.5q0 -13 -12.5 -63.5t-19.5 -70.5q-5 -17 -22 -17q-8 0 -12.5 4.5t-4.5 11.5q0 25 3 53z" />
    <glyph glyph-name="dieresis.cap" horiz-adv-x="500" 
d="M129.5 831q7.5 10 18.5 11q1 5 8 8.5t14 3.5q17 0 27.5 -10.5t10.5 -27.5q0 -13 -7.5 -23t-18.5 -11q-1 -5 -8 -8t-14 -3q-17 0 -27.5 10t-10.5 27q0 13 7.5 23zM299.5 831q7.5 10 18.5 11q1 5 8 8.5t14 3.5q17 0 27.5 -10.5t10.5 -27.5q0 -13 -7 -23t-19 -11
q-1 -5 -7.5 -8t-14.5 -3q-17 0 -27.5 10t-10.5 27q0 13 7.5 23z" />
    <glyph glyph-name="dotaccent.cap" horiz-adv-x="500" 
d="M213.5 831q7.5 10 18.5 11q1 5 8.5 8.5t15.5 3.5q17 0 27.5 -10.5t10.5 -27.5q0 -13 -7.5 -23t-18.5 -11q-1 -5 -8.5 -8t-15.5 -3q-17 0 -27.5 10t-10.5 27q0 13 7.5 23z" />
    <glyph glyph-name="ring.cap" horiz-adv-x="500" 
d="M168.5 934.5q34.5 28.5 81.5 28.5t81.5 -28.5t34.5 -73.5q0 -46 -34.5 -74.5t-81.5 -28.5t-81.5 28.5t-34.5 74.5q0 45 34.5 73.5zM195 810q23 -19 55 -19q33 0 55.5 19t22.5 51q0 31 -23 50t-55 19t-55 -19t-23 -50q0 -32 23 -51z" />
    <glyph glyph-name="macron.cap" horiz-adv-x="500" 
d="M97.5 826.5q7.5 7.5 21.5 7.5h263q13 0 20.5 -7.5t7.5 -20.5q0 -28 -28 -28h-263q-14 0 -21.5 7.5t-7.5 20.5t7.5 20.5z" />
    <glyph glyph-name="dotabovear" 
 />
    <glyph glyph-name="dotbelowar" 
 />
    <glyph glyph-name="dotcenterar" 
 />
    <glyph glyph-name="twodotsverticalabovear" 
 />
    <glyph glyph-name="twodotsverticalbelowar" 
 />
    <glyph glyph-name="twodotshorizontalabovear" 
 />
    <glyph glyph-name="twodotshorizontalbelowar" 
 />
    <glyph glyph-name="threedotsdownabovear" 
 />
    <glyph glyph-name="threedotsdownbelowar" 
 />
    <glyph glyph-name="threedotsupabovear" 
 />
    <glyph glyph-name="threedotsupbelowar" 
 />
    <glyph glyph-name="miniKehehar" 
 />
    <glyph glyph-name="gafsarkashabovear" 
 />
    <glyph glyph-name="gafsarkashcenterar" 
 />
    <glyph glyph-name="doublestrokear" 
 />
    <glyph glyph-name="uni0651064B" 
d="M79.5 279.5q4.5 -5.5 4.5 -13.5q0 -14 -13 -18q-165 -26 -178 -27q-8 0 -12.5 5.5t-4.5 12.5q0 6 4 11.5t11 6.5l176 28q8 0 12.5 -5.5zM93 207q5 -6 5 -13q0 -15 -14 -18l-177 -27q-8 0 -13 5.5t-5 12.5q0 6 4 11.5t11 7.5l176 27q8 0 13 -6zM-62 74q2 -20 7.5 -30.5
t20.5 -10.5q12 0 20.5 8t8.5 20q0 1 -3 22q-4 16 -4 24q0 7 5 11.5t13 4.5q5 0 9.5 -4t6.5 -12q2 -6 4 -20q2 -20 7 -30t21 -10q11 0 20 7.5t9 19.5q0 6 -1 13t-2 11q-4 16 -4 24q0 7 6 11t13 4q11 -3 16.5 -24t5.5 -38q0 -26 -18.5 -43.5t-44.5 -17.5q-16 0 -36 13
q-22 -27 -51 -27q-34 0 -50.5 29t-16.5 65q0 7 5.5 11.5t12.5 4.5q5 0 9.5 -4t6.5 -12q2 -6 4 -20z" />
    <glyph glyph-name="uni0000.1.1" 
 />
    <glyph glyph-name="uni0000.1" 
 />
    <glyph glyph-name="wasla" horiz-adv-x="6" 
d="M-156.5 607.5q11.5 4.5 29.5 4.5l31 -1q19 46 35.5 74.5t43.5 47.5t69 19q54 0 74 -33.5t20 -90.5v-65h-289q-12 0 -18.5 7t-6.5 19q0 14 11.5 18.5zM79.5 683q-8.5 23 -36.5 23q-34 0 -54.5 -28t-30.5 -67h130v16q0 33 -8.5 56z" />
    <glyph glyph-name="wasle" horiz-adv-x="122" 
d="M11.5 65.5q10.5 10.5 27.5 10.5h60q17 0 27 -10.5t10 -27.5t-10 -27.5t-27 -10.5h-60q-17 0 -27.5 10.5t-10.5 27.5t10.5 27.5z" />
    <glyph glyph-name="Kashida.Narrow" horiz-adv-x="147" 
d="M159 78v-78h-174v78h174z" />
    </font>
</defs>
</svg>
